<svg xmlns="http://www.w3.org/2000/svg" viewBox="0 0 80 80">
  <path d="M6 30 L74 30 L72 50 C72 56 68 60 62 60 L52 60 C46 60 42 56 42 50 L42 46 L38 46 L38 50 C38 56 34 60 28 60 L18 60 C12 60 8 56 8 50 Z" fill="#2a2520" stroke="#000" stroke-width="2"/>
  <ellipse cx="22" cy="46" rx="14" ry="11" fill="#c8313a" opacity="0.85"/>
  <ellipse cx="58" cy="46" rx="14" ry="11" fill="#4a90e2" opacity="0.85"/>
  <line x1="6" y1="30" x2="74" y2="30" stroke="#000" stroke-width="2"/>
  <ellipse cx="18" cy="42" rx="3" ry="2" fill="#fff" opacity="0.5"/>
  <ellipse cx="54" cy="42" rx="3" ry="2" fill="#fff" opacity="0.5"/>
</svg>
