<svg xmlns="http://www.w3.org/2000/svg" viewBox="0 0 100 100"><path d="M50 86 q-4-14 -16-22 q4-2 8 0 q-2-8 6-14" fill="none" stroke="#888" stroke-width="1.5" stroke-linecap="round"/><path d="M50 86 q4-12 16-20" fill="none" stroke="#888" stroke-width="1.5" stroke-linecap="round"/><ellipse cx="28" cy="34" rx="14" ry="18" fill="#e85a6e" stroke="#a83a4d" stroke-width="2"/><polygon points="28,52 25,56 31,56" fill="#a83a4d"/><ellipse cx="22" cy="28" rx="4" ry="6" fill="#fff" opacity=".5"/><ellipse cx="50" cy="20" rx="14" ry="18" fill="#3a6dba" stroke="#1f4380" stroke-width="2"/><polygon points="50,38 47,42 53,42" fill="#1f4380"/><ellipse cx="44" cy="14" rx="4" ry="6" fill="#fff" opacity=".5"/><ellipse cx="72" cy="36" rx="14" ry="18" fill="#f0c040" stroke="#a07a10" stroke-width="2"/><polygon points="72,54 69,58 75,58" fill="#a07a10"/><ellipse cx="66" cy="30" rx="4" ry="6" fill="#fff" opacity=".5"/><circle cx="50" cy="86" r="3" fill="#5a3a1a"/></svg>