<svg xmlns="http://www.w3.org/2000/svg" viewBox="0 0 80 80">
  <rect x="44" y="4" width="6" height="26" rx="3" fill="#f2b8c6"/>
  <path d="M20 24 Q20 14 40 14 Q60 14 60 24" fill="#f2b8c6"/>
  <ellipse cx="40" cy="24" rx="20" ry="7" fill="#fdf0f4"/>
  <path d="M22 24 L26 67 Q26 72 31 72 L49 72 Q54 72 54 67 L58 24 Z" fill="white" stroke="#f2b8c6" stroke-width="2"/>
  <path d="M25 36 L27.5 67 Q27.5 70 31 70 L49 70 Q52.5 70 52.5 67 L55 36 Z" fill="#f5deb3" opacity="0.65"/>
  <circle cx="33" cy="61" r="5.5" fill="#7B4F2E" opacity="0.85"/>
  <circle cx="40" cy="64" r="5.5" fill="#6B3F22" opacity="0.85"/>
  <circle cx="47" cy="61" r="5.5" fill="#7B4F2E" opacity="0.85"/>
  <circle cx="36" cy="57" r="4.5" fill="#6B3F22" opacity="0.75"/>
  <circle cx="44" cy="57" r="4.5" fill="#7B4F2E" opacity="0.75"/>
</svg>
