<svg xmlns="http://www.w3.org/2000/svg" viewBox="0 0 100 100"><line x1="30" y1="14" x2="30" y2="32" stroke="#a07a10" stroke-width="2"/><line x1="50" y1="10" x2="50" y2="32" stroke="#a07a10" stroke-width="2"/><line x1="70" y1="14" x2="70" y2="32" stroke="#a07a10" stroke-width="2"/><path d="M30 14 q-2-4 0-6 q2 2 0 6 z" fill="#ffae42" stroke="#c46500" stroke-width="1"/><path d="M50 10 q-2-4 0-6 q2 2 0 6 z" fill="#ffae42" stroke="#c46500" stroke-width="1"/><path d="M70 14 q-2-4 0-6 q2 2 0 6 z" fill="#ffae42" stroke="#c46500" stroke-width="1"/><rect x="20" y="32" width="60" height="22" rx="3" fill="#fce4e8" stroke="#c46578" stroke-width="2"/><path d="M20 36 q10 6 20 0 q10 6 20 0 q10 6 20 0" fill="none" stroke="#e85a6e" stroke-width="3" stroke-linejoin="round"/><rect x="14" y="54" width="72" height="28" rx="3" fill="#f29bb0" stroke="#c46578" stroke-width="2"/><path d="M14 60 q12 8 24 0 q12 8 24 0 q12 8 24 0" fill="none" stroke="#fff" stroke-width="3" stroke-linejoin="round"/><circle cx="26" cy="70" r="2" fill="#fff"/><circle cx="50" cy="74" r="2" fill="#fff"/><circle cx="74" cy="70" r="2" fill="#fff"/></svg>