<svg xmlns="http://www.w3.org/2000/svg" viewBox="0 0 80 80">
  <polygon points="18,30 26,10 32,30" fill="#f5a857"/>
  <polygon points="48,30 54,10 62,30" fill="#f5a857"/>
  <polygon points="21,28 26,15 30,28" fill="#ffcfa0"/>
  <polygon points="50,28 54,15 58,28" fill="#ffcfa0"/>
  <ellipse cx="40" cy="50" rx="26" ry="24" fill="#f5a857"/>
  <path d="M14 45 Q14 38 18 36" stroke="#e08a3a" stroke-width="2" fill="none"/>
  <path d="M66 45 Q66 38 62 36" stroke="#e08a3a" stroke-width="2" fill="none"/>
  <path d="M22 55 Q22 52 26 52" stroke="#e08a3a" stroke-width="2" fill="none"/>
  <path d="M58 55 Q58 52 54 52" stroke="#e08a3a" stroke-width="2" fill="none"/>
  <ellipse cx="31" cy="45" rx="3.5" ry="5" fill="#2d1a1a"/>
  <ellipse cx="49" cy="45" rx="3.5" ry="5" fill="#2d1a1a"/>
  <circle cx="32" cy="43.5" r="1.3" fill="white"/>
  <circle cx="50" cy="43.5" r="1.3" fill="white"/>
  <polygon points="40,52 37,55 43,55" fill="#d65a5a"/>
  <path d="M36 58 Q40 63 44 58" stroke="#a04030" stroke-width="1.8" fill="none" stroke-linecap="round"/>
  <line x1="16" y1="53" x2="32" y2="55" stroke="#7a4020" stroke-width="1" opacity="0.6"/>
  <line x1="16" y1="57" x2="32" y2="57" stroke="#7a4020" stroke-width="1" opacity="0.6"/>
  <line x1="48" y1="55" x2="64" y2="53" stroke="#7a4020" stroke-width="1" opacity="0.6"/>
  <line x1="48" y1="57" x2="64" y2="57" stroke="#7a4020" stroke-width="1" opacity="0.6"/>
  <circle cx="25" cy="52" r="5" fill="#ffb070" opacity="0.5"/>
  <circle cx="55" cy="52" r="5" fill="#ffb070" opacity="0.5"/>
</svg>
