<svg xmlns="http://www.w3.org/2000/svg" viewBox="0 0 80 80">
  <polygon points="18,30 26,10 32,30" fill="#fafafa" stroke="#d8d8e0" stroke-width="0.8"/>
  <polygon points="48,30 54,10 62,30" fill="#fafafa" stroke="#d8d8e0" stroke-width="0.8"/>
  <polygon points="21,28 26,16 30,28" fill="#ffdce6"/>
  <polygon points="50,28 54,16 58,28" fill="#ffdce6"/>
  <ellipse cx="40" cy="50" rx="26" ry="24" fill="#fafafa" stroke="#d8d8e0" stroke-width="0.8"/>
  <ellipse cx="31" cy="44" rx="3.5" ry="5" fill="#7ec4d4"/>
  <ellipse cx="49" cy="44" rx="3.5" ry="5" fill="#7ec4d4"/>
  <ellipse cx="31" cy="44" rx="1.2" ry="4.2" fill="#1a3a4a"/>
  <ellipse cx="49" cy="44" rx="1.2" ry="4.2" fill="#1a3a4a"/>
  <circle cx="32" cy="42.5" r="1.2" fill="white"/>
  <circle cx="50" cy="42.5" r="1.2" fill="white"/>
  <polygon points="40,52 37,55 43,55" fill="#ffa8b8"/>
  <path d="M36 58 Q40 63 44 58" stroke="#d68090" stroke-width="1.8" fill="none" stroke-linecap="round"/>
  <line x1="16" y1="53" x2="32" y2="55" stroke="#b8b8c0" stroke-width="1" opacity="0.7"/>
  <line x1="16" y1="57" x2="32" y2="57" stroke="#b8b8c0" stroke-width="1" opacity="0.7"/>
  <line x1="48" y1="55" x2="64" y2="53" stroke="#b8b8c0" stroke-width="1" opacity="0.7"/>
  <line x1="48" y1="57" x2="64" y2="57" stroke="#b8b8c0" stroke-width="1" opacity="0.7"/>
  <circle cx="25" cy="52" r="5" fill="#ffdce6" opacity="0.6"/>
  <circle cx="55" cy="52" r="5" fill="#ffdce6" opacity="0.6"/>
</svg>
