<svg xmlns="http://www.w3.org/2000/svg" viewBox="0 0 80 80">
  <path d="M14 60 Q14 36 28 30 Q40 26 52 30 Q66 36 66 60 Q66 68 60 70 L20 70 Q14 68 14 60 Z" fill="#e8b8a0"/>
  <polygon points="22,32 30,18 36,32" fill="#e8b8a0"/>
  <polygon points="44,32 50,18 58,32" fill="#e8b8a0"/>
  <polygon points="25,30 30,22 33,30" fill="#ffdcc8"/>
  <polygon points="47,30 50,22 55,30" fill="#ffdcc8"/>
  <ellipse cx="32" cy="46" rx="3" ry="4" fill="#2d1a1a"/>
  <ellipse cx="48" cy="46" rx="3" ry="4" fill="#2d1a1a"/>
  <circle cx="33" cy="45" r="1.1" fill="white"/>
  <circle cx="49" cy="45" r="1.1" fill="white"/>
  <polygon points="40,52 37.5,55 42.5,55" fill="#d65a7a"/>
  <path d="M37 57 Q40 60 43 57" stroke="#a04060" stroke-width="1.6" fill="none" stroke-linecap="round"/>
  <line x1="18" y1="52" x2="30" y2="54" stroke="#8a5a40" stroke-width="0.9" opacity="0.6"/>
  <line x1="18" y1="56" x2="30" y2="56" stroke="#8a5a40" stroke-width="0.9" opacity="0.6"/>
  <line x1="50" y1="54" x2="62" y2="52" stroke="#8a5a40" stroke-width="0.9" opacity="0.6"/>
  <line x1="50" y1="56" x2="62" y2="56" stroke="#8a5a40" stroke-width="0.9" opacity="0.6"/>
  <circle cx="26" cy="54" r="4.5" fill="#ffc8b0" opacity="0.5"/>
  <circle cx="54" cy="54" r="4.5" fill="#ffc8b0" opacity="0.5"/>
  <path d="M40 70 Q43 72 46 70" stroke="#c8967a" stroke-width="1" fill="none" opacity="0.6"/>
  <path d="M32 70 Q35 72 38 70" stroke="#c8967a" stroke-width="1" fill="none" opacity="0.6"/>
</svg>
