<svg xmlns="http://www.w3.org/2000/svg" viewBox="0 0 80 80">
  <polygon points="18,30 26,10 32,30" fill="#fff5e8"/>
  <polygon points="48,30 54,10 62,30" fill="#3a3a40"/>
  <polygon points="21,28 26,16 30,28" fill="#ffc8a0"/>
  <polygon points="50,28 54,16 58,28" fill="#5a5a60"/>
  <ellipse cx="40" cy="50" rx="26" ry="24" fill="#fff5e8"/>
  <path d="M40 26 Q52 30 60 50 Q60 70 44 72 Q44 50 40 26 Z" fill="#3a3a40"/>
  <path d="M20 50 Q22 38 32 32 Q38 36 36 50 Q34 64 22 64 Q16 60 20 50 Z" fill="#f5a857"/>
  <ellipse cx="31" cy="45" rx="3.5" ry="5" fill="#2d1a1a"/>
  <ellipse cx="49" cy="45" rx="3.5" ry="5" fill="#ffd84a"/>
  <ellipse cx="49" cy="45" rx="1.3" ry="4.2" fill="#1a1a1a"/>
  <circle cx="32" cy="43.5" r="1.2" fill="white"/>
  <circle cx="50" cy="43.5" r="1.2" fill="white"/>
  <polygon points="40,52 37,55 43,55" fill="#e07090"/>
  <path d="M36 58 Q40 63 44 58" stroke="#a05060" stroke-width="1.8" fill="none" stroke-linecap="round"/>
  <line x1="16" y1="53" x2="32" y2="55" stroke="#8a6a40" stroke-width="1" opacity="0.6"/>
  <line x1="16" y1="57" x2="32" y2="57" stroke="#8a6a40" stroke-width="1" opacity="0.6"/>
  <line x1="48" y1="55" x2="64" y2="53" stroke="#5a5a65" stroke-width="1" opacity="0.7"/>
  <line x1="48" y1="57" x2="64" y2="57" stroke="#5a5a65" stroke-width="1" opacity="0.7"/>
</svg>
