<svg xmlns="http://www.w3.org/2000/svg" viewBox="0 0 80 80">
  <polygon points="18,30 26,10 32,30" fill="#2a2a35"/>
  <polygon points="48,30 54,10 62,30" fill="#2a2a35"/>
  <polygon points="21,28 26,16 30,28" fill="#4a4a55"/>
  <polygon points="50,28 54,16 58,28" fill="#4a4a55"/>
  <ellipse cx="40" cy="50" rx="26" ry="24" fill="#2a2a35"/>
  <ellipse cx="31" cy="44" rx="4" ry="5.5" fill="#ffd84a"/>
  <ellipse cx="49" cy="44" rx="4" ry="5.5" fill="#ffd84a"/>
  <ellipse cx="31" cy="44" rx="1.4" ry="4.5" fill="#1a1a20"/>
  <ellipse cx="49" cy="44" rx="1.4" ry="4.5" fill="#1a1a20"/>
  <circle cx="32.5" cy="42" r="1.2" fill="white"/>
  <circle cx="50.5" cy="42" r="1.2" fill="white"/>
  <polygon points="40,52 37,55 43,55" fill="#e8a0b0"/>
  <path d="M36 58 Q40 63 44 58" stroke="#e8a0b0" stroke-width="1.8" fill="none" stroke-linecap="round"/>
  <line x1="16" y1="53" x2="32" y2="55" stroke="#5a5a65" stroke-width="1" opacity="0.7"/>
  <line x1="16" y1="57" x2="32" y2="57" stroke="#5a5a65" stroke-width="1" opacity="0.7"/>
  <line x1="48" y1="55" x2="64" y2="53" stroke="#5a5a65" stroke-width="1" opacity="0.7"/>
  <line x1="48" y1="57" x2="64" y2="57" stroke="#5a5a65" stroke-width="1" opacity="0.7"/>
</svg>
