<svg xmlns="http://www.w3.org/2000/svg" viewBox="0 0 80 80">
  <polygon points="18,30 26,10 32,30" fill="#a8b0bc"/>
  <polygon points="48,30 54,10 62,30" fill="#a8b0bc"/>
  <polygon points="21,28 26,16 30,28" fill="#ffd0dc"/>
  <polygon points="50,28 54,16 58,28" fill="#ffd0dc"/>
  <ellipse cx="40" cy="50" rx="26" ry="24" fill="#b8c0cc"/>
  <path d="M14 48 Q18 44 22 46" stroke="#7a8088" stroke-width="1.2" fill="none" opacity="0.6"/>
  <path d="M66 48 Q62 44 58 46" stroke="#7a8088" stroke-width="1.2" fill="none" opacity="0.6"/>
  <path d="M14 54 Q18 52 22 54" stroke="#7a8088" stroke-width="1.2" fill="none" opacity="0.6"/>
  <path d="M66 54 Q62 52 58 54" stroke="#7a8088" stroke-width="1.2" fill="none" opacity="0.6"/>
  <ellipse cx="31" cy="45" rx="3.5" ry="5" fill="#5fa850"/>
  <ellipse cx="49" cy="45" rx="3.5" ry="5" fill="#5fa850"/>
  <ellipse cx="31" cy="45" rx="1.3" ry="4.2" fill="#1a2a18"/>
  <ellipse cx="49" cy="45" rx="1.3" ry="4.2" fill="#1a2a18"/>
  <circle cx="32" cy="43.5" r="1.2" fill="white"/>
  <circle cx="50" cy="43.5" r="1.2" fill="white"/>
  <polygon points="40,52 37,55 43,55" fill="#e090a0"/>
  <path d="M36 58 Q40 63 44 58" stroke="#a05060" stroke-width="1.8" fill="none" stroke-linecap="round"/>
  <line x1="16" y1="53" x2="32" y2="55" stroke="#5a606a" stroke-width="1" opacity="0.6"/>
  <line x1="16" y1="57" x2="32" y2="57" stroke="#5a606a" stroke-width="1" opacity="0.6"/>
  <line x1="48" y1="55" x2="64" y2="53" stroke="#5a606a" stroke-width="1" opacity="0.6"/>
  <line x1="48" y1="57" x2="64" y2="57" stroke="#5a606a" stroke-width="1" opacity="0.6"/>
</svg>
