<svg xmlns="http://www.w3.org/2000/svg" viewBox="0 0 100 100"><path d="M38 78 C18 60 12 48 12 38 c0-8 6-14 14-14 6 0 10 3 14 9 4-6 8-9 14-9 8 0 14 6 14 14 0 10-6 22-26 40z" fill="#f29bb0" stroke="#c46578" stroke-width="2.5" stroke-linejoin="round"/><path d="M62 86 C42 68 36 56 36 46 c0-8 6-14 14-14 6 0 10 3 14 9 4-6 8-9 14-9 8 0 14 6 14 14 0 10-6 22-30 40z" fill="#e85a6e" stroke="#a83a4d" stroke-width="2.5" stroke-linejoin="round"/><circle cx="26" cy="38" r="3" fill="#fff" opacity=".7"/><circle cx="50" cy="46" r="3" fill="#fff" opacity=".7"/></svg>