<svg xmlns="http://www.w3.org/2000/svg" viewBox="0 0 80 80">
  <path d="M14 50 Q20 28 40 24 Q60 28 66 50 Q60 56 50 50 Q44 56 36 50 Q26 56 14 50 Z" fill="#e8b566"/>
  <path d="M22 48 Q24 38 30 36 M34 46 Q35 32 40 30 M46 46 Q45 32 50 36 M58 48 Q56 38 50 36" stroke="#a06b3a" stroke-width="1.6" fill="none" stroke-linecap="round"/>
  <ellipse cx="40" cy="42" rx="22" ry="10" fill="none" stroke="#a06b3a" stroke-width="1.2" opacity="0.5"/>
  <circle cx="35" cy="44" r="2" fill="#2d1a0e"/>
  <circle cx="45" cy="44" r="2" fill="#2d1a0e"/>
  <circle cx="35.6" cy="43.3" r="0.7" fill="white"/>
  <circle cx="45.6" cy="43.3" r="0.7" fill="white"/>
  <path d="M37 48 Q40 50 43 48" stroke="#5c2d1a" stroke-width="1.4" fill="none" stroke-linecap="round"/>
  <circle cx="28" cy="46" r="2.2" fill="#ffb5c6" opacity="0.7"/>
  <circle cx="52" cy="46" r="2.2" fill="#ffb5c6" opacity="0.7"/>
</svg>
