<svg xmlns="http://www.w3.org/2000/svg" viewBox="0 0 80 80">
  <path d="M18 44 L22 70 C22 72 23 74 25 74 L55 74 C57 74 58 72 58 70 L62 44 Z" fill="#d6b894" stroke="#8b6f47" stroke-width="2.5"/>
  <line x1="26" y1="48" x2="28" y2="70" stroke="#8b6f47" stroke-width="1.5" opacity="0.5"/>
  <line x1="34" y1="48" x2="34" y2="70" stroke="#8b6f47" stroke-width="1.5" opacity="0.5"/>
  <line x1="42" y1="48" x2="42" y2="70" stroke="#8b6f47" stroke-width="1.5" opacity="0.5"/>
  <line x1="50" y1="48" x2="50" y2="70" stroke="#8b6f47" stroke-width="1.5" opacity="0.5"/>
  <line x1="56" y1="48" x2="54" y2="70" stroke="#8b6f47" stroke-width="1.5" opacity="0.5"/>
  <path d="M14 44 C14 30 22 22 40 22 C58 22 66 30 66 44 Z" fill="#f2b8c6" stroke="#c06070" stroke-width="2.5"/>
  <ellipse cx="40" cy="22" rx="10" ry="5" fill="#f2b8c6" stroke="#c06070" stroke-width="2"/>
  <circle cx="40" cy="14" r="3" fill="#c8313a" stroke="#900" stroke-width="1.5"/>
  <circle cx="26" cy="32" r="1.5" fill="#7ecec4"/>
  <circle cx="50" cy="36" r="1.5" fill="#f4d670"/>
  <circle cx="36" cy="38" r="1.5" fill="#fff8d0"/>
  <circle cx="54" cy="28" r="1.5" fill="#a47864"/>
</svg>
