<svg xmlns="http://www.w3.org/2000/svg" viewBox="0 0 80 80">
  <ellipse cx="18" cy="32" rx="6" ry="14" fill="#fafafa" stroke="#d8d8e0" stroke-width="0.6"/>
  <ellipse cx="62" cy="32" rx="6" ry="14" fill="#fafafa" stroke="#d8d8e0" stroke-width="0.6"/>
  <circle cx="18" cy="28" r="2" fill="#2a2a2a"/>
  <circle cx="62" cy="36" r="2" fill="#2a2a2a"/>
  <ellipse cx="40" cy="50" rx="26" ry="24" fill="#fafafa" stroke="#d8d8e0" stroke-width="0.6"/>
  <circle cx="20" cy="50" r="3" fill="#2a2a2a"/>
  <circle cx="58" cy="55" r="2.5" fill="#2a2a2a"/>
  <circle cx="40" cy="32" r="2.2" fill="#2a2a2a"/>
  <circle cx="50" cy="64" r="2.5" fill="#2a2a2a"/>
  <circle cx="28" cy="64" r="2.2" fill="#2a2a2a"/>
  <circle cx="14" cy="42" r="1.8" fill="#2a2a2a"/>
  <ellipse cx="40" cy="44" rx="14" ry="10" fill="#fafafa"/>
  <ellipse cx="31" cy="44" rx="3" ry="4.2" fill="#2d1a1a"/>
  <ellipse cx="49" cy="44" rx="3" ry="4.2" fill="#2d1a1a"/>
  <circle cx="32" cy="42.5" r="1.2" fill="white"/>
  <circle cx="50" cy="42.5" r="1.2" fill="white"/>
  <ellipse cx="40" cy="53" rx="3" ry="2.2" fill="#2d1a1a"/>
  <path d="M36 58 Q40 64 44 58" stroke="#2d1a1a" stroke-width="1.6" fill="none" stroke-linecap="round"/>
  <ellipse cx="40" cy="60" rx="2.5" ry="1.5" fill="#ff8090" opacity="0.7"/>
</svg>
