<svg xmlns="http://www.w3.org/2000/svg" viewBox="0 0 80 80">
  <path d="M18 28 L24 14 L30 30 Z" fill="#e89858"/>
  <path d="M50 30 L56 14 L62 28 Z" fill="#e89858"/>
  <path d="M21 27 L24 19 L28 28 Z" fill="#fff5e8"/>
  <path d="M52 28 L56 19 L59 27 Z" fill="#fff5e8"/>
  <ellipse cx="40" cy="50" rx="26" ry="24" fill="#e89858"/>
  <path d="M26 56 Q40 70 54 56 Q54 64 40 70 Q26 64 26 56 Z" fill="#fff5e8"/>
  <ellipse cx="40" cy="42" rx="14" ry="10" fill="#fff5e8"/>
  <ellipse cx="31" cy="42" rx="3" ry="4" fill="#2d1a1a"/>
  <ellipse cx="49" cy="42" rx="3" ry="4" fill="#2d1a1a"/>
  <circle cx="32" cy="40.5" r="1.2" fill="white"/>
  <circle cx="50" cy="40.5" r="1.2" fill="white"/>
  <ellipse cx="40" cy="52" rx="3" ry="2.2" fill="#2d1a1a"/>
  <path d="M40 54 L40 58" stroke="#2d1a1a" stroke-width="1.5" stroke-linecap="round"/>
  <path d="M36 60 Q40 64 44 60" stroke="#2d1a1a" stroke-width="1.6" fill="none" stroke-linecap="round"/>
  <circle cx="22" cy="50" r="4" fill="#ffb878" opacity="0.55"/>
  <circle cx="58" cy="50" r="4" fill="#ffb878" opacity="0.55"/>
</svg>
