<svg xmlns="http://www.w3.org/2000/svg" viewBox="0 0 80 80">
  <ellipse cx="20" cy="28" rx="9" ry="14" fill="#b8865a" transform="rotate(-20 20 28)"/>
  <ellipse cx="60" cy="28" rx="9" ry="14" fill="#b8865a" transform="rotate(20 60 28)"/>
  <ellipse cx="20" cy="30" rx="5" ry="9" fill="#ffd8b0" transform="rotate(-20 20 30)"/>
  <ellipse cx="60" cy="30" rx="5" ry="9" fill="#ffd8b0" transform="rotate(20 60 30)"/>
  <ellipse cx="40" cy="50" rx="26" ry="24" fill="#d8a878"/>
  <ellipse cx="40" cy="44" rx="14" ry="10" fill="#ffe5c8"/>
  <circle cx="56" cy="38" r="6" fill="#5a3a20" opacity="0.6"/>
  <ellipse cx="31" cy="44" rx="3.5" ry="4.5" fill="#2d1a1a"/>
  <ellipse cx="49" cy="44" rx="3.5" ry="4.5" fill="#2d1a1a"/>
  <circle cx="32" cy="42.5" r="1.3" fill="white"/>
  <circle cx="50" cy="42.5" r="1.3" fill="white"/>
  <ellipse cx="40" cy="53" rx="3" ry="2.2" fill="#2d1a1a"/>
  <path d="M36 59 Q40 64 44 59" stroke="#2d1a1a" stroke-width="1.6" fill="none" stroke-linecap="round"/>
  <ellipse cx="40" cy="60.5" rx="2.5" ry="1.5" fill="#ff8090" opacity="0.7"/>
  <circle cx="22" cy="52" r="4.5" fill="#ffb878" opacity="0.55"/>
  <circle cx="58" cy="52" r="4.5" fill="#ffb878" opacity="0.55"/>
</svg>
