<svg xmlns="http://www.w3.org/2000/svg" viewBox="0 0 80 80">
  <circle cx="18" cy="44" r="9" fill="#fff5e8"/>
  <circle cx="62" cy="44" r="9" fill="#fff5e8"/>
  <circle cx="20" cy="22" r="10" fill="#fff5e8"/>
  <circle cx="60" cy="22" r="10" fill="#fff5e8"/>
  <circle cx="40" cy="16" r="9" fill="#fff5e8"/>
  <ellipse cx="40" cy="52" rx="26" ry="22" fill="#fff5e8"/>
  <circle cx="22" cy="58" r="7" fill="#fff5e8"/>
  <circle cx="58" cy="58" r="7" fill="#fff5e8"/>
  <circle cx="40" cy="68" r="8" fill="#fff5e8"/>
  <ellipse cx="40" cy="48" rx="16" ry="14" fill="#fff5e8"/>
  <ellipse cx="31" cy="46" rx="3" ry="4.2" fill="#2d1a1a"/>
  <ellipse cx="49" cy="46" rx="3" ry="4.2" fill="#2d1a1a"/>
  <circle cx="32" cy="44.5" r="1.2" fill="white"/>
  <circle cx="50" cy="44.5" r="1.2" fill="white"/>
  <ellipse cx="40" cy="54" rx="3" ry="2.2" fill="#2d1a1a"/>
  <path d="M36 59 Q40 64 44 59" stroke="#2d1a1a" stroke-width="1.6" fill="none" stroke-linecap="round"/>
  <path d="M40 30 Q42 33 40 36 Q38 33 40 30 Z" fill="#ff90a8"/>
</svg>
