<svg xmlns="http://www.w3.org/2000/svg" viewBox="0 0 80 80">
  <path d="M14 32 Q10 44 18 52 L26 44 Z" fill="#3a2a20"/>
  <path d="M66 32 Q70 44 62 52 L54 44 Z" fill="#3a2a20"/>
  <ellipse cx="40" cy="50" rx="26" ry="24" fill="#e8c89a"/>
  <path d="M28 32 Q40 22 52 32 Q56 40 52 48 Q40 56 28 48 Q24 40 28 32 Z" fill="#3a2a20" opacity="0.85"/>
  <ellipse cx="40" cy="56" rx="14" ry="10" fill="#ffe5c8"/>
  <ellipse cx="32" cy="46" rx="4" ry="5" fill="#2d1a1a"/>
  <ellipse cx="48" cy="46" rx="4" ry="5" fill="#2d1a1a"/>
  <circle cx="33" cy="44.5" r="1.5" fill="white"/>
  <circle cx="49" cy="44.5" r="1.5" fill="white"/>
  <path d="M28 53 Q32 56 30 58" stroke="#2d1a1a" stroke-width="1.4" fill="none" opacity="0.6"/>
  <path d="M52 53 Q48 56 50 58" stroke="#2d1a1a" stroke-width="1.4" fill="none" opacity="0.6"/>
  <ellipse cx="40" cy="56" rx="3.5" ry="2.5" fill="#2d1a1a"/>
  <path d="M34 62 Q40 67 46 62" stroke="#2d1a1a" stroke-width="1.8" fill="none" stroke-linecap="round"/>
  <ellipse cx="40" cy="64" rx="2.5" ry="1.5" fill="#ff8090" opacity="0.7"/>
</svg>
