<svg xmlns="http://www.w3.org/2000/svg" viewBox="0 0 80 80">
  <path d="M16 36 Q12 48 18 54 L26 46 Z" fill="#d8b890"/>
  <path d="M64 36 Q68 48 62 54 L54 46 Z" fill="#d8b890"/>
  <path d="M18 38 Q16 46 20 50 L24 44 Z" fill="#ffe5c8"/>
  <path d="M62 38 Q64 46 60 50 L56 44 Z" fill="#ffe5c8"/>
  <ellipse cx="40" cy="52" rx="28" ry="22" fill="#e8c89a"/>
  <path d="M28 36 Q40 28 52 36 Q56 46 52 54 L28 54 Q24 46 28 36 Z" fill="#d8b890" opacity="0.5"/>
  <ellipse cx="40" cy="58" rx="16" ry="10" fill="#fff5e8"/>
  <ellipse cx="31" cy="46" rx="3.5" ry="4.5" fill="#2d1a1a"/>
  <ellipse cx="49" cy="46" rx="3.5" ry="4.5" fill="#2d1a1a"/>
  <circle cx="32" cy="44.5" r="1.3" fill="white"/>
  <circle cx="50" cy="44.5" r="1.3" fill="white"/>
  <path d="M26 52 Q30 54 30 56" stroke="#2d1a1a" stroke-width="1.4" fill="none" opacity="0.6"/>
  <path d="M54 52 Q50 54 50 56" stroke="#2d1a1a" stroke-width="1.4" fill="none" opacity="0.6"/>
  <ellipse cx="40" cy="55" rx="4" ry="2.8" fill="#2d1a1a"/>
  <path d="M34 62 Q40 67 46 62" stroke="#2d1a1a" stroke-width="1.8" fill="none" stroke-linecap="round"/>
  <path d="M36 65 L36 70 M44 65 L44 70" stroke="#fff" stroke-width="1.5" stroke-linecap="round"/>
</svg>
