<svg xmlns="http://www.w3.org/2000/svg" viewBox="0 0 100 100"><path d="M50 82 C18 60 12 44 12 32 c0-10 8-18 18-18 8 0 14 4 20 12 6-8 12-12 20-12 10 0 18 8 18 18 0 12-6 28-38 50z" fill="#e85a6e" stroke="#a83a4d" stroke-width="2.5" stroke-linejoin="round"/><line x1="14" y1="22" x2="86" y2="78" stroke="#5c3a1f" stroke-width="3.5" stroke-linecap="round"/><polygon points="86,78 78,76 80,68" fill="#5c3a1f"/><path d="M14 22 l-6-2 l4 6 z M14 22 l-2-6 l6 4 z" fill="#fff" stroke="#5c3a1f" stroke-width="1.5" stroke-linejoin="round"/><circle cx="34" cy="32" r="3" fill="#fff" opacity=".7"/></svg>