<svg xmlns="http://www.w3.org/2000/svg" viewBox="0 0 80 80">
  <path d="M40 68 C40 68 10 48 10 30 C10 18 18 12 28 12 C34 12 38 16 40 20 C42 16 46 12 52 12 C62 12 70 18 70 30 C70 48 40 68 40 68 Z" fill="#f2b8c6"/>
  <circle cx="32" cy="37" r="3.5" fill="#2d1a2e"/>
  <circle cx="48" cy="37" r="3.5" fill="#2d1a2e"/>
  <circle cx="33.5" cy="35.5" r="1.2" fill="white"/>
  <circle cx="49.5" cy="35.5" r="1.2" fill="white"/>
  <path d="M34 46 Q40 52 46 46" stroke="#c06080" stroke-width="2" fill="none" stroke-linecap="round"/>
  <circle cx="26" cy="43" r="5.5" fill="#FF7A9C" opacity="0.38"/>
  <circle cx="54" cy="43" r="5.5" fill="#FF7A9C" opacity="0.38"/>
</svg>
