<svg xmlns="http://www.w3.org/2000/svg" viewBox="0 0 80 80">
  <path d="M14 40 C14 30 18 26 26 26 L54 26 C62 26 66 30 66 40 C66 50 62 54 54 54 L26 54 C18 54 14 50 14 40 Z" fill="#d6b894" stroke="#8b6f47" stroke-width="2.5"/>
  <rect x="18" y="34" width="44" height="12" rx="6" fill="#c8313a" stroke="#900" stroke-width="2"/>
  <path d="M16 32 Q20 28 28 30" stroke="#f4d670" stroke-width="2.5" fill="none" stroke-linecap="round"/>
  <path d="M30 30 Q34 28 42 32" stroke="#f4d670" stroke-width="2.5" fill="none" stroke-linecap="round"/>
  <path d="M44 30 Q48 28 56 32" stroke="#f4d670" stroke-width="2.5" fill="none" stroke-linecap="round"/>
  <path d="M58 30 Q62 28 66 32" stroke="#f4d670" stroke-width="2.5" fill="none" stroke-linecap="round"/>
  <path d="M16 50 Q22 52 28 50" stroke="#a48030" stroke-width="2.5" fill="none" stroke-linecap="round"/>
  <path d="M30 50 Q36 52 42 50" stroke="#a48030" stroke-width="2.5" fill="none" stroke-linecap="round"/>
  <path d="M44 50 Q50 52 56 50" stroke="#a48030" stroke-width="2.5" fill="none" stroke-linecap="round"/>
</svg>
