<svg xmlns="http://www.w3.org/2000/svg" viewBox="0 0 80 80">
  <path d="M22 36 C22 18 30 8 40 8 C50 8 58 18 58 36 Z" fill="#f2b8c6" stroke="#c06070" stroke-width="2.5"/>
  <path d="M26 28 C26 20 30 12 40 12" fill="none" stroke="#fff" stroke-width="2" opacity="0.5"/>
  <circle cx="32" cy="20" r="2" fill="#c8313a"/>
  <circle cx="44" cy="14" r="2" fill="#7ecec4"/>
  <circle cx="50" cy="26" r="2" fill="#f4d670"/>
  <circle cx="38" cy="28" r="1.5" fill="#a47864"/>
  <path d="M22 36 L58 36 L48 72 C48 73 47 74 46 74 L34 74 C33 74 32 73 32 72 Z" fill="#d6b894" stroke="#8b6f47" stroke-width="2.5"/>
  <line x1="28" y1="42" x2="32" y2="68" stroke="#8b6f47" stroke-width="1" opacity="0.4"/>
  <line x1="36" y1="42" x2="38" y2="68" stroke="#8b6f47" stroke-width="1" opacity="0.4"/>
  <line x1="44" y1="42" x2="42" y2="68" stroke="#8b6f47" stroke-width="1" opacity="0.4"/>
  <line x1="52" y1="42" x2="48" y2="68" stroke="#8b6f47" stroke-width="1" opacity="0.4"/>
  <line x1="22" y1="50" x2="58" y2="50" stroke="#8b6f47" stroke-width="1" opacity="0.4"/>
</svg>
