<svg xmlns="http://www.w3.org/2000/svg" viewBox="0 0 80 80">
  <circle cx="40" cy="42" r="28" fill="#fff" stroke="#a48060" stroke-width="2.5"/>
  <circle cx="40" cy="42" r="22" fill="#d6b894"/>
  <path d="M40 52 C40 52 30 44 30 38 C30 34 33 32 36 32 C38 32 40 34 40 34 C40 34 42 32 44 32 C47 32 50 34 50 38 C50 44 40 52 40 52 Z" fill="#fff"/>
  <ellipse cx="40" cy="42" rx="22" ry="6" fill="none" stroke="#a48060" stroke-width="1" opacity="0.4"/>
  <path d="M64 32 L72 24" stroke="#a48060" stroke-width="3" stroke-linecap="round" fill="none"/>
  <path d="M68 28 C72 24 76 28 72 32" stroke="#a48060" stroke-width="3" stroke-linecap="round" fill="none"/>
</svg>
