<svg xmlns="http://www.w3.org/2000/svg" viewBox="0 0 80 80">
  <ellipse cx="40" cy="32" rx="28" ry="14" fill="#ffb5c6"/>
  <rect x="12" y="36" width="56" height="10" fill="#fff0e0"/>
  <ellipse cx="40" cy="48" rx="28" ry="14" fill="#ffb5c6"/>
  <path d="M14 32 Q14 28 18 28 M22 28 Q24 26 28 28 M32 26 Q36 24 40 26 M44 26 Q48 24 52 26 M56 28 Q60 26 64 28" stroke="#e89bb0" stroke-width="1.4" fill="none" stroke-linecap="round" opacity="0.7"/>
  <path d="M14 48 Q14 52 18 52 M22 52 Q24 54 28 52 M32 54 Q36 56 40 54 M44 54 Q48 56 52 54 M56 52 Q60 54 64 52" stroke="#e89bb0" stroke-width="1.4" fill="none" stroke-linecap="round" opacity="0.7"/>
  <circle cx="34" cy="40" r="2" fill="#2d1a0e"/>
  <circle cx="46" cy="40" r="2" fill="#2d1a0e"/>
  <circle cx="34.6" cy="39.3" r="0.7" fill="white"/>
  <circle cx="46.6" cy="39.3" r="0.7" fill="white"/>
  <path d="M37 44 Q40 46 43 44" stroke="#a02038" stroke-width="1.4" fill="none" stroke-linecap="round"/>
  <circle cx="26" cy="42" r="2.5" fill="#ff8aa6" opacity="0.7"/>
  <circle cx="54" cy="42" r="2.5" fill="#ff8aa6" opacity="0.7"/>
</svg>
