<svg xmlns="http://www.w3.org/2000/svg" viewBox="0 0 100 100"><path d="M14 86 L36 64 L46 74 z" fill="#e85a6e" stroke="#a83a4d" stroke-width="2.5" stroke-linejoin="round"/><path d="M22 78 L30 70" stroke="#fff" stroke-width="2" opacity=".6"/><circle cx="58" cy="46" r="3" fill="#e85a6e"/><circle cx="70" cy="32" r="3" fill="#3a6dba"/><circle cx="82" cy="44" r="3" fill="#f0c040"/><circle cx="74" cy="58" r="3" fill="#5aa05a"/><circle cx="64" cy="22" r="3" fill="#c87bd8"/><circle cx="86" cy="22" r="3" fill="#e85a6e"/><circle cx="52" cy="32" r="2.5" fill="#f0c040"/><circle cx="86" cy="64" r="2.5" fill="#3a6dba"/><path d="M40 70 L56 50" stroke="#f0c040" stroke-width="2.5" stroke-linecap="round"/><path d="M42 60 L60 38" stroke="#e85a6e" stroke-width="2.5" stroke-linecap="round"/><path d="M50 70 L70 48" stroke="#3a6dba" stroke-width="2.5" stroke-linecap="round"/><path d="M50 78 L80 60" stroke="#5aa05a" stroke-width="2.5" stroke-linecap="round"/><polygon points="60,18 64,16 62,22" fill="#fff8d8" stroke="#a07a10" stroke-width="1"/><polygon points="78,14 82,18 76,18" fill="#fff8d8" stroke="#a07a10" stroke-width="1"/></svg>