<svg xmlns="http://www.w3.org/2000/svg" viewBox="0 0 100 100"><path d="M50 8 L78 78 L22 78 z" fill="#f29bb0" stroke="#c46578" stroke-width="2.5" stroke-linejoin="round"/><path d="M50 8 L60 30 L40 30 z" fill="#e85a6e"/><path d="M30 38 L70 38" stroke="#fff" stroke-width="3" stroke-dasharray="4 4"/><path d="M26 56 L74 56" stroke="#3a6dba" stroke-width="3" stroke-dasharray="4 4"/><circle cx="34" cy="48" r="3" fill="#f0c040"/><circle cx="50" cy="48" r="3" fill="#fff"/><circle cx="66" cy="48" r="3" fill="#3a6dba"/><circle cx="42" cy="66" r="3" fill="#e85a6e"/><circle cx="58" cy="66" r="3" fill="#f0c040"/><ellipse cx="22" cy="78" rx="56" ry="4" fill="#c46578"/><circle cx="50" cy="6" r="6" fill="#f0c040" stroke="#a07a10" stroke-width="1.5"/><path d="M50 0 L52 6 L46 6 z M50 12 L52 6 L54 6 z M44 6 L50 4 L50 8 z M56 6 L50 4 L50 8 z" fill="#f0c040" stroke="#a07a10" stroke-width="1"/></svg>