<svg xmlns="http://www.w3.org/2000/svg" viewBox="0 0 80 80">
  <circle cx="28" cy="20" r="7" fill="#fff8e0"/>
  <circle cx="42" cy="14" r="6" fill="#fff8e0"/>
  <circle cx="54" cy="20" r="7" fill="#fff8e0"/>
  <circle cx="36" cy="22" r="6" fill="#fff8e0"/>
  <circle cx="48" cy="24" r="6" fill="#fff8e0"/>
  <circle cx="22" cy="24" r="5" fill="#fff8e0"/>
  <circle cx="58" cy="26" r="5" fill="#fff8e0"/>
  <path d="M16 28 L64 28 L60 72 C60 73 59 74 58 74 L22 74 C21 74 20 73 20 72 Z" fill="#c8313a" stroke="#900" stroke-width="2"/>
  <rect x="16" y="28" width="48" height="6" fill="#fff" stroke="#c8313a" stroke-width="1.5"/>
  <rect x="20" y="36" width="3" height="34" fill="#fff" opacity="0.7"/>
  <rect x="30" y="36" width="3" height="34" fill="#fff" opacity="0.7"/>
  <rect x="40" y="36" width="3" height="34" fill="#fff" opacity="0.7"/>
  <rect x="50" y="36" width="3" height="34" fill="#fff" opacity="0.7"/>
  <rect x="58" y="36" width="3" height="34" fill="#fff" opacity="0.7"/>
</svg>
