<svg xmlns="http://www.w3.org/2000/svg" viewBox="0 0 80 80">
  <path d="M8 62 Q8 14 40 14 Q72 14 72 62" stroke="#ff6b8a" stroke-width="6" fill="none" stroke-linecap="round"/>
  <path d="M14 62 Q14 20 40 20 Q66 20 66 62" stroke="#ffaa44" stroke-width="5.5" fill="none" stroke-linecap="round"/>
  <path d="M20 62 Q20 26 40 26 Q60 26 60 62" stroke="#ffe066" stroke-width="5" fill="none" stroke-linecap="round"/>
  <path d="M26 62 Q26 32 40 32 Q54 32 54 62" stroke="#80d484" stroke-width="5" fill="none" stroke-linecap="round"/>
  <path d="M32 62 Q32 38 40 38 Q48 38 48 62" stroke="#7ab8f5" stroke-width="5" fill="none" stroke-linecap="round"/>
  <circle cx="10"  cy="62" r="7" fill="white"/>
  <circle cx="4"   cy="66" r="5" fill="white"/>
  <circle cx="16"  cy="66" r="5" fill="white"/>
  <circle cx="70"  cy="62" r="7" fill="white"/>
  <circle cx="64"  cy="66" r="5" fill="white"/>
  <circle cx="76"  cy="66" r="5" fill="white"/>
  <path d="M34 52 Q40 58 46 52" stroke="#d06080" stroke-width="1.8" fill="none" stroke-linecap="round"/>
</svg>
