<svg xmlns="http://www.w3.org/2000/svg" viewBox="0 0 100 100"><path d="M50 92 C50 70 44 60 30 56" fill="none" stroke="#3d7a3d" stroke-width="3.5" stroke-linecap="round"/><path d="M30 56 c-4 0-8 2-10 6 c4 4 10 4 14 0 c2-2 0-4-4-6z" fill="#5aa05a" stroke="#3d7a3d" stroke-width="2"/><circle cx="50" cy="34" r="22" fill="#e6364f" stroke="#992131" stroke-width="2.5"/><path d="M50 18 c-6 4-10 10-10 16 c0 6 4 12 10 16 c6-4 10-10 10-16 c0-6-4-12-10-16z" fill="#c12238" opacity=".7"/><path d="M44 28 c-2 4-2 8 0 12 c4 2 8 2 12 0 c2-4 2-8 0-12 c-4-2-8-2-12 0z" fill="#992131"/><circle cx="50" cy="34" r="4" fill="#5c0a18"/><path d="M40 38 q-8 0 -14 6 q4-2 14-2" fill="#5aa05a" stroke="#3d7a3d" stroke-width="1.5"/></svg>