<svg xmlns="http://www.w3.org/2000/svg" viewBox="0 0 80 80">
  <line x1="40" y1="4" x2="40" y2="13" stroke="#ffe066" stroke-width="2.5" stroke-linecap="round"/>
  <line x1="40" y1="67" x2="40" y2="76" stroke="#ffe066" stroke-width="2.5" stroke-linecap="round"/>
  <line x1="4"  y1="40" x2="13" y2="40" stroke="#ffe066" stroke-width="2.5" stroke-linecap="round"/>
  <line x1="67" y1="40" x2="76" y2="40" stroke="#ffe066" stroke-width="2.5" stroke-linecap="round"/>
  <line x1="13" y1="13" x2="19" y2="19" stroke="#ffe066" stroke-width="2.5" stroke-linecap="round"/>
  <line x1="61" y1="61" x2="67" y2="67" stroke="#ffe066" stroke-width="2.5" stroke-linecap="round"/>
  <line x1="67" y1="13" x2="61" y2="19" stroke="#ffe066" stroke-width="2.5" stroke-linecap="round"/>
  <line x1="13" y1="67" x2="19" y2="61" stroke="#ffe066" stroke-width="2.5" stroke-linecap="round"/>
  <polygon points="40,14 45,31 64,31 50,42 55,59 40,48 25,59 30,42 16,31 35,31" fill="#ffe566"/>
  <circle cx="35" cy="36" r="3" fill="#2d1a0e"/>
  <circle cx="45" cy="36" r="3" fill="#2d1a0e"/>
  <circle cx="36.2" cy="34.8" r="1" fill="white"/>
  <circle cx="46.2" cy="34.8" r="1" fill="white"/>
  <path d="M35 43 Q40 48 45 43" stroke="#b07000" stroke-width="1.8" fill="none" stroke-linecap="round"/>
  <circle cx="28" cy="41" r="4" fill="#f2b8c6" opacity="0.6"/>
  <circle cx="52" cy="41" r="4" fill="#f2b8c6" opacity="0.6"/>
</svg>
