<svg xmlns="http://www.w3.org/2000/svg" viewBox="0 0 80 80">
  <path d="M40 24 C20 24 16 40 22 56 C28 70 52 70 58 56 C64 40 60 24 40 24 Z" fill="#ff5577"/>
  <path d="M30 28 C30 18 38 14 40 14 C42 14 50 18 50 28 Z" fill="#3fa86b"/>
  <path d="M40 14 L36 22 M40 14 L40 22 M40 14 L44 22" stroke="#2d7a4a" stroke-width="2" stroke-linecap="round" fill="none"/>
  <circle cx="32" cy="40" r="1.6" fill="#ffe066"/>
  <circle cx="44" cy="38" r="1.6" fill="#ffe066"/>
  <circle cx="38" cy="50" r="1.6" fill="#ffe066"/>
  <circle cx="48" cy="48" r="1.6" fill="#ffe066"/>
  <circle cx="30" cy="54" r="1.6" fill="#ffe066"/>
  <circle cx="42" cy="60" r="1.6" fill="#ffe066"/>
  <circle cx="32" cy="46" r="2.2" fill="#2d1a0e"/>
  <circle cx="46" cy="46" r="2.2" fill="#2d1a0e"/>
  <circle cx="32.6" cy="45.2" r="0.7" fill="white"/>
  <circle cx="46.6" cy="45.2" r="0.7" fill="white"/>
  <path d="M36 52 Q39 54 42 52" stroke="#a02038" stroke-width="1.4" fill="none" stroke-linecap="round"/>
  <circle cx="26" cy="48" r="3" fill="#ffb5c6" opacity="0.7"/>
  <circle cx="52" cy="48" r="3" fill="#ffb5c6" opacity="0.7"/>
</svg>
