<svg xmlns="http://www.w3.org/2000/svg" viewBox="0 0 80 80">
  <path d="M10 60 C10 30 24 14 40 14 C56 14 70 30 70 60 Z" fill="#f4d670" stroke="#a48030" stroke-width="2.5"/>
  <path d="M14 60 L66 60" stroke="#a48030" stroke-width="2"/>
  <path d="M14 56 C20 50 30 48 40 48 C50 48 60 50 66 56" fill="#9cc850" stroke="#5a8a30" stroke-width="2"/>
  <path d="M18 52 L22 56 L26 50 L30 56 L34 50 L38 56" fill="none" stroke="#5a8a30" stroke-width="1.2"/>
  <circle cx="22" cy="50" r="3" fill="#c8313a"/>
  <circle cx="32" cy="46" r="3.5" fill="#c8313a"/>
  <circle cx="42" cy="50" r="3" fill="#c8313a"/>
  <circle cx="52" cy="48" r="3.5" fill="#c8313a"/>
  <circle cx="36" cy="56" r="2.5" fill="#fff8d0"/>
  <circle cx="48" cy="56" r="2" fill="#fff8d0"/>
  <circle cx="26" cy="54" r="2" fill="#fff8d0"/>
</svg>
