<svg xmlns="http://www.w3.org/2000/svg" viewBox="0 0 80 80">
  <path d="M10 58 L70 58 A40 40 0 0 0 10 58 Z" fill="#3fa86b"/>
  <path d="M14 58 L66 58 A36 36 0 0 0 14 58 Z" fill="#fafaf2"/>
  <path d="M18 58 L62 58 A32 32 0 0 0 18 58 Z" fill="#ff6680"/>
  <ellipse cx="30" cy="50" rx="1.6" ry="2.4" fill="#2d1a0e"/>
  <ellipse cx="40" cy="46" rx="1.6" ry="2.4" fill="#2d1a0e"/>
  <ellipse cx="50" cy="50" rx="1.6" ry="2.4" fill="#2d1a0e"/>
  <ellipse cx="35" cy="54" rx="1.4" ry="2" fill="#2d1a0e"/>
  <ellipse cx="46" cy="54" rx="1.4" ry="2" fill="#2d1a0e"/>
  <circle cx="34" cy="42" r="2" fill="#2d1a0e"/>
  <circle cx="46" cy="42" r="2" fill="#2d1a0e"/>
  <circle cx="34.5" cy="41.3" r="0.7" fill="white"/>
  <circle cx="46.5" cy="41.3" r="0.7" fill="white"/>
  <path d="M37 48 Q40 50 43 48" stroke="#a02038" stroke-width="1.4" fill="none" stroke-linecap="round"/>
  <circle cx="26" cy="46" r="3" fill="#ffb5c6" opacity="0.7"/>
  <circle cx="54" cy="46" r="3" fill="#ffb5c6" opacity="0.7"/>
</svg>
