<svg xmlns="http://www.w3.org/2000/svg" xmlns:xlink="http://www.w3.org/1999/xlink" width="476" zoomAndPan="magnify" viewBox="0 0 357 249.749984" height="333" preserveAspectRatio="xMidYMid meet" version="1.0"><defs><g/></defs><g fill="#e474ba" fill-opacity="0.302"><g transform="translate(82.357035, 119.311793)"><g><path d="M 55.3125 -25.890625 C 55.582031 -26.453125 56.007812 -26.695312 56.59375 -26.625 C 57.1875 -26.5625 57.691406 -26.335938 58.109375 -25.953125 C 58.535156 -25.566406 58.648438 -25.144531 58.453125 -24.6875 C 58.128906 -23.894531 57.742188 -22.800781 57.296875 -21.40625 C 56.847656 -20.019531 56.269531 -18.515625 55.5625 -16.890625 C 54.851562 -15.265625 53.988281 -13.679688 52.96875 -12.140625 C 51.957031 -10.609375 50.734375 -9.300781 49.296875 -8.21875 C 47.859375 -7.132812 46.179688 -6.457031 44.265625 -6.1875 C 41.972656 -5.863281 40.035156 -6.273438 38.453125 -7.421875 C 36.878906 -8.566406 35.914062 -10.398438 35.5625 -12.921875 C 35.363281 -14.359375 35.25 -15.898438 35.21875 -17.546875 C 35.1875 -19.203125 35.359375 -21.050781 35.734375 -23.09375 L 35.765625 -23.375 C 35.984375 -24.6875 35.921875 -25.539062 35.578125 -25.9375 C 35.234375 -26.332031 34.660156 -26.472656 33.859375 -26.359375 C 33.054688 -26.242188 32.09375 -26.109375 30.96875 -25.953125 C 30.488281 -25.878906 30.03125 -25.742188 29.59375 -25.546875 C 29.15625 -25.347656 28.757812 -24.785156 28.40625 -23.859375 C 28.351562 -23.671875 28.296875 -23.472656 28.234375 -23.265625 C 28.171875 -23.054688 28.109375 -22.863281 28.046875 -22.6875 C 27.773438 -21.71875 27.53125 -20.84375 27.3125 -20.0625 C 27.09375 -19.28125 26.910156 -18.632812 26.765625 -18.125 C 25.085938 -12.675781 22.757812 -8.1875 19.78125 -4.65625 C 16.8125 -1.132812 13.007812 0.945312 8.375 1.59375 C 5.851562 1.945312 3.6875 1.710938 1.875 0.890625 C 0.0625 0.0664062 -1.367188 -1.128906 -2.421875 -2.703125 C -3.484375 -4.285156 -4.140625 -5.960938 -4.390625 -7.734375 C -4.640625 -9.515625 -4.519531 -11.265625 -4.03125 -12.984375 C -3.539062 -14.710938 -2.71875 -16.175781 -1.5625 -17.375 C -0.40625 -18.570312 1.039062 -19.289062 2.78125 -19.53125 C 3.425781 -19.625 3.785156 -19.414062 3.859375 -18.90625 C 4.054688 -17.46875 4.832031 -16.390625 6.1875 -15.671875 C 7.550781 -14.960938 9.117188 -14.734375 10.890625 -14.984375 C 12.410156 -15.191406 13.914062 -15.785156 15.40625 -16.765625 C 16.90625 -17.742188 18.253906 -19.15625 19.453125 -21 C 20.660156 -22.851562 21.578125 -25.148438 22.203125 -27.890625 C 22.703125 -30.046875 23.269531 -32.328125 23.90625 -34.734375 C 24.539062 -37.140625 25.179688 -39.664062 25.828125 -42.3125 C 23.710938 -42.59375 21.816406 -42.316406 20.140625 -41.484375 C 18.472656 -40.660156 17.207031 -39.472656 16.34375 -37.921875 C 15.476562 -36.367188 15.175781 -34.65625 15.4375 -32.78125 C 15.5625 -31.875 15.90625 -31.140625 16.46875 -30.578125 C 17.03125 -30.015625 17.65625 -29.78125 18.34375 -29.875 C 18.75 -29.226562 18.890625 -28.398438 18.765625 -27.390625 C 18.640625 -26.378906 18.257812 -25.375 17.625 -24.375 C 17 -23.375 16.128906 -22.488281 15.015625 -21.71875 C 13.910156 -20.957031 12.582031 -20.46875 11.03125 -20.25 C 9.25 -20 7.6875 -20.226562 6.34375 -20.9375 C 5.007812 -21.65625 3.9375 -22.707031 3.125 -24.09375 C 2.3125 -25.488281 1.789062 -27.007812 1.5625 -28.65625 C 1.175781 -31.425781 1.394531 -34.125 2.21875 -36.75 C 3.039062 -39.382812 4.398438 -41.796875 6.296875 -43.984375 C 8.203125 -46.179688 10.539062 -48.023438 13.3125 -49.515625 C 16.09375 -51.015625 19.238281 -52.007812 22.75 -52.5 C 27.125 -53.113281 30.109375 -52.546875 31.703125 -50.796875 C 33.296875 -49.054688 33.6875 -46.472656 32.875 -43.046875 C 32.375 -40.046875 31.726562 -36.945312 30.9375 -33.75 C 30.9375 -33.707031 30.921875 -33.664062 30.890625 -33.625 C 30.597656 -32.289062 30.664062 -31.476562 31.09375 -31.1875 C 31.53125 -30.90625 32.03125 -30.800781 32.59375 -30.875 C 32.945312 -30.925781 33.421875 -31.003906 34.015625 -31.109375 C 34.617188 -31.210938 35.222656 -31.328125 35.828125 -31.453125 C 36.691406 -31.671875 37.222656 -32.070312 37.421875 -32.65625 C 37.628906 -33.238281 37.875 -34.117188 38.15625 -35.296875 C 39.03125 -39.703125 39.945312 -43.460938 40.90625 -46.578125 C 41.863281 -49.691406 43.035156 -52.117188 44.421875 -53.859375 C 45.816406 -55.609375 47.554688 -56.628906 49.640625 -56.921875 C 51.273438 -57.148438 52.675781 -56.820312 53.84375 -55.9375 C 55.007812 -55.0625 55.75 -53.472656 56.0625 -51.171875 C 56.394531 -48.847656 56.160156 -46.332031 55.359375 -43.625 C 54.566406 -40.925781 53.300781 -38.375 51.5625 -35.96875 C 49.820312 -33.5625 47.691406 -31.628906 45.171875 -30.171875 C 43.972656 -29.484375 43.5 -28.273438 43.75 -26.546875 C 43.957031 -25.023438 44.578125 -23.785156 45.609375 -22.828125 C 46.648438 -21.867188 47.953125 -21.492188 49.515625 -21.703125 C 50.691406 -21.867188 51.8125 -22.3125 52.875 -23.03125 C 53.945312 -23.757812 54.757812 -24.710938 55.3125 -25.890625 Z M 44.6875 -39.203125 C 44.40625 -37.472656 44.316406 -36.394531 44.421875 -35.96875 C 44.523438 -35.539062 44.726562 -35.347656 45.03125 -35.390625 C 45.6875 -35.484375 46.359375 -35.972656 47.046875 -36.859375 C 47.734375 -37.753906 48.28125 -38.769531 48.6875 -39.90625 C 49.101562 -41.050781 49.257812 -42.015625 49.15625 -42.796875 C 49 -43.878906 48.46875 -44.359375 47.5625 -44.234375 C 46.65625 -44.109375 46.003906 -43.539062 45.609375 -42.53125 C 45.222656 -41.53125 44.914062 -40.421875 44.6875 -39.203125 Z M 44.6875 -39.203125 "/></g></g></g><g fill="#e474ba" fill-opacity="0.302"><g transform="translate(138.644204, 111.437569)"><g><path d="M 6.890625 -0.96875 C 4.679688 -0.65625 2.882812 -1.332031 1.5 -3 C 0.125 -4.664062 -0.765625 -6.945312 -1.171875 -9.84375 C -1.421875 -11.664062 -1.460938 -13.632812 -1.296875 -15.75 C -1.140625 -17.875 -0.753906 -19.992188 -0.140625 -22.109375 C 0.460938 -24.234375 1.320312 -26.203125 2.4375 -28.015625 C 3.5625 -29.828125 4.941406 -31.347656 6.578125 -32.578125 C 8.222656 -33.804688 10.164062 -34.578125 12.40625 -34.890625 C 13.707031 -35.066406 14.734375 -35.082031 15.484375 -34.9375 C 16.234375 -34.800781 16.816406 -34.585938 17.234375 -34.296875 C 17.660156 -34.003906 18.019531 -33.753906 18.3125 -33.546875 C 18.601562 -33.335938 18.960938 -33.265625 19.390625 -33.328125 C 20.128906 -33.429688 20.695312 -33.71875 21.09375 -34.1875 C 21.5 -34.664062 21.953125 -35.15625 22.453125 -35.65625 C 22.960938 -36.15625 23.710938 -36.472656 24.703125 -36.609375 C 25.566406 -36.722656 26.191406 -36.582031 26.578125 -36.1875 C 26.960938 -35.800781 27.207031 -35.238281 27.3125 -34.5 C 27.476562 -33.28125 27.3125 -32.03125 26.8125 -30.75 C 26.3125 -29.46875 25.820312 -27.820312 25.34375 -25.8125 C 24.601562 -23.28125 24.457031 -21.40625 24.90625 -20.1875 C 25.363281 -18.96875 26.304688 -18.460938 27.734375 -18.671875 C 28.859375 -18.828125 29.796875 -19.253906 30.546875 -19.953125 C 31.296875 -20.648438 31.921875 -21.566406 32.421875 -22.703125 C 32.703125 -23.253906 33.125 -23.492188 33.6875 -23.421875 C 34.25 -23.359375 34.738281 -23.132812 35.15625 -22.75 C 35.582031 -22.363281 35.71875 -21.941406 35.5625 -21.484375 C 34.988281 -19.847656 34.390625 -18.046875 33.765625 -16.078125 C 33.140625 -14.117188 32.398438 -12.21875 31.546875 -10.375 C 30.703125 -8.53125 29.660156 -6.957031 28.421875 -5.65625 C 27.191406 -4.363281 25.671875 -3.59375 23.859375 -3.34375 C 21.597656 -3.019531 19.875 -3.703125 18.6875 -5.390625 C 17.507812 -7.085938 16.925781 -9.300781 16.9375 -12.03125 L 16.6875 -12 C 15.757812 -9.1875 14.46875 -6.722656 12.8125 -4.609375 C 11.164062 -2.503906 9.191406 -1.289062 6.890625 -0.96875 Z M 11.5 -15.34375 C 12.632812 -15.5 13.578125 -15.957031 14.328125 -16.71875 C 15.078125 -17.488281 15.625 -18.375 15.96875 -19.375 C 16.320312 -20.375 16.4375 -21.332031 16.3125 -22.25 C 16.15625 -23.332031 15.726562 -24.128906 15.03125 -24.640625 C 14.34375 -25.160156 13.476562 -25.347656 12.4375 -25.203125 C 11.3125 -25.046875 10.378906 -24.609375 9.640625 -23.890625 C 8.910156 -23.171875 8.378906 -22.3125 8.046875 -21.3125 C 7.722656 -20.320312 7.628906 -19.34375 7.765625 -18.375 C 7.921875 -17.289062 8.332031 -16.476562 9 -15.9375 C 9.675781 -15.40625 10.507812 -15.207031 11.5 -15.34375 Z M 11.5 -15.34375 "/></g></g></g><g fill="#e474ba" fill-opacity="0.302"><g transform="translate(172.05252, 106.763954)"><g><path d="M 30.734375 -22.453125 C 30.929688 -22.890625 31.316406 -23.09375 31.890625 -23.0625 C 32.472656 -23.03125 32.992188 -22.851562 33.453125 -22.53125 C 33.921875 -22.21875 34.0625 -21.789062 33.875 -21.25 C 33.457031 -19.851562 32.859375 -18.394531 32.078125 -16.875 C 31.296875 -15.351562 30.242188 -14.023438 28.921875 -12.890625 C 27.597656 -11.753906 25.878906 -11.039062 23.765625 -10.75 L 23.359375 -10.6875 C 22.148438 -8.269531 20.628906 -6.257812 18.796875 -4.65625 C 16.972656 -3.050781 15.019531 -2.101562 12.9375 -1.8125 C 11.070312 -1.550781 9.460938 -1.898438 8.109375 -2.859375 C 6.765625 -3.816406 6.125 -5.628906 6.1875 -8.296875 C 6.21875 -9.046875 5.9375 -9.398438 5.34375 -9.359375 C 4.75 -9.328125 4.429688 -8.882812 4.390625 -8.03125 C 4.234375 -5.582031 4.070312 -3.128906 3.90625 -0.671875 C 3.75 1.773438 3.492188 4.035156 3.140625 6.109375 C 2.785156 8.191406 2.28125 9.890625 1.625 11.203125 C 0.96875 12.515625 0.0546875 13.25 -1.109375 13.40625 C -2.710938 13.632812 -3.925781 13.40625 -4.75 12.71875 C -5.570312 12.039062 -6.082031 10.988281 -6.28125 9.5625 C -6.5625 7.570312 -6.285156 4.882812 -5.453125 1.5 C -4.628906 -1.882812 -3.691406 -5.8125 -2.640625 -10.28125 C -2.367188 -11.476562 -2.085938 -12.726562 -1.796875 -14.03125 C -1.515625 -15.332031 -1.242188 -16.660156 -0.984375 -18.015625 C -0.390625 -21.285156 0.117188 -23.929688 0.546875 -25.953125 C 0.972656 -27.972656 1.382812 -29.53125 1.78125 -30.625 C 2.175781 -31.726562 2.628906 -32.515625 3.140625 -32.984375 C 3.648438 -33.460938 4.316406 -33.757812 5.140625 -33.875 C 6.265625 -34.03125 7.03125 -33.910156 7.4375 -33.515625 C 7.84375 -33.128906 8.046875 -32.628906 8.046875 -32.015625 C 8.023438 -31.523438 8.265625 -31.238281 8.765625 -31.15625 C 9.265625 -31.070312 9.734375 -31.320312 10.171875 -31.90625 C 11.148438 -33.195312 12.144531 -34.066406 13.15625 -34.515625 C 14.175781 -34.972656 15.1875 -35.273438 16.1875 -35.421875 C 18.75 -35.773438 20.929688 -35.179688 22.734375 -33.640625 C 24.535156 -32.097656 25.648438 -29.789062 26.078125 -26.71875 C 26.273438 -25.332031 26.359375 -23.953125 26.328125 -22.578125 C 26.296875 -21.203125 26.179688 -19.859375 25.984375 -18.546875 C 26.929688 -18.679688 27.800781 -19.054688 28.59375 -19.671875 C 29.394531 -20.296875 30.109375 -21.222656 30.734375 -22.453125 Z M 12.28125 -15.453125 C 13.363281 -15.597656 14.269531 -16.050781 15 -16.8125 C 15.738281 -17.570312 16.28125 -18.453125 16.625 -19.453125 C 16.976562 -20.453125 17.09375 -21.410156 16.96875 -22.328125 C 16.832031 -23.273438 16.4375 -24.046875 15.78125 -24.640625 C 15.125 -25.234375 14.164062 -25.441406 12.90625 -25.265625 C 11.863281 -25.117188 10.984375 -24.6875 10.265625 -23.96875 C 9.546875 -23.257812 9.019531 -22.40625 8.6875 -21.40625 C 8.363281 -20.414062 8.269531 -19.4375 8.40625 -18.46875 C 8.539062 -17.519531 8.914062 -16.738281 9.53125 -16.125 C 10.144531 -15.507812 11.0625 -15.285156 12.28125 -15.453125 Z M 12.28125 -15.453125 "/></g></g></g><g fill="#e474ba" fill-opacity="0.302"><g transform="translate(203.770923, 102.326747)"><g><path d="M 30.734375 -22.453125 C 30.929688 -22.890625 31.316406 -23.09375 31.890625 -23.0625 C 32.472656 -23.03125 32.992188 -22.851562 33.453125 -22.53125 C 33.921875 -22.21875 34.0625 -21.789062 33.875 -21.25 C 33.457031 -19.851562 32.859375 -18.394531 32.078125 -16.875 C 31.296875 -15.351562 30.242188 -14.023438 28.921875 -12.890625 C 27.597656 -11.753906 25.878906 -11.039062 23.765625 -10.75 L 23.359375 -10.6875 C 22.148438 -8.269531 20.628906 -6.257812 18.796875 -4.65625 C 16.972656 -3.050781 15.019531 -2.101562 12.9375 -1.8125 C 11.070312 -1.550781 9.460938 -1.898438 8.109375 -2.859375 C 6.765625 -3.816406 6.125 -5.628906 6.1875 -8.296875 C 6.21875 -9.046875 5.9375 -9.398438 5.34375 -9.359375 C 4.75 -9.328125 4.429688 -8.882812 4.390625 -8.03125 C 4.234375 -5.582031 4.070312 -3.128906 3.90625 -0.671875 C 3.75 1.773438 3.492188 4.035156 3.140625 6.109375 C 2.785156 8.191406 2.28125 9.890625 1.625 11.203125 C 0.96875 12.515625 0.0546875 13.25 -1.109375 13.40625 C -2.710938 13.632812 -3.925781 13.40625 -4.75 12.71875 C -5.570312 12.039062 -6.082031 10.988281 -6.28125 9.5625 C -6.5625 7.570312 -6.285156 4.882812 -5.453125 1.5 C -4.628906 -1.882812 -3.691406 -5.8125 -2.640625 -10.28125 C -2.367188 -11.476562 -2.085938 -12.726562 -1.796875 -14.03125 C -1.515625 -15.332031 -1.242188 -16.660156 -0.984375 -18.015625 C -0.390625 -21.285156 0.117188 -23.929688 0.546875 -25.953125 C 0.972656 -27.972656 1.382812 -29.53125 1.78125 -30.625 C 2.175781 -31.726562 2.628906 -32.515625 3.140625 -32.984375 C 3.648438 -33.460938 4.316406 -33.757812 5.140625 -33.875 C 6.265625 -34.03125 7.03125 -33.910156 7.4375 -33.515625 C 7.84375 -33.128906 8.046875 -32.628906 8.046875 -32.015625 C 8.023438 -31.523438 8.265625 -31.238281 8.765625 -31.15625 C 9.265625 -31.070312 9.734375 -31.320312 10.171875 -31.90625 C 11.148438 -33.195312 12.144531 -34.066406 13.15625 -34.515625 C 14.175781 -34.972656 15.1875 -35.273438 16.1875 -35.421875 C 18.75 -35.773438 20.929688 -35.179688 22.734375 -33.640625 C 24.535156 -32.097656 25.648438 -29.789062 26.078125 -26.71875 C 26.273438 -25.332031 26.359375 -23.953125 26.328125 -22.578125 C 26.296875 -21.203125 26.179688 -19.859375 25.984375 -18.546875 C 26.929688 -18.679688 27.800781 -19.054688 28.59375 -19.671875 C 29.394531 -20.296875 30.109375 -21.222656 30.734375 -22.453125 Z M 12.28125 -15.453125 C 13.363281 -15.597656 14.269531 -16.050781 15 -16.8125 C 15.738281 -17.570312 16.28125 -18.453125 16.625 -19.453125 C 16.976562 -20.453125 17.09375 -21.410156 16.96875 -22.328125 C 16.832031 -23.273438 16.4375 -24.046875 15.78125 -24.640625 C 15.125 -25.234375 14.164062 -25.441406 12.90625 -25.265625 C 11.863281 -25.117188 10.984375 -24.6875 10.265625 -23.96875 C 9.546875 -23.257812 9.019531 -22.40625 8.6875 -21.40625 C 8.363281 -20.414062 8.269531 -19.4375 8.40625 -18.46875 C 8.539062 -17.519531 8.914062 -16.738281 9.53125 -16.125 C 10.144531 -15.507812 11.0625 -15.285156 12.28125 -15.453125 Z M 12.28125 -15.453125 "/></g></g></g><g fill="#e474ba" fill-opacity="0.302"><g transform="translate(235.489327, 97.88954)"><g><path d="M 44.546875 -31.21875 C 44.898438 -28.65625 44.457031 -25.960938 43.21875 -23.140625 C 41.976562 -20.316406 39.613281 -17.457031 36.125 -14.5625 C 32.644531 -11.664062 27.738281 -8.875 21.40625 -6.1875 C 20.625 -1.082031 19.613281 3.054688 18.375 6.234375 C 17.132812 9.421875 15.578125 11.804688 13.703125 13.390625 C 11.828125 14.972656 9.566406 15.945312 6.921875 16.3125 C 3.492188 16.789062 0.71875 16.296875 -1.40625 14.828125 C -3.53125 13.367188 -4.773438 11.316406 -5.140625 8.671875 C -5.398438 6.859375 -5.242188 5.222656 -4.671875 3.765625 C -4.109375 2.304688 -3.347656 1.132812 -2.390625 0.25 C -1.429688 -0.625 -0.492188 -1.144531 0.421875 -1.3125 C 0.835938 -0.800781 1.414062 -0.410156 2.15625 -0.140625 C 2.90625 0.128906 3.75 0.285156 4.6875 0.328125 L 4.71875 0.59375 C 4.0625 0.914062 3.78125 1.398438 3.875 2.046875 C 3.925781 2.441406 4.191406 2.78125 4.671875 3.0625 C 5.148438 3.34375 5.863281 3.414062 6.8125 3.28125 C 8.71875 2.976562 10.40625 2.179688 11.875 0.890625 C 13.351562 -0.398438 14.5 -2.007812 15.3125 -3.9375 C 16.125 -5.863281 16.5 -7.878906 16.4375 -9.984375 C 16.414062 -10.742188 16.160156 -11.128906 15.671875 -11.140625 C 15.179688 -11.160156 14.816406 -10.734375 14.578125 -9.859375 C 14.015625 -7.578125 13.039062 -5.695312 11.65625 -4.21875 C 10.28125 -2.75 8.53125 -1.863281 6.40625 -1.5625 C 4.675781 -1.320312 3.085938 -1.6875 1.640625 -2.65625 C 0.203125 -3.625 -0.6875 -5.34375 -1.03125 -7.8125 C -1.164062 -8.8125 -1.28125 -10.207031 -1.375 -12 C -1.46875 -13.800781 -1.335938 -15.804688 -0.984375 -18.015625 C -0.128906 -22.992188 0.882812 -26.847656 2.0625 -29.578125 C 3.25 -32.316406 4.75 -33.8125 6.5625 -34.0625 C 7.914062 -34.257812 8.710938 -33.484375 8.953125 -31.734375 C 9.148438 -30.359375 9.097656 -28.914062 8.796875 -27.40625 C 8.492188 -25.90625 8.203125 -24.4375 7.921875 -23 C 7.640625 -21.570312 7.585938 -20.207031 7.765625 -18.90625 C 7.898438 -18 8.1875 -17.3125 8.625 -16.84375 C 9.0625 -16.375 9.820312 -16.21875 10.90625 -16.375 C 12.34375 -16.570312 13.429688 -17.148438 14.171875 -18.109375 C 14.921875 -19.078125 15.445312 -20.359375 15.75 -21.953125 C 16.488281 -26.390625 17.394531 -29.832031 18.46875 -32.28125 C 19.550781 -34.738281 20.914062 -36.082031 22.5625 -36.3125 C 23.507812 -36.4375 24.265625 -36.316406 24.828125 -35.953125 C 25.390625 -35.585938 25.742188 -34.882812 25.890625 -33.84375 C 26.046875 -32.675781 25.914062 -31.273438 25.5 -29.640625 C 25.09375 -28.015625 24.585938 -25.96875 23.984375 -23.5 C 23.378906 -21.03125 22.859375 -17.882812 22.421875 -14.0625 C 24.921875 -15.476562 26.8125 -16.972656 28.09375 -18.546875 C 29.375 -20.117188 30.207031 -21.660156 30.59375 -23.171875 C 30.976562 -24.679688 31.085938 -26.019531 30.921875 -27.1875 C 30.773438 -28.269531 30.554688 -29.054688 30.265625 -29.546875 C 29.972656 -30.035156 29.679688 -30.378906 29.390625 -30.578125 C 29.097656 -30.785156 28.828125 -30.992188 28.578125 -31.203125 C 28.328125 -31.410156 28.164062 -31.753906 28.09375 -32.234375 C 27.851562 -33.960938 28.34375 -35.421875 29.5625 -36.609375 C 30.789062 -37.796875 32.460938 -38.535156 34.578125 -38.828125 C 37.097656 -39.179688 39.285156 -38.722656 41.140625 -37.453125 C 43.003906 -36.191406 44.140625 -34.113281 44.546875 -31.21875 Z M 44.546875 -31.21875 "/></g></g></g><g fill="#e474ba" fill-opacity="0.502"><g transform="translate(84.94442, 117.292952)"><g><path d="M 55.3125 -25.890625 C 55.582031 -26.453125 56.007812 -26.695312 56.59375 -26.625 C 57.1875 -26.5625 57.691406 -26.335938 58.109375 -25.953125 C 58.535156 -25.566406 58.648438 -25.144531 58.453125 -24.6875 C 58.128906 -23.894531 57.742188 -22.800781 57.296875 -21.40625 C 56.847656 -20.019531 56.269531 -18.515625 55.5625 -16.890625 C 54.851562 -15.265625 53.988281 -13.679688 52.96875 -12.140625 C 51.957031 -10.609375 50.734375 -9.300781 49.296875 -8.21875 C 47.859375 -7.132812 46.179688 -6.457031 44.265625 -6.1875 C 41.972656 -5.863281 40.035156 -6.273438 38.453125 -7.421875 C 36.878906 -8.566406 35.914062 -10.398438 35.5625 -12.921875 C 35.363281 -14.359375 35.25 -15.898438 35.21875 -17.546875 C 35.1875 -19.203125 35.359375 -21.050781 35.734375 -23.09375 L 35.765625 -23.375 C 35.984375 -24.6875 35.921875 -25.539062 35.578125 -25.9375 C 35.234375 -26.332031 34.660156 -26.472656 33.859375 -26.359375 C 33.054688 -26.242188 32.09375 -26.109375 30.96875 -25.953125 C 30.488281 -25.878906 30.03125 -25.742188 29.59375 -25.546875 C 29.15625 -25.347656 28.757812 -24.785156 28.40625 -23.859375 C 28.351562 -23.671875 28.296875 -23.472656 28.234375 -23.265625 C 28.171875 -23.054688 28.109375 -22.863281 28.046875 -22.6875 C 27.773438 -21.71875 27.53125 -20.84375 27.3125 -20.0625 C 27.09375 -19.28125 26.910156 -18.632812 26.765625 -18.125 C 25.085938 -12.675781 22.757812 -8.1875 19.78125 -4.65625 C 16.8125 -1.132812 13.007812 0.945312 8.375 1.59375 C 5.851562 1.945312 3.6875 1.710938 1.875 0.890625 C 0.0625 0.0664062 -1.367188 -1.128906 -2.421875 -2.703125 C -3.484375 -4.285156 -4.140625 -5.960938 -4.390625 -7.734375 C -4.640625 -9.515625 -4.519531 -11.265625 -4.03125 -12.984375 C -3.539062 -14.710938 -2.71875 -16.175781 -1.5625 -17.375 C -0.40625 -18.570312 1.039062 -19.289062 2.78125 -19.53125 C 3.425781 -19.625 3.785156 -19.414062 3.859375 -18.90625 C 4.054688 -17.46875 4.832031 -16.390625 6.1875 -15.671875 C 7.550781 -14.960938 9.117188 -14.734375 10.890625 -14.984375 C 12.410156 -15.191406 13.914062 -15.785156 15.40625 -16.765625 C 16.90625 -17.742188 18.253906 -19.15625 19.453125 -21 C 20.660156 -22.851562 21.578125 -25.148438 22.203125 -27.890625 C 22.703125 -30.046875 23.269531 -32.328125 23.90625 -34.734375 C 24.539062 -37.140625 25.179688 -39.664062 25.828125 -42.3125 C 23.710938 -42.59375 21.816406 -42.316406 20.140625 -41.484375 C 18.472656 -40.660156 17.207031 -39.472656 16.34375 -37.921875 C 15.476562 -36.367188 15.175781 -34.65625 15.4375 -32.78125 C 15.5625 -31.875 15.90625 -31.140625 16.46875 -30.578125 C 17.03125 -30.015625 17.65625 -29.78125 18.34375 -29.875 C 18.75 -29.226562 18.890625 -28.398438 18.765625 -27.390625 C 18.640625 -26.378906 18.257812 -25.375 17.625 -24.375 C 17 -23.375 16.128906 -22.488281 15.015625 -21.71875 C 13.910156 -20.957031 12.582031 -20.46875 11.03125 -20.25 C 9.25 -20 7.6875 -20.226562 6.34375 -20.9375 C 5.007812 -21.65625 3.9375 -22.707031 3.125 -24.09375 C 2.3125 -25.488281 1.789062 -27.007812 1.5625 -28.65625 C 1.175781 -31.425781 1.394531 -34.125 2.21875 -36.75 C 3.039062 -39.382812 4.398438 -41.796875 6.296875 -43.984375 C 8.203125 -46.179688 10.539062 -48.023438 13.3125 -49.515625 C 16.09375 -51.015625 19.238281 -52.007812 22.75 -52.5 C 27.125 -53.113281 30.109375 -52.546875 31.703125 -50.796875 C 33.296875 -49.054688 33.6875 -46.472656 32.875 -43.046875 C 32.375 -40.046875 31.726562 -36.945312 30.9375 -33.75 C 30.9375 -33.707031 30.921875 -33.664062 30.890625 -33.625 C 30.597656 -32.289062 30.664062 -31.476562 31.09375 -31.1875 C 31.53125 -30.90625 32.03125 -30.800781 32.59375 -30.875 C 32.945312 -30.925781 33.421875 -31.003906 34.015625 -31.109375 C 34.617188 -31.210938 35.222656 -31.328125 35.828125 -31.453125 C 36.691406 -31.671875 37.222656 -32.070312 37.421875 -32.65625 C 37.628906 -33.238281 37.875 -34.117188 38.15625 -35.296875 C 39.03125 -39.703125 39.945312 -43.460938 40.90625 -46.578125 C 41.863281 -49.691406 43.035156 -52.117188 44.421875 -53.859375 C 45.816406 -55.609375 47.554688 -56.628906 49.640625 -56.921875 C 51.273438 -57.148438 52.675781 -56.820312 53.84375 -55.9375 C 55.007812 -55.0625 55.75 -53.472656 56.0625 -51.171875 C 56.394531 -48.847656 56.160156 -46.332031 55.359375 -43.625 C 54.566406 -40.925781 53.300781 -38.375 51.5625 -35.96875 C 49.820312 -33.5625 47.691406 -31.628906 45.171875 -30.171875 C 43.972656 -29.484375 43.5 -28.273438 43.75 -26.546875 C 43.957031 -25.023438 44.578125 -23.785156 45.609375 -22.828125 C 46.648438 -21.867188 47.953125 -21.492188 49.515625 -21.703125 C 50.691406 -21.867188 51.8125 -22.3125 52.875 -23.03125 C 53.945312 -23.757812 54.757812 -24.710938 55.3125 -25.890625 Z M 44.6875 -39.203125 C 44.40625 -37.472656 44.316406 -36.394531 44.421875 -35.96875 C 44.523438 -35.539062 44.726562 -35.347656 45.03125 -35.390625 C 45.6875 -35.484375 46.359375 -35.972656 47.046875 -36.859375 C 47.734375 -37.753906 48.28125 -38.769531 48.6875 -39.90625 C 49.101562 -41.050781 49.257812 -42.015625 49.15625 -42.796875 C 49 -43.878906 48.46875 -44.359375 47.5625 -44.234375 C 46.65625 -44.109375 46.003906 -43.539062 45.609375 -42.53125 C 45.222656 -41.53125 44.914062 -40.421875 44.6875 -39.203125 Z M 44.6875 -39.203125 "/></g></g></g><g fill="#e474ba" fill-opacity="0.502"><g transform="translate(141.231589, 109.418728)"><g><path d="M 6.890625 -0.96875 C 4.679688 -0.65625 2.882812 -1.332031 1.5 -3 C 0.125 -4.664062 -0.765625 -6.945312 -1.171875 -9.84375 C -1.421875 -11.664062 -1.460938 -13.632812 -1.296875 -15.75 C -1.140625 -17.875 -0.753906 -19.992188 -0.140625 -22.109375 C 0.460938 -24.234375 1.320312 -26.203125 2.4375 -28.015625 C 3.5625 -29.828125 4.941406 -31.347656 6.578125 -32.578125 C 8.222656 -33.804688 10.164062 -34.578125 12.40625 -34.890625 C 13.707031 -35.066406 14.734375 -35.082031 15.484375 -34.9375 C 16.234375 -34.800781 16.816406 -34.585938 17.234375 -34.296875 C 17.660156 -34.003906 18.019531 -33.753906 18.3125 -33.546875 C 18.601562 -33.335938 18.960938 -33.265625 19.390625 -33.328125 C 20.128906 -33.429688 20.695312 -33.71875 21.09375 -34.1875 C 21.5 -34.664062 21.953125 -35.15625 22.453125 -35.65625 C 22.960938 -36.15625 23.710938 -36.472656 24.703125 -36.609375 C 25.566406 -36.722656 26.191406 -36.582031 26.578125 -36.1875 C 26.960938 -35.800781 27.207031 -35.238281 27.3125 -34.5 C 27.476562 -33.28125 27.3125 -32.03125 26.8125 -30.75 C 26.3125 -29.46875 25.820312 -27.820312 25.34375 -25.8125 C 24.601562 -23.28125 24.457031 -21.40625 24.90625 -20.1875 C 25.363281 -18.96875 26.304688 -18.460938 27.734375 -18.671875 C 28.859375 -18.828125 29.796875 -19.253906 30.546875 -19.953125 C 31.296875 -20.648438 31.921875 -21.566406 32.421875 -22.703125 C 32.703125 -23.253906 33.125 -23.492188 33.6875 -23.421875 C 34.25 -23.359375 34.738281 -23.132812 35.15625 -22.75 C 35.582031 -22.363281 35.71875 -21.941406 35.5625 -21.484375 C 34.988281 -19.847656 34.390625 -18.046875 33.765625 -16.078125 C 33.140625 -14.117188 32.398438 -12.21875 31.546875 -10.375 C 30.703125 -8.53125 29.660156 -6.957031 28.421875 -5.65625 C 27.191406 -4.363281 25.671875 -3.59375 23.859375 -3.34375 C 21.597656 -3.019531 19.875 -3.703125 18.6875 -5.390625 C 17.507812 -7.085938 16.925781 -9.300781 16.9375 -12.03125 L 16.6875 -12 C 15.757812 -9.1875 14.46875 -6.722656 12.8125 -4.609375 C 11.164062 -2.503906 9.191406 -1.289062 6.890625 -0.96875 Z M 11.5 -15.34375 C 12.632812 -15.5 13.578125 -15.957031 14.328125 -16.71875 C 15.078125 -17.488281 15.625 -18.375 15.96875 -19.375 C 16.320312 -20.375 16.4375 -21.332031 16.3125 -22.25 C 16.15625 -23.332031 15.726562 -24.128906 15.03125 -24.640625 C 14.34375 -25.160156 13.476562 -25.347656 12.4375 -25.203125 C 11.3125 -25.046875 10.378906 -24.609375 9.640625 -23.890625 C 8.910156 -23.171875 8.378906 -22.3125 8.046875 -21.3125 C 7.722656 -20.320312 7.628906 -19.34375 7.765625 -18.375 C 7.921875 -17.289062 8.332031 -16.476562 9 -15.9375 C 9.675781 -15.40625 10.507812 -15.207031 11.5 -15.34375 Z M 11.5 -15.34375 "/></g></g></g><g fill="#e474ba" fill-opacity="0.502"><g transform="translate(174.639905, 104.745112)"><g><path d="M 30.734375 -22.453125 C 30.929688 -22.890625 31.316406 -23.09375 31.890625 -23.0625 C 32.472656 -23.03125 32.992188 -22.851562 33.453125 -22.53125 C 33.921875 -22.21875 34.0625 -21.789062 33.875 -21.25 C 33.457031 -19.851562 32.859375 -18.394531 32.078125 -16.875 C 31.296875 -15.351562 30.242188 -14.023438 28.921875 -12.890625 C 27.597656 -11.753906 25.878906 -11.039062 23.765625 -10.75 L 23.359375 -10.6875 C 22.148438 -8.269531 20.628906 -6.257812 18.796875 -4.65625 C 16.972656 -3.050781 15.019531 -2.101562 12.9375 -1.8125 C 11.070312 -1.550781 9.460938 -1.898438 8.109375 -2.859375 C 6.765625 -3.816406 6.125 -5.628906 6.1875 -8.296875 C 6.21875 -9.046875 5.9375 -9.398438 5.34375 -9.359375 C 4.75 -9.328125 4.429688 -8.882812 4.390625 -8.03125 C 4.234375 -5.582031 4.070312 -3.128906 3.90625 -0.671875 C 3.75 1.773438 3.492188 4.035156 3.140625 6.109375 C 2.785156 8.191406 2.28125 9.890625 1.625 11.203125 C 0.96875 12.515625 0.0546875 13.25 -1.109375 13.40625 C -2.710938 13.632812 -3.925781 13.40625 -4.75 12.71875 C -5.570312 12.039062 -6.082031 10.988281 -6.28125 9.5625 C -6.5625 7.570312 -6.285156 4.882812 -5.453125 1.5 C -4.628906 -1.882812 -3.691406 -5.8125 -2.640625 -10.28125 C -2.367188 -11.476562 -2.085938 -12.726562 -1.796875 -14.03125 C -1.515625 -15.332031 -1.242188 -16.660156 -0.984375 -18.015625 C -0.390625 -21.285156 0.117188 -23.929688 0.546875 -25.953125 C 0.972656 -27.972656 1.382812 -29.53125 1.78125 -30.625 C 2.175781 -31.726562 2.628906 -32.515625 3.140625 -32.984375 C 3.648438 -33.460938 4.316406 -33.757812 5.140625 -33.875 C 6.265625 -34.03125 7.03125 -33.910156 7.4375 -33.515625 C 7.84375 -33.128906 8.046875 -32.628906 8.046875 -32.015625 C 8.023438 -31.523438 8.265625 -31.238281 8.765625 -31.15625 C 9.265625 -31.070312 9.734375 -31.320312 10.171875 -31.90625 C 11.148438 -33.195312 12.144531 -34.066406 13.15625 -34.515625 C 14.175781 -34.972656 15.1875 -35.273438 16.1875 -35.421875 C 18.75 -35.773438 20.929688 -35.179688 22.734375 -33.640625 C 24.535156 -32.097656 25.648438 -29.789062 26.078125 -26.71875 C 26.273438 -25.332031 26.359375 -23.953125 26.328125 -22.578125 C 26.296875 -21.203125 26.179688 -19.859375 25.984375 -18.546875 C 26.929688 -18.679688 27.800781 -19.054688 28.59375 -19.671875 C 29.394531 -20.296875 30.109375 -21.222656 30.734375 -22.453125 Z M 12.28125 -15.453125 C 13.363281 -15.597656 14.269531 -16.050781 15 -16.8125 C 15.738281 -17.570312 16.28125 -18.453125 16.625 -19.453125 C 16.976562 -20.453125 17.09375 -21.410156 16.96875 -22.328125 C 16.832031 -23.273438 16.4375 -24.046875 15.78125 -24.640625 C 15.125 -25.234375 14.164062 -25.441406 12.90625 -25.265625 C 11.863281 -25.117188 10.984375 -24.6875 10.265625 -23.96875 C 9.546875 -23.257812 9.019531 -22.40625 8.6875 -21.40625 C 8.363281 -20.414062 8.269531 -19.4375 8.40625 -18.46875 C 8.539062 -17.519531 8.914062 -16.738281 9.53125 -16.125 C 10.144531 -15.507812 11.0625 -15.285156 12.28125 -15.453125 Z M 12.28125 -15.453125 "/></g></g></g><g fill="#e474ba" fill-opacity="0.502"><g transform="translate(206.358309, 100.307905)"><g><path d="M 30.734375 -22.453125 C 30.929688 -22.890625 31.316406 -23.09375 31.890625 -23.0625 C 32.472656 -23.03125 32.992188 -22.851562 33.453125 -22.53125 C 33.921875 -22.21875 34.0625 -21.789062 33.875 -21.25 C 33.457031 -19.851562 32.859375 -18.394531 32.078125 -16.875 C 31.296875 -15.351562 30.242188 -14.023438 28.921875 -12.890625 C 27.597656 -11.753906 25.878906 -11.039062 23.765625 -10.75 L 23.359375 -10.6875 C 22.148438 -8.269531 20.628906 -6.257812 18.796875 -4.65625 C 16.972656 -3.050781 15.019531 -2.101562 12.9375 -1.8125 C 11.070312 -1.550781 9.460938 -1.898438 8.109375 -2.859375 C 6.765625 -3.816406 6.125 -5.628906 6.1875 -8.296875 C 6.21875 -9.046875 5.9375 -9.398438 5.34375 -9.359375 C 4.75 -9.328125 4.429688 -8.882812 4.390625 -8.03125 C 4.234375 -5.582031 4.070312 -3.128906 3.90625 -0.671875 C 3.75 1.773438 3.492188 4.035156 3.140625 6.109375 C 2.785156 8.191406 2.28125 9.890625 1.625 11.203125 C 0.96875 12.515625 0.0546875 13.25 -1.109375 13.40625 C -2.710938 13.632812 -3.925781 13.40625 -4.75 12.71875 C -5.570312 12.039062 -6.082031 10.988281 -6.28125 9.5625 C -6.5625 7.570312 -6.285156 4.882812 -5.453125 1.5 C -4.628906 -1.882812 -3.691406 -5.8125 -2.640625 -10.28125 C -2.367188 -11.476562 -2.085938 -12.726562 -1.796875 -14.03125 C -1.515625 -15.332031 -1.242188 -16.660156 -0.984375 -18.015625 C -0.390625 -21.285156 0.117188 -23.929688 0.546875 -25.953125 C 0.972656 -27.972656 1.382812 -29.53125 1.78125 -30.625 C 2.175781 -31.726562 2.628906 -32.515625 3.140625 -32.984375 C 3.648438 -33.460938 4.316406 -33.757812 5.140625 -33.875 C 6.265625 -34.03125 7.03125 -33.910156 7.4375 -33.515625 C 7.84375 -33.128906 8.046875 -32.628906 8.046875 -32.015625 C 8.023438 -31.523438 8.265625 -31.238281 8.765625 -31.15625 C 9.265625 -31.070312 9.734375 -31.320312 10.171875 -31.90625 C 11.148438 -33.195312 12.144531 -34.066406 13.15625 -34.515625 C 14.175781 -34.972656 15.1875 -35.273438 16.1875 -35.421875 C 18.75 -35.773438 20.929688 -35.179688 22.734375 -33.640625 C 24.535156 -32.097656 25.648438 -29.789062 26.078125 -26.71875 C 26.273438 -25.332031 26.359375 -23.953125 26.328125 -22.578125 C 26.296875 -21.203125 26.179688 -19.859375 25.984375 -18.546875 C 26.929688 -18.679688 27.800781 -19.054688 28.59375 -19.671875 C 29.394531 -20.296875 30.109375 -21.222656 30.734375 -22.453125 Z M 12.28125 -15.453125 C 13.363281 -15.597656 14.269531 -16.050781 15 -16.8125 C 15.738281 -17.570312 16.28125 -18.453125 16.625 -19.453125 C 16.976562 -20.453125 17.09375 -21.410156 16.96875 -22.328125 C 16.832031 -23.273438 16.4375 -24.046875 15.78125 -24.640625 C 15.125 -25.234375 14.164062 -25.441406 12.90625 -25.265625 C 11.863281 -25.117188 10.984375 -24.6875 10.265625 -23.96875 C 9.546875 -23.257812 9.019531 -22.40625 8.6875 -21.40625 C 8.363281 -20.414062 8.269531 -19.4375 8.40625 -18.46875 C 8.539062 -17.519531 8.914062 -16.738281 9.53125 -16.125 C 10.144531 -15.507812 11.0625 -15.285156 12.28125 -15.453125 Z M 12.28125 -15.453125 "/></g></g></g><g fill="#e474ba" fill-opacity="0.502"><g transform="translate(238.076712, 95.870698)"><g><path d="M 44.546875 -31.21875 C 44.898438 -28.65625 44.457031 -25.960938 43.21875 -23.140625 C 41.976562 -20.316406 39.613281 -17.457031 36.125 -14.5625 C 32.644531 -11.664062 27.738281 -8.875 21.40625 -6.1875 C 20.625 -1.082031 19.613281 3.054688 18.375 6.234375 C 17.132812 9.421875 15.578125 11.804688 13.703125 13.390625 C 11.828125 14.972656 9.566406 15.945312 6.921875 16.3125 C 3.492188 16.789062 0.71875 16.296875 -1.40625 14.828125 C -3.53125 13.367188 -4.773438 11.316406 -5.140625 8.671875 C -5.398438 6.859375 -5.242188 5.222656 -4.671875 3.765625 C -4.109375 2.304688 -3.347656 1.132812 -2.390625 0.25 C -1.429688 -0.625 -0.492188 -1.144531 0.421875 -1.3125 C 0.835938 -0.800781 1.414062 -0.410156 2.15625 -0.140625 C 2.90625 0.128906 3.75 0.285156 4.6875 0.328125 L 4.71875 0.59375 C 4.0625 0.914062 3.78125 1.398438 3.875 2.046875 C 3.925781 2.441406 4.191406 2.78125 4.671875 3.0625 C 5.148438 3.34375 5.863281 3.414062 6.8125 3.28125 C 8.71875 2.976562 10.40625 2.179688 11.875 0.890625 C 13.351562 -0.398438 14.5 -2.007812 15.3125 -3.9375 C 16.125 -5.863281 16.5 -7.878906 16.4375 -9.984375 C 16.414062 -10.742188 16.160156 -11.128906 15.671875 -11.140625 C 15.179688 -11.160156 14.816406 -10.734375 14.578125 -9.859375 C 14.015625 -7.578125 13.039062 -5.695312 11.65625 -4.21875 C 10.28125 -2.75 8.53125 -1.863281 6.40625 -1.5625 C 4.675781 -1.320312 3.085938 -1.6875 1.640625 -2.65625 C 0.203125 -3.625 -0.6875 -5.34375 -1.03125 -7.8125 C -1.164062 -8.8125 -1.28125 -10.207031 -1.375 -12 C -1.46875 -13.800781 -1.335938 -15.804688 -0.984375 -18.015625 C -0.128906 -22.992188 0.882812 -26.847656 2.0625 -29.578125 C 3.25 -32.316406 4.75 -33.8125 6.5625 -34.0625 C 7.914062 -34.257812 8.710938 -33.484375 8.953125 -31.734375 C 9.148438 -30.359375 9.097656 -28.914062 8.796875 -27.40625 C 8.492188 -25.90625 8.203125 -24.4375 7.921875 -23 C 7.640625 -21.570312 7.585938 -20.207031 7.765625 -18.90625 C 7.898438 -18 8.1875 -17.3125 8.625 -16.84375 C 9.0625 -16.375 9.820312 -16.21875 10.90625 -16.375 C 12.34375 -16.570312 13.429688 -17.148438 14.171875 -18.109375 C 14.921875 -19.078125 15.445312 -20.359375 15.75 -21.953125 C 16.488281 -26.390625 17.394531 -29.832031 18.46875 -32.28125 C 19.550781 -34.738281 20.914062 -36.082031 22.5625 -36.3125 C 23.507812 -36.4375 24.265625 -36.316406 24.828125 -35.953125 C 25.390625 -35.585938 25.742188 -34.882812 25.890625 -33.84375 C 26.046875 -32.675781 25.914062 -31.273438 25.5 -29.640625 C 25.09375 -28.015625 24.585938 -25.96875 23.984375 -23.5 C 23.378906 -21.03125 22.859375 -17.882812 22.421875 -14.0625 C 24.921875 -15.476562 26.8125 -16.972656 28.09375 -18.546875 C 29.375 -20.117188 30.207031 -21.660156 30.59375 -23.171875 C 30.976562 -24.679688 31.085938 -26.019531 30.921875 -27.1875 C 30.773438 -28.269531 30.554688 -29.054688 30.265625 -29.546875 C 29.972656 -30.035156 29.679688 -30.378906 29.390625 -30.578125 C 29.097656 -30.785156 28.828125 -30.992188 28.578125 -31.203125 C 28.328125 -31.410156 28.164062 -31.753906 28.09375 -32.234375 C 27.851562 -33.960938 28.34375 -35.421875 29.5625 -36.609375 C 30.789062 -37.796875 32.460938 -38.535156 34.578125 -38.828125 C 37.097656 -39.179688 39.285156 -38.722656 41.140625 -37.453125 C 43.003906 -36.191406 44.140625 -34.113281 44.546875 -31.21875 Z M 44.546875 -31.21875 "/></g></g></g><g fill="#e474ba" fill-opacity="0.302"><g transform="translate(272.547148, 92.705382)"><g/></g></g><g fill="#e474ba" fill-opacity="0.502"><g transform="translate(275.134533, 90.68654)"><g/></g></g><g fill="#e474ba" fill-opacity="1"><g transform="translate(87.531809, 115.274106)"><g><path d="M 55.3125 -25.890625 C 55.582031 -26.453125 56.007812 -26.695312 56.59375 -26.625 C 57.1875 -26.5625 57.691406 -26.335938 58.109375 -25.953125 C 58.535156 -25.566406 58.648438 -25.144531 58.453125 -24.6875 C 58.128906 -23.894531 57.742188 -22.800781 57.296875 -21.40625 C 56.847656 -20.019531 56.269531 -18.515625 55.5625 -16.890625 C 54.851562 -15.265625 53.988281 -13.679688 52.96875 -12.140625 C 51.957031 -10.609375 50.734375 -9.300781 49.296875 -8.21875 C 47.859375 -7.132812 46.179688 -6.457031 44.265625 -6.1875 C 41.972656 -5.863281 40.035156 -6.273438 38.453125 -7.421875 C 36.878906 -8.566406 35.914062 -10.398438 35.5625 -12.921875 C 35.363281 -14.359375 35.25 -15.898438 35.21875 -17.546875 C 35.1875 -19.203125 35.359375 -21.050781 35.734375 -23.09375 L 35.765625 -23.375 C 35.984375 -24.6875 35.921875 -25.539062 35.578125 -25.9375 C 35.234375 -26.332031 34.660156 -26.472656 33.859375 -26.359375 C 33.054688 -26.242188 32.09375 -26.109375 30.96875 -25.953125 C 30.488281 -25.878906 30.03125 -25.742188 29.59375 -25.546875 C 29.15625 -25.347656 28.757812 -24.785156 28.40625 -23.859375 C 28.351562 -23.671875 28.296875 -23.472656 28.234375 -23.265625 C 28.171875 -23.054688 28.109375 -22.863281 28.046875 -22.6875 C 27.773438 -21.71875 27.53125 -20.84375 27.3125 -20.0625 C 27.09375 -19.28125 26.910156 -18.632812 26.765625 -18.125 C 25.085938 -12.675781 22.757812 -8.1875 19.78125 -4.65625 C 16.8125 -1.132812 13.007812 0.945312 8.375 1.59375 C 5.851562 1.945312 3.6875 1.710938 1.875 0.890625 C 0.0625 0.0664062 -1.367188 -1.128906 -2.421875 -2.703125 C -3.484375 -4.285156 -4.140625 -5.960938 -4.390625 -7.734375 C -4.640625 -9.515625 -4.519531 -11.265625 -4.03125 -12.984375 C -3.539062 -14.710938 -2.71875 -16.175781 -1.5625 -17.375 C -0.40625 -18.570312 1.039062 -19.289062 2.78125 -19.53125 C 3.425781 -19.625 3.785156 -19.414062 3.859375 -18.90625 C 4.054688 -17.46875 4.832031 -16.390625 6.1875 -15.671875 C 7.550781 -14.960938 9.117188 -14.734375 10.890625 -14.984375 C 12.410156 -15.191406 13.914062 -15.785156 15.40625 -16.765625 C 16.90625 -17.742188 18.253906 -19.15625 19.453125 -21 C 20.660156 -22.851562 21.578125 -25.148438 22.203125 -27.890625 C 22.703125 -30.046875 23.269531 -32.328125 23.90625 -34.734375 C 24.539062 -37.140625 25.179688 -39.664062 25.828125 -42.3125 C 23.710938 -42.59375 21.816406 -42.316406 20.140625 -41.484375 C 18.472656 -40.660156 17.207031 -39.472656 16.34375 -37.921875 C 15.476562 -36.367188 15.175781 -34.65625 15.4375 -32.78125 C 15.5625 -31.875 15.90625 -31.140625 16.46875 -30.578125 C 17.03125 -30.015625 17.65625 -29.78125 18.34375 -29.875 C 18.75 -29.226562 18.890625 -28.398438 18.765625 -27.390625 C 18.640625 -26.378906 18.257812 -25.375 17.625 -24.375 C 17 -23.375 16.128906 -22.488281 15.015625 -21.71875 C 13.910156 -20.957031 12.582031 -20.46875 11.03125 -20.25 C 9.25 -20 7.6875 -20.226562 6.34375 -20.9375 C 5.007812 -21.65625 3.9375 -22.707031 3.125 -24.09375 C 2.3125 -25.488281 1.789062 -27.007812 1.5625 -28.65625 C 1.175781 -31.425781 1.394531 -34.125 2.21875 -36.75 C 3.039062 -39.382812 4.398438 -41.796875 6.296875 -43.984375 C 8.203125 -46.179688 10.539062 -48.023438 13.3125 -49.515625 C 16.09375 -51.015625 19.238281 -52.007812 22.75 -52.5 C 27.125 -53.113281 30.109375 -52.546875 31.703125 -50.796875 C 33.296875 -49.054688 33.6875 -46.472656 32.875 -43.046875 C 32.375 -40.046875 31.726562 -36.945312 30.9375 -33.75 C 30.9375 -33.707031 30.921875 -33.664062 30.890625 -33.625 C 30.597656 -32.289062 30.664062 -31.476562 31.09375 -31.1875 C 31.53125 -30.90625 32.03125 -30.800781 32.59375 -30.875 C 32.945312 -30.925781 33.421875 -31.003906 34.015625 -31.109375 C 34.617188 -31.210938 35.222656 -31.328125 35.828125 -31.453125 C 36.691406 -31.671875 37.222656 -32.070312 37.421875 -32.65625 C 37.628906 -33.238281 37.875 -34.117188 38.15625 -35.296875 C 39.03125 -39.703125 39.945312 -43.460938 40.90625 -46.578125 C 41.863281 -49.691406 43.035156 -52.117188 44.421875 -53.859375 C 45.816406 -55.609375 47.554688 -56.628906 49.640625 -56.921875 C 51.273438 -57.148438 52.675781 -56.820312 53.84375 -55.9375 C 55.007812 -55.0625 55.75 -53.472656 56.0625 -51.171875 C 56.394531 -48.847656 56.160156 -46.332031 55.359375 -43.625 C 54.566406 -40.925781 53.300781 -38.375 51.5625 -35.96875 C 49.820312 -33.5625 47.691406 -31.628906 45.171875 -30.171875 C 43.972656 -29.484375 43.5 -28.273438 43.75 -26.546875 C 43.957031 -25.023438 44.578125 -23.785156 45.609375 -22.828125 C 46.648438 -21.867188 47.953125 -21.492188 49.515625 -21.703125 C 50.691406 -21.867188 51.8125 -22.3125 52.875 -23.03125 C 53.945312 -23.757812 54.757812 -24.710938 55.3125 -25.890625 Z M 44.6875 -39.203125 C 44.40625 -37.472656 44.316406 -36.394531 44.421875 -35.96875 C 44.523438 -35.539062 44.726562 -35.347656 45.03125 -35.390625 C 45.6875 -35.484375 46.359375 -35.972656 47.046875 -36.859375 C 47.734375 -37.753906 48.28125 -38.769531 48.6875 -39.90625 C 49.101562 -41.050781 49.257812 -42.015625 49.15625 -42.796875 C 49 -43.878906 48.46875 -44.359375 47.5625 -44.234375 C 46.65625 -44.109375 46.003906 -43.539062 45.609375 -42.53125 C 45.222656 -41.53125 44.914062 -40.421875 44.6875 -39.203125 Z M 44.6875 -39.203125 "/></g></g></g><g fill="#e474ba" fill-opacity="1"><g transform="translate(143.818978, 107.399882)"><g><path d="M 6.890625 -0.96875 C 4.679688 -0.65625 2.882812 -1.332031 1.5 -3 C 0.125 -4.664062 -0.765625 -6.945312 -1.171875 -9.84375 C -1.421875 -11.664062 -1.460938 -13.632812 -1.296875 -15.75 C -1.140625 -17.875 -0.753906 -19.992188 -0.140625 -22.109375 C 0.460938 -24.234375 1.320312 -26.203125 2.4375 -28.015625 C 3.5625 -29.828125 4.941406 -31.347656 6.578125 -32.578125 C 8.222656 -33.804688 10.164062 -34.578125 12.40625 -34.890625 C 13.707031 -35.066406 14.734375 -35.082031 15.484375 -34.9375 C 16.234375 -34.800781 16.816406 -34.585938 17.234375 -34.296875 C 17.660156 -34.003906 18.019531 -33.753906 18.3125 -33.546875 C 18.601562 -33.335938 18.960938 -33.265625 19.390625 -33.328125 C 20.128906 -33.429688 20.695312 -33.71875 21.09375 -34.1875 C 21.5 -34.664062 21.953125 -35.15625 22.453125 -35.65625 C 22.960938 -36.15625 23.710938 -36.472656 24.703125 -36.609375 C 25.566406 -36.722656 26.191406 -36.582031 26.578125 -36.1875 C 26.960938 -35.800781 27.207031 -35.238281 27.3125 -34.5 C 27.476562 -33.28125 27.3125 -32.03125 26.8125 -30.75 C 26.3125 -29.46875 25.820312 -27.820312 25.34375 -25.8125 C 24.601562 -23.28125 24.457031 -21.40625 24.90625 -20.1875 C 25.363281 -18.96875 26.304688 -18.460938 27.734375 -18.671875 C 28.859375 -18.828125 29.796875 -19.253906 30.546875 -19.953125 C 31.296875 -20.648438 31.921875 -21.566406 32.421875 -22.703125 C 32.703125 -23.253906 33.125 -23.492188 33.6875 -23.421875 C 34.25 -23.359375 34.738281 -23.132812 35.15625 -22.75 C 35.582031 -22.363281 35.71875 -21.941406 35.5625 -21.484375 C 34.988281 -19.847656 34.390625 -18.046875 33.765625 -16.078125 C 33.140625 -14.117188 32.398438 -12.21875 31.546875 -10.375 C 30.703125 -8.53125 29.660156 -6.957031 28.421875 -5.65625 C 27.191406 -4.363281 25.671875 -3.59375 23.859375 -3.34375 C 21.597656 -3.019531 19.875 -3.703125 18.6875 -5.390625 C 17.507812 -7.085938 16.925781 -9.300781 16.9375 -12.03125 L 16.6875 -12 C 15.757812 -9.1875 14.46875 -6.722656 12.8125 -4.609375 C 11.164062 -2.503906 9.191406 -1.289062 6.890625 -0.96875 Z M 11.5 -15.34375 C 12.632812 -15.5 13.578125 -15.957031 14.328125 -16.71875 C 15.078125 -17.488281 15.625 -18.375 15.96875 -19.375 C 16.320312 -20.375 16.4375 -21.332031 16.3125 -22.25 C 16.15625 -23.332031 15.726562 -24.128906 15.03125 -24.640625 C 14.34375 -25.160156 13.476562 -25.347656 12.4375 -25.203125 C 11.3125 -25.046875 10.378906 -24.609375 9.640625 -23.890625 C 8.910156 -23.171875 8.378906 -22.3125 8.046875 -21.3125 C 7.722656 -20.320312 7.628906 -19.34375 7.765625 -18.375 C 7.921875 -17.289062 8.332031 -16.476562 9 -15.9375 C 9.675781 -15.40625 10.507812 -15.207031 11.5 -15.34375 Z M 11.5 -15.34375 "/></g></g></g><g fill="#e474ba" fill-opacity="1"><g transform="translate(177.227294, 102.726266)"><g><path d="M 30.734375 -22.453125 C 30.929688 -22.890625 31.316406 -23.09375 31.890625 -23.0625 C 32.472656 -23.03125 32.992188 -22.851562 33.453125 -22.53125 C 33.921875 -22.21875 34.0625 -21.789062 33.875 -21.25 C 33.457031 -19.851562 32.859375 -18.394531 32.078125 -16.875 C 31.296875 -15.351562 30.242188 -14.023438 28.921875 -12.890625 C 27.597656 -11.753906 25.878906 -11.039062 23.765625 -10.75 L 23.359375 -10.6875 C 22.148438 -8.269531 20.628906 -6.257812 18.796875 -4.65625 C 16.972656 -3.050781 15.019531 -2.101562 12.9375 -1.8125 C 11.070312 -1.550781 9.460938 -1.898438 8.109375 -2.859375 C 6.765625 -3.816406 6.125 -5.628906 6.1875 -8.296875 C 6.21875 -9.046875 5.9375 -9.398438 5.34375 -9.359375 C 4.75 -9.328125 4.429688 -8.882812 4.390625 -8.03125 C 4.234375 -5.582031 4.070312 -3.128906 3.90625 -0.671875 C 3.75 1.773438 3.492188 4.035156 3.140625 6.109375 C 2.785156 8.191406 2.28125 9.890625 1.625 11.203125 C 0.96875 12.515625 0.0546875 13.25 -1.109375 13.40625 C -2.710938 13.632812 -3.925781 13.40625 -4.75 12.71875 C -5.570312 12.039062 -6.082031 10.988281 -6.28125 9.5625 C -6.5625 7.570312 -6.285156 4.882812 -5.453125 1.5 C -4.628906 -1.882812 -3.691406 -5.8125 -2.640625 -10.28125 C -2.367188 -11.476562 -2.085938 -12.726562 -1.796875 -14.03125 C -1.515625 -15.332031 -1.242188 -16.660156 -0.984375 -18.015625 C -0.390625 -21.285156 0.117188 -23.929688 0.546875 -25.953125 C 0.972656 -27.972656 1.382812 -29.53125 1.78125 -30.625 C 2.175781 -31.726562 2.628906 -32.515625 3.140625 -32.984375 C 3.648438 -33.460938 4.316406 -33.757812 5.140625 -33.875 C 6.265625 -34.03125 7.03125 -33.910156 7.4375 -33.515625 C 7.84375 -33.128906 8.046875 -32.628906 8.046875 -32.015625 C 8.023438 -31.523438 8.265625 -31.238281 8.765625 -31.15625 C 9.265625 -31.070312 9.734375 -31.320312 10.171875 -31.90625 C 11.148438 -33.195312 12.144531 -34.066406 13.15625 -34.515625 C 14.175781 -34.972656 15.1875 -35.273438 16.1875 -35.421875 C 18.75 -35.773438 20.929688 -35.179688 22.734375 -33.640625 C 24.535156 -32.097656 25.648438 -29.789062 26.078125 -26.71875 C 26.273438 -25.332031 26.359375 -23.953125 26.328125 -22.578125 C 26.296875 -21.203125 26.179688 -19.859375 25.984375 -18.546875 C 26.929688 -18.679688 27.800781 -19.054688 28.59375 -19.671875 C 29.394531 -20.296875 30.109375 -21.222656 30.734375 -22.453125 Z M 12.28125 -15.453125 C 13.363281 -15.597656 14.269531 -16.050781 15 -16.8125 C 15.738281 -17.570312 16.28125 -18.453125 16.625 -19.453125 C 16.976562 -20.453125 17.09375 -21.410156 16.96875 -22.328125 C 16.832031 -23.273438 16.4375 -24.046875 15.78125 -24.640625 C 15.125 -25.234375 14.164062 -25.441406 12.90625 -25.265625 C 11.863281 -25.117188 10.984375 -24.6875 10.265625 -23.96875 C 9.546875 -23.257812 9.019531 -22.40625 8.6875 -21.40625 C 8.363281 -20.414062 8.269531 -19.4375 8.40625 -18.46875 C 8.539062 -17.519531 8.914062 -16.738281 9.53125 -16.125 C 10.144531 -15.507812 11.0625 -15.285156 12.28125 -15.453125 Z M 12.28125 -15.453125 "/></g></g></g><g fill="#e474ba" fill-opacity="1"><g transform="translate(208.945698, 98.289059)"><g><path d="M 30.734375 -22.453125 C 30.929688 -22.890625 31.316406 -23.09375 31.890625 -23.0625 C 32.472656 -23.03125 32.992188 -22.851562 33.453125 -22.53125 C 33.921875 -22.21875 34.0625 -21.789062 33.875 -21.25 C 33.457031 -19.851562 32.859375 -18.394531 32.078125 -16.875 C 31.296875 -15.351562 30.242188 -14.023438 28.921875 -12.890625 C 27.597656 -11.753906 25.878906 -11.039062 23.765625 -10.75 L 23.359375 -10.6875 C 22.148438 -8.269531 20.628906 -6.257812 18.796875 -4.65625 C 16.972656 -3.050781 15.019531 -2.101562 12.9375 -1.8125 C 11.070312 -1.550781 9.460938 -1.898438 8.109375 -2.859375 C 6.765625 -3.816406 6.125 -5.628906 6.1875 -8.296875 C 6.21875 -9.046875 5.9375 -9.398438 5.34375 -9.359375 C 4.75 -9.328125 4.429688 -8.882812 4.390625 -8.03125 C 4.234375 -5.582031 4.070312 -3.128906 3.90625 -0.671875 C 3.75 1.773438 3.492188 4.035156 3.140625 6.109375 C 2.785156 8.191406 2.28125 9.890625 1.625 11.203125 C 0.96875 12.515625 0.0546875 13.25 -1.109375 13.40625 C -2.710938 13.632812 -3.925781 13.40625 -4.75 12.71875 C -5.570312 12.039062 -6.082031 10.988281 -6.28125 9.5625 C -6.5625 7.570312 -6.285156 4.882812 -5.453125 1.5 C -4.628906 -1.882812 -3.691406 -5.8125 -2.640625 -10.28125 C -2.367188 -11.476562 -2.085938 -12.726562 -1.796875 -14.03125 C -1.515625 -15.332031 -1.242188 -16.660156 -0.984375 -18.015625 C -0.390625 -21.285156 0.117188 -23.929688 0.546875 -25.953125 C 0.972656 -27.972656 1.382812 -29.53125 1.78125 -30.625 C 2.175781 -31.726562 2.628906 -32.515625 3.140625 -32.984375 C 3.648438 -33.460938 4.316406 -33.757812 5.140625 -33.875 C 6.265625 -34.03125 7.03125 -33.910156 7.4375 -33.515625 C 7.84375 -33.128906 8.046875 -32.628906 8.046875 -32.015625 C 8.023438 -31.523438 8.265625 -31.238281 8.765625 -31.15625 C 9.265625 -31.070312 9.734375 -31.320312 10.171875 -31.90625 C 11.148438 -33.195312 12.144531 -34.066406 13.15625 -34.515625 C 14.175781 -34.972656 15.1875 -35.273438 16.1875 -35.421875 C 18.75 -35.773438 20.929688 -35.179688 22.734375 -33.640625 C 24.535156 -32.097656 25.648438 -29.789062 26.078125 -26.71875 C 26.273438 -25.332031 26.359375 -23.953125 26.328125 -22.578125 C 26.296875 -21.203125 26.179688 -19.859375 25.984375 -18.546875 C 26.929688 -18.679688 27.800781 -19.054688 28.59375 -19.671875 C 29.394531 -20.296875 30.109375 -21.222656 30.734375 -22.453125 Z M 12.28125 -15.453125 C 13.363281 -15.597656 14.269531 -16.050781 15 -16.8125 C 15.738281 -17.570312 16.28125 -18.453125 16.625 -19.453125 C 16.976562 -20.453125 17.09375 -21.410156 16.96875 -22.328125 C 16.832031 -23.273438 16.4375 -24.046875 15.78125 -24.640625 C 15.125 -25.234375 14.164062 -25.441406 12.90625 -25.265625 C 11.863281 -25.117188 10.984375 -24.6875 10.265625 -23.96875 C 9.546875 -23.257812 9.019531 -22.40625 8.6875 -21.40625 C 8.363281 -20.414062 8.269531 -19.4375 8.40625 -18.46875 C 8.539062 -17.519531 8.914062 -16.738281 9.53125 -16.125 C 10.144531 -15.507812 11.0625 -15.285156 12.28125 -15.453125 Z M 12.28125 -15.453125 "/></g></g></g><g fill="#e474ba" fill-opacity="1"><g transform="translate(240.664101, 93.851852)"><g><path d="M 44.546875 -31.21875 C 44.898438 -28.65625 44.457031 -25.960938 43.21875 -23.140625 C 41.976562 -20.316406 39.613281 -17.457031 36.125 -14.5625 C 32.644531 -11.664062 27.738281 -8.875 21.40625 -6.1875 C 20.625 -1.082031 19.613281 3.054688 18.375 6.234375 C 17.132812 9.421875 15.578125 11.804688 13.703125 13.390625 C 11.828125 14.972656 9.566406 15.945312 6.921875 16.3125 C 3.492188 16.789062 0.71875 16.296875 -1.40625 14.828125 C -3.53125 13.367188 -4.773438 11.316406 -5.140625 8.671875 C -5.398438 6.859375 -5.242188 5.222656 -4.671875 3.765625 C -4.109375 2.304688 -3.347656 1.132812 -2.390625 0.25 C -1.429688 -0.625 -0.492188 -1.144531 0.421875 -1.3125 C 0.835938 -0.800781 1.414062 -0.410156 2.15625 -0.140625 C 2.90625 0.128906 3.75 0.285156 4.6875 0.328125 L 4.71875 0.59375 C 4.0625 0.914062 3.78125 1.398438 3.875 2.046875 C 3.925781 2.441406 4.191406 2.78125 4.671875 3.0625 C 5.148438 3.34375 5.863281 3.414062 6.8125 3.28125 C 8.71875 2.976562 10.40625 2.179688 11.875 0.890625 C 13.351562 -0.398438 14.5 -2.007812 15.3125 -3.9375 C 16.125 -5.863281 16.5 -7.878906 16.4375 -9.984375 C 16.414062 -10.742188 16.160156 -11.128906 15.671875 -11.140625 C 15.179688 -11.160156 14.816406 -10.734375 14.578125 -9.859375 C 14.015625 -7.578125 13.039062 -5.695312 11.65625 -4.21875 C 10.28125 -2.75 8.53125 -1.863281 6.40625 -1.5625 C 4.675781 -1.320312 3.085938 -1.6875 1.640625 -2.65625 C 0.203125 -3.625 -0.6875 -5.34375 -1.03125 -7.8125 C -1.164062 -8.8125 -1.28125 -10.207031 -1.375 -12 C -1.46875 -13.800781 -1.335938 -15.804688 -0.984375 -18.015625 C -0.128906 -22.992188 0.882812 -26.847656 2.0625 -29.578125 C 3.25 -32.316406 4.75 -33.8125 6.5625 -34.0625 C 7.914062 -34.257812 8.710938 -33.484375 8.953125 -31.734375 C 9.148438 -30.359375 9.097656 -28.914062 8.796875 -27.40625 C 8.492188 -25.90625 8.203125 -24.4375 7.921875 -23 C 7.640625 -21.570312 7.585938 -20.207031 7.765625 -18.90625 C 7.898438 -18 8.1875 -17.3125 8.625 -16.84375 C 9.0625 -16.375 9.820312 -16.21875 10.90625 -16.375 C 12.34375 -16.570312 13.429688 -17.148438 14.171875 -18.109375 C 14.921875 -19.078125 15.445312 -20.359375 15.75 -21.953125 C 16.488281 -26.390625 17.394531 -29.832031 18.46875 -32.28125 C 19.550781 -34.738281 20.914062 -36.082031 22.5625 -36.3125 C 23.507812 -36.4375 24.265625 -36.316406 24.828125 -35.953125 C 25.390625 -35.585938 25.742188 -34.882812 25.890625 -33.84375 C 26.046875 -32.675781 25.914062 -31.273438 25.5 -29.640625 C 25.09375 -28.015625 24.585938 -25.96875 23.984375 -23.5 C 23.378906 -21.03125 22.859375 -17.882812 22.421875 -14.0625 C 24.921875 -15.476562 26.8125 -16.972656 28.09375 -18.546875 C 29.375 -20.117188 30.207031 -21.660156 30.59375 -23.171875 C 30.976562 -24.679688 31.085938 -26.019531 30.921875 -27.1875 C 30.773438 -28.269531 30.554688 -29.054688 30.265625 -29.546875 C 29.972656 -30.035156 29.679688 -30.378906 29.390625 -30.578125 C 29.097656 -30.785156 28.828125 -30.992188 28.578125 -31.203125 C 28.328125 -31.410156 28.164062 -31.753906 28.09375 -32.234375 C 27.851562 -33.960938 28.34375 -35.421875 29.5625 -36.609375 C 30.789062 -37.796875 32.460938 -38.535156 34.578125 -38.828125 C 37.097656 -39.179688 39.285156 -38.722656 41.140625 -37.453125 C 43.003906 -36.191406 44.140625 -34.113281 44.546875 -31.21875 Z M 44.546875 -31.21875 "/></g></g></g><g fill="#e474ba" fill-opacity="1"><g transform="translate(277.721922, 88.667694)"><g/></g></g><g fill="#e474ba" fill-opacity="1"><g transform="translate(51.161023, 190.534828)"><g><path d="M 8.375 1.59375 C 5.851562 1.945312 3.6875 1.710938 1.875 0.890625 C 0.0625 0.0664062 -1.367188 -1.128906 -2.421875 -2.703125 C -3.484375 -4.285156 -4.140625 -5.960938 -4.390625 -7.734375 C -4.640625 -9.515625 -4.519531 -11.265625 -4.03125 -12.984375 C -3.539062 -14.710938 -2.71875 -16.175781 -1.5625 -17.375 C -0.40625 -18.570312 1.039062 -19.289062 2.78125 -19.53125 C 3.425781 -19.625 3.785156 -19.414062 3.859375 -18.90625 C 4.054688 -17.46875 4.878906 -16.398438 6.328125 -15.703125 C 7.773438 -15.003906 9.34375 -14.769531 11.03125 -15 C 12.507812 -15.207031 13.972656 -15.796875 15.421875 -16.765625 C 16.867188 -17.742188 18.203125 -19.15625 19.421875 -21 C 20.648438 -22.851562 21.578125 -25.148438 22.203125 -27.890625 C 22.566406 -29.441406 22.925781 -31.050781 23.28125 -32.71875 C 23.644531 -34.382812 24.015625 -35.945312 24.390625 -37.40625 C 24.660156 -38.59375 25.117188 -39.472656 25.765625 -40.046875 C 26.410156 -40.628906 27.210938 -40.988281 28.171875 -41.125 C 29.554688 -41.320312 30.507812 -41.132812 31.03125 -40.5625 C 31.550781 -39.988281 31.71875 -39.140625 31.53125 -38.015625 C 30.800781 -34.378906 31.476562 -32.707031 33.5625 -33 C 34.9375 -33.195312 36.144531 -33.921875 37.1875 -35.171875 C 38.226562 -36.421875 38.613281 -38.039062 38.34375 -40.03125 C 38.15625 -41.375 37.566406 -42.394531 36.578125 -43.09375 C 35.597656 -43.800781 34.375 -44.25 32.90625 -44.4375 C 31.445312 -44.632812 29.851562 -44.609375 28.125 -44.359375 C 25.601562 -44.015625 23.328125 -43.378906 21.296875 -42.453125 C 19.265625 -41.523438 17.691406 -40.320312 16.578125 -38.84375 C 15.460938 -37.363281 15.050781 -35.582031 15.34375 -33.5 C 15.46875 -32.550781 15.8125 -31.796875 16.375 -31.234375 C 16.9375 -30.671875 17.5625 -30.4375 18.25 -30.53125 C 18.664062 -29.882812 18.804688 -29.050781 18.671875 -28.03125 C 18.546875 -27.019531 18.164062 -26.015625 17.53125 -25.015625 C 16.90625 -24.023438 16.035156 -23.144531 14.921875 -22.375 C 13.816406 -21.601562 12.488281 -21.109375 10.9375 -20.890625 C 9.15625 -20.640625 7.601562 -20.828125 6.28125 -21.453125 C 4.957031 -22.085938 3.898438 -23 3.109375 -24.1875 C 2.328125 -25.382812 1.832031 -26.722656 1.625 -28.203125 C 1.238281 -31.015625 1.523438 -33.773438 2.484375 -36.484375 C 3.453125 -39.203125 5.035156 -41.703125 7.234375 -43.984375 C 9.429688 -46.265625 12.207031 -48.203125 15.5625 -49.796875 C 18.925781 -51.398438 22.816406 -52.507812 27.234375 -53.125 C 31.953125 -53.789062 35.921875 -53.75 39.140625 -53 C 42.359375 -52.257812 44.847656 -51.03125 46.609375 -49.3125 C 48.378906 -47.59375 49.425781 -45.582031 49.75 -43.28125 C 49.988281 -41.582031 49.851562 -39.9375 49.34375 -38.34375 C 48.84375 -36.75 48.035156 -35.34375 46.921875 -34.125 C 45.816406 -32.914062 44.457031 -32.039062 42.84375 -31.5 C 42.351562 -31.300781 42.117188 -31.046875 42.140625 -30.734375 C 42.160156 -30.429688 42.269531 -30.1875 42.46875 -30 C 43.457031 -29.289062 44.335938 -28.335938 45.109375 -27.140625 C 45.890625 -25.953125 46.421875 -24.34375 46.703125 -22.3125 C 47.160156 -19.0625 46.851562 -16.125 45.78125 -13.5 C 44.71875 -10.875 43.148438 -8.738281 41.078125 -7.09375 C 39.015625 -5.457031 36.734375 -4.46875 34.234375 -4.125 C 31.398438 -3.726562 29.023438 -4.222656 27.109375 -5.609375 C 25.191406 -6.992188 23.960938 -9.023438 23.421875 -11.703125 C 21.535156 -7.804688 19.320312 -4.722656 16.78125 -2.453125 C 14.25 -0.179688 11.445312 1.164062 8.375 1.59375 Z M 32.8125 -18.328125 C 34.382812 -18.546875 35.515625 -19.363281 36.203125 -20.78125 C 36.890625 -22.195312 37.125 -23.664062 36.90625 -25.1875 C 36.78125 -26.09375 36.332031 -26.859375 35.5625 -27.484375 C 34.789062 -28.109375 33.671875 -28.289062 32.203125 -28.03125 C 30.765625 -27.832031 29.742188 -27.148438 29.140625 -25.984375 C 28.535156 -24.828125 28.320312 -23.617188 28.5 -22.359375 C 28.664062 -21.179688 29.101562 -20.164062 29.8125 -19.3125 C 30.519531 -18.46875 31.519531 -18.140625 32.8125 -18.328125 Z M 32.8125 -18.328125 "/></g></g></g><g fill="#e474ba" fill-opacity="1"><g transform="translate(102.833423, 183.306182)"><g><path d="M 8.140625 -37 C 6.578125 -36.78125 5.1875 -36.925781 3.96875 -37.4375 C 2.75 -37.957031 2.019531 -39.082031 1.78125 -40.8125 C 1.457031 -43.113281 1.875 -44.773438 3.03125 -45.796875 C 4.195312 -46.816406 5.664062 -47.453125 7.4375 -47.703125 C 9.082031 -47.929688 10.53125 -47.757812 11.78125 -47.1875 C 13.039062 -46.613281 13.722656 -45.296875 13.828125 -43.234375 C 13.929688 -41.210938 13.429688 -39.726562 12.328125 -38.78125 C 11.222656 -37.832031 9.828125 -37.238281 8.140625 -37 Z M 5.84375 -0.8125 C 3.675781 -0.507812 2.023438 -1.085938 0.890625 -2.546875 C -0.234375 -4.003906 -0.953125 -5.859375 -1.265625 -8.109375 C -1.472656 -9.628906 -1.546875 -11.253906 -1.484375 -12.984375 C -1.421875 -14.710938 -1.253906 -16.390625 -0.984375 -18.015625 C -0.128906 -22.953125 0.832031 -26.789062 1.90625 -29.53125 C 2.976562 -32.269531 4.445312 -33.769531 6.3125 -34.03125 C 7.78125 -34.238281 8.648438 -33.363281 8.921875 -31.40625 C 9.109375 -30.101562 9.046875 -28.734375 8.734375 -27.296875 C 8.429688 -25.867188 8.132812 -24.460938 7.84375 -23.078125 C 7.550781 -21.691406 7.488281 -20.410156 7.65625 -19.234375 C 7.800781 -18.148438 8.179688 -17.375 8.796875 -16.90625 C 9.421875 -16.4375 10.164062 -16.265625 11.03125 -16.390625 C 12.03125 -16.523438 12.820312 -16.941406 13.40625 -17.640625 C 13.988281 -18.347656 14.539062 -19.222656 15.0625 -20.265625 C 15.34375 -20.828125 15.757812 -21.082031 16.3125 -21.03125 C 16.875 -20.976562 17.367188 -20.75 17.796875 -20.34375 C 18.222656 -19.9375 18.359375 -19.523438 18.203125 -19.109375 C 17.867188 -18.359375 17.5 -17.289062 17.09375 -15.90625 C 16.695312 -14.53125 16.1875 -13.023438 15.5625 -11.390625 C 14.945312 -9.765625 14.203125 -8.191406 13.328125 -6.671875 C 12.460938 -5.148438 11.421875 -3.851562 10.203125 -2.78125 C 8.992188 -1.707031 7.539062 -1.050781 5.84375 -0.8125 Z M 5.84375 -0.8125 "/></g></g></g><g fill="#e474ba" fill-opacity="1"><g transform="translate(118.822622, 181.069392)"><g><path d="M 24.6875 -21.609375 C 24.96875 -22.171875 25.398438 -22.414062 25.984375 -22.34375 C 26.566406 -22.28125 27.066406 -22.054688 27.484375 -21.671875 C 27.910156 -21.285156 28.023438 -20.859375 27.828125 -20.390625 C 27.492188 -19.648438 27.113281 -18.570312 26.6875 -17.15625 C 26.269531 -15.75 25.742188 -14.238281 25.109375 -12.625 C 24.472656 -11.019531 23.6875 -9.453125 22.75 -7.921875 C 21.8125 -6.390625 20.695312 -5.09375 19.40625 -4.03125 C 18.125 -2.976562 16.597656 -2.328125 14.828125 -2.078125 C 13.046875 -1.828125 11.585938 -1.960938 10.453125 -2.484375 C 9.316406 -3.015625 8.445312 -3.78125 7.84375 -4.78125 C 7.238281 -5.78125 6.863281 -6.820312 6.71875 -7.90625 C 6.507812 -9.414062 6.523438 -10.941406 6.765625 -12.484375 C 7.015625 -14.023438 7.347656 -15.503906 7.765625 -16.921875 C 8.191406 -18.347656 8.550781 -19.65625 8.84375 -20.84375 C 9.144531 -22.039062 9.238281 -23.023438 9.125 -23.796875 C 9.070312 -24.148438 8.75 -24.628906 8.15625 -25.234375 C 7.5625 -25.835938 6.585938 -26.285156 5.234375 -26.578125 C 4.960938 -25.648438 4.632812 -24.578125 4.25 -23.359375 C 3.863281 -22.140625 3.476562 -20.9375 3.09375 -19.75 C 2.707031 -18.5625 2.394531 -17.582031 2.15625 -16.8125 C 1.96875 -16.195312 1.570312 -15.925781 0.96875 -16 C 0.375 -16.070312 -0.148438 -16.316406 -0.609375 -16.734375 C -1.078125 -17.160156 -1.203125 -17.585938 -0.984375 -18.015625 C -0.503906 -18.960938 -0.015625 -20.320312 0.484375 -22.09375 C 0.984375 -23.875 1.414062 -25.539062 1.78125 -27.09375 C 1.09375 -27.207031 0.515625 -27.5 0.046875 -27.96875 C -0.410156 -28.4375 -0.71875 -29.257812 -0.875 -30.4375 C -1.007812 -31.34375 -0.894531 -32.273438 -0.53125 -33.234375 C -0.175781 -34.191406 0.382812 -35.035156 1.15625 -35.765625 C 1.9375 -36.492188 2.910156 -36.9375 4.078125 -37.09375 C 6.117188 -37.382812 8.132812 -37.269531 10.125 -36.75 C 12.125 -36.226562 13.8125 -35.453125 15.1875 -34.421875 C 16.570312 -33.398438 17.347656 -32.304688 17.515625 -31.140625 C 17.679688 -29.929688 17.609375 -28.753906 17.296875 -27.609375 C 16.992188 -26.460938 16.6875 -25.289062 16.375 -24.09375 C 16.0625 -22.90625 16 -21.640625 16.1875 -20.296875 C 16.3125 -19.378906 16.71875 -18.660156 17.40625 -18.140625 C 18.09375 -17.617188 19.175781 -17.460938 20.65625 -17.671875 C 21.65625 -17.816406 22.445312 -18.25 23.03125 -18.96875 C 23.613281 -19.695312 24.164062 -20.578125 24.6875 -21.609375 Z M 24.6875 -21.609375 "/></g></g></g><g fill="#e474ba" fill-opacity="1"><g transform="translate(144.496328, 177.477801)"><g><path d="M 6.5625 -0.921875 C 4.132812 -0.578125 2.238281 -1.070312 0.875 -2.40625 C -0.476562 -3.738281 -1.320312 -5.609375 -1.65625 -8.015625 C -2 -10.421875 -1.882812 -13.078125 -1.3125 -15.984375 C -0.976562 -17.722656 -0.59375 -19.585938 -0.15625 -21.578125 C 0.269531 -23.578125 0.734375 -25.765625 1.234375 -28.140625 C 0.273438 -28.015625 -0.484375 -28.160156 -1.046875 -28.578125 C -1.609375 -29.003906 -2.015625 -29.546875 -2.265625 -30.203125 C -2.515625 -30.859375 -2.59375 -31.441406 -2.5 -31.953125 C -2.414062 -32.472656 -2.1875 -32.757812 -1.8125 -32.8125 C 0.101562 -33.082031 1.523438 -33.820312 2.453125 -35.03125 C 3.378906 -36.25 3.976562 -37.476562 4.25 -38.71875 C 4.769531 -40.71875 5.363281 -42.019531 6.03125 -42.625 C 6.695312 -43.226562 7.441406 -43.585938 8.265625 -43.703125 C 9.472656 -43.878906 10.300781 -43.476562 10.75 -42.5 C 11.195312 -41.53125 11.0625 -39.953125 10.34375 -37.765625 C 10.019531 -36.660156 9.875 -35.832031 9.90625 -35.28125 C 9.945312 -34.738281 10.269531 -34.507812 10.875 -34.59375 L 14.25 -35.0625 C 14.6875 -35.125 15.007812 -34.859375 15.21875 -34.265625 C 15.4375 -33.679688 15.523438 -32.984375 15.484375 -32.171875 C 15.441406 -31.367188 15.253906 -30.632812 14.921875 -29.96875 C 14.597656 -29.3125 14.109375 -28.941406 13.453125 -28.859375 C 11.460938 -28.578125 10 -28.289062 9.0625 -28 C 8.132812 -27.71875 7.515625 -27.25 7.203125 -26.59375 C 6.898438 -25.9375 6.632812 -24.835938 6.40625 -23.296875 C 6.039062 -20.941406 6.394531 -19.15625 7.46875 -17.9375 C 8.539062 -16.71875 10.03125 -16.242188 11.9375 -16.515625 C 13.238281 -16.703125 14.359375 -17.15625 15.296875 -17.875 C 16.234375 -18.601562 16.960938 -19.515625 17.484375 -20.609375 C 17.742188 -21.160156 18.15625 -21.398438 18.71875 -21.328125 C 19.28125 -21.265625 19.773438 -21.039062 20.203125 -20.65625 C 20.640625 -20.269531 20.78125 -19.847656 20.625 -19.390625 C 20.332031 -18.609375 19.953125 -17.519531 19.484375 -16.125 C 19.015625 -14.726562 18.429688 -13.207031 17.734375 -11.5625 C 17.035156 -9.925781 16.171875 -8.347656 15.140625 -6.828125 C 14.117188 -5.304688 12.898438 -4.003906 11.484375 -2.921875 C 10.066406 -1.847656 8.425781 -1.179688 6.5625 -0.921875 Z M 6.5625 -0.921875 "/></g></g></g><g fill="#e474ba" fill-opacity="1"><g transform="translate(162.955395, 174.895492)"><g><path d="M 4.421875 -0.625 C 2.554688 -0.363281 1.15625 -0.816406 0.21875 -1.984375 C -0.71875 -3.160156 -1.320312 -4.703125 -1.59375 -6.609375 C -1.820312 -8.242188 -1.863281 -10.066406 -1.71875 -12.078125 C -1.570312 -14.085938 -1.304688 -16.070312 -0.921875 -18.03125 C 0.398438 -24.664062 1.523438 -30.234375 2.453125 -34.734375 C 3.390625 -39.242188 4.421875 -42.691406 5.546875 -45.078125 C 6.671875 -47.472656 8.101562 -48.796875 9.84375 -49.046875 C 11.1875 -49.234375 12.085938 -48.847656 12.546875 -47.890625 C 13.015625 -46.929688 12.914062 -45.351562 12.25 -43.15625 C 11.695312 -41.164062 11.050781 -39.222656 10.3125 -37.328125 C 9.582031 -35.441406 9.132812 -33.710938 8.96875 -32.140625 C 8.800781 -30.734375 8.929688 -29.976562 9.359375 -29.875 C 9.796875 -29.769531 10.316406 -30.109375 10.921875 -30.890625 C 11.984375 -32.222656 13.113281 -33.304688 14.3125 -34.140625 C 15.519531 -34.984375 16.84375 -35.503906 18.28125 -35.703125 C 20.269531 -35.984375 21.820312 -35.601562 22.9375 -34.5625 C 24.050781 -33.53125 24.726562 -32.1875 24.96875 -30.53125 C 25.125 -29.40625 25.09375 -28.347656 24.875 -27.359375 C 24.65625 -26.378906 24.429688 -25.421875 24.203125 -24.484375 C 23.984375 -23.554688 23.945312 -22.550781 24.09375 -21.46875 C 24.394531 -19.300781 25.546875 -18.359375 27.546875 -18.640625 C 28.546875 -18.773438 29.332031 -19.203125 29.90625 -19.921875 C 30.488281 -20.648438 31.046875 -21.535156 31.578125 -22.578125 C 31.847656 -23.140625 32.273438 -23.382812 32.859375 -23.3125 C 33.441406 -23.25 33.945312 -23.023438 34.375 -22.640625 C 34.8125 -22.253906 34.925781 -21.828125 34.71875 -21.359375 C 34.375 -20.609375 33.992188 -19.53125 33.578125 -18.125 C 33.160156 -16.71875 32.632812 -15.207031 32 -13.59375 C 31.363281 -11.976562 30.578125 -10.40625 29.640625 -8.875 C 28.703125 -7.351562 27.585938 -6.0625 26.296875 -5 C 25.015625 -3.9375 23.484375 -3.28125 21.703125 -3.03125 C 19.578125 -2.738281 18 -3.203125 16.96875 -4.421875 C 15.9375 -5.640625 15.289062 -7.164062 15.03125 -9 C 14.800781 -10.644531 14.84375 -12.25 15.15625 -13.8125 C 15.46875 -15.375 15.785156 -16.8125 16.109375 -18.125 C 16.441406 -19.4375 16.546875 -20.523438 16.421875 -21.390625 C 16.328125 -22.128906 16.023438 -22.660156 15.515625 -22.984375 C 15.003906 -23.304688 14.378906 -23.414062 13.640625 -23.3125 C 12.378906 -23.132812 11.296875 -22.441406 10.390625 -21.234375 C 9.484375 -20.023438 8.820312 -18.53125 8.40625 -16.75 C 7.988281 -14.96875 7.914062 -13.101562 8.1875 -11.15625 L 8.59375 -8.234375 C 8.75 -7.148438 8.769531 -6.054688 8.65625 -4.953125 C 8.539062 -3.859375 8.160156 -2.910156 7.515625 -2.109375 C 6.878906 -1.316406 5.847656 -0.820312 4.421875 -0.625 Z M 4.421875 -0.625 "/></g></g></g><g fill="#e474ba" fill-opacity="1"><g transform="translate(195.518755, 170.340081)"><g><path d="M 7.609375 -1.0625 C 5.054688 -0.707031 3.054688 -1.332031 1.609375 -2.9375 C 0.171875 -4.550781 -0.726562 -6.660156 -1.09375 -9.265625 C -1.425781 -11.691406 -1.429688 -14.296875 -1.109375 -17.078125 C -0.796875 -19.859375 -0.101562 -22.53125 0.96875 -25.09375 C 2.039062 -27.65625 3.523438 -29.832031 5.421875 -31.625 C 7.316406 -33.414062 9.644531 -34.503906 12.40625 -34.890625 C 13.707031 -35.066406 14.738281 -35.050781 15.5 -34.84375 C 16.257812 -34.644531 16.851562 -34.363281 17.28125 -34 C 17.707031 -33.644531 18.070312 -33.320312 18.375 -33.03125 C 18.6875 -32.738281 19.054688 -32.625 19.484375 -32.6875 C 19.835938 -32.738281 20.066406 -33.164062 20.171875 -33.96875 C 20.285156 -34.78125 20.453125 -35.984375 20.671875 -37.578125 C 20.890625 -39.171875 21.296875 -41.144531 21.890625 -43.5 C 22.429688 -45.601562 23.03125 -47.21875 23.6875 -48.34375 C 24.351562 -49.46875 25.023438 -50.257812 25.703125 -50.71875 C 26.390625 -51.175781 27.0625 -51.453125 27.71875 -51.546875 C 28.84375 -51.703125 29.664062 -51.25 30.1875 -50.1875 C 30.71875 -49.132812 30.679688 -47.617188 30.078125 -45.640625 L 25.34375 -25.8125 C 24.601562 -23.28125 24.457031 -21.40625 24.90625 -20.1875 C 25.363281 -18.96875 26.304688 -18.460938 27.734375 -18.671875 C 28.859375 -18.828125 29.796875 -19.253906 30.546875 -19.953125 C 31.296875 -20.648438 31.921875 -21.566406 32.421875 -22.703125 C 32.703125 -23.253906 33.125 -23.492188 33.6875 -23.421875 C 34.25 -23.359375 34.738281 -23.132812 35.15625 -22.75 C 35.582031 -22.363281 35.71875 -21.941406 35.5625 -21.484375 C 34.988281 -19.847656 34.390625 -18.046875 33.765625 -16.078125 C 33.140625 -14.117188 32.398438 -12.21875 31.546875 -10.375 C 30.703125 -8.53125 29.660156 -6.957031 28.421875 -5.65625 C 27.191406 -4.363281 25.671875 -3.59375 23.859375 -3.34375 C 21.773438 -3.050781 20.109375 -3.742188 18.859375 -5.421875 C 17.609375 -7.109375 16.96875 -9.3125 16.9375 -12.03125 L 16.6875 -12 C 15.707031 -9.175781 14.445312 -6.71875 12.90625 -4.625 C 11.363281 -2.53125 9.597656 -1.34375 7.609375 -1.0625 Z M 11.640625 -15.359375 C 12.722656 -15.515625 13.628906 -15.972656 14.359375 -16.734375 C 15.085938 -17.492188 15.625 -18.375 15.96875 -19.375 C 16.320312 -20.375 16.4375 -21.332031 16.3125 -22.25 C 16.175781 -23.195312 15.78125 -23.960938 15.125 -24.546875 C 14.46875 -25.140625 13.507812 -25.351562 12.25 -25.1875 C 11.207031 -25.039062 10.328125 -24.609375 9.609375 -23.890625 C 8.898438 -23.171875 8.378906 -22.3125 8.046875 -21.3125 C 7.722656 -20.320312 7.628906 -19.34375 7.765625 -18.375 C 7.898438 -17.425781 8.273438 -16.644531 8.890625 -16.03125 C 9.503906 -15.414062 10.421875 -15.191406 11.640625 -15.359375 Z M 11.640625 -15.359375 "/></g></g></g><g fill="#e474ba" fill-opacity="1"><g transform="translate(228.927071, 165.666466)"><g><path d="M 6.890625 -0.96875 C 4.679688 -0.65625 2.882812 -1.332031 1.5 -3 C 0.125 -4.664062 -0.765625 -6.945312 -1.171875 -9.84375 C -1.421875 -11.664062 -1.460938 -13.632812 -1.296875 -15.75 C -1.140625 -17.875 -0.753906 -19.992188 -0.140625 -22.109375 C 0.460938 -24.234375 1.320312 -26.203125 2.4375 -28.015625 C 3.5625 -29.828125 4.941406 -31.347656 6.578125 -32.578125 C 8.222656 -33.804688 10.164062 -34.578125 12.40625 -34.890625 C 13.707031 -35.066406 14.734375 -35.082031 15.484375 -34.9375 C 16.234375 -34.800781 16.816406 -34.585938 17.234375 -34.296875 C 17.660156 -34.003906 18.019531 -33.753906 18.3125 -33.546875 C 18.601562 -33.335938 18.960938 -33.265625 19.390625 -33.328125 C 20.128906 -33.429688 20.695312 -33.71875 21.09375 -34.1875 C 21.5 -34.664062 21.953125 -35.15625 22.453125 -35.65625 C 22.960938 -36.15625 23.710938 -36.472656 24.703125 -36.609375 C 25.566406 -36.722656 26.191406 -36.582031 26.578125 -36.1875 C 26.960938 -35.800781 27.207031 -35.238281 27.3125 -34.5 C 27.476562 -33.28125 27.3125 -32.03125 26.8125 -30.75 C 26.3125 -29.46875 25.820312 -27.820312 25.34375 -25.8125 C 24.601562 -23.28125 24.457031 -21.40625 24.90625 -20.1875 C 25.363281 -18.96875 26.304688 -18.460938 27.734375 -18.671875 C 28.859375 -18.828125 29.796875 -19.253906 30.546875 -19.953125 C 31.296875 -20.648438 31.921875 -21.566406 32.421875 -22.703125 C 32.703125 -23.253906 33.125 -23.492188 33.6875 -23.421875 C 34.25 -23.359375 34.738281 -23.132812 35.15625 -22.75 C 35.582031 -22.363281 35.71875 -21.941406 35.5625 -21.484375 C 34.988281 -19.847656 34.390625 -18.046875 33.765625 -16.078125 C 33.140625 -14.117188 32.398438 -12.21875 31.546875 -10.375 C 30.703125 -8.53125 29.660156 -6.957031 28.421875 -5.65625 C 27.191406 -4.363281 25.671875 -3.59375 23.859375 -3.34375 C 21.597656 -3.019531 19.875 -3.703125 18.6875 -5.390625 C 17.507812 -7.085938 16.925781 -9.300781 16.9375 -12.03125 L 16.6875 -12 C 15.757812 -9.1875 14.46875 -6.722656 12.8125 -4.609375 C 11.164062 -2.503906 9.191406 -1.289062 6.890625 -0.96875 Z M 11.5 -15.34375 C 12.632812 -15.5 13.578125 -15.957031 14.328125 -16.71875 C 15.078125 -17.488281 15.625 -18.375 15.96875 -19.375 C 16.320312 -20.375 16.4375 -21.332031 16.3125 -22.25 C 16.15625 -23.332031 15.726562 -24.128906 15.03125 -24.640625 C 14.34375 -25.160156 13.476562 -25.347656 12.4375 -25.203125 C 11.3125 -25.046875 10.378906 -24.609375 9.640625 -23.890625 C 8.910156 -23.171875 8.378906 -22.3125 8.046875 -21.3125 C 7.722656 -20.320312 7.628906 -19.34375 7.765625 -18.375 C 7.921875 -17.289062 8.332031 -16.476562 9 -15.9375 C 9.675781 -15.40625 10.507812 -15.207031 11.5 -15.34375 Z M 11.5 -15.34375 "/></g></g></g><g fill="#e474ba" fill-opacity="1"><g transform="translate(262.335375, 160.992852)"><g><path d="M 31.328125 -22.546875 C 31.523438 -22.972656 31.910156 -23.171875 32.484375 -23.140625 C 33.066406 -23.109375 33.585938 -22.929688 34.046875 -22.609375 C 34.515625 -22.296875 34.65625 -21.867188 34.46875 -21.328125 C 33.789062 -19.203125 33.140625 -17.117188 32.515625 -15.078125 C 31.898438 -13.046875 31.203125 -11.179688 30.421875 -9.484375 C 29.640625 -7.785156 28.707031 -6.382812 27.625 -5.28125 C 26.539062 -4.1875 25.21875 -3.53125 23.65625 -3.3125 C 22.707031 -3.175781 21.882812 -3.539062 21.1875 -4.40625 C 20.425781 0.238281 19.472656 4.007812 18.328125 6.90625 C 17.191406 9.8125 15.773438 12 14.078125 13.46875 C 12.378906 14.9375 10.320312 15.84375 7.90625 16.1875 C 4.476562 16.664062 1.695312 16.140625 -0.4375 14.609375 C -2.570312 13.078125 -3.859375 10.75 -4.296875 7.625 C -4.523438 5.976562 -4.484375 4.523438 -4.171875 3.265625 C -3.867188 2.003906 -3.460938 0.984375 -2.953125 0.203125 C -2.441406 -0.566406 -1.960938 -1.082031 -1.515625 -1.34375 C -1.066406 -1.613281 -0.800781 -1.570312 -0.71875 -1.21875 C -0.3125 0.34375 0.546875 1.5625 1.859375 2.4375 C 3.179688 3.320312 4.832031 3.601562 6.8125 3.28125 C 8.71875 2.976562 10.40625 2.179688 11.875 0.890625 C 13.351562 -0.398438 14.5 -2.007812 15.3125 -3.9375 C 16.125 -5.863281 16.5 -7.878906 16.4375 -9.984375 C 16.414062 -10.742188 16.160156 -11.128906 15.671875 -11.140625 C 15.179688 -11.160156 14.816406 -10.734375 14.578125 -9.859375 C 14.015625 -7.578125 13.039062 -5.695312 11.65625 -4.21875 C 10.28125 -2.75 8.53125 -1.863281 6.40625 -1.5625 C 4.675781 -1.320312 3.085938 -1.6875 1.640625 -2.65625 C 0.203125 -3.625 -0.6875 -5.34375 -1.03125 -7.8125 C -1.164062 -8.8125 -1.28125 -10.207031 -1.375 -12 C -1.46875 -13.800781 -1.335938 -15.804688 -0.984375 -18.015625 C -0.128906 -22.992188 0.882812 -26.847656 2.0625 -29.578125 C 3.25 -32.316406 4.75 -33.8125 6.5625 -34.0625 C 7.914062 -34.257812 8.710938 -33.484375 8.953125 -31.734375 C 9.148438 -30.359375 9.097656 -28.914062 8.796875 -27.40625 C 8.492188 -25.90625 8.203125 -24.4375 7.921875 -23 C 7.640625 -21.570312 7.585938 -20.207031 7.765625 -18.90625 C 7.898438 -18 8.1875 -17.3125 8.625 -16.84375 C 9.0625 -16.375 9.820312 -16.21875 10.90625 -16.375 C 12.34375 -16.570312 13.429688 -17.148438 14.171875 -18.109375 C 14.921875 -19.078125 15.445312 -20.359375 15.75 -21.953125 C 16.488281 -26.390625 17.394531 -29.832031 18.46875 -32.28125 C 19.550781 -34.738281 20.914062 -36.082031 22.5625 -36.3125 C 23.507812 -36.4375 24.265625 -36.316406 24.828125 -35.953125 C 25.390625 -35.585938 25.742188 -34.882812 25.890625 -33.84375 C 26.078125 -32.5 25.878906 -30.820312 25.296875 -28.8125 C 24.710938 -26.8125 24.085938 -24.085938 23.421875 -20.640625 C 23.148438 -18.742188 23.296875 -17.46875 23.859375 -16.8125 C 24.421875 -16.164062 25.066406 -15.894531 25.796875 -16 C 26.796875 -16.144531 27.773438 -16.898438 28.734375 -18.265625 C 29.691406 -19.640625 30.554688 -21.066406 31.328125 -22.546875 Z M 31.328125 -22.546875 "/></g></g></g><g fill="#e474ba" fill-opacity="1"><g transform="translate(294.63875, 156.473811)"><g><path d="M 9.578125 -16.796875 C 8.316406 -16.617188 7.550781 -17.503906 7.28125 -19.453125 C 6.988281 -21.535156 6.847656 -23.957031 6.859375 -26.71875 C 6.867188 -29.476562 7.039062 -32.296875 7.375 -35.171875 C 7.707031 -38.046875 8.179688 -40.726562 8.796875 -43.21875 C 9.421875 -45.707031 10.195312 -47.753906 11.125 -49.359375 C 12.050781 -50.972656 13.125 -51.867188 14.34375 -52.046875 C 16.882812 -52.398438 18.347656 -51.171875 18.734375 -48.359375 C 18.910156 -47.140625 18.882812 -45.53125 18.65625 -43.53125 C 18.4375 -41.539062 18.0625 -39.367188 17.53125 -37.015625 C 17 -34.660156 16.398438 -32.3125 15.734375 -29.96875 C 15.066406 -27.625 14.347656 -25.46875 13.578125 -23.5 C 12.816406 -21.53125 12.085938 -19.9375 11.390625 -18.71875 C 10.703125 -17.507812 10.097656 -16.867188 9.578125 -16.796875 Z M 7.625 -0.390625 C 6.15625 -0.191406 4.800781 -0.554688 3.5625 -1.484375 C 2.332031 -2.421875 1.613281 -3.628906 1.40625 -5.109375 C 1.195312 -6.628906 1.554688 -7.992188 2.484375 -9.203125 C 3.421875 -10.421875 4.625 -11.128906 6.09375 -11.328125 C 7.613281 -11.546875 8.976562 -11.195312 10.1875 -10.28125 C 11.40625 -9.363281 12.117188 -8.144531 12.328125 -6.625 C 12.535156 -5.144531 12.179688 -3.789062 11.265625 -2.5625 C 10.359375 -1.332031 9.144531 -0.609375 7.625 -0.390625 Z M 7.625 -0.390625 "/></g></g></g></svg>