<svg xmlns="http://www.w3.org/2000/svg" xmlns:xlink="http://www.w3.org/1999/xlink" width="275" zoomAndPan="magnify" viewBox="0 0 206.25 47.25" height="63" preserveAspectRatio="xMidYMid meet" version="1.0"><defs><g/><clipPath id="a6133c5f29"><rect x="0" width="151" y="0" height="37"/></clipPath><clipPath id="936108fadb"><path d="M 0.160156 8 L 2 8 L 2 10 L 0.160156 10 Z M 0.160156 8 " clip-rule="nonzero"/></clipPath><clipPath id="7c3625239b"><rect x="0" width="3" y="0" height="13"/></clipPath></defs><g transform="matrix(1, 0, 0, 1, 27, 5)"><g clip-path="url(#a6133c5f29)"><g fill="#000000" fill-opacity="1"><g transform="translate(1.054959, 26.307675)"><g><path d="M 12.53125 -8.140625 C 12.53125 -5.773438 11.539062 -3.800781 9.5625 -2.21875 C 7.726562 -0.738281 5.597656 0 3.171875 0 L 2.265625 0 C 1.191406 0 0.65625 -0.707031 0.65625 -2.125 C 0.65625 -3.195312 0.957031 -4.828125 1.5625 -7.015625 L 3.828125 -15.203125 C 4.546875 -17.679688 4.90625 -19.390625 4.90625 -20.328125 C 4.90625 -20.910156 4.664062 -21.40625 4.1875 -21.8125 C 3.71875 -22.21875 3.484375 -22.503906 3.484375 -22.671875 C 3.484375 -22.984375 3.765625 -23.238281 4.328125 -23.4375 C 4.785156 -23.59375 5.203125 -23.671875 5.578125 -23.671875 C 6.953125 -23.671875 7.640625 -23.132812 7.640625 -22.0625 C 7.640625 -21.75 7.546875 -21.359375 7.359375 -20.890625 C 7.210938 -20.515625 7.0625 -20.132812 6.90625 -19.75 C 6.6875 -19.15625 6.195312 -17.394531 5.4375 -14.46875 C 4.65625 -11.457031 4.265625 -9.785156 4.265625 -9.453125 C 4.265625 -9.171875 4.476562 -9.03125 4.90625 -9.03125 C 5.25 -9.03125 6.003906 -9.472656 7.171875 -10.359375 C 8.347656 -11.253906 9.222656 -11.703125 9.796875 -11.703125 C 11.617188 -11.703125 12.53125 -10.515625 12.53125 -8.140625 Z M 10.5 -7.703125 C 10.5 -9.066406 10.117188 -9.75 9.359375 -9.75 C 9.066406 -9.75 8.703125 -9.648438 8.265625 -9.453125 C 6.609375 -8.703125 5.398438 -7.890625 4.640625 -7.015625 C 3.835938 -6.078125 3.25 -4.75 2.875 -3.03125 C 2.851562 -2.90625 2.84375 -2.796875 2.84375 -2.703125 C 2.84375 -1.941406 3.226562 -1.5625 4 -1.5625 C 4.582031 -1.5625 5.304688 -1.734375 6.171875 -2.078125 C 7.378906 -2.566406 8.382812 -3.296875 9.1875 -4.265625 C 10.0625 -5.328125 10.5 -6.472656 10.5 -7.703125 Z M 10.5 -7.703125 "/></g></g></g><g fill="#000000" fill-opacity="1"><g transform="translate(16.14041, 26.307675)"><g><path d="M 8.78125 -9.265625 C 8.78125 -8.335938 8.269531 -7.519531 7.25 -6.8125 C 6.332031 -6.15625 5.390625 -5.828125 4.421875 -5.828125 C 4.273438 -5.828125 4.054688 -5.851562 3.765625 -5.90625 C 3.472656 -5.96875 3.25 -6 3.09375 -6 C 2.195312 -6 1.75 -5.300781 1.75 -3.90625 C 1.75 -2.539062 2.398438 -1.859375 3.703125 -1.859375 C 4.441406 -1.859375 5.222656 -2.171875 6.046875 -2.796875 C 6.867188 -3.421875 7.253906 -3.734375 7.203125 -3.734375 C 7.753906 -3.734375 8.03125 -3.59375 8.03125 -3.3125 C 8.03125 -3.21875 7.976562 -3.070312 7.875 -2.875 C 7.425781 -2.019531 6.789062 -1.328125 5.96875 -0.796875 C 5.144531 -0.265625 4.253906 0 3.296875 0 C 2.148438 0 1.285156 -0.445312 0.703125 -1.34375 C 0.222656 -2.09375 -0.015625 -3.078125 -0.015625 -4.296875 C -0.015625 -6.179688 0.523438 -7.851562 1.609375 -9.3125 C 2.796875 -10.90625 4.300781 -11.703125 6.125 -11.703125 C 6.8125 -11.703125 7.425781 -11.460938 7.96875 -10.984375 C 8.507812 -10.515625 8.78125 -9.941406 8.78125 -9.265625 Z M 6.859375 -8.671875 C 6.859375 -9.046875 6.710938 -9.367188 6.421875 -9.640625 C 6.140625 -9.921875 5.8125 -10.0625 5.4375 -10.0625 C 4.945312 -10.0625 4.460938 -9.796875 3.984375 -9.265625 C 3.503906 -8.734375 3.265625 -8.222656 3.265625 -7.734375 C 3.265625 -7.515625 3.390625 -7.316406 3.640625 -7.140625 C 3.867188 -7.003906 4.097656 -6.9375 4.328125 -6.9375 C 4.828125 -6.9375 5.359375 -7.097656 5.921875 -7.421875 C 6.546875 -7.785156 6.859375 -8.203125 6.859375 -8.671875 Z M 6.859375 -8.671875 "/></g></g></g><g fill="#000000" fill-opacity="1"><g transform="translate(25.899116, 26.307675)"><g><path d="M 7.640625 -9.640625 C 7.640625 -8.804688 7.492188 -8.390625 7.203125 -8.390625 C 7.054688 -8.390625 6.695312 -8.648438 6.125 -9.171875 C 5.550781 -9.691406 5.054688 -9.953125 4.640625 -9.953125 C 4.179688 -9.953125 3.789062 -9.769531 3.46875 -9.40625 C 3.15625 -9.039062 3 -8.628906 3 -8.171875 C 3 -7.773438 3.335938 -7.269531 4.015625 -6.65625 C 5.265625 -5.539062 5.90625 -4.972656 5.9375 -4.953125 C 6.613281 -4.210938 6.953125 -3.503906 6.953125 -2.828125 C 6.953125 -1.984375 6.613281 -1.289062 5.9375 -0.75 C 5.3125 -0.25 4.566406 0 3.703125 0 C 2.984375 0 2.296875 -0.144531 1.640625 -0.4375 C 0.828125 -0.800781 0.421875 -1.296875 0.421875 -1.921875 C 0.421875 -2.890625 0.578125 -3.375 0.890625 -3.375 C 0.890625 -3.375 0.914062 -3.367188 0.96875 -3.359375 C 1.96875 -2.429688 2.832031 -1.96875 3.5625 -1.96875 C 4.414062 -1.96875 4.84375 -2.34375 4.84375 -3.09375 C 4.84375 -3.40625 4.59375 -3.8125 4.09375 -4.3125 C 3.3125 -5.082031 2.835938 -5.570312 2.671875 -5.78125 C 2.171875 -6.4375 1.921875 -7.125 1.921875 -7.84375 C 1.921875 -8.832031 2.203125 -9.703125 2.765625 -10.453125 C 3.367188 -11.285156 4.148438 -11.703125 5.109375 -11.703125 C 5.460938 -11.703125 5.894531 -11.597656 6.40625 -11.390625 C 6.976562 -11.148438 7.335938 -10.894531 7.484375 -10.625 C 7.585938 -10.4375 7.640625 -10.109375 7.640625 -9.640625 Z M 7.640625 -9.640625 "/></g></g></g><g fill="#000000" fill-opacity="1"><g transform="translate(35.589878, 26.307675)"><g><path d="M 8.4375 -11.3125 C 8.4375 -10.570312 7.90625 -10.203125 6.84375 -10.203125 C 6.6875 -10.203125 6.445312 -10.210938 6.125 -10.234375 C 5.800781 -10.265625 5.554688 -10.28125 5.390625 -10.28125 C 4.890625 -10.28125 4.535156 -10.070312 4.328125 -9.65625 C 4.253906 -9.53125 4.125 -9.109375 3.9375 -8.390625 L 2.515625 -3 C 2.492188 -2.925781 2.484375 -2.847656 2.484375 -2.765625 C 2.484375 -2.222656 2.734375 -1.953125 3.234375 -1.953125 C 3.671875 -1.953125 4.113281 -2.296875 4.5625 -2.984375 C 5.007812 -3.679688 5.367188 -4.03125 5.640625 -4.03125 C 6.066406 -4.03125 6.28125 -3.84375 6.28125 -3.46875 C 6.28125 -3.03125 6.003906 -2.410156 5.453125 -1.609375 C 4.710938 -0.535156 3.6875 0 2.375 0 C 1.894531 0 1.460938 -0.148438 1.078125 -0.453125 C 0.640625 -0.765625 0.421875 -1.148438 0.421875 -1.609375 C 0.421875 -2.410156 0.992188 -4.707031 2.140625 -8.5 C 2.367188 -9.238281 2.484375 -9.6875 2.484375 -9.84375 C 2.484375 -10.050781 2.289062 -10.164062 1.90625 -10.1875 C 2.1875 -10.164062 1.914062 -10.15625 1.09375 -10.15625 C 0.726562 -10.15625 0.546875 -10.296875 0.546875 -10.578125 C 0.546875 -11.097656 0.765625 -11.425781 1.203125 -11.5625 C 1.410156 -11.632812 1.84375 -11.671875 2.5 -11.671875 C 2.988281 -11.671875 3.351562 -12.035156 3.59375 -12.765625 C 3.875 -13.597656 4.082031 -14.054688 4.21875 -14.140625 C 4.394531 -14.265625 4.695312 -14.328125 5.125 -14.328125 C 5.53125 -14.328125 5.734375 -14.195312 5.734375 -13.9375 C 5.734375 -13.738281 5.648438 -13.457031 5.484375 -13.09375 C 5.328125 -12.738281 5.25 -12.457031 5.25 -12.25 C 5.25 -11.8125 5.5 -11.59375 6 -11.59375 C 6.238281 -11.59375 6.59375 -11.609375 7.0625 -11.640625 C 7.53125 -11.679688 7.882812 -11.703125 8.125 -11.703125 C 8.332031 -11.703125 8.4375 -11.570312 8.4375 -11.3125 Z M 8.4375 -11.3125 "/></g></g></g><g fill="#000000" fill-opacity="1"><g transform="translate(45.294229, 26.307675)"><g/></g></g><g fill="#000000" fill-opacity="1"><g transform="translate(52.702101, 26.307675)"><g><path d="M 16.640625 -23.1875 C 16.640625 -22.976562 16.503906 -22.671875 16.234375 -22.265625 C 15.859375 -21.710938 15.660156 -21.414062 15.640625 -21.375 C 15.453125 -20.988281 15.265625 -20.414062 15.078125 -19.65625 C 14.878906 -18.820312 14.554688 -17.5625 14.109375 -15.875 L 11.015625 -4.390625 C 10.929688 -4.054688 10.890625 -3.785156 10.890625 -3.578125 C 10.890625 -2.984375 11.257812 -2.6875 12 -2.6875 C 12.070312 -2.6875 12.234375 -2.742188 12.484375 -2.859375 C 12.734375 -2.984375 12.925781 -3.046875 13.0625 -3.046875 C 13.25 -3.046875 13.34375 -2.925781 13.34375 -2.6875 C 13.34375 -2.082031 12.875 -1.484375 11.9375 -0.890625 C 11.09375 -0.347656 10.34375 -0.078125 9.6875 -0.078125 C 8.738281 -0.078125 8.265625 -0.453125 8.265625 -1.203125 C 8.265625 -1.585938 8.390625 -2.140625 8.640625 -2.859375 C 8.890625 -3.585938 9.015625 -4.144531 9.015625 -4.53125 C 9.015625 -4.695312 8.957031 -4.78125 8.84375 -4.78125 C 8.832031 -4.78125 8.8125 -4.773438 8.78125 -4.765625 C 8.21875 -3.765625 7.539062 -2.804688 6.75 -1.890625 C 5.675781 -0.628906 4.785156 0 4.078125 0 C 2.960938 0 2.097656 -0.503906 1.484375 -1.515625 C 0.941406 -2.359375 0.671875 -3.367188 0.671875 -4.546875 C 0.671875 -6.234375 1.285156 -7.828125 2.515625 -9.328125 C 3.796875 -10.910156 5.265625 -11.703125 6.921875 -11.703125 C 7.203125 -11.703125 7.617188 -11.691406 8.171875 -11.671875 C 8.734375 -11.648438 9.15625 -11.640625 9.4375 -11.640625 C 10.28125 -11.640625 10.882812 -11.90625 11.25 -12.4375 C 11.300781 -12.519531 11.671875 -13.8125 12.359375 -16.3125 C 13.046875 -18.8125 13.390625 -20.128906 13.390625 -20.265625 C 13.390625 -20.585938 13.097656 -20.925781 12.515625 -21.28125 C 11.929688 -21.632812 11.640625 -21.875 11.640625 -22 C 11.640625 -22.332031 12.082031 -22.5 12.96875 -22.5 C 13.519531 -22.5 14.59375 -22.890625 16.1875 -23.671875 C 16.488281 -23.660156 16.640625 -23.5 16.640625 -23.1875 Z M 10.46875 -9.734375 C 10.46875 -10.160156 9.828125 -10.375 8.546875 -10.375 C 7.078125 -10.375 5.742188 -9.726562 4.546875 -8.4375 C 3.359375 -7.144531 2.765625 -5.757812 2.765625 -4.28125 C 2.765625 -3.769531 2.867188 -3.320312 3.078125 -2.9375 C 3.316406 -2.4375 3.664062 -2.1875 4.125 -2.1875 C 4.65625 -2.1875 5.238281 -2.460938 5.875 -3.015625 C 6.507812 -3.566406 7.398438 -4.640625 8.546875 -6.234375 C 9.828125 -7.992188 10.46875 -9.160156 10.46875 -9.734375 Z M 10.46875 -9.734375 "/></g></g></g><g fill="#000000" fill-opacity="1"><g transform="translate(68.276743, 26.307675)"><g><path d="M 11.8125 -3.953125 C 11.8125 -3.367188 11.328125 -2.570312 10.359375 -1.5625 C 9.398438 -0.5625 8.628906 -0.0625 8.046875 -0.0625 C 7.128906 -0.0625 6.671875 -0.5625 6.671875 -1.5625 C 6.671875 -1.769531 6.707031 -2.078125 6.78125 -2.484375 C 6.863281 -2.890625 6.90625 -3.195312 6.90625 -3.40625 C 6.90625 -3.65625 6.832031 -3.78125 6.6875 -3.78125 C 6.613281 -3.78125 5.941406 -3.148438 4.671875 -1.890625 C 3.410156 -0.628906 2.472656 0 1.859375 0 C 1.347656 0 0.9375 -0.203125 0.625 -0.609375 C 0.332031 -0.984375 0.1875 -1.429688 0.1875 -1.953125 C 0.1875 -3.617188 0.976562 -5.503906 2.5625 -7.609375 C 4.257812 -9.867188 6.050781 -11.179688 7.9375 -11.546875 C 8.320312 -11.609375 8.894531 -11.71875 9.65625 -11.875 C 10.3125 -12.320312 10.675781 -12.546875 10.75 -12.546875 C 11.007812 -12.546875 11.140625 -12.382812 11.140625 -12.0625 C 11.140625 -11.90625 11.09375 -11.707031 11 -11.46875 L 9.375 -7.296875 C 8.675781 -5.515625 8.328125 -4.210938 8.328125 -3.390625 C 8.328125 -2.679688 8.625 -2.328125 9.21875 -2.328125 C 9.46875 -2.328125 9.894531 -2.648438 10.5 -3.296875 C 11.101562 -3.941406 11.460938 -4.265625 11.578125 -4.265625 C 11.734375 -4.265625 11.8125 -4.160156 11.8125 -3.953125 Z M 8.4375 -9.21875 C 8.4375 -9.5625 8.144531 -9.734375 7.5625 -9.734375 L 7.390625 -9.734375 C 6.328125 -9.734375 5.144531 -8.945312 3.84375 -7.375 C 2.570312 -5.84375 1.9375 -4.535156 1.9375 -3.453125 C 1.9375 -2.710938 2.207031 -2.34375 2.75 -2.34375 C 3.695312 -2.34375 4.890625 -3.253906 6.328125 -5.078125 C 7.734375 -6.847656 8.4375 -8.226562 8.4375 -9.21875 Z M 8.4375 -9.21875 "/></g></g></g><g fill="#000000" fill-opacity="1"><g transform="translate(81.935387, 26.307675)"><g><path d="M 16.640625 -23.1875 C 16.640625 -22.976562 16.503906 -22.671875 16.234375 -22.265625 C 15.859375 -21.710938 15.660156 -21.414062 15.640625 -21.375 C 15.453125 -20.988281 15.265625 -20.414062 15.078125 -19.65625 C 14.878906 -18.820312 14.554688 -17.5625 14.109375 -15.875 L 11.015625 -4.390625 C 10.929688 -4.054688 10.890625 -3.785156 10.890625 -3.578125 C 10.890625 -2.984375 11.257812 -2.6875 12 -2.6875 C 12.070312 -2.6875 12.234375 -2.742188 12.484375 -2.859375 C 12.734375 -2.984375 12.925781 -3.046875 13.0625 -3.046875 C 13.25 -3.046875 13.34375 -2.925781 13.34375 -2.6875 C 13.34375 -2.082031 12.875 -1.484375 11.9375 -0.890625 C 11.09375 -0.347656 10.34375 -0.078125 9.6875 -0.078125 C 8.738281 -0.078125 8.265625 -0.453125 8.265625 -1.203125 C 8.265625 -1.585938 8.390625 -2.140625 8.640625 -2.859375 C 8.890625 -3.585938 9.015625 -4.144531 9.015625 -4.53125 C 9.015625 -4.695312 8.957031 -4.78125 8.84375 -4.78125 C 8.832031 -4.78125 8.8125 -4.773438 8.78125 -4.765625 C 8.21875 -3.765625 7.539062 -2.804688 6.75 -1.890625 C 5.675781 -0.628906 4.785156 0 4.078125 0 C 2.960938 0 2.097656 -0.503906 1.484375 -1.515625 C 0.941406 -2.359375 0.671875 -3.367188 0.671875 -4.546875 C 0.671875 -6.234375 1.285156 -7.828125 2.515625 -9.328125 C 3.796875 -10.910156 5.265625 -11.703125 6.921875 -11.703125 C 7.203125 -11.703125 7.617188 -11.691406 8.171875 -11.671875 C 8.734375 -11.648438 9.15625 -11.640625 9.4375 -11.640625 C 10.28125 -11.640625 10.882812 -11.90625 11.25 -12.4375 C 11.300781 -12.519531 11.671875 -13.8125 12.359375 -16.3125 C 13.046875 -18.8125 13.390625 -20.128906 13.390625 -20.265625 C 13.390625 -20.585938 13.097656 -20.925781 12.515625 -21.28125 C 11.929688 -21.632812 11.640625 -21.875 11.640625 -22 C 11.640625 -22.332031 12.082031 -22.5 12.96875 -22.5 C 13.519531 -22.5 14.59375 -22.890625 16.1875 -23.671875 C 16.488281 -23.660156 16.640625 -23.5 16.640625 -23.1875 Z M 10.46875 -9.734375 C 10.46875 -10.160156 9.828125 -10.375 8.546875 -10.375 C 7.078125 -10.375 5.742188 -9.726562 4.546875 -8.4375 C 3.359375 -7.144531 2.765625 -5.757812 2.765625 -4.28125 C 2.765625 -3.769531 2.867188 -3.320312 3.078125 -2.9375 C 3.316406 -2.4375 3.664062 -2.1875 4.125 -2.1875 C 4.65625 -2.1875 5.238281 -2.460938 5.875 -3.015625 C 6.507812 -3.566406 7.398438 -4.640625 8.546875 -6.234375 C 9.828125 -7.992188 10.46875 -9.160156 10.46875 -9.734375 Z M 10.46875 -9.734375 "/></g></g></g><g fill="#000000" fill-opacity="1"><g transform="translate(97.510029, 26.307675)"><g/></g></g><g fill="#000000" fill-opacity="1"><g transform="translate(104.917895, 26.307675)"><g><path d="M 8.78125 -9.265625 C 8.78125 -8.335938 8.269531 -7.519531 7.25 -6.8125 C 6.332031 -6.15625 5.390625 -5.828125 4.421875 -5.828125 C 4.273438 -5.828125 4.054688 -5.851562 3.765625 -5.90625 C 3.472656 -5.96875 3.25 -6 3.09375 -6 C 2.195312 -6 1.75 -5.300781 1.75 -3.90625 C 1.75 -2.539062 2.398438 -1.859375 3.703125 -1.859375 C 4.441406 -1.859375 5.222656 -2.171875 6.046875 -2.796875 C 6.867188 -3.421875 7.253906 -3.734375 7.203125 -3.734375 C 7.753906 -3.734375 8.03125 -3.59375 8.03125 -3.3125 C 8.03125 -3.21875 7.976562 -3.070312 7.875 -2.875 C 7.425781 -2.019531 6.789062 -1.328125 5.96875 -0.796875 C 5.144531 -0.265625 4.253906 0 3.296875 0 C 2.148438 0 1.285156 -0.445312 0.703125 -1.34375 C 0.222656 -2.09375 -0.015625 -3.078125 -0.015625 -4.296875 C -0.015625 -6.179688 0.523438 -7.851562 1.609375 -9.3125 C 2.796875 -10.90625 4.300781 -11.703125 6.125 -11.703125 C 6.8125 -11.703125 7.425781 -11.460938 7.96875 -10.984375 C 8.507812 -10.515625 8.78125 -9.941406 8.78125 -9.265625 Z M 6.859375 -8.671875 C 6.859375 -9.046875 6.710938 -9.367188 6.421875 -9.640625 C 6.140625 -9.921875 5.8125 -10.0625 5.4375 -10.0625 C 4.945312 -10.0625 4.460938 -9.796875 3.984375 -9.265625 C 3.503906 -8.734375 3.265625 -8.222656 3.265625 -7.734375 C 3.265625 -7.515625 3.390625 -7.316406 3.640625 -7.140625 C 3.867188 -7.003906 4.097656 -6.9375 4.328125 -6.9375 C 4.828125 -6.9375 5.359375 -7.097656 5.921875 -7.421875 C 6.546875 -7.785156 6.859375 -8.203125 6.859375 -8.671875 Z M 6.859375 -8.671875 "/></g></g></g><g fill="#000000" fill-opacity="1"><g transform="translate(114.676606, 26.307675)"><g><path d="M 13.8125 -8.359375 C 13.8125 -6.710938 13.15625 -4.988281 11.84375 -3.1875 C 10.300781 -1.0625 8.628906 0 6.828125 0 C 5.859375 0 5.085938 -0.445312 4.515625 -1.34375 C 4.023438 -2.113281 3.78125 -3.007812 3.78125 -4.03125 C 3.78125 -4.75 3.988281 -5.613281 4.40625 -6.625 C 4.78125 -7.457031 5.160156 -8.285156 5.546875 -9.109375 C 5.535156 -9.671875 4.96875 -9.953125 3.84375 -9.953125 C 1.820312 -9.953125 0.8125 -9.363281 0.8125 -8.1875 C 0.8125 -8.101562 0.828125 -7.984375 0.859375 -7.828125 C 0.898438 -7.679688 0.921875 -7.570312 0.921875 -7.5 C 0.921875 -7.132812 0.753906 -6.953125 0.421875 -6.953125 C 0.00390625 -6.953125 -0.203125 -7.320312 -0.203125 -8.0625 C -0.203125 -8.351562 -0.148438 -8.710938 -0.046875 -9.140625 C 0.015625 -9.390625 0.132812 -9.742188 0.3125 -10.203125 C 0.832031 -11.210938 2.207031 -11.71875 4.4375 -11.71875 C 5.28125 -11.71875 5.847656 -11.679688 6.140625 -11.609375 C 6.785156 -11.429688 7.113281 -11.046875 7.125 -10.453125 C 6.007812 -7.753906 5.453125 -5.898438 5.453125 -4.890625 C 5.453125 -4.160156 5.671875 -3.507812 6.109375 -2.9375 C 6.585938 -2.3125 7.175781 -2 7.875 -2 C 8.8125 -2 9.851562 -2.726562 11 -4.1875 C 12.101562 -5.582031 12.65625 -6.765625 12.65625 -7.734375 C 12.65625 -8.140625 12.484375 -8.6875 12.140625 -9.375 C 11.796875 -10.0625 11.625 -10.5625 11.625 -10.875 C 11.625 -11.082031 11.695312 -11.269531 11.84375 -11.4375 C 11.988281 -11.613281 12.160156 -11.703125 12.359375 -11.703125 C 12.859375 -11.703125 13.242188 -11.253906 13.515625 -10.359375 C 13.710938 -9.703125 13.8125 -9.035156 13.8125 -8.359375 Z M 13.8125 -8.359375 "/></g></g></g><g fill="#000000" fill-opacity="1"><g transform="translate(129.843594, 26.307675)"><g><path d="M 8.78125 -9.265625 C 8.78125 -8.335938 8.269531 -7.519531 7.25 -6.8125 C 6.332031 -6.15625 5.390625 -5.828125 4.421875 -5.828125 C 4.273438 -5.828125 4.054688 -5.851562 3.765625 -5.90625 C 3.472656 -5.96875 3.25 -6 3.09375 -6 C 2.195312 -6 1.75 -5.300781 1.75 -3.90625 C 1.75 -2.539062 2.398438 -1.859375 3.703125 -1.859375 C 4.441406 -1.859375 5.222656 -2.171875 6.046875 -2.796875 C 6.867188 -3.421875 7.253906 -3.734375 7.203125 -3.734375 C 7.753906 -3.734375 8.03125 -3.59375 8.03125 -3.3125 C 8.03125 -3.21875 7.976562 -3.070312 7.875 -2.875 C 7.425781 -2.019531 6.789062 -1.328125 5.96875 -0.796875 C 5.144531 -0.265625 4.253906 0 3.296875 0 C 2.148438 0 1.285156 -0.445312 0.703125 -1.34375 C 0.222656 -2.09375 -0.015625 -3.078125 -0.015625 -4.296875 C -0.015625 -6.179688 0.523438 -7.851562 1.609375 -9.3125 C 2.796875 -10.90625 4.300781 -11.703125 6.125 -11.703125 C 6.8125 -11.703125 7.425781 -11.460938 7.96875 -10.984375 C 8.507812 -10.515625 8.78125 -9.941406 8.78125 -9.265625 Z M 6.859375 -8.671875 C 6.859375 -9.046875 6.710938 -9.367188 6.421875 -9.640625 C 6.140625 -9.921875 5.8125 -10.0625 5.4375 -10.0625 C 4.945312 -10.0625 4.460938 -9.796875 3.984375 -9.265625 C 3.503906 -8.734375 3.265625 -8.222656 3.265625 -7.734375 C 3.265625 -7.515625 3.390625 -7.316406 3.640625 -7.140625 C 3.867188 -7.003906 4.097656 -6.9375 4.328125 -6.9375 C 4.828125 -6.9375 5.359375 -7.097656 5.921875 -7.421875 C 6.546875 -7.785156 6.859375 -8.203125 6.859375 -8.671875 Z M 6.859375 -8.671875 "/></g></g></g><g fill="#000000" fill-opacity="1"><g transform="translate(139.602295, 26.307675)"><g><path d="M 10.140625 -10.671875 C 10.140625 -10.222656 10.035156 -9.773438 9.828125 -9.328125 C 9.566406 -8.785156 9.238281 -8.515625 8.84375 -8.515625 C 8.632812 -8.515625 8.40625 -8.703125 8.15625 -9.078125 C 7.914062 -9.460938 7.703125 -9.65625 7.515625 -9.65625 C 6.941406 -9.65625 6.023438 -8.597656 4.765625 -6.484375 C 4.316406 -5.722656 3.972656 -4.984375 3.734375 -4.265625 L 2.46875 -0.453125 C 2.375 -0.148438 2.019531 0 1.40625 0 C 1.132812 0 0.90625 -0.125 0.71875 -0.375 C 0.53125 -0.632812 0.4375 -0.90625 0.4375 -1.1875 C 0.4375 -1.519531 0.585938 -2.109375 0.890625 -2.953125 C 1.265625 -3.941406 1.640625 -4.929688 2.015625 -5.921875 C 2.503906 -7.304688 2.75 -8.289062 2.75 -8.875 C 2.75 -9.644531 2.585938 -10.03125 2.265625 -10.03125 C 2.179688 -10.03125 2.054688 -9.992188 1.890625 -9.921875 C 1.734375 -9.859375 1.609375 -9.828125 1.515625 -9.828125 C 1.304688 -9.828125 1.203125 -9.9375 1.203125 -10.15625 C 1.203125 -10.539062 1.425781 -10.898438 1.875 -11.234375 C 2.300781 -11.546875 2.707031 -11.703125 3.09375 -11.703125 C 3.84375 -11.703125 4.21875 -11.367188 4.21875 -10.703125 C 4.21875 -10.460938 4.15625 -10.109375 4.03125 -9.640625 C 3.914062 -9.179688 3.859375 -8.832031 3.859375 -8.59375 C 3.859375 -8.144531 3.988281 -7.921875 4.25 -7.921875 C 4.4375 -7.921875 4.773438 -8.25 5.265625 -8.90625 C 5.910156 -9.769531 6.425781 -10.375 6.8125 -10.71875 C 7.519531 -11.375 8.238281 -11.703125 8.96875 -11.703125 C 9.75 -11.703125 10.140625 -11.359375 10.140625 -10.671875 Z M 10.140625 -10.671875 "/></g></g></g></g></g><g transform="matrix(1, 0, 0, 1, 97, 22)"><g clip-path="url(#7c3625239b)"><g clip-path="url(#936108fadb)"><g fill="#000000" fill-opacity="1"><g transform="translate(0.247518, 9.259289)"><g><path d="M 1.53125 -0.5625 C 1.53125 -0.382812 1.476562 -0.234375 1.375 -0.109375 C 1.257812 0.0234375 1.113281 0.09375 0.9375 0.09375 C 0.625 0.09375 0.46875 -0.0664062 0.46875 -0.390625 C 0.46875 -0.578125 0.519531 -0.734375 0.625 -0.859375 C 0.738281 -0.992188 0.890625 -1.0625 1.078125 -1.0625 C 1.378906 -1.0625 1.53125 -0.894531 1.53125 -0.5625 Z M 1.53125 -0.5625 "/></g></g></g></g></g></g></svg>