<svg xmlns="http://www.w3.org/2000/svg" xmlns:xlink="http://www.w3.org/1999/xlink" width="149" zoomAndPan="magnify" viewBox="0 0 111.75 101.999999" height="136" preserveAspectRatio="xMidYMid meet" version="1.0"><defs><g/><clipPath id="1b33a545fb"><path d="M 5 19 L 34.753906 19 L 34.753906 58 L 5 58 Z M 5 19 " clip-rule="nonzero"/></clipPath><clipPath id="296e76ba00"><path d="M 0.03125 14 L 30 14 L 30 53 L 0.03125 53 Z M 0.03125 14 " clip-rule="nonzero"/></clipPath><clipPath id="4642bae38f"><rect x="0" width="35" y="0" height="65"/></clipPath><clipPath id="bb0d9a946a"><rect x="0" width="4" y="0" height="13"/></clipPath></defs><g transform="matrix(1, 0, 0, 1, 39, 16)"><g clip-path="url(#4642bae38f)"><g clip-path="url(#1b33a545fb)"><g fill="#cafc05" fill-opacity="1"><g transform="translate(5.122474, 56.938764)"><g><path d="M 23.6875 -19.046875 C 23.46875 -18.898438 23.359375 -18.71875 23.359375 -18.5 C 23.359375 -18.351562 23.46875 -18.171875 23.6875 -17.953125 C 24.644531 -17.066406 25.445312 -16.085938 26.09375 -15.015625 C 26.738281 -13.953125 27.0625 -12.832031 27.0625 -11.65625 C 27.0625 -10.40625 26.738281 -9.085938 26.09375 -7.703125 C 25.445312 -6.316406 24.503906 -5.035156 23.265625 -3.859375 C 22.035156 -2.679688 20.554688 -1.722656 18.828125 -0.984375 C 17.097656 -0.253906 15.144531 0.109375 12.96875 0.109375 C 11.6875 0.109375 10.328125 -0.15625 8.890625 -0.6875 C 7.453125 -1.21875 6.109375 -1.960938 4.859375 -2.921875 C 3.609375 -3.878906 2.59375 -4.984375 1.8125 -6.234375 C 1.039062 -7.484375 0.65625 -8.828125 0.65625 -10.265625 C 0.65625 -12.066406 1.160156 -13.816406 2.171875 -15.515625 C 3.191406 -17.210938 4.53125 -18.613281 6.1875 -19.71875 C 6.257812 -19.75 6.347656 -19.816406 6.453125 -19.921875 C 6.566406 -20.035156 6.625 -20.1875 6.625 -20.375 C 6.625 -20.488281 6.585938 -20.597656 6.515625 -20.703125 C 6.441406 -20.816406 6.382812 -20.890625 6.34375 -20.921875 C 5.6875 -21.660156 5.171875 -22.472656 4.796875 -23.359375 C 4.429688 -24.242188 4.25 -25.238281 4.25 -26.34375 C 4.25 -28.144531 4.78125 -29.878906 5.84375 -31.546875 C 6.914062 -33.222656 8.414062 -34.59375 10.34375 -35.65625 C 12.28125 -36.726562 14.519531 -37.265625 17.0625 -37.265625 C 18.164062 -37.265625 19.390625 -36.953125 20.734375 -36.328125 C 22.078125 -35.703125 23.375 -34.875 24.625 -33.84375 C 25.875 -32.8125 26.894531 -31.671875 27.6875 -30.421875 C 28.476562 -29.171875 28.875 -27.921875 28.875 -26.671875 C 28.875 -25.378906 28.414062 -24.050781 27.5 -22.6875 C 26.582031 -21.332031 25.3125 -20.117188 23.6875 -19.046875 Z M 17 -29.984375 C 16.226562 -29.984375 15.546875 -29.722656 14.953125 -29.203125 C 14.367188 -28.691406 13.921875 -28.078125 13.609375 -27.359375 C 13.296875 -26.640625 13.125 -25.988281 13.09375 -25.40625 C 13.125 -24.8125 13.285156 -24.285156 13.578125 -23.828125 C 13.878906 -23.367188 14.429688 -23.140625 15.234375 -23.140625 C 16.378906 -23.140625 17.335938 -23.617188 18.109375 -24.578125 C 18.878906 -25.535156 19.265625 -26.582031 19.265625 -27.71875 C 19.265625 -28.3125 19.085938 -28.835938 18.734375 -29.296875 C 18.390625 -29.753906 17.8125 -29.984375 17 -29.984375 Z M 17.390625 -13.203125 C 17.390625 -13.828125 17.210938 -14.378906 16.859375 -14.859375 C 16.515625 -15.335938 15.921875 -15.578125 15.078125 -15.578125 C 14.191406 -15.578125 13.363281 -15.300781 12.59375 -14.75 C 11.820312 -14.195312 11.195312 -13.503906 10.71875 -12.671875 C 10.238281 -11.847656 10 -11.03125 10 -10.21875 C 10 -9.59375 10.207031 -9.046875 10.625 -8.578125 C 11.050781 -8.117188 11.707031 -7.890625 12.59375 -7.890625 C 13.507812 -7.890625 14.328125 -8.164062 15.046875 -8.71875 C 15.765625 -9.269531 16.332031 -9.957031 16.75 -10.78125 C 17.175781 -11.613281 17.390625 -12.421875 17.390625 -13.203125 Z M 17.390625 -13.203125 "/></g></g></g></g><g clip-path="url(#296e76ba00)"><g fill="#e474ba" fill-opacity="1"><g transform="translate(0.241332, 52.057622)"><g><path d="M 23.6875 -19.046875 C 23.46875 -18.898438 23.359375 -18.71875 23.359375 -18.5 C 23.359375 -18.351562 23.46875 -18.171875 23.6875 -17.953125 C 24.644531 -17.066406 25.445312 -16.085938 26.09375 -15.015625 C 26.738281 -13.953125 27.0625 -12.832031 27.0625 -11.65625 C 27.0625 -10.40625 26.738281 -9.085938 26.09375 -7.703125 C 25.445312 -6.316406 24.503906 -5.035156 23.265625 -3.859375 C 22.035156 -2.679688 20.554688 -1.722656 18.828125 -0.984375 C 17.097656 -0.253906 15.144531 0.109375 12.96875 0.109375 C 11.6875 0.109375 10.328125 -0.15625 8.890625 -0.6875 C 7.453125 -1.21875 6.109375 -1.960938 4.859375 -2.921875 C 3.609375 -3.878906 2.59375 -4.984375 1.8125 -6.234375 C 1.039062 -7.484375 0.65625 -8.828125 0.65625 -10.265625 C 0.65625 -12.066406 1.160156 -13.816406 2.171875 -15.515625 C 3.191406 -17.210938 4.53125 -18.613281 6.1875 -19.71875 C 6.257812 -19.75 6.347656 -19.816406 6.453125 -19.921875 C 6.566406 -20.035156 6.625 -20.1875 6.625 -20.375 C 6.625 -20.488281 6.585938 -20.597656 6.515625 -20.703125 C 6.441406 -20.816406 6.382812 -20.890625 6.34375 -20.921875 C 5.6875 -21.660156 5.171875 -22.472656 4.796875 -23.359375 C 4.429688 -24.242188 4.25 -25.238281 4.25 -26.34375 C 4.25 -28.144531 4.78125 -29.878906 5.84375 -31.546875 C 6.914062 -33.222656 8.414062 -34.59375 10.34375 -35.65625 C 12.28125 -36.726562 14.519531 -37.265625 17.0625 -37.265625 C 18.164062 -37.265625 19.390625 -36.953125 20.734375 -36.328125 C 22.078125 -35.703125 23.375 -34.875 24.625 -33.84375 C 25.875 -32.8125 26.894531 -31.671875 27.6875 -30.421875 C 28.476562 -29.171875 28.875 -27.921875 28.875 -26.671875 C 28.875 -25.378906 28.414062 -24.050781 27.5 -22.6875 C 26.582031 -21.332031 25.3125 -20.117188 23.6875 -19.046875 Z M 17 -29.984375 C 16.226562 -29.984375 15.546875 -29.722656 14.953125 -29.203125 C 14.367188 -28.691406 13.921875 -28.078125 13.609375 -27.359375 C 13.296875 -26.640625 13.125 -25.988281 13.09375 -25.40625 C 13.125 -24.8125 13.285156 -24.285156 13.578125 -23.828125 C 13.878906 -23.367188 14.429688 -23.140625 15.234375 -23.140625 C 16.378906 -23.140625 17.335938 -23.617188 18.109375 -24.578125 C 18.878906 -25.535156 19.265625 -26.582031 19.265625 -27.71875 C 19.265625 -28.3125 19.085938 -28.835938 18.734375 -29.296875 C 18.390625 -29.753906 17.8125 -29.984375 17 -29.984375 Z M 17.390625 -13.203125 C 17.390625 -13.828125 17.210938 -14.378906 16.859375 -14.859375 C 16.515625 -15.335938 15.921875 -15.578125 15.078125 -15.578125 C 14.191406 -15.578125 13.363281 -15.300781 12.59375 -14.75 C 11.820312 -14.195312 11.195312 -13.503906 10.71875 -12.671875 C 10.238281 -11.847656 10 -11.03125 10 -10.21875 C 10 -9.59375 10.207031 -9.046875 10.625 -8.578125 C 11.050781 -8.117188 11.707031 -7.890625 12.59375 -7.890625 C 13.507812 -7.890625 14.328125 -8.164062 15.046875 -8.71875 C 15.765625 -9.269531 16.332031 -9.957031 16.75 -10.78125 C 17.175781 -11.613281 17.390625 -12.421875 17.390625 -13.203125 Z M 17.390625 -13.203125 "/></g></g></g></g></g></g><g transform="matrix(1, 0, 0, 1, 55, 51)"><g clip-path="url(#bb0d9a946a)"><g fill="#000000" fill-opacity="1"><g transform="translate(0.648611, 9.006865)"><g><path d="M 1.546875 -0.5625 C 1.546875 -0.382812 1.492188 -0.234375 1.390625 -0.109375 C 1.273438 0.0234375 1.125 0.09375 0.9375 0.09375 C 0.625 0.09375 0.46875 -0.0703125 0.46875 -0.40625 C 0.46875 -0.59375 0.523438 -0.75 0.640625 -0.875 C 0.753906 -1.007812 0.90625 -1.078125 1.09375 -1.078125 C 1.394531 -1.078125 1.546875 -0.90625 1.546875 -0.5625 Z M 1.546875 -0.5625 "/></g></g></g></g></g></svg>