<svg xmlns="http://www.w3.org/2000/svg" xmlns:xlink="http://www.w3.org/1999/xlink" width="149" zoomAndPan="magnify" viewBox="0 0 111.75 101.999999" height="136" preserveAspectRatio="xMidYMid meet" version="1.0"><defs><g/><clipPath id="e0329c2dd2"><rect x="0" width="35" y="0" height="65"/></clipPath><clipPath id="3cb73dd51f"><rect x="0" width="4" y="0" height="13"/></clipPath></defs><g transform="matrix(1, 0, 0, 1, 39, 16)"><g clip-path="url(#e0329c2dd2)"><g fill="#cafc05" fill-opacity="1"><g transform="translate(5.369552, 56.938764)"><g><path d="M 24.578125 -16.953125 L 25.1875 -16.953125 C 25.507812 -16.953125 25.726562 -16.847656 25.84375 -16.640625 C 25.957031 -16.441406 26.03125 -16.195312 26.0625 -15.90625 C 26.175781 -15.132812 26.296875 -14.15625 26.421875 -12.96875 C 26.546875 -11.789062 26.628906 -10.742188 26.671875 -9.828125 C 26.671875 -9.160156 26.375 -8.789062 25.78125 -8.71875 L 23.40625 -8.609375 C 23.039062 -8.578125 22.773438 -8.457031 22.609375 -8.25 C 22.441406 -8.050781 22.320312 -7.804688 22.25 -7.515625 C 22.070312 -6.441406 21.898438 -5.332031 21.734375 -4.1875 C 21.566406 -3.050781 21.425781 -1.953125 21.3125 -0.890625 C 21.238281 -0.296875 20.925781 0 20.375 0 C 19.9375 0 19.273438 -0.109375 18.390625 -0.328125 C 17.503906 -0.546875 16.632812 -0.800781 15.78125 -1.09375 C 14.9375 -1.394531 14.296875 -1.640625 13.859375 -1.828125 C 13.597656 -1.929688 13.382812 -2.128906 13.21875 -2.421875 C 13.050781 -2.722656 12.96875 -3.003906 12.96875 -3.265625 C 12.96875 -3.734375 12.992188 -4.390625 13.046875 -5.234375 C 13.109375 -6.085938 13.140625 -6.679688 13.140625 -7.015625 C 13.140625 -7.492188 12.882812 -7.734375 12.375 -7.734375 C 12.070312 -7.734375 11.523438 -7.695312 10.734375 -7.625 C 9.941406 -7.550781 9.078125 -7.472656 8.140625 -7.390625 C 7.203125 -7.316406 6.351562 -7.242188 5.59375 -7.171875 C 4.84375 -7.097656 4.378906 -7.0625 4.203125 -7.0625 C 3.648438 -7.0625 3.222656 -7.300781 2.921875 -7.78125 C 2.742188 -8.15625 2.488281 -8.773438 2.15625 -9.640625 C 1.820312 -10.503906 1.523438 -11.382812 1.265625 -12.28125 C 1.015625 -13.1875 0.890625 -13.859375 0.890625 -14.296875 C 0.890625 -14.890625 1.035156 -15.390625 1.328125 -15.796875 C 2.097656 -16.859375 3 -18.132812 4.03125 -19.625 C 5.0625 -21.113281 6.128906 -22.6875 7.234375 -24.34375 C 8.335938 -26.007812 9.421875 -27.628906 10.484375 -29.203125 C 11.554688 -30.785156 12.523438 -32.210938 13.390625 -33.484375 C 14.253906 -34.753906 14.925781 -35.738281 15.40625 -36.4375 C 15.664062 -36.8125 16.015625 -37 16.453125 -37 C 17.046875 -37 17.597656 -36.8125 18.109375 -36.4375 C 18.367188 -36.257812 18.550781 -36.171875 18.65625 -36.171875 C 18.84375 -36.171875 19.03125 -36.316406 19.21875 -36.609375 C 19.4375 -36.941406 19.765625 -37.109375 20.203125 -37.109375 C 20.460938 -37.109375 21.039062 -36.992188 21.9375 -36.765625 C 22.84375 -36.546875 23.800781 -36.28125 24.8125 -35.96875 C 25.832031 -35.65625 26.632812 -35.390625 27.21875 -35.171875 C 27.664062 -35.023438 27.890625 -34.695312 27.890625 -34.1875 C 27.890625 -34.070312 27.867188 -33.957031 27.828125 -33.84375 C 27.796875 -33.738281 27.78125 -33.6875 27.78125 -33.6875 C 27.300781 -32.25 26.71875 -30.140625 26.03125 -27.359375 C 25.351562 -24.578125 24.679688 -21.421875 24.015625 -17.890625 C 24.015625 -17.890625 24.003906 -17.84375 23.984375 -17.75 C 23.972656 -17.65625 23.96875 -17.570312 23.96875 -17.5 C 23.96875 -17.132812 24.171875 -16.953125 24.578125 -16.953125 Z M 10.15625 -16.734375 C 10.15625 -16.734375 10.132812 -16.695312 10.09375 -16.625 C 10.0625 -16.550781 10.046875 -16.457031 10.046875 -16.34375 C 10.046875 -16.050781 10.234375 -15.90625 10.609375 -15.90625 C 11.117188 -15.976562 11.582031 -16.039062 12 -16.09375 C 12.425781 -16.144531 12.9375 -16.191406 13.53125 -16.234375 C 14.113281 -16.273438 14.460938 -16.609375 14.578125 -17.234375 C 14.691406 -17.890625 14.828125 -18.648438 14.984375 -19.515625 C 15.148438 -20.378906 15.316406 -21.222656 15.484375 -22.046875 C 15.648438 -22.878906 15.78125 -23.582031 15.875 -24.15625 C 15.96875 -24.726562 16.015625 -25.050781 16.015625 -25.125 C 16.015625 -25.269531 15.976562 -25.34375 15.90625 -25.34375 C 15.863281 -25.34375 15.804688 -25.296875 15.734375 -25.203125 C 15.660156 -25.109375 15.625 -25.0625 15.625 -25.0625 C 15.40625 -24.695312 15.046875 -24.128906 14.546875 -23.359375 C 14.046875 -22.585938 13.5 -21.75 12.90625 -20.84375 C 12.320312 -19.945312 11.769531 -19.117188 11.25 -18.359375 C 10.738281 -17.609375 10.375 -17.066406 10.15625 -16.734375 Z M 10.15625 -16.734375 "/></g></g></g><g fill="#e474ba" fill-opacity="1"><g transform="translate(0.48841, 52.057622)"><g><path d="M 24.578125 -16.953125 L 25.1875 -16.953125 C 25.507812 -16.953125 25.726562 -16.847656 25.84375 -16.640625 C 25.957031 -16.441406 26.03125 -16.195312 26.0625 -15.90625 C 26.175781 -15.132812 26.296875 -14.15625 26.421875 -12.96875 C 26.546875 -11.789062 26.628906 -10.742188 26.671875 -9.828125 C 26.671875 -9.160156 26.375 -8.789062 25.78125 -8.71875 L 23.40625 -8.609375 C 23.039062 -8.578125 22.773438 -8.457031 22.609375 -8.25 C 22.441406 -8.050781 22.320312 -7.804688 22.25 -7.515625 C 22.070312 -6.441406 21.898438 -5.332031 21.734375 -4.1875 C 21.566406 -3.050781 21.425781 -1.953125 21.3125 -0.890625 C 21.238281 -0.296875 20.925781 0 20.375 0 C 19.9375 0 19.273438 -0.109375 18.390625 -0.328125 C 17.503906 -0.546875 16.632812 -0.800781 15.78125 -1.09375 C 14.9375 -1.394531 14.296875 -1.640625 13.859375 -1.828125 C 13.597656 -1.929688 13.382812 -2.128906 13.21875 -2.421875 C 13.050781 -2.722656 12.96875 -3.003906 12.96875 -3.265625 C 12.96875 -3.734375 12.992188 -4.390625 13.046875 -5.234375 C 13.109375 -6.085938 13.140625 -6.679688 13.140625 -7.015625 C 13.140625 -7.492188 12.882812 -7.734375 12.375 -7.734375 C 12.070312 -7.734375 11.523438 -7.695312 10.734375 -7.625 C 9.941406 -7.550781 9.078125 -7.472656 8.140625 -7.390625 C 7.203125 -7.316406 6.351562 -7.242188 5.59375 -7.171875 C 4.84375 -7.097656 4.378906 -7.0625 4.203125 -7.0625 C 3.648438 -7.0625 3.222656 -7.300781 2.921875 -7.78125 C 2.742188 -8.15625 2.488281 -8.773438 2.15625 -9.640625 C 1.820312 -10.503906 1.523438 -11.382812 1.265625 -12.28125 C 1.015625 -13.1875 0.890625 -13.859375 0.890625 -14.296875 C 0.890625 -14.890625 1.035156 -15.390625 1.328125 -15.796875 C 2.097656 -16.859375 3 -18.132812 4.03125 -19.625 C 5.0625 -21.113281 6.128906 -22.6875 7.234375 -24.34375 C 8.335938 -26.007812 9.421875 -27.628906 10.484375 -29.203125 C 11.554688 -30.785156 12.523438 -32.210938 13.390625 -33.484375 C 14.253906 -34.753906 14.925781 -35.738281 15.40625 -36.4375 C 15.664062 -36.8125 16.015625 -37 16.453125 -37 C 17.046875 -37 17.597656 -36.8125 18.109375 -36.4375 C 18.367188 -36.257812 18.550781 -36.171875 18.65625 -36.171875 C 18.84375 -36.171875 19.03125 -36.316406 19.21875 -36.609375 C 19.4375 -36.941406 19.765625 -37.109375 20.203125 -37.109375 C 20.460938 -37.109375 21.039062 -36.992188 21.9375 -36.765625 C 22.84375 -36.546875 23.800781 -36.28125 24.8125 -35.96875 C 25.832031 -35.65625 26.632812 -35.390625 27.21875 -35.171875 C 27.664062 -35.023438 27.890625 -34.695312 27.890625 -34.1875 C 27.890625 -34.070312 27.867188 -33.957031 27.828125 -33.84375 C 27.796875 -33.738281 27.78125 -33.6875 27.78125 -33.6875 C 27.300781 -32.25 26.71875 -30.140625 26.03125 -27.359375 C 25.351562 -24.578125 24.679688 -21.421875 24.015625 -17.890625 C 24.015625 -17.890625 24.003906 -17.84375 23.984375 -17.75 C 23.972656 -17.65625 23.96875 -17.570312 23.96875 -17.5 C 23.96875 -17.132812 24.171875 -16.953125 24.578125 -16.953125 Z M 10.15625 -16.734375 C 10.15625 -16.734375 10.132812 -16.695312 10.09375 -16.625 C 10.0625 -16.550781 10.046875 -16.457031 10.046875 -16.34375 C 10.046875 -16.050781 10.234375 -15.90625 10.609375 -15.90625 C 11.117188 -15.976562 11.582031 -16.039062 12 -16.09375 C 12.425781 -16.144531 12.9375 -16.191406 13.53125 -16.234375 C 14.113281 -16.273438 14.460938 -16.609375 14.578125 -17.234375 C 14.691406 -17.890625 14.828125 -18.648438 14.984375 -19.515625 C 15.148438 -20.378906 15.316406 -21.222656 15.484375 -22.046875 C 15.648438 -22.878906 15.78125 -23.582031 15.875 -24.15625 C 15.96875 -24.726562 16.015625 -25.050781 16.015625 -25.125 C 16.015625 -25.269531 15.976562 -25.34375 15.90625 -25.34375 C 15.863281 -25.34375 15.804688 -25.296875 15.734375 -25.203125 C 15.660156 -25.109375 15.625 -25.0625 15.625 -25.0625 C 15.40625 -24.695312 15.046875 -24.128906 14.546875 -23.359375 C 14.046875 -22.585938 13.5 -21.75 12.90625 -20.84375 C 12.320312 -19.945312 11.769531 -19.117188 11.25 -18.359375 C 10.738281 -17.609375 10.375 -17.066406 10.15625 -16.734375 Z M 10.15625 -16.734375 "/></g></g></g></g></g><g transform="matrix(1, 0, 0, 1, 58, 52)"><g clip-path="url(#3cb73dd51f)"><g fill="#000000" fill-opacity="1"><g transform="translate(0.65387, 9.195987)"><g><path d="M 1.546875 -0.5625 C 1.546875 -0.382812 1.492188 -0.234375 1.390625 -0.109375 C 1.273438 0.0234375 1.125 0.09375 0.9375 0.09375 C 0.625 0.09375 0.46875 -0.0703125 0.46875 -0.40625 C 0.46875 -0.59375 0.523438 -0.75 0.640625 -0.875 C 0.753906 -1.007812 0.90625 -1.078125 1.09375 -1.078125 C 1.394531 -1.078125 1.546875 -0.90625 1.546875 -0.5625 Z M 1.546875 -0.5625 "/></g></g></g></g></g></svg>