<svg xmlns="http://www.w3.org/2000/svg" xmlns:xlink="http://www.w3.org/1999/xlink" width="168" zoomAndPan="magnify" viewBox="0 0 126 47.25" height="63" preserveAspectRatio="xMidYMid meet" version="1.0"><defs><g/><clipPath id="6029578406"><path d="M 0.203125 14 L 20 14 L 20 27 L 0.203125 27 Z M 0.203125 14 " clip-rule="nonzero"/></clipPath><clipPath id="852a62d5d7"><rect x="0" width="47" y="0" height="37"/></clipPath><clipPath id="b06c19ac22"><rect x="0" width="4" y="0" height="13"/></clipPath></defs><g transform="matrix(1, 0, 0, 1, 40, 5)"><g clip-path="url(#852a62d5d7)"><g clip-path="url(#6029578406)"><g fill="#000000" fill-opacity="1"><g transform="translate(0.516108, 26.307675)"><g><path d="M 18.703125 -9.9375 C 18.703125 -9 18.171875 -7.644531 17.109375 -5.875 C 16.046875 -4.113281 15.515625 -2.945312 15.515625 -2.375 C 15.515625 -1.96875 15.691406 -1.765625 16.046875 -1.765625 C 16.210938 -1.765625 16.519531 -1.929688 16.96875 -2.265625 C 17.425781 -2.597656 17.726562 -2.765625 17.875 -2.765625 C 18.175781 -2.765625 18.328125 -2.625 18.328125 -2.34375 C 18.328125 -1.914062 17.859375 -1.410156 16.921875 -0.828125 C 16.035156 -0.273438 15.359375 0 14.890625 0 C 14.304688 0 13.882812 -0.0859375 13.625 -0.265625 C 13.3125 -0.472656 13.15625 -0.867188 13.15625 -1.453125 C 13.15625 -1.847656 13.707031 -3.015625 14.8125 -4.953125 C 15.925781 -6.898438 16.484375 -8.179688 16.484375 -8.796875 C 16.484375 -9.179688 16.238281 -9.375 15.75 -9.375 C 15.425781 -9.375 14.71875 -8.765625 13.625 -7.546875 C 12.726562 -6.535156 12.082031 -5.734375 11.6875 -5.140625 C 11.09375 -4.148438 10.507812 -3.160156 9.9375 -2.171875 C 9.039062 -0.828125 8.238281 -0.15625 7.53125 -0.15625 C 7.019531 -0.15625 6.765625 -0.46875 6.765625 -1.09375 C 6.765625 -1.925781 7.222656 -3.222656 8.140625 -4.984375 C 9.066406 -6.742188 9.53125 -8.054688 9.53125 -8.921875 C 9.53125 -9.441406 9.351562 -9.703125 9 -9.703125 C 8.1875 -9.703125 6.960938 -8.441406 5.328125 -5.921875 C 4.304688 -4.242188 3.289062 -2.566406 2.28125 -0.890625 C 1.882812 -0.296875 1.421875 0 0.890625 0 C 0.378906 0 0.125 -0.3125 0.125 -0.9375 C 0.125 -1.25 0.34375 -1.921875 0.78125 -2.953125 L 2.109375 -6 C 2.546875 -7.019531 2.765625 -7.882812 2.765625 -8.59375 C 2.765625 -9.375 2.523438 -9.757812 2.046875 -9.75 C 1.773438 -9.4375 1.328125 -9.015625 0.703125 -8.484375 C 0.523438 -8.441406 0.382812 -8.421875 0.28125 -8.421875 C 0.0078125 -8.421875 -0.125 -8.515625 -0.125 -8.703125 C -0.125 -9.160156 0.414062 -9.785156 1.5 -10.578125 C 2.539062 -11.328125 3.304688 -11.703125 3.796875 -11.703125 C 4.390625 -11.703125 4.6875 -11.445312 4.6875 -10.9375 C 4.6875 -10.507812 4.546875 -9.890625 4.265625 -9.078125 C 3.992188 -8.273438 3.859375 -7.660156 3.859375 -7.234375 C 3.859375 -6.804688 3.992188 -6.601562 4.265625 -6.625 C 4.929688 -7.3125 5.9375 -8.328125 7.28125 -9.671875 C 8.664062 -11.023438 9.867188 -11.703125 10.890625 -11.703125 C 11.097656 -11.703125 11.300781 -11.632812 11.5 -11.5 C 11.695312 -11.375 11.796875 -11.21875 11.796875 -11.03125 C 11.796875 -10.6875 11.59375 -10.097656 11.1875 -9.265625 C 10.789062 -8.429688 10.59375 -7.75 10.59375 -7.21875 C 10.59375 -7.070312 10.644531 -6.925781 10.75 -6.78125 C 10.863281 -6.632812 10.988281 -6.5625 11.125 -6.5625 C 11.550781 -6.5625 11.957031 -6.820312 12.34375 -7.34375 C 12.445312 -7.5 12.613281 -7.742188 12.84375 -8.078125 C 13.363281 -8.804688 14.054688 -9.546875 14.921875 -10.296875 C 15.984375 -11.234375 16.828125 -11.703125 17.453125 -11.703125 C 17.867188 -11.703125 18.191406 -11.5 18.421875 -11.09375 C 18.609375 -10.769531 18.703125 -10.382812 18.703125 -9.9375 Z M 18.703125 -9.9375 "/></g></g></g></g><g fill="#000000" fill-opacity="1"><g transform="translate(20.738064, 26.307675)"><g><path d="M 11.8125 -3.953125 C 11.8125 -3.367188 11.328125 -2.570312 10.359375 -1.5625 C 9.398438 -0.5625 8.628906 -0.0625 8.046875 -0.0625 C 7.128906 -0.0625 6.671875 -0.5625 6.671875 -1.5625 C 6.671875 -1.769531 6.707031 -2.078125 6.78125 -2.484375 C 6.863281 -2.890625 6.90625 -3.195312 6.90625 -3.40625 C 6.90625 -3.65625 6.832031 -3.78125 6.6875 -3.78125 C 6.613281 -3.78125 5.941406 -3.148438 4.671875 -1.890625 C 3.410156 -0.628906 2.472656 0 1.859375 0 C 1.347656 0 0.9375 -0.203125 0.625 -0.609375 C 0.332031 -0.984375 0.1875 -1.429688 0.1875 -1.953125 C 0.1875 -3.617188 0.976562 -5.503906 2.5625 -7.609375 C 4.257812 -9.867188 6.050781 -11.179688 7.9375 -11.546875 C 8.320312 -11.609375 8.894531 -11.71875 9.65625 -11.875 C 10.3125 -12.320312 10.675781 -12.546875 10.75 -12.546875 C 11.007812 -12.546875 11.140625 -12.382812 11.140625 -12.0625 C 11.140625 -11.90625 11.09375 -11.707031 11 -11.46875 L 9.375 -7.296875 C 8.675781 -5.515625 8.328125 -4.210938 8.328125 -3.390625 C 8.328125 -2.679688 8.625 -2.328125 9.21875 -2.328125 C 9.46875 -2.328125 9.894531 -2.648438 10.5 -3.296875 C 11.101562 -3.941406 11.460938 -4.265625 11.578125 -4.265625 C 11.734375 -4.265625 11.8125 -4.160156 11.8125 -3.953125 Z M 8.4375 -9.21875 C 8.4375 -9.5625 8.144531 -9.734375 7.5625 -9.734375 L 7.390625 -9.734375 C 6.328125 -9.734375 5.144531 -8.945312 3.84375 -7.375 C 2.570312 -5.84375 1.9375 -4.535156 1.9375 -3.453125 C 1.9375 -2.710938 2.207031 -2.34375 2.75 -2.34375 C 3.695312 -2.34375 4.890625 -3.253906 6.328125 -5.078125 C 7.734375 -6.847656 8.4375 -8.226562 8.4375 -9.21875 Z M 8.4375 -9.21875 "/></g></g></g><g fill="#000000" fill-opacity="1"><g transform="translate(34.396708, 26.307675)"><g><path d="M 9.484375 -9.84375 C 9.484375 -7.320312 8.738281 -4.726562 7.25 -2.0625 C 5.832031 0.445312 4.0625 2.507812 1.9375 4.125 C -0.132812 5.71875 -2.535156 6.515625 -5.265625 6.515625 C -5.890625 6.515625 -6.515625 6.347656 -7.140625 6.015625 C -7.890625 5.640625 -8.265625 5.171875 -8.265625 4.609375 C -8.265625 4.296875 -8.046875 4.140625 -7.609375 4.140625 L -7.53125 4.140625 C -6.757812 4.703125 -6.296875 5.023438 -6.140625 5.109375 C -5.554688 5.453125 -5.03125 5.625 -4.5625 5.625 C -1.90625 5.625 0.492188 3.878906 2.640625 0.390625 C 3.429688 -0.910156 3.828125 -2.289062 3.828125 -3.75 C 3.828125 -4.445312 3.738281 -5.316406 3.5625 -6.359375 C 3.351562 -7.578125 3.109375 -8.382812 2.828125 -8.78125 C 2.816406 -8.789062 2.535156 -9.078125 1.984375 -9.640625 C 1.703125 -9.921875 1.5625 -10.304688 1.5625 -10.796875 C 1.5625 -11.398438 1.957031 -11.703125 2.75 -11.703125 C 3.28125 -11.703125 3.71875 -11.394531 4.0625 -10.78125 C 4.238281 -10.457031 4.5 -9.144531 4.84375 -6.84375 C 5.144531 -4.8125 5.492188 -3.710938 5.890625 -3.546875 C 6.492188 -3.628906 7.007812 -4.488281 7.4375 -6.125 C 7.757812 -7.425781 7.921875 -8.53125 7.921875 -9.4375 C 7.921875 -9.613281 7.894531 -9.875 7.84375 -10.21875 C 7.800781 -10.570312 7.78125 -10.832031 7.78125 -11 C 7.78125 -11.46875 8.019531 -11.703125 8.5 -11.703125 C 9.15625 -11.703125 9.484375 -11.082031 9.484375 -9.84375 Z M 9.484375 -9.84375 "/></g></g></g></g></g><g transform="matrix(1, 0, 0, 1, 61, 28)"><g clip-path="url(#b06c19ac22)"><g fill="#000000" fill-opacity="1"><g transform="translate(0.75672, 9.083628)"><g><path d="M 1.53125 -0.5625 C 1.53125 -0.382812 1.476562 -0.234375 1.375 -0.109375 C 1.257812 0.0234375 1.113281 0.09375 0.9375 0.09375 C 0.625 0.09375 0.46875 -0.0664062 0.46875 -0.390625 C 0.46875 -0.578125 0.519531 -0.734375 0.625 -0.859375 C 0.738281 -0.992188 0.890625 -1.0625 1.078125 -1.0625 C 1.378906 -1.0625 1.53125 -0.894531 1.53125 -0.5625 Z M 1.53125 -0.5625 "/></g></g></g></g></g></svg>