<svg xmlns="http://www.w3.org/2000/svg" xmlns:xlink="http://www.w3.org/1999/xlink" width="149" zoomAndPan="magnify" viewBox="0 0 111.75 101.999999" height="136" preserveAspectRatio="xMidYMid meet" version="1.0"><defs><g/><clipPath id="3cc3daf51c"><rect x="0" width="36" y="0" height="65"/></clipPath><clipPath id="6daee7d3ff"><rect x="0" width="4" y="0" height="13"/></clipPath></defs><g transform="matrix(1, 0, 0, 1, 38, 16)"><g clip-path="url(#3cc3daf51c)"><g fill="#cafc05" fill-opacity="1"><g transform="translate(5.625771, 56.938764)"><g><path d="M 17.890625 -29.203125 C 17.078125 -29.203125 16.273438 -28.675781 15.484375 -27.625 C 14.691406 -26.582031 13.960938 -25.222656 13.296875 -23.546875 C 12.640625 -21.867188 12.117188 -20.09375 11.734375 -18.21875 C 11.347656 -16.34375 11.15625 -14.59375 11.15625 -12.96875 C 11.15625 -11.238281 11.363281 -9.992188 11.78125 -9.234375 C 12.207031 -8.484375 12.753906 -8.109375 13.421875 -8.109375 C 14.191406 -8.109375 14.960938 -8.640625 15.734375 -9.703125 C 16.503906 -10.773438 17.203125 -12.175781 17.828125 -13.90625 C 18.460938 -15.644531 18.960938 -17.503906 19.328125 -19.484375 C 19.691406 -21.472656 19.875 -23.375 19.875 -25.1875 C 19.875 -26.65625 19.691406 -27.691406 19.328125 -28.296875 C 18.960938 -28.898438 18.484375 -29.203125 17.890625 -29.203125 Z M 14.578125 0.0625 C 14.097656 0.0625 13.40625 -0.03125 12.5 -0.21875 C 11.601562 -0.40625 10.617188 -0.707031 9.546875 -1.125 C 8.484375 -1.550781 7.445312 -2.101562 6.4375 -2.78125 C 5.425781 -3.46875 4.566406 -4.304688 3.859375 -5.296875 C 3.085938 -6.398438 2.5625 -7.804688 2.28125 -9.515625 C 2.007812 -11.234375 1.875 -12.828125 1.875 -14.296875 C 1.875 -15.847656 2.054688 -17.625 2.421875 -19.625 C 2.796875 -21.632812 3.347656 -23.660156 4.078125 -25.703125 C 4.816406 -27.742188 5.75 -29.640625 6.875 -31.390625 C 8 -33.140625 9.351562 -34.546875 10.9375 -35.609375 C 12.519531 -36.679688 14.320312 -37.21875 16.34375 -37.21875 C 16.9375 -37.21875 17.738281 -37.078125 18.75 -36.796875 C 19.757812 -36.523438 20.832031 -36.117188 21.96875 -35.578125 C 23.113281 -35.046875 24.191406 -34.394531 25.203125 -33.625 C 26.210938 -32.851562 26.992188 -31.988281 27.546875 -31.03125 C 28.253906 -29.894531 28.707031 -28.644531 28.90625 -27.28125 C 29.101562 -25.914062 29.203125 -24.535156 29.203125 -23.140625 C 29.171875 -21.335938 28.96875 -19.394531 28.59375 -17.3125 C 28.226562 -15.226562 27.660156 -13.164062 26.890625 -11.125 C 26.117188 -9.082031 25.160156 -7.210938 24.015625 -5.515625 C 22.878906 -3.828125 21.519531 -2.472656 19.9375 -1.453125 C 18.351562 -0.441406 16.566406 0.0625 14.578125 0.0625 Z M 14.578125 0.0625 "/></g></g></g><g fill="#e474ba" fill-opacity="1"><g transform="translate(0.744629, 52.057622)"><g><path d="M 17.890625 -29.203125 C 17.078125 -29.203125 16.273438 -28.675781 15.484375 -27.625 C 14.691406 -26.582031 13.960938 -25.222656 13.296875 -23.546875 C 12.640625 -21.867188 12.117188 -20.09375 11.734375 -18.21875 C 11.347656 -16.34375 11.15625 -14.59375 11.15625 -12.96875 C 11.15625 -11.238281 11.363281 -9.992188 11.78125 -9.234375 C 12.207031 -8.484375 12.753906 -8.109375 13.421875 -8.109375 C 14.191406 -8.109375 14.960938 -8.640625 15.734375 -9.703125 C 16.503906 -10.773438 17.203125 -12.175781 17.828125 -13.90625 C 18.460938 -15.644531 18.960938 -17.503906 19.328125 -19.484375 C 19.691406 -21.472656 19.875 -23.375 19.875 -25.1875 C 19.875 -26.65625 19.691406 -27.691406 19.328125 -28.296875 C 18.960938 -28.898438 18.484375 -29.203125 17.890625 -29.203125 Z M 14.578125 0.0625 C 14.097656 0.0625 13.40625 -0.03125 12.5 -0.21875 C 11.601562 -0.40625 10.617188 -0.707031 9.546875 -1.125 C 8.484375 -1.550781 7.445312 -2.101562 6.4375 -2.78125 C 5.425781 -3.46875 4.566406 -4.304688 3.859375 -5.296875 C 3.085938 -6.398438 2.5625 -7.804688 2.28125 -9.515625 C 2.007812 -11.234375 1.875 -12.828125 1.875 -14.296875 C 1.875 -15.847656 2.054688 -17.625 2.421875 -19.625 C 2.796875 -21.632812 3.347656 -23.660156 4.078125 -25.703125 C 4.816406 -27.742188 5.75 -29.640625 6.875 -31.390625 C 8 -33.140625 9.351562 -34.546875 10.9375 -35.609375 C 12.519531 -36.679688 14.320312 -37.21875 16.34375 -37.21875 C 16.9375 -37.21875 17.738281 -37.078125 18.75 -36.796875 C 19.757812 -36.523438 20.832031 -36.117188 21.96875 -35.578125 C 23.113281 -35.046875 24.191406 -34.394531 25.203125 -33.625 C 26.210938 -32.851562 26.992188 -31.988281 27.546875 -31.03125 C 28.253906 -29.894531 28.707031 -28.644531 28.90625 -27.28125 C 29.101562 -25.914062 29.203125 -24.535156 29.203125 -23.140625 C 29.171875 -21.335938 28.96875 -19.394531 28.59375 -17.3125 C 28.226562 -15.226562 27.660156 -13.164062 26.890625 -11.125 C 26.117188 -9.082031 25.160156 -7.210938 24.015625 -5.515625 C 22.878906 -3.828125 21.519531 -2.472656 19.9375 -1.453125 C 18.351562 -0.441406 16.566406 0.0625 14.578125 0.0625 Z M 14.578125 0.0625 "/></g></g></g></g></g><g transform="matrix(1, 0, 0, 1, 58, 47)"><g clip-path="url(#6daee7d3ff)"><g fill="#000000" fill-opacity="1"><g transform="translate(0.988322, 9.399594)"><g><path d="M 1.546875 -0.5625 C 1.546875 -0.382812 1.492188 -0.234375 1.390625 -0.109375 C 1.273438 0.0234375 1.125 0.09375 0.9375 0.09375 C 0.625 0.09375 0.46875 -0.0703125 0.46875 -0.40625 C 0.46875 -0.59375 0.523438 -0.75 0.640625 -0.875 C 0.753906 -1.007812 0.90625 -1.078125 1.09375 -1.078125 C 1.394531 -1.078125 1.546875 -0.90625 1.546875 -0.5625 Z M 1.546875 -0.5625 "/></g></g></g></g></g></svg>