<svg xmlns="http://www.w3.org/2000/svg" xmlns:xlink="http://www.w3.org/1999/xlink" width="275" zoomAndPan="magnify" viewBox="0 0 206.25 81.749997" height="109" preserveAspectRatio="xMidYMid meet" version="1.0"><defs><g/></defs><g fill="#000000" fill-opacity="1"><g transform="translate(66.460248, 31.686273)"><g><path d="M 19.390625 -0.703125 C 19.390625 -0.140625 19.066406 0.140625 18.421875 0.140625 C 18.191406 0.140625 17.757812 0.09375 17.125 0 C 16.78125 -0.0390625 16.488281 -0.0625 16.25 -0.0625 C 16 -0.0625 15.539062 -0.03125 14.875 0.03125 C 14.476562 0.0625 14.171875 0.078125 13.953125 0.078125 C 13.492188 0.078125 13.265625 -0.207031 13.265625 -0.78125 C 13.265625 -0.9375 13.425781 -1.070312 13.75 -1.1875 C 14.207031 -1.332031 14.515625 -1.46875 14.671875 -1.59375 C 15.003906 -1.851562 15.171875 -2.25 15.171875 -2.78125 C 15.171875 -3.226562 15.15625 -3.90625 15.125 -4.8125 C 15.09375 -5.71875 15.078125 -6.398438 15.078125 -6.859375 C 15.078125 -7.617188 14.785156 -8.007812 14.203125 -8.03125 C 11.503906 -8.09375 10.128906 -8.125 10.078125 -8.125 C 9.640625 -8.125 8.984375 -8.097656 8.109375 -8.046875 C 7.242188 -8.003906 6.59375 -7.984375 6.15625 -7.984375 C 5.59375 -7.984375 5.3125 -7.578125 5.3125 -6.765625 C 5.3125 -6.085938 5.296875 -5.304688 5.265625 -4.421875 L 5.234375 -2.875 C 5.234375 -1.925781 5.726562 -1.367188 6.71875 -1.203125 C 7.1875 -1.128906 7.421875 -0.910156 7.421875 -0.546875 C 7.421875 -0.128906 7.191406 0.078125 6.734375 0.078125 C 6.421875 0.078125 6.128906 0.0664062 5.859375 0.046875 C 5.015625 -0.0351562 4.535156 -0.078125 4.421875 -0.078125 C 4.234375 -0.078125 3.800781 -0.046875 3.125 0.015625 C 2.738281 0.046875 2.457031 0.0625 2.28125 0.0625 C 1.65625 0.0625 1.34375 -0.140625 1.34375 -0.546875 C 1.34375 -0.722656 1.492188 -0.875 1.796875 -1 C 2.222656 -1.175781 2.503906 -1.328125 2.640625 -1.453125 C 2.941406 -1.742188 3.09375 -2.160156 3.09375 -2.703125 C 3.09375 -3.398438 3.148438 -4.457031 3.265625 -5.875 C 3.359375 -7.238281 3.40625 -8.289062 3.40625 -9.03125 L 3.390625 -14.40625 C 3.390625 -15.164062 3.222656 -15.726562 2.890625 -16.09375 C 2.710938 -16.289062 2.394531 -16.476562 1.9375 -16.65625 C 1.601562 -16.789062 1.4375 -16.953125 1.4375 -17.140625 C 1.4375 -17.554688 1.707031 -17.765625 2.25 -17.765625 C 2.53125 -17.765625 2.945312 -17.734375 3.5 -17.671875 C 4.050781 -17.609375 4.46875 -17.578125 4.75 -17.578125 C 5.03125 -17.578125 5.445312 -17.609375 6 -17.671875 C 6.550781 -17.734375 6.960938 -17.765625 7.234375 -17.765625 C 7.628906 -17.765625 7.828125 -17.546875 7.828125 -17.109375 C 7.828125 -16.929688 7.625 -16.78125 7.21875 -16.65625 C 6.695312 -16.476562 6.328125 -16.296875 6.109375 -16.109375 C 5.703125 -15.734375 5.5 -15.164062 5.5 -14.40625 C 5.5 -14.03125 5.488281 -13.503906 5.46875 -12.828125 C 5.445312 -12.085938 5.4375 -11.5625 5.4375 -11.25 C 5.425781 -10.09375 5.660156 -9.515625 6.140625 -9.515625 C 6.585938 -9.515625 7.253906 -9.492188 8.140625 -9.453125 C 9.035156 -9.421875 9.710938 -9.40625 10.171875 -9.40625 C 10.640625 -9.40625 11.34375 -9.421875 12.28125 -9.453125 C 13.226562 -9.492188 13.941406 -9.515625 14.421875 -9.515625 C 14.679688 -9.515625 14.910156 -9.675781 15.109375 -10 C 15.273438 -10.28125 15.351562 -10.5625 15.34375 -10.84375 L 15.296875 -14.4375 C 15.285156 -15.195312 15.117188 -15.75 14.796875 -16.09375 C 14.617188 -16.289062 14.320312 -16.457031 13.90625 -16.59375 C 13.582031 -16.6875 13.421875 -16.816406 13.421875 -16.984375 C 13.421875 -17.472656 13.664062 -17.71875 14.15625 -17.71875 C 14.40625 -17.71875 14.78125 -17.679688 15.28125 -17.609375 C 15.78125 -17.546875 16.148438 -17.515625 16.390625 -17.515625 C 16.671875 -17.515625 17.148438 -17.554688 17.828125 -17.640625 C 18.203125 -17.691406 18.523438 -17.71875 18.796875 -17.71875 C 19.179688 -17.71875 19.375 -17.5625 19.375 -17.25 C 19.375 -16.875 19.175781 -16.617188 18.78125 -16.484375 C 17.863281 -16.160156 17.40625 -15.421875 17.40625 -14.265625 C 17.40625 -13.679688 17.328125 -12.539062 17.171875 -10.84375 C 17.097656 -9.988281 17.0625 -9.3125 17.0625 -8.8125 C 17.0625 -8.132812 17.085938 -7.117188 17.140625 -5.765625 C 17.203125 -4.410156 17.234375 -3.398438 17.234375 -2.734375 C 17.234375 -2.222656 17.414062 -1.835938 17.78125 -1.578125 C 17.925781 -1.484375 18.273438 -1.351562 18.828125 -1.1875 C 19.203125 -1.050781 19.390625 -0.890625 19.390625 -0.703125 Z M 19.390625 -0.703125 "/></g></g></g><g fill="#000000" fill-opacity="1"><g transform="translate(87.92867, 31.686273)"><g><path d="M 11.953125 -4 C 11.953125 -3.40625 11.460938 -2.597656 10.484375 -1.578125 C 9.515625 -0.566406 8.734375 -0.0625 8.140625 -0.0625 C 7.210938 -0.0625 6.75 -0.566406 6.75 -1.578125 C 6.75 -1.785156 6.785156 -2.097656 6.859375 -2.515625 C 6.941406 -2.929688 6.984375 -3.242188 6.984375 -3.453125 C 6.984375 -3.703125 6.910156 -3.828125 6.765625 -3.828125 C 6.691406 -3.828125 6.015625 -3.1875 4.734375 -1.90625 C 3.453125 -0.632812 2.503906 0 1.890625 0 C 1.359375 0 0.9375 -0.207031 0.625 -0.625 C 0.332031 -1 0.1875 -1.453125 0.1875 -1.984375 C 0.1875 -3.671875 0.988281 -5.578125 2.59375 -7.703125 C 4.3125 -9.984375 6.125 -11.3125 8.03125 -11.6875 C 8.425781 -11.75 9.007812 -11.859375 9.78125 -12.015625 C 10.4375 -12.472656 10.800781 -12.703125 10.875 -12.703125 C 11.144531 -12.703125 11.28125 -12.539062 11.28125 -12.21875 C 11.28125 -12.050781 11.234375 -11.847656 11.140625 -11.609375 L 9.484375 -7.390625 C 8.785156 -5.578125 8.4375 -4.257812 8.4375 -3.4375 C 8.4375 -2.71875 8.738281 -2.359375 9.34375 -2.359375 C 9.59375 -2.359375 10.019531 -2.679688 10.625 -3.328125 C 11.238281 -3.984375 11.601562 -4.3125 11.71875 -4.3125 C 11.875 -4.3125 11.953125 -4.207031 11.953125 -4 Z M 8.546875 -9.34375 C 8.546875 -9.675781 8.25 -9.84375 7.65625 -9.84375 L 7.484375 -9.84375 C 6.410156 -9.84375 5.210938 -9.050781 3.890625 -7.46875 C 2.609375 -5.914062 1.96875 -4.59375 1.96875 -3.5 C 1.96875 -2.75 2.238281 -2.375 2.78125 -2.375 C 3.738281 -2.375 4.945312 -3.296875 6.40625 -5.140625 C 7.832031 -6.929688 8.546875 -8.332031 8.546875 -9.34375 Z M 8.546875 -9.34375 "/></g></g></g><g fill="#000000" fill-opacity="1"><g transform="translate(101.75122, 31.686273)"><g><path d="M 11.5625 -8.71875 C 11.5625 -8.09375 11.351562 -7.082031 10.9375 -5.6875 C 10.675781 -4.8125 10.195312 -4 9.5 -3.25 C 8.789062 -2.457031 8.015625 -1.9375 7.171875 -1.6875 C 6.859375 -1.59375 6.332031 -1.546875 5.59375 -1.546875 C 4.851562 -1.546875 4.3125 -1.367188 3.96875 -1.015625 C 3.726562 -0.765625 3.457031 -0.25 3.15625 0.53125 C 2.113281 3.21875 1.59375 5.15625 1.59375 6.34375 C 1.59375 6.789062 1.835938 7.117188 2.328125 7.328125 C 2.335938 7.335938 2.785156 7.46875 3.671875 7.71875 C 4.160156 7.84375 4.40625 8.039062 4.40625 8.3125 C 4.40625 8.6875 4.15625 8.875 3.65625 8.875 C 3.332031 8.875 2.863281 8.796875 2.25 8.640625 C 1.644531 8.492188 1.179688 8.421875 0.859375 8.421875 C 0.628906 8.421875 0.285156 8.429688 -0.171875 8.453125 C -0.628906 8.472656 -0.972656 8.484375 -1.203125 8.484375 C -2.078125 8.484375 -2.515625 8.289062 -2.515625 7.90625 C -2.515625 7.8125 -2.273438 7.675781 -1.796875 7.5 C -1.253906 7.289062 -0.875 6.929688 -0.65625 6.421875 C -0.445312 5.910156 0.0195312 4.34375 0.75 1.71875 C 0.9375 1.0625 1.691406 -1.691406 3.015625 -6.546875 C 3.546875 -8.503906 3.8125 -9.503906 3.8125 -9.546875 C 3.8125 -9.710938 3.578125 -9.835938 3.109375 -9.921875 C 2.648438 -10.015625 2.421875 -10.179688 2.421875 -10.421875 C 2.421875 -10.503906 2.664062 -10.691406 3.15625 -10.984375 C 3.675781 -11.285156 3.988281 -11.535156 4.09375 -11.734375 C 4.21875 -12.191406 4.34375 -12.648438 4.46875 -13.109375 C 4.613281 -13.609375 4.976562 -13.859375 5.5625 -13.859375 C 6.269531 -13.859375 6.625 -13.628906 6.625 -13.171875 C 6.625 -13.046875 6.585938 -12.859375 6.515625 -12.609375 C 6.453125 -12.367188 6.421875 -12.179688 6.421875 -12.046875 C 6.421875 -11.703125 6.695312 -11.53125 7.25 -11.53125 C 7.46875 -11.53125 7.78125 -11.582031 8.1875 -11.6875 C 8.601562 -11.789062 8.921875 -11.84375 9.140625 -11.84375 C 9.878906 -11.84375 10.484375 -11.492188 10.953125 -10.796875 C 11.359375 -10.179688 11.5625 -9.488281 11.5625 -8.71875 Z M 9.703125 -8.71875 C 9.703125 -9.3125 9.5 -9.800781 9.09375 -10.1875 C 8.6875 -10.570312 8.1875 -10.765625 7.59375 -10.765625 C 6.914062 -10.765625 6.347656 -10.390625 5.890625 -9.640625 C 5.628906 -9.222656 5.3125 -8.300781 4.9375 -6.875 C 4.5625 -5.457031 4.375 -4.488281 4.375 -3.96875 C 4.375 -3.175781 4.835938 -2.78125 5.765625 -2.78125 C 6.773438 -2.78125 7.707031 -3.535156 8.5625 -5.046875 C 9.320312 -6.390625 9.703125 -7.613281 9.703125 -8.71875 Z M 9.703125 -8.71875 "/></g></g></g><g fill="#000000" fill-opacity="1"><g transform="translate(114.652415, 31.686273)"><g><path d="M 11.5625 -8.71875 C 11.5625 -8.09375 11.351562 -7.082031 10.9375 -5.6875 C 10.675781 -4.8125 10.195312 -4 9.5 -3.25 C 8.789062 -2.457031 8.015625 -1.9375 7.171875 -1.6875 C 6.859375 -1.59375 6.332031 -1.546875 5.59375 -1.546875 C 4.851562 -1.546875 4.3125 -1.367188 3.96875 -1.015625 C 3.726562 -0.765625 3.457031 -0.25 3.15625 0.53125 C 2.113281 3.21875 1.59375 5.15625 1.59375 6.34375 C 1.59375 6.789062 1.835938 7.117188 2.328125 7.328125 C 2.335938 7.335938 2.785156 7.46875 3.671875 7.71875 C 4.160156 7.84375 4.40625 8.039062 4.40625 8.3125 C 4.40625 8.6875 4.15625 8.875 3.65625 8.875 C 3.332031 8.875 2.863281 8.796875 2.25 8.640625 C 1.644531 8.492188 1.179688 8.421875 0.859375 8.421875 C 0.628906 8.421875 0.285156 8.429688 -0.171875 8.453125 C -0.628906 8.472656 -0.972656 8.484375 -1.203125 8.484375 C -2.078125 8.484375 -2.515625 8.289062 -2.515625 7.90625 C -2.515625 7.8125 -2.273438 7.675781 -1.796875 7.5 C -1.253906 7.289062 -0.875 6.929688 -0.65625 6.421875 C -0.445312 5.910156 0.0195312 4.34375 0.75 1.71875 C 0.9375 1.0625 1.691406 -1.691406 3.015625 -6.546875 C 3.546875 -8.503906 3.8125 -9.503906 3.8125 -9.546875 C 3.8125 -9.710938 3.578125 -9.835938 3.109375 -9.921875 C 2.648438 -10.015625 2.421875 -10.179688 2.421875 -10.421875 C 2.421875 -10.503906 2.664062 -10.691406 3.15625 -10.984375 C 3.675781 -11.285156 3.988281 -11.535156 4.09375 -11.734375 C 4.21875 -12.191406 4.34375 -12.648438 4.46875 -13.109375 C 4.613281 -13.609375 4.976562 -13.859375 5.5625 -13.859375 C 6.269531 -13.859375 6.625 -13.628906 6.625 -13.171875 C 6.625 -13.046875 6.585938 -12.859375 6.515625 -12.609375 C 6.453125 -12.367188 6.421875 -12.179688 6.421875 -12.046875 C 6.421875 -11.703125 6.695312 -11.53125 7.25 -11.53125 C 7.46875 -11.53125 7.78125 -11.582031 8.1875 -11.6875 C 8.601562 -11.789062 8.921875 -11.84375 9.140625 -11.84375 C 9.878906 -11.84375 10.484375 -11.492188 10.953125 -10.796875 C 11.359375 -10.179688 11.5625 -9.488281 11.5625 -8.71875 Z M 9.703125 -8.71875 C 9.703125 -9.3125 9.5 -9.800781 9.09375 -10.1875 C 8.6875 -10.570312 8.1875 -10.765625 7.59375 -10.765625 C 6.914062 -10.765625 6.347656 -10.390625 5.890625 -9.640625 C 5.628906 -9.222656 5.3125 -8.300781 4.9375 -6.875 C 4.5625 -5.457031 4.375 -4.488281 4.375 -3.96875 C 4.375 -3.175781 4.835938 -2.78125 5.765625 -2.78125 C 6.773438 -2.78125 7.707031 -3.535156 8.5625 -5.046875 C 9.320312 -6.390625 9.703125 -7.613281 9.703125 -8.71875 Z M 9.703125 -8.71875 "/></g></g></g><g fill="#000000" fill-opacity="1"><g transform="translate(127.553609, 31.686273)"><g><path d="M 9.59375 -9.953125 C 9.59375 -7.410156 8.835938 -4.789062 7.328125 -2.09375 C 5.898438 0.445312 4.113281 2.539062 1.96875 4.1875 C -0.132812 5.789062 -2.566406 6.59375 -5.328125 6.59375 C -5.953125 6.59375 -6.582031 6.425781 -7.21875 6.09375 C -7.976562 5.707031 -8.359375 5.226562 -8.359375 4.65625 C -8.359375 4.351562 -8.140625 4.203125 -7.703125 4.203125 L -7.625 4.203125 C -6.84375 4.765625 -6.375 5.085938 -6.21875 5.171875 C -5.632812 5.515625 -5.101562 5.6875 -4.625 5.6875 C -1.925781 5.6875 0.503906 3.925781 2.671875 0.40625 C 3.472656 -0.914062 3.875 -2.316406 3.875 -3.796875 C 3.875 -4.503906 3.785156 -5.382812 3.609375 -6.4375 C 3.390625 -7.664062 3.140625 -8.484375 2.859375 -8.890625 C 2.847656 -8.898438 2.566406 -9.191406 2.015625 -9.765625 C 1.722656 -10.046875 1.578125 -10.4375 1.578125 -10.9375 C 1.578125 -11.539062 1.976562 -11.84375 2.78125 -11.84375 C 3.320312 -11.84375 3.765625 -11.535156 4.109375 -10.921875 C 4.296875 -10.585938 4.554688 -9.257812 4.890625 -6.9375 C 5.203125 -4.875 5.5625 -3.757812 5.96875 -3.59375 C 6.570312 -3.675781 7.09375 -4.546875 7.53125 -6.203125 C 7.851562 -7.515625 8.015625 -8.632812 8.015625 -9.5625 C 8.015625 -9.738281 7.988281 -10 7.9375 -10.34375 C 7.894531 -10.695312 7.875 -10.960938 7.875 -11.140625 C 7.875 -11.609375 8.113281 -11.84375 8.59375 -11.84375 C 9.257812 -11.84375 9.59375 -11.210938 9.59375 -9.953125 Z M 9.59375 -9.953125 "/></g></g></g><g fill="#000000" fill-opacity="1"><g transform="translate(11.044032, 65.704353)"><g/></g></g><g fill="#000000" fill-opacity="1"><g transform="translate(18.551887, 65.704353)"><g><path d="M 18.28125 -16.9375 C 18.28125 -16.675781 17.96875 -16.421875 17.34375 -16.171875 C 16.625 -15.878906 16.164062 -15.554688 15.96875 -15.203125 C 15.71875 -14.546875 15.304688 -13.59375 14.734375 -12.34375 C 14.304688 -11.3125 13.953125 -10.457031 13.671875 -9.78125 C 13.253906 -8.738281 12.75 -7.445312 12.15625 -5.90625 C 11.425781 -3.957031 10.785156 -2.207031 10.234375 -0.65625 C 10.023438 -0.0625 9.890625 0.273438 9.828125 0.359375 C 9.640625 0.691406 9.378906 0.859375 9.046875 0.859375 C 8.703125 0.859375 8.398438 0.351562 8.140625 -0.65625 C 7.691406 -2.351562 7.316406 -3.554688 7.015625 -4.265625 C 6.585938 -5.253906 6.140625 -6.378906 5.671875 -7.640625 C 5.515625 -8.066406 5.109375 -9.179688 4.453125 -10.984375 C 3.953125 -12.410156 3.503906 -13.613281 3.109375 -14.59375 C 2.785156 -15.40625 2.300781 -15.898438 1.65625 -16.078125 C 1.113281 -16.234375 0.84375 -16.484375 0.84375 -16.828125 C 0.84375 -17.085938 0.945312 -17.3125 1.15625 -17.5 C 1.375 -17.695312 1.617188 -17.796875 1.890625 -17.796875 C 2.046875 -17.796875 2.25 -17.769531 2.5 -17.71875 C 3.113281 -17.570312 3.5 -17.5 3.65625 -17.5 C 3.90625 -17.5 4.242188 -17.550781 4.671875 -17.65625 C 5.109375 -17.757812 5.421875 -17.8125 5.609375 -17.8125 C 5.972656 -17.8125 6.234375 -17.773438 6.390625 -17.703125 C 6.679688 -17.566406 6.828125 -17.3125 6.828125 -16.9375 C 6.828125 -16.800781 6.566406 -16.628906 6.046875 -16.421875 C 5.535156 -16.210938 5.28125 -15.875 5.28125 -15.40625 C 5.28125 -15.039062 5.457031 -14.359375 5.8125 -13.359375 C 6.300781 -12.160156 6.992188 -10.363281 7.890625 -7.96875 C 8.046875 -7.46875 8.289062 -6.71875 8.625 -5.71875 C 8.894531 -4.925781 9.179688 -4.53125 9.484375 -4.53125 C 9.742188 -4.53125 10.101562 -4.890625 10.5625 -5.609375 C 10.9375 -6.203125 11.253906 -6.820312 11.515625 -7.46875 C 11.785156 -8.164062 12.164062 -9.125 12.65625 -10.34375 C 13.007812 -11.257812 13.285156 -12.003906 13.484375 -12.578125 L 13.953125 -13.953125 C 14.078125 -14.421875 14.140625 -14.925781 14.140625 -15.46875 C 14.140625 -15.78125 13.859375 -16.09375 13.296875 -16.40625 C 12.734375 -16.71875 12.453125 -16.976562 12.453125 -17.1875 C 12.453125 -17.644531 12.8125 -17.875 13.53125 -17.875 C 13.738281 -17.875 14.082031 -17.8125 14.5625 -17.6875 C 15.050781 -17.570312 15.4375 -17.515625 15.71875 -17.515625 C 15.957031 -17.515625 16.34375 -17.566406 16.875 -17.671875 C 17.164062 -17.734375 17.394531 -17.765625 17.5625 -17.765625 C 18.039062 -17.765625 18.28125 -17.488281 18.28125 -16.9375 Z M 18.28125 -16.9375 "/></g></g></g><g fill="#000000" fill-opacity="1"><g transform="translate(37.943822, 65.704353)"><g><path d="M 11.953125 -4 C 11.953125 -3.40625 11.460938 -2.597656 10.484375 -1.578125 C 9.515625 -0.566406 8.734375 -0.0625 8.140625 -0.0625 C 7.210938 -0.0625 6.75 -0.566406 6.75 -1.578125 C 6.75 -1.785156 6.785156 -2.097656 6.859375 -2.515625 C 6.941406 -2.929688 6.984375 -3.242188 6.984375 -3.453125 C 6.984375 -3.703125 6.910156 -3.828125 6.765625 -3.828125 C 6.691406 -3.828125 6.015625 -3.1875 4.734375 -1.90625 C 3.453125 -0.632812 2.503906 0 1.890625 0 C 1.359375 0 0.9375 -0.207031 0.625 -0.625 C 0.332031 -1 0.1875 -1.453125 0.1875 -1.984375 C 0.1875 -3.671875 0.988281 -5.578125 2.59375 -7.703125 C 4.3125 -9.984375 6.125 -11.3125 8.03125 -11.6875 C 8.425781 -11.75 9.007812 -11.859375 9.78125 -12.015625 C 10.4375 -12.472656 10.800781 -12.703125 10.875 -12.703125 C 11.144531 -12.703125 11.28125 -12.539062 11.28125 -12.21875 C 11.28125 -12.050781 11.234375 -11.847656 11.140625 -11.609375 L 9.484375 -7.390625 C 8.785156 -5.578125 8.4375 -4.257812 8.4375 -3.4375 C 8.4375 -2.71875 8.738281 -2.359375 9.34375 -2.359375 C 9.59375 -2.359375 10.019531 -2.679688 10.625 -3.328125 C 11.238281 -3.984375 11.601562 -4.3125 11.71875 -4.3125 C 11.875 -4.3125 11.953125 -4.207031 11.953125 -4 Z M 8.546875 -9.34375 C 8.546875 -9.675781 8.25 -9.84375 7.65625 -9.84375 L 7.484375 -9.84375 C 6.410156 -9.84375 5.210938 -9.050781 3.890625 -7.46875 C 2.609375 -5.914062 1.96875 -4.59375 1.96875 -3.5 C 1.96875 -2.75 2.238281 -2.375 2.78125 -2.375 C 3.738281 -2.375 4.945312 -3.296875 6.40625 -5.140625 C 7.832031 -6.929688 8.546875 -8.332031 8.546875 -9.34375 Z M 8.546875 -9.34375 "/></g></g></g><g fill="#000000" fill-opacity="1"><g transform="translate(51.766372, 65.704353)"><g><path d="M 9.484375 -23.71875 C 9.484375 -23.644531 9.429688 -23.515625 9.328125 -23.328125 C 9.222656 -23.148438 9.066406 -22.878906 8.859375 -22.515625 C 8.554688 -22.203125 8.175781 -21.695312 7.71875 -21 C 7.675781 -20.914062 7.554688 -20.519531 7.359375 -19.8125 L 6.53125 -16.890625 C 6 -14.984375 5.226562 -12.160156 4.21875 -8.421875 C 3.394531 -5.367188 2.984375 -3.804688 2.984375 -3.734375 C 2.984375 -3.523438 3.15625 -3.335938 3.5 -3.171875 C 3.789062 -3.035156 4.046875 -2.96875 4.265625 -2.96875 C 4.390625 -2.96875 4.570312 -3.007812 4.8125 -3.09375 C 5.050781 -3.1875 5.234375 -3.234375 5.359375 -3.234375 C 5.648438 -3.234375 5.796875 -3.085938 5.796875 -2.796875 C 5.796875 -2.328125 5.300781 -1.734375 4.3125 -1.015625 C 3.375 -0.335938 2.648438 0 2.140625 0 C 1.035156 0 0.484375 -0.476562 0.484375 -1.4375 C 0.484375 -1.738281 0.753906 -2.882812 1.296875 -4.875 C 1.640625 -6.113281 1.988281 -7.359375 2.34375 -8.609375 L 3.9375 -14.703125 C 4.257812 -15.753906 4.582031 -16.8125 4.90625 -17.875 C 5.394531 -19.445312 5.640625 -20.4375 5.640625 -20.84375 C 5.640625 -21.132812 5.375 -21.445312 4.84375 -21.78125 C 4.3125 -22.125 4.046875 -22.359375 4.046875 -22.484375 C 4.046875 -22.648438 4.203125 -22.765625 4.515625 -22.828125 C 5.015625 -22.847656 5.753906 -22.9375 6.734375 -23.09375 C 6.867188 -23.132812 7.28125 -23.300781 7.96875 -23.59375 C 8.539062 -23.84375 8.925781 -23.96875 9.125 -23.96875 C 9.363281 -23.96875 9.484375 -23.882812 9.484375 -23.71875 Z M 9.484375 -23.71875 "/></g></g></g><g fill="#000000" fill-opacity="1"><g transform="translate(60.280816, 65.704353)"><g><path d="M 8.890625 -9.375 C 8.890625 -8.445312 8.375 -7.617188 7.34375 -6.890625 C 6.40625 -6.234375 5.453125 -5.90625 4.484375 -5.90625 C 4.328125 -5.90625 4.101562 -5.929688 3.8125 -5.984375 C 3.519531 -6.035156 3.296875 -6.0625 3.140625 -6.0625 C 2.234375 -6.0625 1.78125 -5.359375 1.78125 -3.953125 C 1.78125 -2.578125 2.429688 -1.890625 3.734375 -1.890625 C 4.492188 -1.890625 5.289062 -2.203125 6.125 -2.828125 C 6.957031 -3.460938 7.347656 -3.78125 7.296875 -3.78125 C 7.847656 -3.78125 8.125 -3.640625 8.125 -3.359375 C 8.125 -3.253906 8.078125 -3.109375 7.984375 -2.921875 C 7.523438 -2.046875 6.875 -1.335938 6.03125 -0.796875 C 5.195312 -0.265625 4.300781 0 3.34375 0 C 2.175781 0 1.300781 -0.453125 0.71875 -1.359375 C 0.226562 -2.117188 -0.015625 -3.113281 -0.015625 -4.34375 C -0.015625 -6.25 0.535156 -7.941406 1.640625 -9.421875 C 2.835938 -11.035156 4.359375 -11.84375 6.203125 -11.84375 C 6.898438 -11.84375 7.519531 -11.601562 8.0625 -11.125 C 8.613281 -10.644531 8.890625 -10.0625 8.890625 -9.375 Z M 6.953125 -8.78125 C 6.953125 -9.164062 6.804688 -9.492188 6.515625 -9.765625 C 6.222656 -10.035156 5.882812 -10.171875 5.5 -10.171875 C 5.007812 -10.171875 4.519531 -9.898438 4.03125 -9.359375 C 3.539062 -8.828125 3.296875 -8.316406 3.296875 -7.828125 C 3.296875 -7.609375 3.425781 -7.410156 3.6875 -7.234375 C 3.914062 -7.085938 4.148438 -7.015625 4.390625 -7.015625 C 4.890625 -7.015625 5.425781 -7.179688 6 -7.515625 C 6.632812 -7.890625 6.953125 -8.3125 6.953125 -8.78125 Z M 6.953125 -8.78125 "/></g></g></g><g fill="#000000" fill-opacity="1"><g transform="translate(70.156666, 65.704353)"><g><path d="M 11.5625 -2.859375 C 11.5625 -2.273438 11.097656 -1.660156 10.171875 -1.015625 C 9.304688 -0.410156 8.566406 -0.109375 7.953125 -0.109375 C 7.015625 -0.109375 6.546875 -0.539062 6.546875 -1.40625 C 6.546875 -2.25 7.035156 -3.519531 8.015625 -5.21875 C 8.992188 -6.914062 9.484375 -8.171875 9.484375 -8.984375 C 9.484375 -9.472656 9.351562 -9.71875 9.09375 -9.71875 C 8.195312 -9.71875 6.679688 -7.96875 4.546875 -4.46875 C 4.273438 -4.0625 3.890625 -3.4375 3.390625 -2.59375 C 3.234375 -2.226562 2.972656 -1.6875 2.609375 -0.96875 C 2.234375 -0.320312 1.828125 0 1.390625 0 C 0.597656 0 0.203125 -0.441406 0.203125 -1.328125 C 0.203125 -1.898438 0.429688 -2.664062 0.890625 -3.625 C 1.554688 -5 1.910156 -5.742188 1.953125 -5.859375 L 2.3125 -6.859375 C 2.632812 -7.765625 2.796875 -8.394531 2.796875 -8.75 C 2.796875 -9.488281 2.660156 -9.859375 2.390625 -9.859375 C 2.179688 -9.859375 1.878906 -9.664062 1.484375 -9.28125 C 1.085938 -8.894531 0.796875 -8.703125 0.609375 -8.703125 C 0.335938 -8.703125 0.203125 -8.8125 0.203125 -9.03125 C 0.203125 -9.582031 0.664062 -10.195312 1.59375 -10.875 C 2.476562 -11.519531 3.207031 -11.84375 3.78125 -11.84375 C 4.332031 -11.84375 4.609375 -11.601562 4.609375 -11.125 C 4.609375 -10.675781 4.472656 -10.023438 4.203125 -9.171875 C 3.941406 -8.316406 3.8125 -7.664062 3.8125 -7.21875 C 3.8125 -6.757812 3.925781 -6.53125 4.15625 -6.53125 C 4.425781 -6.53125 4.910156 -6.988281 5.609375 -7.90625 C 6.609375 -9.238281 7.296875 -10.09375 7.671875 -10.46875 C 8.578125 -11.382812 9.410156 -11.84375 10.171875 -11.84375 C 10.597656 -11.84375 10.9375 -11.675781 11.1875 -11.34375 C 11.4375 -11.019531 11.5625 -10.640625 11.5625 -10.203125 C 11.5625 -9.359375 11.101562 -8 10.1875 -6.125 C 9.257812 -4.207031 8.796875 -3.03125 8.796875 -2.59375 C 8.796875 -2.238281 8.96875 -2.0625 9.3125 -2.0625 C 9.59375 -2.0625 9.945312 -2.242188 10.375 -2.609375 C 10.800781 -2.972656 11.082031 -3.15625 11.21875 -3.15625 C 11.445312 -3.15625 11.5625 -3.054688 11.5625 -2.859375 Z M 11.5625 -2.859375 "/></g></g></g><g fill="#000000" fill-opacity="1"><g transform="translate(83.676681, 65.704353)"><g><path d="M 8.546875 -11.453125 C 8.546875 -10.703125 8.007812 -10.328125 6.9375 -10.328125 C 6.769531 -10.328125 6.519531 -10.335938 6.1875 -10.359375 C 5.863281 -10.390625 5.625 -10.40625 5.46875 -10.40625 C 4.957031 -10.40625 4.59375 -10.195312 4.375 -9.78125 C 4.3125 -9.65625 4.179688 -9.226562 3.984375 -8.5 L 2.546875 -3.046875 C 2.523438 -2.972656 2.515625 -2.890625 2.515625 -2.796875 C 2.515625 -2.253906 2.769531 -1.984375 3.28125 -1.984375 C 3.71875 -1.984375 4.160156 -2.332031 4.609375 -3.03125 C 5.066406 -3.726562 5.429688 -4.078125 5.703125 -4.078125 C 6.140625 -4.078125 6.359375 -3.882812 6.359375 -3.5 C 6.359375 -3.0625 6.078125 -2.4375 5.515625 -1.625 C 4.773438 -0.539062 3.738281 0 2.40625 0 C 1.914062 0 1.476562 -0.148438 1.09375 -0.453125 C 0.644531 -0.773438 0.421875 -1.171875 0.421875 -1.640625 C 0.421875 -2.441406 1.003906 -4.757812 2.171875 -8.59375 C 2.398438 -9.34375 2.515625 -9.796875 2.515625 -9.953125 C 2.515625 -10.171875 2.316406 -10.289062 1.921875 -10.3125 C 2.210938 -10.300781 1.941406 -10.296875 1.109375 -10.296875 C 0.734375 -10.296875 0.546875 -10.4375 0.546875 -10.71875 C 0.546875 -11.238281 0.765625 -11.566406 1.203125 -11.703125 C 1.429688 -11.773438 1.875 -11.8125 2.53125 -11.8125 C 3.03125 -11.8125 3.398438 -12.179688 3.640625 -12.921875 C 3.929688 -13.773438 4.140625 -14.238281 4.265625 -14.3125 C 4.453125 -14.4375 4.757812 -14.5 5.1875 -14.5 C 5.601562 -14.5 5.8125 -14.367188 5.8125 -14.109375 C 5.8125 -13.910156 5.726562 -13.625 5.5625 -13.25 C 5.394531 -12.882812 5.3125 -12.601562 5.3125 -12.40625 C 5.3125 -11.957031 5.566406 -11.734375 6.078125 -11.734375 C 6.316406 -11.734375 6.675781 -11.75 7.15625 -11.78125 C 7.632812 -11.820312 7.988281 -11.84375 8.21875 -11.84375 C 8.4375 -11.84375 8.546875 -11.710938 8.546875 -11.453125 Z M 8.546875 -11.453125 "/></g></g></g><g fill="#000000" fill-opacity="1"><g transform="translate(93.497524, 65.704353)"><g><path d="M 6.53125 -14.765625 C 6.53125 -14.316406 6.390625 -13.957031 6.109375 -13.6875 C 5.828125 -13.425781 5.46875 -13.296875 5.03125 -13.296875 C 4.113281 -13.296875 3.65625 -13.738281 3.65625 -14.625 C 3.65625 -15.0625 3.800781 -15.425781 4.09375 -15.71875 C 4.382812 -16.007812 4.75 -16.15625 5.1875 -16.15625 C 6.082031 -16.15625 6.53125 -15.691406 6.53125 -14.765625 Z M 5.859375 -11.25 C 5.859375 -10.957031 5.691406 -10.535156 5.359375 -9.984375 C 5.109375 -9.578125 4.859375 -9.171875 4.609375 -8.765625 C 4.242188 -8.003906 3.875 -7.054688 3.5 -5.921875 C 3.050781 -4.585938 2.828125 -3.625 2.828125 -3.03125 C 2.828125 -2.582031 3.140625 -2.359375 3.765625 -2.359375 C 3.898438 -2.359375 4.078125 -2.425781 4.296875 -2.5625 C 4.523438 -2.695312 4.703125 -2.765625 4.828125 -2.765625 C 5.078125 -2.765625 5.203125 -2.640625 5.203125 -2.390625 C 5.203125 -1.921875 4.734375 -1.394531 3.796875 -0.8125 C 2.910156 -0.269531 2.210938 0 1.703125 0 C 0.867188 0 0.453125 -0.554688 0.453125 -1.671875 C 0.453125 -2.378906 0.785156 -3.53125 1.453125 -5.125 C 2.117188 -6.71875 2.453125 -7.71875 2.453125 -8.125 C 2.453125 -8.3125 2.253906 -8.457031 1.859375 -8.5625 C 1.316406 -8.6875 1.035156 -8.753906 1.015625 -8.765625 C 1.054688 -9.140625 1.617188 -9.742188 2.703125 -10.578125 C 3.796875 -11.421875 4.539062 -11.84375 4.9375 -11.84375 C 5.550781 -11.84375 5.859375 -11.644531 5.859375 -11.25 Z M 5.859375 -11.25 "/></g></g></g><g fill="#000000" fill-opacity="1"><g transform="translate(101.695682, 65.704353)"><g><path d="M 11.5625 -2.859375 C 11.5625 -2.273438 11.097656 -1.660156 10.171875 -1.015625 C 9.304688 -0.410156 8.566406 -0.109375 7.953125 -0.109375 C 7.015625 -0.109375 6.546875 -0.539062 6.546875 -1.40625 C 6.546875 -2.25 7.035156 -3.519531 8.015625 -5.21875 C 8.992188 -6.914062 9.484375 -8.171875 9.484375 -8.984375 C 9.484375 -9.472656 9.351562 -9.71875 9.09375 -9.71875 C 8.195312 -9.71875 6.679688 -7.96875 4.546875 -4.46875 C 4.273438 -4.0625 3.890625 -3.4375 3.390625 -2.59375 C 3.234375 -2.226562 2.972656 -1.6875 2.609375 -0.96875 C 2.234375 -0.320312 1.828125 0 1.390625 0 C 0.597656 0 0.203125 -0.441406 0.203125 -1.328125 C 0.203125 -1.898438 0.429688 -2.664062 0.890625 -3.625 C 1.554688 -5 1.910156 -5.742188 1.953125 -5.859375 L 2.3125 -6.859375 C 2.632812 -7.765625 2.796875 -8.394531 2.796875 -8.75 C 2.796875 -9.488281 2.660156 -9.859375 2.390625 -9.859375 C 2.179688 -9.859375 1.878906 -9.664062 1.484375 -9.28125 C 1.085938 -8.894531 0.796875 -8.703125 0.609375 -8.703125 C 0.335938 -8.703125 0.203125 -8.8125 0.203125 -9.03125 C 0.203125 -9.582031 0.664062 -10.195312 1.59375 -10.875 C 2.476562 -11.519531 3.207031 -11.84375 3.78125 -11.84375 C 4.332031 -11.84375 4.609375 -11.601562 4.609375 -11.125 C 4.609375 -10.675781 4.472656 -10.023438 4.203125 -9.171875 C 3.941406 -8.316406 3.8125 -7.664062 3.8125 -7.21875 C 3.8125 -6.757812 3.925781 -6.53125 4.15625 -6.53125 C 4.425781 -6.53125 4.910156 -6.988281 5.609375 -7.90625 C 6.609375 -9.238281 7.296875 -10.09375 7.671875 -10.46875 C 8.578125 -11.382812 9.410156 -11.84375 10.171875 -11.84375 C 10.597656 -11.84375 10.9375 -11.675781 11.1875 -11.34375 C 11.4375 -11.019531 11.5625 -10.640625 11.5625 -10.203125 C 11.5625 -9.359375 11.101562 -8 10.1875 -6.125 C 9.257812 -4.207031 8.796875 -3.03125 8.796875 -2.59375 C 8.796875 -2.238281 8.96875 -2.0625 9.3125 -2.0625 C 9.59375 -2.0625 9.945312 -2.242188 10.375 -2.609375 C 10.800781 -2.972656 11.082031 -3.15625 11.21875 -3.15625 C 11.445312 -3.15625 11.5625 -3.054688 11.5625 -2.859375 Z M 11.5625 -2.859375 "/></g></g></g><g fill="#000000" fill-opacity="1"><g transform="translate(115.215697, 65.704353)"><g><path d="M 8.890625 -9.375 C 8.890625 -8.445312 8.375 -7.617188 7.34375 -6.890625 C 6.40625 -6.234375 5.453125 -5.90625 4.484375 -5.90625 C 4.328125 -5.90625 4.101562 -5.929688 3.8125 -5.984375 C 3.519531 -6.035156 3.296875 -6.0625 3.140625 -6.0625 C 2.234375 -6.0625 1.78125 -5.359375 1.78125 -3.953125 C 1.78125 -2.578125 2.429688 -1.890625 3.734375 -1.890625 C 4.492188 -1.890625 5.289062 -2.203125 6.125 -2.828125 C 6.957031 -3.460938 7.347656 -3.78125 7.296875 -3.78125 C 7.847656 -3.78125 8.125 -3.640625 8.125 -3.359375 C 8.125 -3.253906 8.078125 -3.109375 7.984375 -2.921875 C 7.523438 -2.046875 6.875 -1.335938 6.03125 -0.796875 C 5.195312 -0.265625 4.300781 0 3.34375 0 C 2.175781 0 1.300781 -0.453125 0.71875 -1.359375 C 0.226562 -2.117188 -0.015625 -3.113281 -0.015625 -4.34375 C -0.015625 -6.25 0.535156 -7.941406 1.640625 -9.421875 C 2.835938 -11.035156 4.359375 -11.84375 6.203125 -11.84375 C 6.898438 -11.84375 7.519531 -11.601562 8.0625 -11.125 C 8.613281 -10.644531 8.890625 -10.0625 8.890625 -9.375 Z M 6.953125 -8.78125 C 6.953125 -9.164062 6.804688 -9.492188 6.515625 -9.765625 C 6.222656 -10.035156 5.882812 -10.171875 5.5 -10.171875 C 5.007812 -10.171875 4.519531 -9.898438 4.03125 -9.359375 C 3.539062 -8.828125 3.296875 -8.316406 3.296875 -7.828125 C 3.296875 -7.609375 3.425781 -7.410156 3.6875 -7.234375 C 3.914062 -7.085938 4.148438 -7.015625 4.390625 -7.015625 C 4.890625 -7.015625 5.425781 -7.179688 6 -7.515625 C 6.632812 -7.890625 6.953125 -8.3125 6.953125 -8.78125 Z M 6.953125 -8.78125 "/></g></g></g><g fill="#000000" fill-opacity="1"><g transform="translate(125.091547, 65.704353)"><g><path d="M 4.5 -21.375 C 4.5 -21.101562 4.257812 -20.613281 3.78125 -19.90625 C 3.425781 -19.375 2.859375 -18.046875 2.078125 -15.921875 C 1.847656 -15.296875 1.570312 -14.984375 1.25 -14.984375 C 0.957031 -14.984375 0.8125 -15.144531 0.8125 -15.46875 C 0.8125 -15.875 1.003906 -16.546875 1.390625 -17.484375 C 1.804688 -18.523438 2.050781 -19.21875 2.125 -19.5625 C 2.132812 -19.894531 2.210938 -20.390625 2.359375 -21.046875 C 2.578125 -21.648438 2.953125 -21.953125 3.484375 -21.953125 C 4.160156 -21.953125 4.5 -21.757812 4.5 -21.375 Z M 4.5 -21.375 "/></g></g></g><g fill="#000000" fill-opacity="1"><g transform="translate(130.828175, 65.704353)"><g><path d="M 7.734375 -9.765625 C 7.734375 -8.910156 7.585938 -8.484375 7.296875 -8.484375 C 7.148438 -8.484375 6.785156 -8.742188 6.203125 -9.265625 C 5.628906 -9.796875 5.125 -10.0625 4.6875 -10.0625 C 4.226562 -10.0625 3.835938 -9.878906 3.515625 -9.515625 C 3.203125 -9.148438 3.046875 -8.734375 3.046875 -8.265625 C 3.046875 -7.867188 3.390625 -7.359375 4.078125 -6.734375 C 5.335938 -5.609375 5.984375 -5.03125 6.015625 -5 C 6.703125 -4.257812 7.046875 -3.546875 7.046875 -2.859375 C 7.046875 -2.003906 6.703125 -1.300781 6.015625 -0.75 C 5.378906 -0.25 4.617188 0 3.734375 0 C 3.015625 0 2.328125 -0.144531 1.671875 -0.4375 C 0.835938 -0.8125 0.421875 -1.316406 0.421875 -1.953125 C 0.421875 -2.921875 0.578125 -3.40625 0.890625 -3.40625 C 0.898438 -3.40625 0.929688 -3.398438 0.984375 -3.390625 C 1.992188 -2.460938 2.867188 -2 3.609375 -2 C 4.460938 -2 4.890625 -2.378906 4.890625 -3.140625 C 4.890625 -3.453125 4.640625 -3.859375 4.140625 -4.359375 C 3.347656 -5.140625 2.867188 -5.632812 2.703125 -5.84375 C 2.203125 -6.507812 1.953125 -7.207031 1.953125 -7.9375 C 1.953125 -8.945312 2.234375 -9.828125 2.796875 -10.578125 C 3.410156 -11.421875 4.203125 -11.84375 5.171875 -11.84375 C 5.523438 -11.84375 5.96875 -11.738281 6.5 -11.53125 C 7.070312 -11.289062 7.429688 -11.03125 7.578125 -10.75 C 7.679688 -10.5625 7.734375 -10.234375 7.734375 -9.765625 Z M 7.734375 -9.765625 "/></g></g></g><g fill="#000000" fill-opacity="1"><g transform="translate(140.635266, 65.704353)"><g/></g></g><g fill="#000000" fill-opacity="1"><g transform="translate(148.132095, 65.704353)"><g><path d="M 19.359375 -9.234375 C 19.359375 -6.671875 18.488281 -4.46875 16.75 -2.625 C 14.976562 -0.738281 12.828125 0.203125 10.296875 0.203125 C 9.296875 0.203125 8.179688 0.148438 6.953125 0.046875 C 5.722656 -0.046875 5.050781 -0.09375 4.9375 -0.09375 C 4.675781 -0.09375 4.273438 -0.0546875 3.734375 0.015625 C 3.203125 0.0976562 2.804688 0.140625 2.546875 0.140625 C 2.148438 0.140625 1.953125 -0.0703125 1.953125 -0.5 C 1.953125 -0.664062 2.273438 -0.910156 2.921875 -1.234375 C 3.578125 -1.566406 3.921875 -2.207031 3.953125 -3.15625 C 3.992188 -4 4.0625 -5.179688 4.15625 -6.703125 C 4.195312 -7.710938 4.21875 -8.5 4.21875 -9.0625 L 4.21875 -14.234375 C 4.21875 -14.992188 4.054688 -15.582031 3.734375 -16 C 3.554688 -16.226562 3.253906 -16.445312 2.828125 -16.65625 C 2.503906 -16.820312 2.34375 -16.984375 2.34375 -17.140625 C 2.34375 -17.546875 2.632812 -17.75 3.21875 -17.75 C 3.488281 -17.75 3.757812 -17.726562 4.03125 -17.6875 C 4.820312 -17.601562 5.273438 -17.5625 5.390625 -17.5625 C 5.660156 -17.5625 6.34375 -17.613281 7.4375 -17.71875 C 8.539062 -17.820312 9.582031 -17.875 10.5625 -17.875 C 12.9375 -17.875 14.992188 -17.023438 16.734375 -15.328125 C 18.484375 -13.628906 19.359375 -11.597656 19.359375 -9.234375 Z M 16.796875 -8.296875 C 16.796875 -10.535156 16.238281 -12.460938 15.125 -14.078125 C 13.882812 -15.847656 12.242188 -16.734375 10.203125 -16.734375 C 9.429688 -16.734375 8.675781 -16.625 7.9375 -16.40625 C 6.96875 -16.132812 6.484375 -15.554688 6.484375 -14.671875 C 6.484375 -14.023438 6.410156 -12.679688 6.265625 -10.640625 C 6.191406 -9.566406 6.15625 -8.660156 6.15625 -7.921875 C 6.15625 -6.734375 6.15625 -5.609375 6.15625 -4.546875 L 6.1875 -2.890625 C 6.1875 -2.109375 6.613281 -1.585938 7.46875 -1.328125 C 8.1875 -1.097656 9.101562 -0.984375 10.21875 -0.984375 C 12.195312 -0.984375 13.796875 -1.6875 15.015625 -3.09375 C 16.203125 -4.445312 16.796875 -6.179688 16.796875 -8.296875 Z M 16.796875 -8.296875 "/></g></g></g><g fill="#000000" fill-opacity="1"><g transform="translate(169.146715, 65.704353)"><g><path d="M 11.953125 -4 C 11.953125 -3.40625 11.460938 -2.597656 10.484375 -1.578125 C 9.515625 -0.566406 8.734375 -0.0625 8.140625 -0.0625 C 7.210938 -0.0625 6.75 -0.566406 6.75 -1.578125 C 6.75 -1.785156 6.785156 -2.097656 6.859375 -2.515625 C 6.941406 -2.929688 6.984375 -3.242188 6.984375 -3.453125 C 6.984375 -3.703125 6.910156 -3.828125 6.765625 -3.828125 C 6.691406 -3.828125 6.015625 -3.1875 4.734375 -1.90625 C 3.453125 -0.632812 2.503906 0 1.890625 0 C 1.359375 0 0.9375 -0.207031 0.625 -0.625 C 0.332031 -1 0.1875 -1.453125 0.1875 -1.984375 C 0.1875 -3.671875 0.988281 -5.578125 2.59375 -7.703125 C 4.3125 -9.984375 6.125 -11.3125 8.03125 -11.6875 C 8.425781 -11.75 9.007812 -11.859375 9.78125 -12.015625 C 10.4375 -12.472656 10.800781 -12.703125 10.875 -12.703125 C 11.144531 -12.703125 11.28125 -12.539062 11.28125 -12.21875 C 11.28125 -12.050781 11.234375 -11.847656 11.140625 -11.609375 L 9.484375 -7.390625 C 8.785156 -5.578125 8.4375 -4.257812 8.4375 -3.4375 C 8.4375 -2.71875 8.738281 -2.359375 9.34375 -2.359375 C 9.59375 -2.359375 10.019531 -2.679688 10.625 -3.328125 C 11.238281 -3.984375 11.601562 -4.3125 11.71875 -4.3125 C 11.875 -4.3125 11.953125 -4.207031 11.953125 -4 Z M 8.546875 -9.34375 C 8.546875 -9.675781 8.25 -9.84375 7.65625 -9.84375 L 7.484375 -9.84375 C 6.410156 -9.84375 5.210938 -9.050781 3.890625 -7.46875 C 2.609375 -5.914062 1.96875 -4.59375 1.96875 -3.5 C 1.96875 -2.75 2.238281 -2.375 2.78125 -2.375 C 3.738281 -2.375 4.945312 -3.296875 6.40625 -5.140625 C 7.832031 -6.929688 8.546875 -8.332031 8.546875 -9.34375 Z M 8.546875 -9.34375 "/></g></g></g><g fill="#000000" fill-opacity="1"><g transform="translate(182.969265, 65.704353)"><g><path d="M 9.59375 -9.953125 C 9.59375 -7.410156 8.835938 -4.789062 7.328125 -2.09375 C 5.898438 0.445312 4.113281 2.539062 1.96875 4.1875 C -0.132812 5.789062 -2.566406 6.59375 -5.328125 6.59375 C -5.953125 6.59375 -6.582031 6.425781 -7.21875 6.09375 C -7.976562 5.707031 -8.359375 5.226562 -8.359375 4.65625 C -8.359375 4.351562 -8.140625 4.203125 -7.703125 4.203125 L -7.625 4.203125 C -6.84375 4.765625 -6.375 5.085938 -6.21875 5.171875 C -5.632812 5.515625 -5.101562 5.6875 -4.625 5.6875 C -1.925781 5.6875 0.503906 3.925781 2.671875 0.40625 C 3.472656 -0.914062 3.875 -2.316406 3.875 -3.796875 C 3.875 -4.503906 3.785156 -5.382812 3.609375 -6.4375 C 3.390625 -7.664062 3.140625 -8.484375 2.859375 -8.890625 C 2.847656 -8.898438 2.566406 -9.191406 2.015625 -9.765625 C 1.722656 -10.046875 1.578125 -10.4375 1.578125 -10.9375 C 1.578125 -11.539062 1.976562 -11.84375 2.78125 -11.84375 C 3.320312 -11.84375 3.765625 -11.535156 4.109375 -10.921875 C 4.296875 -10.585938 4.554688 -9.257812 4.890625 -6.9375 C 5.203125 -4.875 5.5625 -3.757812 5.96875 -3.59375 C 6.570312 -3.675781 7.09375 -4.546875 7.53125 -6.203125 C 7.851562 -7.515625 8.015625 -8.632812 8.015625 -9.5625 C 8.015625 -9.738281 7.988281 -10 7.9375 -10.34375 C 7.894531 -10.695312 7.875 -10.960938 7.875 -11.140625 C 7.875 -11.609375 8.113281 -11.84375 8.59375 -11.84375 C 9.257812 -11.84375 9.59375 -11.210938 9.59375 -9.953125 Z M 9.59375 -9.953125 "/></g></g></g></svg>