<svg xmlns="http://www.w3.org/2000/svg" xmlns:xlink="http://www.w3.org/1999/xlink" width="168" zoomAndPan="magnify" viewBox="0 0 126 47.25" height="63" preserveAspectRatio="xMidYMid meet" version="1.0"><defs><g/><clipPath id="fb362b2301"><path d="M 0.230469 10 L 11 10 L 11 33 L 0.230469 33 Z M 0.230469 10 " clip-rule="nonzero"/></clipPath><clipPath id="7e9839af86"><rect x="0" width="89" y="0" height="37"/></clipPath><clipPath id="ca8f4a8787"><path d="M 0.0664062 8 L 2 8 L 2 10 L 0.0664062 10 Z M 0.0664062 8 " clip-rule="nonzero"/></clipPath><clipPath id="1a7db4ca99"><rect x="0" width="3" y="0" height="13"/></clipPath></defs><g transform="matrix(1, 0, 0, 1, 18, 5)"><g clip-path="url(#7e9839af86)"><g clip-path="url(#fb362b2301)"><g fill="#000000" fill-opacity="1"><g transform="translate(2.57071, 26.307675)"><g><path d="M 7.5 -14.640625 C 7.5 -14.191406 7.351562 -13.828125 7.0625 -13.546875 C 6.78125 -13.273438 6.421875 -13.140625 5.984375 -13.140625 C 5.097656 -13.140625 4.65625 -13.554688 4.65625 -14.390625 C 4.65625 -14.835938 4.800781 -15.207031 5.09375 -15.5 C 5.394531 -15.800781 5.765625 -15.953125 6.203125 -15.953125 C 7.066406 -15.953125 7.5 -15.515625 7.5 -14.640625 Z M 6.765625 -11.09375 C 6.765625 -10.75 6.601562 -10.328125 6.28125 -9.828125 C 5.882812 -9.242188 5.65625 -8.832031 5.59375 -8.59375 L 1.859375 5.1875 C 1.773438 5.507812 1.546875 5.769531 1.171875 5.96875 C 0.835938 6.144531 0.492188 6.234375 0.140625 6.234375 C -0.367188 6.234375 -0.835938 6.125 -1.265625 5.90625 C -1.785156 5.632812 -2.046875 5.273438 -2.046875 4.828125 C -2.046875 4.398438 -1.796875 4.1875 -1.296875 4.1875 C -1.222656 4.1875 -1.097656 4.191406 -0.921875 4.203125 C -0.753906 4.210938 -0.628906 4.21875 -0.546875 4.21875 C -0.148438 4.21875 0.144531 4.070312 0.34375 3.78125 C 0.5 3.539062 0.738281 2.757812 1.0625 1.4375 C 1.257812 0.582031 1.460938 -0.28125 1.671875 -1.15625 L 2.8125 -5.46875 C 3.21875 -7.007812 3.421875 -7.878906 3.421875 -8.078125 C 3.421875 -8.191406 3.359375 -8.25 3.234375 -8.25 C 3.117188 -8.25 2.957031 -8.207031 2.75 -8.125 C 2.539062 -8.050781 2.375 -8.015625 2.25 -8.015625 C 2.09375 -8.015625 2.015625 -8.242188 2.015625 -8.703125 C 2.015625 -9.046875 2.578125 -9.632812 3.703125 -10.46875 C 4.796875 -11.289062 5.535156 -11.703125 5.921875 -11.703125 C 6.484375 -11.703125 6.765625 -11.5 6.765625 -11.09375 Z M 6.765625 -11.09375 "/></g></g></g></g><g fill="#000000" fill-opacity="1"><g transform="translate(11.568452, 26.307675)"><g><path d="M 11.8125 -3.953125 C 11.8125 -3.367188 11.328125 -2.570312 10.359375 -1.5625 C 9.398438 -0.5625 8.628906 -0.0625 8.046875 -0.0625 C 7.128906 -0.0625 6.671875 -0.5625 6.671875 -1.5625 C 6.671875 -1.769531 6.707031 -2.078125 6.78125 -2.484375 C 6.863281 -2.890625 6.90625 -3.195312 6.90625 -3.40625 C 6.90625 -3.65625 6.832031 -3.78125 6.6875 -3.78125 C 6.613281 -3.78125 5.941406 -3.148438 4.671875 -1.890625 C 3.410156 -0.628906 2.472656 0 1.859375 0 C 1.347656 0 0.9375 -0.203125 0.625 -0.609375 C 0.332031 -0.984375 0.1875 -1.429688 0.1875 -1.953125 C 0.1875 -3.617188 0.976562 -5.503906 2.5625 -7.609375 C 4.257812 -9.867188 6.050781 -11.179688 7.9375 -11.546875 C 8.320312 -11.609375 8.894531 -11.71875 9.65625 -11.875 C 10.3125 -12.320312 10.675781 -12.546875 10.75 -12.546875 C 11.007812 -12.546875 11.140625 -12.382812 11.140625 -12.0625 C 11.140625 -11.90625 11.09375 -11.707031 11 -11.46875 L 9.375 -7.296875 C 8.675781 -5.515625 8.328125 -4.210938 8.328125 -3.390625 C 8.328125 -2.679688 8.625 -2.328125 9.21875 -2.328125 C 9.46875 -2.328125 9.894531 -2.648438 10.5 -3.296875 C 11.101562 -3.941406 11.460938 -4.265625 11.578125 -4.265625 C 11.734375 -4.265625 11.8125 -4.160156 11.8125 -3.953125 Z M 8.4375 -9.21875 C 8.4375 -9.5625 8.144531 -9.734375 7.5625 -9.734375 L 7.390625 -9.734375 C 6.328125 -9.734375 5.144531 -8.945312 3.84375 -7.375 C 2.570312 -5.84375 1.9375 -4.535156 1.9375 -3.453125 C 1.9375 -2.710938 2.207031 -2.34375 2.75 -2.34375 C 3.695312 -2.34375 4.890625 -3.253906 6.328125 -5.078125 C 7.734375 -6.847656 8.4375 -8.226562 8.4375 -9.21875 Z M 8.4375 -9.21875 "/></g></g></g><g fill="#000000" fill-opacity="1"><g transform="translate(25.227096, 26.307675)"><g><path d="M 11.421875 -2.828125 C 11.421875 -2.242188 10.96875 -1.632812 10.0625 -1 C 9.195312 -0.40625 8.460938 -0.109375 7.859375 -0.109375 C 6.929688 -0.109375 6.46875 -0.535156 6.46875 -1.390625 C 6.46875 -2.222656 6.945312 -3.476562 7.90625 -5.15625 C 8.875 -6.832031 9.359375 -8.070312 9.359375 -8.875 C 9.359375 -9.351562 9.234375 -9.59375 8.984375 -9.59375 C 8.097656 -9.59375 6.597656 -7.867188 4.484375 -4.421875 C 4.222656 -4.015625 3.847656 -3.394531 3.359375 -2.5625 C 3.203125 -2.207031 2.941406 -1.671875 2.578125 -0.953125 C 2.210938 -0.316406 1.8125 0 1.375 0 C 0.59375 0 0.203125 -0.4375 0.203125 -1.3125 C 0.203125 -1.875 0.429688 -2.628906 0.890625 -3.578125 C 1.546875 -4.941406 1.890625 -5.675781 1.921875 -5.78125 L 2.28125 -6.78125 C 2.601562 -7.664062 2.765625 -8.285156 2.765625 -8.640625 C 2.765625 -9.378906 2.628906 -9.75 2.359375 -9.75 C 2.148438 -9.75 1.851562 -9.554688 1.46875 -9.171875 C 1.082031 -8.785156 0.789062 -8.59375 0.59375 -8.59375 C 0.332031 -8.59375 0.203125 -8.703125 0.203125 -8.921875 C 0.203125 -9.472656 0.660156 -10.082031 1.578125 -10.75 C 2.441406 -11.382812 3.160156 -11.703125 3.734375 -11.703125 C 4.273438 -11.703125 4.546875 -11.46875 4.546875 -11 C 4.546875 -10.550781 4.414062 -9.90625 4.15625 -9.0625 C 3.894531 -8.21875 3.765625 -7.578125 3.765625 -7.140625 C 3.765625 -6.679688 3.878906 -6.453125 4.109375 -6.453125 C 4.378906 -6.453125 4.859375 -6.90625 5.546875 -7.8125 C 6.535156 -9.125 7.210938 -9.96875 7.578125 -10.34375 C 8.460938 -11.25 9.285156 -11.703125 10.046875 -11.703125 C 10.472656 -11.703125 10.804688 -11.539062 11.046875 -11.21875 C 11.296875 -10.894531 11.421875 -10.515625 11.421875 -10.078125 C 11.421875 -9.242188 10.96875 -7.898438 10.0625 -6.046875 C 9.144531 -4.148438 8.6875 -2.988281 8.6875 -2.5625 C 8.6875 -2.207031 8.859375 -2.03125 9.203125 -2.03125 C 9.484375 -2.03125 9.832031 -2.207031 10.25 -2.5625 C 10.675781 -2.925781 10.957031 -3.109375 11.09375 -3.109375 C 11.3125 -3.109375 11.421875 -3.015625 11.421875 -2.828125 Z M 11.421875 -2.828125 "/></g></g></g><g fill="#000000" fill-opacity="1"><g transform="translate(38.58679, 26.307675)"><g><path d="M 11.40625 -10.375 C 11.40625 -9.820312 11.179688 -9.066406 10.734375 -8.109375 C 10.378906 -7.378906 10.023438 -6.644531 9.671875 -5.90625 C 9.472656 -5.40625 9.296875 -4.929688 9.140625 -4.484375 C 8.890625 -3.734375 8.765625 -3.160156 8.765625 -2.765625 C 8.765625 -2.234375 8.882812 -1.96875 9.125 -1.96875 C 9.34375 -1.96875 9.644531 -2.15625 10.03125 -2.53125 C 10.414062 -2.90625 10.707031 -3.09375 10.90625 -3.09375 C 11.175781 -3.09375 11.3125 -2.984375 11.3125 -2.765625 C 11.3125 -2.222656 10.851562 -1.628906 9.9375 -0.984375 C 9.0625 -0.359375 8.335938 -0.046875 7.765625 -0.046875 C 7.273438 -0.046875 7.03125 -0.289062 7.03125 -0.78125 C 7.03125 -1.238281 7.171875 -1.894531 7.453125 -2.75 C 7.742188 -3.613281 7.890625 -4.273438 7.890625 -4.734375 C 7.890625 -5.085938 7.796875 -5.265625 7.609375 -5.265625 C 7.328125 -5.265625 6.832031 -4.8125 6.125 -3.90625 C 5.113281 -2.59375 4.410156 -1.742188 4.015625 -1.359375 C 3.085938 -0.453125 2.222656 0 1.421875 0 C 1.035156 0 0.722656 -0.179688 0.484375 -0.546875 C 0.285156 -0.847656 0.1875 -1.207031 0.1875 -1.625 C 0.1875 -2.59375 0.628906 -3.914062 1.515625 -5.59375 C 2.410156 -7.269531 2.859375 -8.453125 2.859375 -9.140625 C 2.859375 -9.566406 2.691406 -9.78125 2.359375 -9.78125 C 2.078125 -9.78125 1.722656 -9.597656 1.296875 -9.234375 C 0.878906 -8.878906 0.601562 -8.703125 0.46875 -8.703125 C 0.257812 -8.703125 0.15625 -8.796875 0.15625 -8.984375 C 0.15625 -9.554688 0.609375 -10.160156 1.515625 -10.796875 C 2.359375 -11.398438 3.085938 -11.703125 3.703125 -11.703125 C 4.066406 -11.703125 4.367188 -11.5625 4.609375 -11.28125 C 4.847656 -11 4.96875 -10.671875 4.96875 -10.296875 C 4.96875 -9.421875 4.503906 -8.171875 3.578125 -6.546875 C 2.660156 -4.929688 2.203125 -3.703125 2.203125 -2.859375 C 2.203125 -2.347656 2.320312 -2.09375 2.5625 -2.09375 C 3.289062 -2.09375 4.359375 -3.082031 5.765625 -5.0625 C 6.753906 -6.457031 7.59375 -7.816406 8.28125 -9.140625 C 8.4375 -9.503906 8.703125 -10.039062 9.078125 -10.75 C 9.453125 -11.382812 9.867188 -11.703125 10.328125 -11.703125 C 10.660156 -11.703125 10.929688 -11.5625 11.140625 -11.28125 C 11.316406 -11.019531 11.40625 -10.71875 11.40625 -10.375 Z M 11.40625 -10.375 "/></g></g></g><g fill="#000000" fill-opacity="1"><g transform="translate(51.633946, 26.307675)"><g><path d="M 11.8125 -3.953125 C 11.8125 -3.367188 11.328125 -2.570312 10.359375 -1.5625 C 9.398438 -0.5625 8.628906 -0.0625 8.046875 -0.0625 C 7.128906 -0.0625 6.671875 -0.5625 6.671875 -1.5625 C 6.671875 -1.769531 6.707031 -2.078125 6.78125 -2.484375 C 6.863281 -2.890625 6.90625 -3.195312 6.90625 -3.40625 C 6.90625 -3.65625 6.832031 -3.78125 6.6875 -3.78125 C 6.613281 -3.78125 5.941406 -3.148438 4.671875 -1.890625 C 3.410156 -0.628906 2.472656 0 1.859375 0 C 1.347656 0 0.9375 -0.203125 0.625 -0.609375 C 0.332031 -0.984375 0.1875 -1.429688 0.1875 -1.953125 C 0.1875 -3.617188 0.976562 -5.503906 2.5625 -7.609375 C 4.257812 -9.867188 6.050781 -11.179688 7.9375 -11.546875 C 8.320312 -11.609375 8.894531 -11.71875 9.65625 -11.875 C 10.3125 -12.320312 10.675781 -12.546875 10.75 -12.546875 C 11.007812 -12.546875 11.140625 -12.382812 11.140625 -12.0625 C 11.140625 -11.90625 11.09375 -11.707031 11 -11.46875 L 9.375 -7.296875 C 8.675781 -5.515625 8.328125 -4.210938 8.328125 -3.390625 C 8.328125 -2.679688 8.625 -2.328125 9.21875 -2.328125 C 9.46875 -2.328125 9.894531 -2.648438 10.5 -3.296875 C 11.101562 -3.941406 11.460938 -4.265625 11.578125 -4.265625 C 11.734375 -4.265625 11.8125 -4.160156 11.8125 -3.953125 Z M 8.4375 -9.21875 C 8.4375 -9.5625 8.144531 -9.734375 7.5625 -9.734375 L 7.390625 -9.734375 C 6.328125 -9.734375 5.144531 -8.945312 3.84375 -7.375 C 2.570312 -5.84375 1.9375 -4.535156 1.9375 -3.453125 C 1.9375 -2.710938 2.207031 -2.34375 2.75 -2.34375 C 3.695312 -2.34375 4.890625 -3.253906 6.328125 -5.078125 C 7.734375 -6.847656 8.4375 -8.226562 8.4375 -9.21875 Z M 8.4375 -9.21875 "/></g></g></g><g fill="#000000" fill-opacity="1"><g transform="translate(65.29259, 26.307675)"><g><path d="M 10.140625 -10.671875 C 10.140625 -10.222656 10.035156 -9.773438 9.828125 -9.328125 C 9.566406 -8.785156 9.238281 -8.515625 8.84375 -8.515625 C 8.632812 -8.515625 8.40625 -8.703125 8.15625 -9.078125 C 7.914062 -9.460938 7.703125 -9.65625 7.515625 -9.65625 C 6.941406 -9.65625 6.023438 -8.597656 4.765625 -6.484375 C 4.316406 -5.722656 3.972656 -4.984375 3.734375 -4.265625 L 2.46875 -0.453125 C 2.375 -0.148438 2.019531 0 1.40625 0 C 1.132812 0 0.90625 -0.125 0.71875 -0.375 C 0.53125 -0.632812 0.4375 -0.90625 0.4375 -1.1875 C 0.4375 -1.519531 0.585938 -2.109375 0.890625 -2.953125 C 1.265625 -3.941406 1.640625 -4.929688 2.015625 -5.921875 C 2.503906 -7.304688 2.75 -8.289062 2.75 -8.875 C 2.75 -9.644531 2.585938 -10.03125 2.265625 -10.03125 C 2.179688 -10.03125 2.054688 -9.992188 1.890625 -9.921875 C 1.734375 -9.859375 1.609375 -9.828125 1.515625 -9.828125 C 1.304688 -9.828125 1.203125 -9.9375 1.203125 -10.15625 C 1.203125 -10.539062 1.425781 -10.898438 1.875 -11.234375 C 2.300781 -11.546875 2.707031 -11.703125 3.09375 -11.703125 C 3.84375 -11.703125 4.21875 -11.367188 4.21875 -10.703125 C 4.21875 -10.460938 4.15625 -10.109375 4.03125 -9.640625 C 3.914062 -9.179688 3.859375 -8.832031 3.859375 -8.59375 C 3.859375 -8.144531 3.988281 -7.921875 4.25 -7.921875 C 4.4375 -7.921875 4.773438 -8.25 5.265625 -8.90625 C 5.910156 -9.769531 6.425781 -10.375 6.8125 -10.71875 C 7.519531 -11.375 8.238281 -11.703125 8.96875 -11.703125 C 9.75 -11.703125 10.140625 -11.359375 10.140625 -10.671875 Z M 10.140625 -10.671875 "/></g></g></g><g fill="#000000" fill-opacity="1"><g transform="translate(76.342216, 26.307675)"><g><path d="M 9.484375 -9.84375 C 9.484375 -7.320312 8.738281 -4.726562 7.25 -2.0625 C 5.832031 0.445312 4.0625 2.507812 1.9375 4.125 C -0.132812 5.71875 -2.535156 6.515625 -5.265625 6.515625 C -5.890625 6.515625 -6.515625 6.347656 -7.140625 6.015625 C -7.890625 5.640625 -8.265625 5.171875 -8.265625 4.609375 C -8.265625 4.296875 -8.046875 4.140625 -7.609375 4.140625 L -7.53125 4.140625 C -6.757812 4.703125 -6.296875 5.023438 -6.140625 5.109375 C -5.554688 5.453125 -5.03125 5.625 -4.5625 5.625 C -1.90625 5.625 0.492188 3.878906 2.640625 0.390625 C 3.429688 -0.910156 3.828125 -2.289062 3.828125 -3.75 C 3.828125 -4.445312 3.738281 -5.316406 3.5625 -6.359375 C 3.351562 -7.578125 3.109375 -8.382812 2.828125 -8.78125 C 2.816406 -8.789062 2.535156 -9.078125 1.984375 -9.640625 C 1.703125 -9.921875 1.5625 -10.304688 1.5625 -10.796875 C 1.5625 -11.398438 1.957031 -11.703125 2.75 -11.703125 C 3.28125 -11.703125 3.71875 -11.394531 4.0625 -10.78125 C 4.238281 -10.457031 4.5 -9.144531 4.84375 -6.84375 C 5.144531 -4.8125 5.492188 -3.710938 5.890625 -3.546875 C 6.492188 -3.628906 7.007812 -4.488281 7.4375 -6.125 C 7.757812 -7.425781 7.921875 -8.53125 7.921875 -9.4375 C 7.921875 -9.613281 7.894531 -9.875 7.84375 -10.21875 C 7.800781 -10.570312 7.78125 -10.832031 7.78125 -11 C 7.78125 -11.46875 8.019531 -11.703125 8.5 -11.703125 C 9.15625 -11.703125 9.484375 -11.082031 9.484375 -9.84375 Z M 9.484375 -9.84375 "/></g></g></g></g></g><g transform="matrix(1, 0, 0, 1, 94, 21)"><g clip-path="url(#1a7db4ca99)"><g clip-path="url(#ca8f4a8787)"><g fill="#000000" fill-opacity="1"><g transform="translate(0.212989, 9.316187)"><g><path d="M 1.53125 -0.5625 C 1.53125 -0.382812 1.476562 -0.234375 1.375 -0.109375 C 1.257812 0.0234375 1.113281 0.09375 0.9375 0.09375 C 0.625 0.09375 0.46875 -0.0664062 0.46875 -0.390625 C 0.46875 -0.578125 0.519531 -0.734375 0.625 -0.859375 C 0.738281 -0.992188 0.890625 -1.0625 1.078125 -1.0625 C 1.378906 -1.0625 1.53125 -0.894531 1.53125 -0.5625 Z M 1.53125 -0.5625 "/></g></g></g></g></g></g></svg>