<svg xmlns="http://www.w3.org/2000/svg" xmlns:xlink="http://www.w3.org/1999/xlink" width="257" zoomAndPan="magnify" viewBox="0 0 192.75 107.249998" height="143" preserveAspectRatio="xMidYMid meet" version="1.0"><defs><g/><clipPath id="32fa952a50"><path d="M 0.28125 49 L 16 49 L 16 77 L 0.28125 77 Z M 0.28125 49 " clip-rule="nonzero"/></clipPath><clipPath id="dab55211f4"><path d="M 149 74 L 149.476562 74 L 149.476562 75 L 149 75 Z M 149 74 " clip-rule="nonzero"/></clipPath><clipPath id="953ead6be1"><rect x="0" width="150" y="0" height="82"/></clipPath><clipPath id="8372dc1d9e"><rect x="0" width="4" y="0" height="13"/></clipPath></defs><g transform="matrix(1, 0, 0, 1, 21, 12)"><g clip-path="url(#953ead6be1)"><g fill="#000000" fill-opacity="1"><g transform="translate(34.055039, 34.126411)"><g><path d="M 23.265625 -18.4375 C 22.816406 -7.8125 23.097656 -2.238281 24.109375 -1.71875 C 23.929688 -1.226562 23.429688 -0.78125 22.609375 -0.375 C 21.785156 0.03125 21.046875 0.253906 20.390625 0.296875 C 19.691406 0.347656 19.113281 0.144531 18.65625 -0.3125 C 18.195312 -0.78125 17.875 -1.460938 17.6875 -2.359375 C 17.507812 -3.265625 17.382812 -4.238281 17.3125 -5.28125 C 17.25 -6.332031 17.269531 -7.546875 17.375 -8.921875 C 17.476562 -10.304688 17.578125 -11.566406 17.671875 -12.703125 C 17.773438 -13.847656 17.90625 -15.113281 18.0625 -16.5 C 18.21875 -17.882812 18.320312 -18.945312 18.375 -19.6875 C 18.414062 -20.132812 18.3125 -20.425781 18.0625 -20.5625 C 17.8125 -20.695312 17.523438 -20.679688 17.203125 -20.515625 C 16.878906 -20.347656 16.613281 -20.117188 16.40625 -19.828125 C 16.320312 -19.691406 16.265625 -19.585938 16.234375 -19.515625 C 15.941406 -19.046875 15.707031 -18.582031 15.53125 -18.125 C 15.125 -17.207031 14.773438 -16.0625 14.484375 -14.6875 C 14.304688 -13.832031 14.179688 -13.179688 14.109375 -12.734375 C 13.972656 -12.054688 13.875 -11.367188 13.8125 -10.671875 L 13.5 -8.515625 C 13.5 -8.398438 13.476562 -8.207031 13.4375 -7.9375 C 13.4375 -7.914062 13.425781 -7.867188 13.40625 -7.796875 C 13.382812 -7.734375 13.375 -7.675781 13.375 -7.625 C 13.375 -7.601562 13.347656 -7.550781 13.296875 -7.46875 C 13.296875 -7.394531 13.285156 -7.347656 13.265625 -7.328125 C 13.242188 -7.304688 13.234375 -7.285156 13.234375 -7.265625 L 13.203125 -7.21875 L 13.171875 -7.1875 L 13.171875 -7.15625 L 13.09375 -7.09375 C 13.050781 -7.039062 13.007812 -7.003906 12.96875 -6.984375 C 12.925781 -6.941406 12.859375 -6.921875 12.765625 -6.921875 L 12.5625 -6.921875 C 12.519531 -6.941406 12.460938 -6.960938 12.390625 -6.984375 C 12.367188 -7.003906 12.359375 -7.015625 12.359375 -7.015625 C 12.316406 -7.015625 12.296875 -7.03125 12.296875 -7.0625 L 12.1875 -7.15625 C 12.164062 -7.15625 12.144531 -7.175781 12.125 -7.21875 L 12.09375 -7.296875 L 12.09375 -7.328125 C 12.0625 -7.347656 12.046875 -7.367188 12.046875 -7.390625 C 12.003906 -7.484375 11.972656 -7.539062 11.953125 -7.5625 C 11.953125 -7.582031 11.945312 -7.609375 11.9375 -7.640625 C 11.925781 -7.679688 11.921875 -7.710938 11.921875 -7.734375 C 11.828125 -8.003906 11.769531 -8.195312 11.75 -8.3125 C 11.726562 -8.46875 11.6875 -8.664062 11.625 -8.90625 C 11.570312 -9.15625 11.535156 -9.335938 11.515625 -9.453125 C 11.492188 -9.566406 11.460938 -9.742188 11.421875 -9.984375 C 11.390625 -10.234375 11.363281 -10.425781 11.34375 -10.5625 C 11.300781 -10.789062 11.238281 -11.15625 11.15625 -11.65625 C 11.082031 -12.164062 11.019531 -12.554688 10.96875 -12.828125 C 10.925781 -13.054688 10.863281 -13.421875 10.78125 -13.921875 C 10.707031 -14.429688 10.648438 -14.8125 10.609375 -15.0625 C 10.578125 -15.195312 10.535156 -15.382812 10.484375 -15.625 C 10.429688 -15.875 10.390625 -16.054688 10.359375 -16.171875 C 10.296875 -16.460938 10.207031 -16.8125 10.09375 -17.21875 C 10.050781 -17.082031 10.03125 -17.003906 10.03125 -16.984375 C 10.007812 -16.910156 9.976562 -16.816406 9.9375 -16.703125 C 9.90625 -16.597656 9.878906 -16.523438 9.859375 -16.484375 L 9.765625 -15.96875 C 9.710938 -15.851562 9.664062 -15.6875 9.625 -15.46875 C 9.394531 -14.269531 9.179688 -12.929688 8.984375 -11.453125 C 8.941406 -11.128906 8.882812 -10.710938 8.8125 -10.203125 C 8.75 -9.703125 8.691406 -9.253906 8.640625 -8.859375 C 8.597656 -8.460938 8.554688 -8.097656 8.515625 -7.765625 C 8.265625 -5.785156 8.140625 -4.757812 8.140625 -4.6875 L 7.765625 -2.296875 C 7.765625 -2.253906 7.757812 -2.179688 7.75 -2.078125 C 7.738281 -1.972656 7.722656 -1.898438 7.703125 -1.859375 C 7.648438 -1.628906 7.625 -1.484375 7.625 -1.421875 C 7.601562 -1.367188 7.5625 -1.15625 7.5 -0.78125 C 7.5 -0.664062 7.488281 -0.585938 7.46875 -0.546875 L 7.46875 -0.5 C 7.300781 0.238281 6.9375 0.832031 6.375 1.28125 C 5.8125 1.726562 5.28125 2.015625 4.78125 2.140625 C 4.289062 2.265625 3.800781 2.328125 3.3125 2.328125 C 2.5 2.347656 1.84375 1.914062 1.34375 1.03125 C 0.851562 0.144531 0.539062 -1.015625 0.40625 -2.453125 C 0.269531 -3.898438 0.203125 -5.535156 0.203125 -7.359375 C 0.203125 -9.179688 0.285156 -11.019531 0.453125 -12.875 C 0.617188 -14.738281 0.765625 -16.519531 0.890625 -18.21875 C 1.015625 -19.914062 1.117188 -21.363281 1.203125 -22.5625 C 1.296875 -23.769531 1.265625 -24.644531 1.109375 -25.1875 C 1.203125 -25.207031 1.328125 -25.226562 1.484375 -25.25 C 1.640625 -25.28125 1.9375 -25.304688 2.375 -25.328125 C 2.8125 -25.347656 3.226562 -25.328125 3.625 -25.265625 C 4.019531 -25.210938 4.453125 -25.082031 4.921875 -24.875 C 5.398438 -24.675781 5.800781 -24.40625 6.125 -24.0625 C 6.457031 -23.726562 6.71875 -23.242188 6.90625 -22.609375 C 7.09375 -21.984375 7.15625 -21.242188 7.09375 -20.390625 C 6.820312 -17.304688 6.648438 -13.828125 6.578125 -9.953125 C 6.648438 -10.179688 6.734375 -10.503906 6.828125 -10.921875 C 6.929688 -11.335938 7.007812 -11.632812 7.0625 -11.8125 C 7.28125 -12.664062 7.457031 -13.320312 7.59375 -13.78125 C 7.644531 -14 7.738281 -14.335938 7.875 -14.796875 L 8.171875 -15.84375 C 8.171875 -15.882812 8.1875 -15.96875 8.21875 -16.09375 C 8.25 -16.21875 8.28125 -16.3125 8.3125 -16.375 C 8.394531 -16.601562 8.445312 -16.769531 8.46875 -16.875 C 8.519531 -17.007812 8.585938 -17.191406 8.671875 -17.421875 C 8.742188 -17.628906 8.828125 -17.820312 8.921875 -18 C 8.960938 -18.132812 9.003906 -18.234375 9.046875 -18.296875 C 9.066406 -18.367188 9.125 -18.472656 9.21875 -18.609375 L 9.390625 -18.78125 C 9.472656 -18.863281 9.550781 -18.925781 9.625 -18.96875 C 9.6875 -19.039062 9.765625 -19.078125 9.859375 -19.078125 C 9.878906 -19.097656 9.9375 -19.109375 10.03125 -19.109375 L 10.15625 -19.109375 C 10.269531 -19.109375 10.375 -19.082031 10.46875 -19.03125 C 10.5625 -18.988281 10.628906 -18.945312 10.671875 -18.90625 C 10.765625 -18.84375 10.832031 -18.773438 10.875 -18.703125 C 10.914062 -18.660156 10.957031 -18.59375 11 -18.5 C 11.050781 -18.414062 11.097656 -18.304688 11.140625 -18.171875 C 11.253906 -17.941406 11.320312 -17.75 11.34375 -17.59375 C 11.5 -16.988281 11.585938 -16.601562 11.609375 -16.4375 C 11.660156 -16.164062 11.726562 -15.785156 11.8125 -15.296875 C 11.90625 -14.773438 12.019531 -14.019531 12.15625 -13.03125 C 12.175781 -12.914062 12.203125 -12.726562 12.234375 -12.46875 C 12.273438 -12.21875 12.304688 -12.023438 12.328125 -11.890625 C 12.347656 -11.753906 12.375 -11.5625 12.40625 -11.3125 C 12.4375 -11.0625 12.46875 -10.878906 12.5 -10.765625 L 12.59375 -9.953125 C 12.613281 -10.066406 12.640625 -10.210938 12.671875 -10.390625 C 12.710938 -10.578125 12.734375 -10.71875 12.734375 -10.8125 L 13.03125 -12.90625 C 13.070312 -13.28125 13.195312 -13.953125 13.40625 -14.921875 C 13.445312 -15.097656 13.519531 -15.398438 13.625 -15.828125 C 13.726562 -16.265625 13.8125 -16.59375 13.875 -16.8125 C 14.1875 -17.738281 14.390625 -18.3125 14.484375 -18.53125 C 14.640625 -18.988281 14.890625 -19.507812 15.234375 -20.09375 C 15.472656 -20.539062 15.785156 -20.976562 16.171875 -21.40625 C 16.554688 -21.789062 16.914062 -22.070312 17.25 -22.25 C 17.269531 -22.269531 17.28125 -22.28125 17.28125 -22.28125 C 17.332031 -22.28125 17.359375 -22.289062 17.359375 -22.3125 C 17.710938 -22.5 18.128906 -22.632812 18.609375 -22.71875 C 18.648438 -22.71875 18.679688 -22.734375 18.703125 -22.765625 C 18.816406 -22.785156 18.972656 -22.804688 19.171875 -22.828125 C 19.378906 -22.847656 19.738281 -22.828125 20.25 -22.765625 C 20.769531 -22.710938 21.226562 -22.578125 21.625 -22.359375 C 22.019531 -22.148438 22.382812 -21.753906 22.71875 -21.171875 C 23.0625 -20.585938 23.242188 -19.851562 23.265625 -18.96875 Z M 9.796875 -17.890625 L 9.828125 -17.890625 Z M 12.25 -7.796875 Z M 12.25 -7.796875 "/></g></g></g><g fill="#000000" fill-opacity="1"><g transform="translate(58.167155, 34.126411)"><g><path d="M 14.828125 -10.296875 L 15.5 -9.765625 C 13.632812 -6.273438 11.28125 -3.601562 8.4375 -1.75 C 6.03125 -0.175781 3.992188 0.347656 2.328125 -0.171875 C 0.597656 -0.734375 -0.164062 -2.363281 0.03125 -5.0625 C 0.0507812 -5.425781 0.0976562 -5.796875 0.171875 -6.171875 C 0.367188 -7.328125 0.734375 -8.320312 1.265625 -9.15625 C 1.796875 -9.988281 2.378906 -10.613281 3.015625 -11.03125 C 3.660156 -11.445312 4.347656 -11.75 5.078125 -11.9375 C 5.804688 -12.125 6.453125 -12.210938 7.015625 -12.203125 C 7.585938 -12.191406 8.0625 -12.128906 8.4375 -12.015625 C 8.9375 -11.859375 9.34375 -11.582031 9.65625 -11.1875 C 9.96875 -10.800781 10.144531 -10.289062 10.1875 -9.65625 C 10.238281 -9.03125 10.015625 -8.320312 9.515625 -7.53125 C 8.734375 -6.25 7.269531 -5.640625 5.125 -5.703125 C 4.882812 -3.472656 5.367188 -2.453125 6.578125 -2.640625 C 7.910156 -2.835938 9.769531 -4.234375 12.15625 -6.828125 C 13.53125 -8.328125 14.421875 -9.484375 14.828125 -10.296875 Z M 7.828125 -10.15625 C 7.691406 -10.15625 7.566406 -10.15625 7.453125 -10.15625 C 7.347656 -10.15625 7.175781 -10.09375 6.9375 -9.96875 C 6.695312 -9.851562 6.488281 -9.679688 6.3125 -9.453125 C 6.132812 -9.222656 5.941406 -8.851562 5.734375 -8.34375 C 5.535156 -7.84375 5.378906 -7.242188 5.265625 -6.546875 C 6.929688 -6.429688 8.054688 -6.972656 8.640625 -8.171875 C 8.734375 -8.367188 8.800781 -8.609375 8.84375 -8.890625 C 8.894531 -9.171875 8.835938 -9.453125 8.671875 -9.734375 C 8.515625 -10.015625 8.234375 -10.15625 7.828125 -10.15625 Z M 7.828125 -10.15625 "/></g></g></g><g fill="#000000" fill-opacity="1"><g transform="translate(69.243868, 34.126411)"><g><path d="M 16.78125 -9.828125 C 16.78125 -9.828125 17.03125 -9.835938 17.53125 -9.859375 C 17.84375 -9.796875 17.953125 -9.613281 17.859375 -9.3125 C 17.859375 -9.289062 17.78125 -9.007812 17.625 -8.46875 C 17.46875 -7.9375 17.296875 -7.351562 17.109375 -6.71875 C 16.929688 -6.09375 16.675781 -5.320312 16.34375 -4.40625 C 16.007812 -3.488281 15.65625 -2.613281 15.28125 -1.78125 C 14.90625 -0.957031 14.445312 -0.117188 13.90625 0.734375 C 13.363281 1.597656 12.804688 2.332031 12.234375 2.9375 C 11.660156 3.539062 11.003906 4.03125 10.265625 4.40625 C 9.523438 4.78125 8.757812 4.941406 7.96875 4.890625 C 7.363281 4.867188 6.859375 4.671875 6.453125 4.296875 C 6.046875 3.929688 5.765625 3.421875 5.609375 2.765625 C 5.453125 2.117188 5.347656 1.421875 5.296875 0.671875 C 5.253906 -0.0664062 5.28125 -0.929688 5.375 -1.921875 C 5.476562 -2.910156 5.585938 -3.804688 5.703125 -4.609375 C 5.816406 -5.410156 5.945312 -6.304688 6.09375 -7.296875 C 6.238281 -8.285156 6.347656 -9.050781 6.421875 -9.59375 C 4.992188 -9.613281 3.867188 -9.738281 3.046875 -9.96875 C 2.234375 -10.207031 1.710938 -10.503906 1.484375 -10.859375 C 1.253906 -11.222656 1.113281 -11.628906 1.0625 -12.078125 C 1.007812 -12.535156 1.03125 -13.003906 1.125 -13.484375 C 1.226562 -13.972656 1.191406 -14.453125 1.015625 -14.921875 C 1.148438 -14.992188 1.320312 -15.0625 1.53125 -15.125 C 1.75 -15.195312 2.132812 -15.273438 2.6875 -15.359375 C 3.238281 -15.453125 3.722656 -15.453125 4.140625 -15.359375 C 4.554688 -15.273438 4.914062 -15.015625 5.21875 -14.578125 C 5.519531 -14.148438 5.640625 -13.535156 5.578125 -12.734375 C 5.523438 -12.148438 6.003906 -11.859375 7.015625 -11.859375 C 7.378906 -11.878906 7.738281 -11.875 8.09375 -11.84375 C 8.457031 -11.820312 8.882812 -11.726562 9.375 -11.5625 C 9.875 -11.394531 10.285156 -11.148438 10.609375 -10.828125 C 10.941406 -10.515625 11.207031 -10.050781 11.40625 -9.4375 C 11.613281 -8.820312 11.660156 -8.097656 11.546875 -7.265625 C 11.003906 -3.117188 10.757812 -0.597656 10.8125 0.296875 C 10.851562 2.015625 11.4375 2.265625 12.5625 1.046875 C 13.351562 0.210938 14.101562 -1.109375 14.8125 -2.921875 C 15.519531 -4.734375 16.03125 -6.335938 16.34375 -7.734375 Z M 16.78125 -9.828125 "/></g></g></g><g fill="#000000" fill-opacity="1"><g transform="translate(82.076645, 34.126411)"><g><path d="M 16.78125 -9.828125 C 16.78125 -9.828125 17.03125 -9.835938 17.53125 -9.859375 C 17.84375 -9.796875 17.953125 -9.613281 17.859375 -9.3125 C 17.859375 -9.289062 17.78125 -9.007812 17.625 -8.46875 C 17.46875 -7.9375 17.296875 -7.351562 17.109375 -6.71875 C 16.929688 -6.09375 16.675781 -5.320312 16.34375 -4.40625 C 16.007812 -3.488281 15.65625 -2.613281 15.28125 -1.78125 C 14.90625 -0.957031 14.445312 -0.117188 13.90625 0.734375 C 13.363281 1.597656 12.804688 2.332031 12.234375 2.9375 C 11.660156 3.539062 11.003906 4.03125 10.265625 4.40625 C 9.523438 4.78125 8.757812 4.941406 7.96875 4.890625 C 7.363281 4.867188 6.859375 4.671875 6.453125 4.296875 C 6.046875 3.929688 5.765625 3.421875 5.609375 2.765625 C 5.453125 2.117188 5.347656 1.421875 5.296875 0.671875 C 5.253906 -0.0664062 5.28125 -0.929688 5.375 -1.921875 C 5.476562 -2.910156 5.585938 -3.804688 5.703125 -4.609375 C 5.816406 -5.410156 5.945312 -6.304688 6.09375 -7.296875 C 6.238281 -8.285156 6.347656 -9.050781 6.421875 -9.59375 C 4.992188 -9.613281 3.867188 -9.738281 3.046875 -9.96875 C 2.234375 -10.207031 1.710938 -10.503906 1.484375 -10.859375 C 1.253906 -11.222656 1.113281 -11.628906 1.0625 -12.078125 C 1.007812 -12.535156 1.03125 -13.003906 1.125 -13.484375 C 1.226562 -13.972656 1.191406 -14.453125 1.015625 -14.921875 C 1.148438 -14.992188 1.320312 -15.0625 1.53125 -15.125 C 1.75 -15.195312 2.132812 -15.273438 2.6875 -15.359375 C 3.238281 -15.453125 3.722656 -15.453125 4.140625 -15.359375 C 4.554688 -15.273438 4.914062 -15.015625 5.21875 -14.578125 C 5.519531 -14.148438 5.640625 -13.535156 5.578125 -12.734375 C 5.523438 -12.148438 6.003906 -11.859375 7.015625 -11.859375 C 7.378906 -11.878906 7.738281 -11.875 8.09375 -11.84375 C 8.457031 -11.820312 8.882812 -11.726562 9.375 -11.5625 C 9.875 -11.394531 10.285156 -11.148438 10.609375 -10.828125 C 10.941406 -10.515625 11.207031 -10.050781 11.40625 -9.4375 C 11.613281 -8.820312 11.660156 -8.097656 11.546875 -7.265625 C 11.003906 -3.117188 10.757812 -0.597656 10.8125 0.296875 C 10.851562 2.015625 11.4375 2.265625 12.5625 1.046875 C 13.351562 0.210938 14.101562 -1.109375 14.8125 -2.921875 C 15.519531 -4.734375 16.03125 -6.335938 16.34375 -7.734375 Z M 16.78125 -9.828125 "/></g></g></g><g fill="#000000" fill-opacity="1"><g transform="translate(98.286472, 34.126411)"><g><path d="M 20.125 -10.8125 L 20.796875 -10.40625 L 14.984375 -3.03125 C 15.578125 -0.582031 15.941406 1.617188 16.078125 3.578125 C 16.210938 5.535156 16.179688 7.046875 15.984375 8.109375 C 15.796875 9.179688 15.5 10.09375 15.09375 10.84375 C 14.6875 11.601562 14.335938 12.109375 14.046875 12.359375 C 13.753906 12.609375 13.484375 12.773438 13.234375 12.859375 C 12.898438 13.015625 12.492188 13.117188 12.015625 13.171875 C 11.140625 13.234375 10.4375 12.632812 9.90625 11.375 C 9.375 10.113281 9.039062 8.515625 8.90625 6.578125 C 8.78125 4.648438 8.6875 2.546875 8.625 0.265625 C 8.570312 -2.003906 8.585938 -4.117188 8.671875 -6.078125 C 7.460938 -2.628906 5.609375 -0.953125 3.109375 -1.046875 C 2.097656 -1.085938 1.335938 -1.503906 0.828125 -2.296875 C 0.316406 -3.085938 0.046875 -4.0625 0.015625 -5.21875 C -0.015625 -6.375 0.0195312 -7.523438 0.125 -8.671875 C 0.238281 -9.828125 0.367188 -10.898438 0.515625 -11.890625 C 0.671875 -12.878906 0.710938 -13.484375 0.640625 -13.703125 C 0.710938 -13.734375 0.804688 -13.753906 0.921875 -13.765625 C 1.046875 -13.773438 1.28125 -13.785156 1.625 -13.796875 C 1.976562 -13.804688 2.304688 -13.789062 2.609375 -13.75 C 2.921875 -13.71875 3.253906 -13.640625 3.609375 -13.515625 C 3.972656 -13.398438 4.273438 -13.234375 4.515625 -13.015625 C 4.765625 -12.804688 4.953125 -12.503906 5.078125 -12.109375 C 5.203125 -11.710938 5.234375 -11.242188 5.171875 -10.703125 C 4.578125 -6.585938 4.539062 -4.316406 5.0625 -3.890625 C 5.375 -3.640625 5.894531 -3.882812 6.625 -4.625 C 7.882812 -5.90625 8.515625 -8.054688 8.515625 -11.078125 L 8.4375 -12.421875 C 8.53125 -12.441406 8.644531 -12.46875 8.78125 -12.5 C 8.914062 -12.539062 9.171875 -12.578125 9.546875 -12.609375 C 9.929688 -12.640625 10.300781 -12.644531 10.65625 -12.625 C 11.019531 -12.601562 11.414062 -12.507812 11.84375 -12.34375 C 12.28125 -12.175781 12.648438 -11.929688 12.953125 -11.609375 C 13.253906 -11.296875 13.507812 -10.84375 13.71875 -10.25 C 13.9375 -9.65625 14.035156 -8.941406 14.015625 -8.109375 C 14.015625 -7.703125 14.007812 -6.976562 14 -5.9375 C 13.988281 -4.90625 13.984375 -4.097656 13.984375 -3.515625 C 15.109375 -4.722656 16.179688 -5.9375 17.203125 -7.15625 C 18.222656 -8.375 18.972656 -9.285156 19.453125 -9.890625 Z M 14.3125 7.359375 C 14.757812 5.960938 14.976562 4.476562 14.96875 2.90625 C 14.957031 1.332031 14.847656 0.128906 14.640625 -0.703125 C 14.441406 -1.535156 14.222656 -2.300781 13.984375 -3 C 13.929688 1.5625 14.039062 5.015625 14.3125 7.359375 Z M 14.3125 7.359375 "/></g></g></g><g clip-path="url(#32fa952a50)"><g fill="#000000" fill-opacity="1"><g transform="translate(0.703043, 74.592772)"><g><path d="M 13.984375 -8.171875 L 14.921875 -7.703125 C 13.703125 -5.554688 12.441406 -3.742188 11.140625 -2.265625 C 9.835938 -0.796875 8.601562 0.265625 7.4375 0.921875 C 6.28125 1.585938 5.203125 1.84375 4.203125 1.6875 C 3.203125 1.53125 2.363281 0.976562 1.6875 0.03125 C 1.007812 -0.914062 0.53125 -2.351562 0.25 -4.28125 C -0.03125 -6.21875 -0.0546875 -8.550781 0.171875 -11.28125 C 0.390625 -13.957031 0.8125 -16.273438 1.4375 -18.234375 C 2.070312 -20.191406 2.769531 -21.648438 3.53125 -22.609375 C 4.300781 -23.566406 5.113281 -24.273438 5.96875 -24.734375 C 6.832031 -25.191406 7.597656 -25.410156 8.265625 -25.390625 C 8.941406 -25.367188 9.503906 -25.210938 9.953125 -24.921875 C 11.921875 -23.703125 12.335938 -20.457031 11.203125 -15.1875 L 10.234375 -15.9375 C 10.253906 -16.050781 10.273438 -16.210938 10.296875 -16.421875 C 10.316406 -16.640625 10.34375 -17.007812 10.375 -17.53125 C 10.414062 -18.0625 10.410156 -18.53125 10.359375 -18.9375 C 10.316406 -19.34375 10.195312 -19.71875 10 -20.0625 C 9.8125 -20.414062 9.550781 -20.601562 9.21875 -20.625 C 9.039062 -20.65625 8.882812 -20.65625 8.75 -20.625 C 8.613281 -20.601562 8.378906 -20.445312 8.046875 -20.15625 C 7.722656 -19.863281 7.4375 -19.4375 7.1875 -18.875 C 6.945312 -18.3125 6.691406 -17.410156 6.421875 -16.171875 C 6.148438 -14.929688 5.945312 -13.445312 5.8125 -11.71875 C 5.5625 -8.96875 5.550781 -6.878906 5.78125 -5.453125 C 6.019531 -4.023438 6.394531 -3.0625 6.90625 -2.5625 C 7.414062 -2.070312 8.054688 -2.039062 8.828125 -2.46875 C 9.609375 -2.894531 10.425781 -3.582031 11.28125 -4.53125 C 12.132812 -5.488281 13.035156 -6.703125 13.984375 -8.171875 Z M 13.984375 -8.171875 "/></g></g></g></g><g fill="#000000" fill-opacity="1"><g transform="translate(13.873526, 74.592772)"><g><path d="M 18.375 -9.71875 L 19.015625 -9.515625 C 18.941406 -9.296875 18.832031 -9.003906 18.6875 -8.640625 C 18.539062 -8.285156 18.25 -7.648438 17.8125 -6.734375 C 17.375 -5.828125 16.9375 -5.035156 16.5 -4.359375 C 16.0625 -3.679688 15.535156 -3.085938 14.921875 -2.578125 C 14.316406 -2.078125 13.734375 -1.878906 13.171875 -1.984375 C 12.515625 -2.117188 11.992188 -2.769531 11.609375 -3.9375 C 11.234375 -5.113281 10.988281 -6.363281 10.875 -7.6875 C 10.757812 -9.019531 10.554688 -10.226562 10.265625 -11.3125 C 9.972656 -12.394531 9.578125 -12.9375 9.078125 -12.9375 C 8.671875 -12.9375 8.351562 -12.484375 8.125 -11.578125 C 7.90625 -10.679688 7.71875 -9.597656 7.5625 -8.328125 C 7.40625 -7.054688 7.191406 -5.78125 6.921875 -4.5 C 6.648438 -3.226562 6.164062 -2.15625 5.46875 -1.28125 C 4.769531 -0.40625 3.867188 0.0195312 2.765625 0 C 2.046875 0.0195312 1.46875 -0.398438 1.03125 -1.265625 C 0.59375 -2.128906 0.3125 -3.269531 0.1875 -4.6875 C 0.0625 -6.113281 0 -7.707031 0 -9.46875 C 0 -11.238281 0.078125 -13.023438 0.234375 -14.828125 C 0.390625 -16.628906 0.519531 -18.351562 0.625 -20 C 0.726562 -21.65625 0.816406 -23.054688 0.890625 -24.203125 C 0.972656 -25.359375 0.945312 -26.171875 0.8125 -26.640625 C 0.96875 -26.679688 1.175781 -26.71875 1.4375 -26.75 C 1.695312 -26.789062 2.144531 -26.78125 2.78125 -26.71875 C 3.425781 -26.664062 3.984375 -26.519531 4.453125 -26.28125 C 4.929688 -26.050781 5.347656 -25.601562 5.703125 -24.9375 C 6.066406 -24.269531 6.203125 -23.421875 6.109375 -22.390625 C 5.722656 -17.390625 5.488281 -13.203125 5.40625 -9.828125 C 6.257812 -13.859375 7.507812 -15.875 9.15625 -15.875 C 10.03125 -15.875 10.707031 -15.257812 11.1875 -14.03125 C 11.675781 -12.800781 11.960938 -11.441406 12.046875 -9.953125 C 12.140625 -8.472656 12.289062 -7.078125 12.5 -5.765625 C 12.71875 -4.460938 13.039062 -3.753906 13.46875 -3.640625 C 13.988281 -3.503906 14.65625 -3.941406 15.46875 -4.953125 C 16.28125 -5.972656 16.96875 -7.023438 17.53125 -8.109375 Z M 18.375 -9.71875 "/></g></g></g><g fill="#000000" fill-opacity="1"><g transform="translate(28.361054, 74.592772)"><g><path d="M 16.78125 -9.828125 C 16.78125 -9.828125 17.03125 -9.835938 17.53125 -9.859375 C 17.84375 -9.796875 17.953125 -9.613281 17.859375 -9.3125 C 17.859375 -9.289062 17.78125 -9.007812 17.625 -8.46875 C 17.46875 -7.9375 17.296875 -7.351562 17.109375 -6.71875 C 16.929688 -6.09375 16.675781 -5.320312 16.34375 -4.40625 C 16.007812 -3.488281 15.65625 -2.613281 15.28125 -1.78125 C 14.90625 -0.957031 14.445312 -0.117188 13.90625 0.734375 C 13.363281 1.597656 12.804688 2.332031 12.234375 2.9375 C 11.660156 3.539062 11.003906 4.03125 10.265625 4.40625 C 9.523438 4.78125 8.757812 4.941406 7.96875 4.890625 C 7.363281 4.867188 6.859375 4.671875 6.453125 4.296875 C 6.046875 3.929688 5.765625 3.421875 5.609375 2.765625 C 5.453125 2.117188 5.347656 1.421875 5.296875 0.671875 C 5.253906 -0.0664062 5.28125 -0.929688 5.375 -1.921875 C 5.476562 -2.910156 5.585938 -3.804688 5.703125 -4.609375 C 5.816406 -5.410156 5.945312 -6.304688 6.09375 -7.296875 C 6.238281 -8.285156 6.347656 -9.050781 6.421875 -9.59375 C 4.992188 -9.613281 3.867188 -9.738281 3.046875 -9.96875 C 2.234375 -10.207031 1.710938 -10.503906 1.484375 -10.859375 C 1.253906 -11.222656 1.113281 -11.628906 1.0625 -12.078125 C 1.007812 -12.535156 1.03125 -13.003906 1.125 -13.484375 C 1.226562 -13.972656 1.191406 -14.453125 1.015625 -14.921875 C 1.148438 -14.992188 1.320312 -15.0625 1.53125 -15.125 C 1.75 -15.195312 2.132812 -15.273438 2.6875 -15.359375 C 3.238281 -15.453125 3.722656 -15.453125 4.140625 -15.359375 C 4.554688 -15.273438 4.914062 -15.015625 5.21875 -14.578125 C 5.519531 -14.148438 5.640625 -13.535156 5.578125 -12.734375 C 5.523438 -12.148438 6.003906 -11.859375 7.015625 -11.859375 C 7.378906 -11.878906 7.738281 -11.875 8.09375 -11.84375 C 8.457031 -11.820312 8.882812 -11.726562 9.375 -11.5625 C 9.875 -11.394531 10.285156 -11.148438 10.609375 -10.828125 C 10.941406 -10.515625 11.207031 -10.050781 11.40625 -9.4375 C 11.613281 -8.820312 11.660156 -8.097656 11.546875 -7.265625 C 11.003906 -3.117188 10.757812 -0.597656 10.8125 0.296875 C 10.851562 2.015625 11.4375 2.265625 12.5625 1.046875 C 13.351562 0.210938 14.101562 -1.109375 14.8125 -2.921875 C 15.519531 -4.734375 16.03125 -6.335938 16.34375 -7.734375 Z M 16.78125 -9.828125 "/></g></g></g><g fill="#000000" fill-opacity="1"><g transform="translate(42.882356, 74.592772)"><g><path d="M 11.65625 -10.640625 L 12.625 -10.265625 C 12.601562 -10.242188 12.453125 -9.914062 12.171875 -9.28125 C 11.890625 -8.65625 11.582031 -8 11.25 -7.3125 C 10.925781 -6.625 10.46875 -5.835938 9.875 -4.953125 C 9.28125 -4.078125 8.664062 -3.304688 8.03125 -2.640625 C 7.40625 -1.984375 6.648438 -1.425781 5.765625 -0.96875 C 4.890625 -0.519531 4.003906 -0.3125 3.109375 -0.34375 C 2.097656 -0.382812 1.335938 -0.789062 0.828125 -1.5625 C 0.316406 -2.34375 0.046875 -3.3125 0.015625 -4.46875 C -0.015625 -5.632812 0.0195312 -6.789062 0.125 -7.9375 C 0.238281 -9.082031 0.367188 -10.148438 0.515625 -11.140625 C 0.671875 -12.128906 0.710938 -12.738281 0.640625 -12.96875 C 0.773438 -12.988281 0.953125 -13.015625 1.171875 -13.046875 C 1.398438 -13.078125 1.800781 -13.078125 2.375 -13.046875 C 2.945312 -13.015625 3.4375 -12.914062 3.84375 -12.75 C 4.25 -12.582031 4.597656 -12.257812 4.890625 -11.78125 C 5.179688 -11.3125 5.273438 -10.703125 5.171875 -9.953125 C 4.554688 -5.835938 4.65625 -3.625 5.46875 -3.3125 C 5.800781 -3.175781 6.265625 -3.3125 6.859375 -3.71875 C 7.578125 -4.207031 8.332031 -5.03125 9.125 -6.1875 C 9.925781 -7.351562 10.550781 -8.382812 11 -9.28125 Z M 5.0625 -15.65625 C 4.570312 -15.164062 3.976562 -14.921875 3.28125 -14.921875 C 2.582031 -14.921875 1.984375 -15.164062 1.484375 -15.65625 C 0.992188 -16.15625 0.75 -16.753906 0.75 -17.453125 C 0.75 -18.148438 0.992188 -18.742188 1.484375 -19.234375 C 1.984375 -19.734375 2.582031 -19.984375 3.28125 -19.984375 C 3.976562 -19.984375 4.570312 -19.734375 5.0625 -19.234375 C 5.5625 -18.742188 5.8125 -18.148438 5.8125 -17.453125 C 5.8125 -16.753906 5.5625 -16.15625 5.0625 -15.65625 Z M 5.0625 -15.65625 "/></g></g></g><g fill="#000000" fill-opacity="1"><g transform="translate(51.493827, 74.592772)"><g><path d="M 14.34375 -9.3125 L 14.484375 -8.515625 C 14.347656 -8.578125 14.15625 -8.671875 13.90625 -8.796875 C 13.664062 -8.921875 13.203125 -9.101562 12.515625 -9.34375 C 11.828125 -9.59375 11.175781 -9.769531 10.5625 -9.875 C 9.957031 -9.976562 9.300781 -9.984375 8.59375 -9.890625 C 7.882812 -9.804688 7.304688 -9.5625 6.859375 -9.15625 C 7.097656 -8.769531 7.445312 -8.242188 7.90625 -7.578125 C 8.375 -6.910156 8.75 -6.367188 9.03125 -5.953125 C 9.3125 -5.535156 9.648438 -5.019531 10.046875 -4.40625 C 10.441406 -3.789062 10.738281 -3.273438 10.9375 -2.859375 C 11.144531 -2.441406 11.351562 -1.96875 11.5625 -1.4375 C 11.78125 -0.90625 11.894531 -0.441406 11.90625 -0.046875 C 11.914062 0.347656 11.878906 0.742188 11.796875 1.140625 C 11.722656 1.546875 11.546875 1.914062 11.265625 2.25 C 10.984375 2.59375 10.613281 2.898438 10.15625 3.171875 C 8.5625 3.941406 7.210938 4.203125 6.109375 3.953125 L 6.078125 3.953125 C 6.003906 3.953125 5.957031 3.941406 5.9375 3.921875 C 5.644531 3.867188 5.363281 3.789062 5.09375 3.6875 C 4.78125 3.59375 4.390625 3.398438 3.921875 3.109375 C 3.398438 2.765625 2.972656 2.378906 2.640625 1.953125 C 2.203125 1.410156 1.882812 0.804688 1.6875 0.140625 C 1.6875 0.0859375 1.679688 0.0351562 1.671875 -0.015625 C 1.660156 -0.0664062 1.65625 -0.109375 1.65625 -0.140625 L 1.625 -0.203125 L 1.625 -0.265625 L 1.59375 -0.40625 L 1.546875 -0.5 L 1.546875 -0.640625 C 1.523438 -0.710938 1.515625 -0.800781 1.515625 -0.90625 C 1.453125 -1.25 1.421875 -1.609375 1.421875 -1.984375 C 1.421875 -2.796875 1.507812 -3.550781 1.6875 -4.25 C 1.882812 -4.945312 2.175781 -5.65625 2.5625 -6.375 C 2.5625 -6.40625 2.570312 -6.421875 2.59375 -6.421875 L 2.640625 -6.484375 C 2.273438 -6.972656 1.898438 -7.515625 1.515625 -8.109375 C 0.890625 -9.097656 0.457031 -10.015625 0.21875 -10.859375 C -0.0195312 -11.703125 -0.078125 -12.40625 0.046875 -12.96875 C 0.171875 -13.53125 0.382812 -14.035156 0.6875 -14.484375 C 0.988281 -14.929688 1.351562 -15.285156 1.78125 -15.546875 C 2.21875 -15.804688 2.617188 -16.023438 2.984375 -16.203125 C 3.359375 -16.390625 3.679688 -16.503906 3.953125 -16.546875 L 4.359375 -16.640625 C 3.773438 -15.222656 4.367188 -13.085938 6.140625 -10.234375 C 6.835938 -10.617188 7.597656 -10.847656 8.421875 -10.921875 C 9.242188 -11.003906 9.988281 -10.960938 10.65625 -10.796875 C 11.320312 -10.640625 11.941406 -10.445312 12.515625 -10.21875 C 13.085938 -10 13.53125 -9.789062 13.84375 -9.59375 Z M 3.953125 0.875 C 4.148438 1.101562 4.453125 1.351562 4.859375 1.625 L 5.0625 1.71875 C 5.832031 1.988281 6.304688 1.832031 6.484375 1.25 C 6.660156 0.644531 6.628906 -0.0078125 6.390625 -0.71875 C 6.160156 -1.4375 5.863281 -2.0625 5.5 -2.59375 C 5.144531 -3.132812 4.59375 -3.898438 3.84375 -4.890625 C 3.738281 -5.023438 3.660156 -5.128906 3.609375 -5.203125 C 3.429688 -4.816406 3.285156 -4.378906 3.171875 -3.890625 C 3.035156 -3.234375 2.976562 -2.613281 3 -2.03125 C 3.019531 -1.84375 3.054688 -1.546875 3.109375 -1.140625 C 3.128906 -1.078125 3.148438 -0.988281 3.171875 -0.875 C 3.191406 -0.757812 3.210938 -0.65625 3.234375 -0.5625 C 3.265625 -0.476562 3.289062 -0.40625 3.3125 -0.34375 C 3.425781 0.0820312 3.640625 0.488281 3.953125 0.875 Z M 3.953125 0.875 "/></g></g></g><g fill="#000000" fill-opacity="1"><g transform="translate(60.003984, 74.592772)"><g><path d="M 16.921875 -10.875 L 17.65625 -10.328125 C 17.59375 -10.148438 17.503906 -9.921875 17.390625 -9.640625 C 17.273438 -9.359375 17.019531 -8.796875 16.625 -7.953125 C 16.226562 -7.109375 15.816406 -6.304688 15.390625 -5.546875 C 14.960938 -4.796875 14.414062 -3.960938 13.75 -3.046875 C 13.09375 -2.140625 12.421875 -1.363281 11.734375 -0.71875 C 11.046875 -0.0820312 10.25 0.4375 9.34375 0.84375 C 8.445312 1.25 7.550781 1.414062 6.65625 1.34375 C 6.113281 1.320312 5.648438 1.050781 5.265625 0.53125 C 4.878906 0.0195312 4.59375 -0.734375 4.40625 -1.734375 C 4.21875 -2.734375 4.070312 -3.773438 3.96875 -4.859375 C 3.863281 -5.941406 3.820312 -7.253906 3.84375 -8.796875 C 3.875 -10.335938 3.910156 -11.703125 3.953125 -12.890625 C 3.992188 -14.085938 4.0625 -15.484375 4.15625 -17.078125 C 4.019531 -17.078125 3.828125 -17.070312 3.578125 -17.0625 C 3.328125 -17.050781 3.144531 -17.035156 3.03125 -17.015625 C 2.539062 -17.015625 2.179688 -17.003906 1.953125 -16.984375 L -0.234375 -16.984375 L -0.34375 -18.03125 C -0.289062 -18.03125 -0.234375 -18.039062 -0.171875 -18.0625 C -0.148438 -18.0625 -0.00390625 -18.082031 0.265625 -18.125 C 0.378906 -18.15625 0.515625 -18.179688 0.671875 -18.203125 C 0.828125 -18.222656 1.023438 -18.25 1.265625 -18.28125 C 1.503906 -18.3125 1.703125 -18.34375 1.859375 -18.375 C 1.921875 -18.375 2.078125 -18.390625 2.328125 -18.421875 C 2.578125 -18.453125 2.769531 -18.476562 2.90625 -18.5 C 3.15625 -18.550781 3.546875 -18.597656 4.078125 -18.640625 C 4.128906 -18.660156 4.175781 -18.671875 4.21875 -18.671875 C 4.507812 -23.128906 4.566406 -25.695312 4.390625 -26.375 C 4.484375 -26.394531 4.597656 -26.414062 4.734375 -26.4375 C 4.867188 -26.457031 5.128906 -26.472656 5.515625 -26.484375 C 5.910156 -26.492188 6.28125 -26.476562 6.625 -26.4375 C 6.976562 -26.394531 7.363281 -26.28125 7.78125 -26.09375 C 8.195312 -25.914062 8.550781 -25.675781 8.84375 -25.375 C 9.132812 -25.070312 9.363281 -24.640625 9.53125 -24.078125 C 9.707031 -23.515625 9.757812 -22.847656 9.6875 -22.078125 C 9.664062 -21.671875 9.609375 -20.679688 9.515625 -19.109375 C 9.609375 -19.109375 9.765625 -19.113281 9.984375 -19.125 C 10.210938 -19.132812 10.375 -19.140625 10.46875 -19.140625 C 10.71875 -19.160156 11.066406 -19.171875 11.515625 -19.171875 C 11.628906 -19.171875 11.785156 -19.175781 11.984375 -19.1875 C 12.191406 -19.207031 12.335938 -19.21875 12.421875 -19.21875 L 13.75 -19.21875 L 13.8125 -18.171875 C 13.675781 -18.117188 13.484375 -18.070312 13.234375 -18.03125 C 13.035156 -17.988281 12.800781 -17.953125 12.53125 -17.921875 C 12.4375 -17.921875 12.289062 -17.90625 12.09375 -17.875 C 11.90625 -17.84375 11.757812 -17.816406 11.65625 -17.796875 C 11.539062 -17.796875 11.363281 -17.773438 11.125 -17.734375 C 10.882812 -17.703125 10.695312 -17.675781 10.5625 -17.65625 C 10.476562 -17.65625 10.304688 -17.640625 10.046875 -17.609375 C 9.785156 -17.578125 9.585938 -17.550781 9.453125 -17.53125 C 9.359375 -15.75 9.289062 -13.789062 9.25 -11.65625 C 9.269531 -7.550781 9.304688 -5.242188 9.359375 -4.734375 C 9.515625 -2.878906 9.90625 -1.960938 10.53125 -1.984375 C 10.820312 -1.984375 11.160156 -2.144531 11.546875 -2.46875 C 12.203125 -3.007812 12.976562 -3.976562 13.875 -5.375 C 14.78125 -6.769531 15.515625 -8.039062 16.078125 -9.1875 Z M 16.921875 -10.875 "/></g></g></g><g fill="#000000" fill-opacity="1"><g transform="translate(75.538399, 74.592772)"><g><path d="M 25.65625 -9.390625 L 26.296875 -9.25 C 26.160156 -8.976562 25.972656 -8.613281 25.734375 -8.15625 C 25.503906 -7.695312 25 -6.875 24.21875 -5.6875 C 23.445312 -4.507812 22.664062 -3.46875 21.875 -2.5625 C 21.09375 -1.664062 20.113281 -0.84375 18.9375 -0.09375 C 17.769531 0.644531 16.632812 1.015625 15.53125 1.015625 C 14.851562 1.015625 14.359375 0.742188 14.046875 0.203125 C 13.734375 -0.335938 13.582031 -1.039062 13.59375 -1.90625 C 13.601562 -2.769531 13.679688 -3.710938 13.828125 -4.734375 C 13.972656 -5.765625 14.132812 -6.785156 14.3125 -7.796875 C 14.5 -8.804688 14.628906 -9.722656 14.703125 -10.546875 C 14.785156 -11.367188 14.722656 -12.003906 14.515625 -12.453125 C 14.316406 -12.910156 13.945312 -13.082031 13.40625 -12.96875 L 13.375 -12.9375 C 13.03125 -12.820312 12.710938 -12.617188 12.421875 -12.328125 C 12.066406 -11.921875 11.785156 -11.503906 11.578125 -11.078125 C 11.359375 -10.597656 11.15625 -10.007812 10.96875 -9.3125 C 10.8125 -8.59375 10.675781 -7.910156 10.5625 -7.265625 C 10.539062 -7.191406 10.519531 -7.09375 10.5 -6.96875 C 10.476562 -6.84375 10.46875 -6.75 10.46875 -6.6875 C 10.46875 -6.644531 10.457031 -6.585938 10.4375 -6.515625 C 10.414062 -6.453125 10.40625 -6.40625 10.40625 -6.375 C 10.351562 -6.289062 10.328125 -6.222656 10.328125 -6.171875 C 10.285156 -6.085938 10.242188 -6.007812 10.203125 -5.9375 L 10.03125 -5.78125 C 10.007812 -5.75 9.976562 -5.734375 9.9375 -5.734375 C 9.90625 -5.734375 9.878906 -5.722656 9.859375 -5.703125 L 9.796875 -5.671875 C 9.773438 -5.671875 9.75 -5.671875 9.71875 -5.671875 L 9.65625 -5.671875 C 9.519531 -5.671875 9.394531 -5.707031 9.28125 -5.78125 C 9.238281 -5.800781 9.179688 -5.84375 9.109375 -5.90625 C 9.046875 -6 8.988281 -6.085938 8.9375 -6.171875 C 8.894531 -6.265625 8.875 -6.332031 8.875 -6.375 C 8.832031 -6.539062 8.789062 -6.753906 8.75 -7.015625 C 8.726562 -7.148438 8.695312 -7.351562 8.65625 -7.625 C 8.625 -7.894531 8.597656 -8.097656 8.578125 -8.234375 L 8.46875 -9.421875 C 8.445312 -9.535156 8.421875 -9.710938 8.390625 -9.953125 C 8.359375 -10.203125 8.332031 -10.394531 8.3125 -10.53125 C 8.125 -11.113281 8.019531 -11.425781 8 -11.46875 C 7.976562 -11.519531 7.945312 -11.566406 7.90625 -11.609375 L 7.796875 -11.515625 C 7.773438 -11.472656 7.734375 -11.40625 7.671875 -11.3125 C 7.617188 -11.21875 7.582031 -11.148438 7.5625 -11.109375 L 7.15625 -10.203125 L 6.859375 -9.25 C 6.648438 -8.625 6.476562 -8.015625 6.34375 -7.421875 C 6.257812 -7.046875 6.144531 -6.546875 6 -5.921875 C 5.851562 -5.304688 5.753906 -4.882812 5.703125 -4.65625 C 5.660156 -4.363281 5.601562 -4.050781 5.53125 -3.71875 C 5.101562 -1.976562 4.101562 -1.078125 2.53125 -1.015625 C 1.601562 -0.992188 0.929688 -1.367188 0.515625 -2.140625 C 0.109375 -2.921875 -0.0625 -3.898438 0 -5.078125 C 0.0625 -6.265625 0.160156 -7.539062 0.296875 -8.90625 C 0.429688 -10.28125 0.582031 -11.539062 0.75 -12.6875 C 0.925781 -13.84375 0.925781 -14.78125 0.75 -15.5 C 0.8125 -15.519531 0.910156 -15.539062 1.046875 -15.5625 C 1.179688 -15.582031 1.425781 -15.601562 1.78125 -15.625 C 2.144531 -15.65625 2.488281 -15.640625 2.8125 -15.578125 C 3.144531 -15.523438 3.5 -15.398438 3.875 -15.203125 C 4.257812 -15.015625 4.585938 -14.753906 4.859375 -14.421875 C 5.128906 -14.097656 5.335938 -13.628906 5.484375 -13.015625 C 5.628906 -12.398438 5.679688 -11.675781 5.640625 -10.84375 C 5.640625 -10.613281 5.617188 -10.316406 5.578125 -9.953125 C 5.617188 -10.046875 5.664062 -10.175781 5.71875 -10.34375 C 5.78125 -10.519531 5.820312 -10.640625 5.84375 -10.703125 C 6 -11.085938 6.164062 -11.445312 6.34375 -11.78125 C 6.53125 -12.09375 6.65625 -12.285156 6.71875 -12.359375 L 6.984375 -12.625 C 7.097656 -12.738281 7.242188 -12.84375 7.421875 -12.9375 C 7.515625 -12.976562 7.617188 -13 7.734375 -13 C 7.773438 -13 7.804688 -13.007812 7.828125 -13.03125 L 7.90625 -13.03125 L 7.96875 -13 L 8.0625 -13 C 8.289062 -12.957031 8.472656 -12.890625 8.609375 -12.796875 C 8.765625 -12.679688 8.890625 -12.554688 8.984375 -12.421875 C 9.003906 -12.378906 9.035156 -12.316406 9.078125 -12.234375 C 9.128906 -12.160156 9.164062 -12.097656 9.1875 -12.046875 C 9.25 -11.890625 9.328125 -11.675781 9.421875 -11.40625 C 9.460938 -11.25 9.507812 -11.035156 9.5625 -10.765625 C 9.601562 -10.472656 9.644531 -10.054688 9.6875 -9.515625 C 9.738281 -8.984375 9.765625 -8.59375 9.765625 -8.34375 L 9.765625 -8.234375 C 9.785156 -8.304688 9.835938 -8.503906 9.921875 -8.828125 C 10.015625 -9.148438 10.082031 -9.394531 10.125 -9.5625 C 10.332031 -10.226562 10.59375 -10.84375 10.90625 -11.40625 C 11.175781 -11.925781 11.535156 -12.390625 11.984375 -12.796875 C 12.328125 -13.085938 12.722656 -13.3125 13.171875 -13.46875 L 13.234375 -13.5 C 13.273438 -13.5 13.3125 -13.5 13.34375 -13.5 C 13.582031 -13.550781 13.832031 -13.59375 14.09375 -13.625 C 14.351562 -13.65625 14.800781 -13.628906 15.4375 -13.546875 C 16.082031 -13.472656 16.628906 -13.3125 17.078125 -13.0625 C 17.535156 -12.820312 17.925781 -12.375 18.25 -11.71875 C 18.570312 -11.0625 18.703125 -10.226562 18.640625 -9.21875 C 18.597656 -8.539062 18.507812 -7.609375 18.375 -6.421875 C 18.144531 -4.160156 18.117188 -2.84375 18.296875 -2.46875 C 18.546875 -1.988281 19.210938 -2.191406 20.296875 -3.078125 C 21.210938 -3.816406 22.113281 -4.710938 23 -5.765625 C 23.894531 -6.828125 24.554688 -7.695312 24.984375 -8.375 Z M 7.875 -11.6875 L 7.875 -11.65625 Z M 7.875 -11.65625 Z M 7.90625 -11.65625 Z M 9.359375 -6.625 Z M 9.359375 -6.625 "/></g></g></g><g fill="#000000" fill-opacity="1"><g transform="translate(98.772481, 74.592772)"><g><path d="M 19.21875 -10.96875 L 20.328125 -10.96875 C 20.234375 -10.65625 20.097656 -10.242188 19.921875 -9.734375 C 19.742188 -9.234375 19.335938 -8.332031 18.703125 -7.03125 C 18.078125 -5.738281 17.398438 -4.59375 16.671875 -3.59375 C 15.953125 -2.59375 14.992188 -1.6875 13.796875 -0.875 C 12.609375 -0.0625 11.375 0.34375 10.09375 0.34375 C 9.257812 0.34375 8.613281 0.046875 8.15625 -0.546875 C 7.695312 -1.148438 7.421875 -1.867188 7.328125 -2.703125 C 7.234375 -3.535156 7.222656 -4.5625 7.296875 -5.78125 C 5.722656 -4.25 4.054688 -3.628906 2.296875 -3.921875 C 1.191406 -4.117188 0.484375 -4.664062 0.171875 -5.5625 C -0.140625 -6.46875 -0.0664062 -7.4375 0.390625 -8.46875 C 0.847656 -9.507812 1.5625 -10.332031 2.53125 -10.9375 C 4.132812 -11.925781 5.945312 -12.253906 7.96875 -11.921875 C 8.03125 -12.953125 8.007812 -13.707031 7.90625 -14.1875 C 7.988281 -14.207031 8.097656 -14.226562 8.234375 -14.25 C 8.367188 -14.269531 8.632812 -14.285156 9.03125 -14.296875 C 9.425781 -14.304688 9.796875 -14.289062 10.140625 -14.25 C 10.492188 -14.207031 10.878906 -14.09375 11.296875 -13.90625 C 11.710938 -13.726562 12.066406 -13.488281 12.359375 -13.1875 C 12.648438 -12.882812 12.878906 -12.453125 13.046875 -11.890625 C 13.210938 -11.328125 13.265625 -10.660156 13.203125 -9.890625 C 12.867188 -5.210938 13.128906 -2.863281 13.984375 -2.84375 C 14.316406 -2.8125 14.734375 -3.078125 15.234375 -3.640625 C 16.128906 -4.660156 16.910156 -5.78125 17.578125 -7 C 18.242188 -8.226562 18.6875 -9.203125 18.90625 -9.921875 Z M 3.609375 -7.671875 C 3.566406 -6.515625 4.050781 -6.109375 5.0625 -6.453125 C 5.875 -6.742188 6.707031 -7.347656 7.5625 -8.265625 C 7.65625 -9.128906 7.734375 -9.773438 7.796875 -10.203125 C 7.441406 -10.203125 7.078125 -10.171875 6.703125 -10.109375 C 6.328125 -10.054688 5.882812 -9.957031 5.375 -9.8125 C 4.875 -9.664062 4.457031 -9.40625 4.125 -9.03125 C 3.800781 -8.65625 3.628906 -8.203125 3.609375 -7.671875 Z M 3.609375 -7.671875 "/></g></g></g><g fill="#000000" fill-opacity="1"><g transform="translate(116.265589, 74.592772)"><g><path d="M 14.34375 -9.3125 L 14.484375 -8.515625 C 14.347656 -8.578125 14.15625 -8.671875 13.90625 -8.796875 C 13.664062 -8.921875 13.203125 -9.101562 12.515625 -9.34375 C 11.828125 -9.59375 11.175781 -9.769531 10.5625 -9.875 C 9.957031 -9.976562 9.300781 -9.984375 8.59375 -9.890625 C 7.882812 -9.804688 7.304688 -9.5625 6.859375 -9.15625 C 7.097656 -8.769531 7.445312 -8.242188 7.90625 -7.578125 C 8.375 -6.910156 8.75 -6.367188 9.03125 -5.953125 C 9.3125 -5.535156 9.648438 -5.019531 10.046875 -4.40625 C 10.441406 -3.789062 10.738281 -3.273438 10.9375 -2.859375 C 11.144531 -2.441406 11.351562 -1.96875 11.5625 -1.4375 C 11.78125 -0.90625 11.894531 -0.441406 11.90625 -0.046875 C 11.914062 0.347656 11.878906 0.742188 11.796875 1.140625 C 11.722656 1.546875 11.546875 1.914062 11.265625 2.25 C 10.984375 2.59375 10.613281 2.898438 10.15625 3.171875 C 8.5625 3.941406 7.210938 4.203125 6.109375 3.953125 L 6.078125 3.953125 C 6.003906 3.953125 5.957031 3.941406 5.9375 3.921875 C 5.644531 3.867188 5.363281 3.789062 5.09375 3.6875 C 4.78125 3.59375 4.390625 3.398438 3.921875 3.109375 C 3.398438 2.765625 2.972656 2.378906 2.640625 1.953125 C 2.203125 1.410156 1.882812 0.804688 1.6875 0.140625 C 1.6875 0.0859375 1.679688 0.0351562 1.671875 -0.015625 C 1.660156 -0.0664062 1.65625 -0.109375 1.65625 -0.140625 L 1.625 -0.203125 L 1.625 -0.265625 L 1.59375 -0.40625 L 1.546875 -0.5 L 1.546875 -0.640625 C 1.523438 -0.710938 1.515625 -0.800781 1.515625 -0.90625 C 1.453125 -1.25 1.421875 -1.609375 1.421875 -1.984375 C 1.421875 -2.796875 1.507812 -3.550781 1.6875 -4.25 C 1.882812 -4.945312 2.175781 -5.65625 2.5625 -6.375 C 2.5625 -6.40625 2.570312 -6.421875 2.59375 -6.421875 L 2.640625 -6.484375 C 2.273438 -6.972656 1.898438 -7.515625 1.515625 -8.109375 C 0.890625 -9.097656 0.457031 -10.015625 0.21875 -10.859375 C -0.0195312 -11.703125 -0.078125 -12.40625 0.046875 -12.96875 C 0.171875 -13.53125 0.382812 -14.035156 0.6875 -14.484375 C 0.988281 -14.929688 1.351562 -15.285156 1.78125 -15.546875 C 2.21875 -15.804688 2.617188 -16.023438 2.984375 -16.203125 C 3.359375 -16.390625 3.679688 -16.503906 3.953125 -16.546875 L 4.359375 -16.640625 C 3.773438 -15.222656 4.367188 -13.085938 6.140625 -10.234375 C 6.835938 -10.617188 7.597656 -10.847656 8.421875 -10.921875 C 9.242188 -11.003906 9.988281 -10.960938 10.65625 -10.796875 C 11.320312 -10.640625 11.941406 -10.445312 12.515625 -10.21875 C 13.085938 -10 13.53125 -9.789062 13.84375 -9.59375 Z M 3.953125 0.875 C 4.148438 1.101562 4.453125 1.351562 4.859375 1.625 L 5.0625 1.71875 C 5.832031 1.988281 6.304688 1.832031 6.484375 1.25 C 6.660156 0.644531 6.628906 -0.0078125 6.390625 -0.71875 C 6.160156 -1.4375 5.863281 -2.0625 5.5 -2.59375 C 5.144531 -3.132812 4.59375 -3.898438 3.84375 -4.890625 C 3.738281 -5.023438 3.660156 -5.128906 3.609375 -5.203125 C 3.429688 -4.816406 3.285156 -4.378906 3.171875 -3.890625 C 3.035156 -3.234375 2.976562 -2.613281 3 -2.03125 C 3.019531 -1.84375 3.054688 -1.546875 3.109375 -1.140625 C 3.128906 -1.078125 3.148438 -0.988281 3.171875 -0.875 C 3.191406 -0.757812 3.210938 -0.65625 3.234375 -0.5625 C 3.265625 -0.476562 3.289062 -0.40625 3.3125 -0.34375 C 3.425781 0.0820312 3.640625 0.488281 3.953125 0.875 Z M 3.953125 0.875 "/></g></g></g><g fill="#000000" fill-opacity="1"><g transform="translate(128.490489, 74.592772)"><g><path d="M 13.640625 -7.421875 C 13.460938 -6.890625 12.953125 -6.414062 12.109375 -6 C 11.265625 -5.582031 10.515625 -5.359375 9.859375 -5.328125 C 8.734375 -5.304688 7.914062 -5.914062 7.40625 -7.15625 C 6.90625 -8.394531 6.6875 -9.925781 6.75 -11.75 C 6.820312 -13.570312 6.9375 -15.503906 7.09375 -17.546875 C 7.25 -19.597656 7.429688 -21.414062 7.640625 -23 C 7.859375 -24.59375 7.851562 -25.773438 7.625 -26.546875 C 7.71875 -26.566406 7.84375 -26.585938 8 -26.609375 C 8.15625 -26.628906 8.453125 -26.648438 8.890625 -26.671875 C 9.335938 -26.691406 9.753906 -26.675781 10.140625 -26.625 C 10.535156 -26.570312 10.96875 -26.441406 11.4375 -26.234375 C 11.914062 -26.035156 12.316406 -25.757812 12.640625 -25.40625 C 12.972656 -25.0625 13.234375 -24.570312 13.421875 -23.9375 C 13.609375 -23.3125 13.671875 -22.570312 13.609375 -21.71875 C 13.566406 -21.0625 13.492188 -20.164062 13.390625 -19.03125 C 13.285156 -17.894531 13.203125 -16.976562 13.140625 -16.28125 C 13.085938 -15.582031 13.035156 -14.75 12.984375 -13.78125 C 12.929688 -12.8125 12.90625 -12.019531 12.90625 -11.40625 C 12.90625 -10.800781 12.921875 -10.191406 12.953125 -9.578125 C 12.984375 -8.972656 13.054688 -8.488281 13.171875 -8.125 C 13.285156 -7.769531 13.441406 -7.535156 13.640625 -7.421875 Z M 7.46875 -2.390625 C 7.550781 -2.441406 7.664062 -2.5 7.8125 -2.5625 C 7.957031 -2.632812 8.242188 -2.722656 8.671875 -2.828125 C 9.097656 -2.941406 9.5 -3.007812 9.875 -3.03125 C 10.25 -3.0625 10.65625 -3.003906 11.09375 -2.859375 C 11.53125 -2.710938 11.890625 -2.457031 12.171875 -2.09375 C 12.453125 -1.726562 12.664062 -1.160156 12.8125 -0.390625 C 12.957031 0.367188 12.972656 1.285156 12.859375 2.359375 C 11.890625 2.566406 11.066406 2.679688 10.390625 2.703125 C 9.722656 2.722656 9.207031 2.660156 8.84375 2.515625 C 8.488281 2.367188 8.21875 2.175781 8.03125 1.9375 C 7.851562 1.707031 7.738281 1.40625 7.6875 1.03125 C 7.644531 0.65625 7.628906 0.296875 7.640625 -0.046875 C 7.660156 -0.398438 7.65625 -0.800781 7.625 -1.25 C 7.601562 -1.695312 7.550781 -2.078125 7.46875 -2.390625 Z M 7.46875 -2.390625 "/></g></g></g><g clip-path="url(#dab55211f4)"><g fill="#000000" fill-opacity="1"><g transform="translate(149.094862, 74.592772)"><g/></g></g></g></g></g><g transform="matrix(1, 0, 0, 1, 95, 82)"><g clip-path="url(#8372dc1d9e)"><g fill="#000000" fill-opacity="1"><g transform="translate(0.908171, 8.773618)"><g><path d="M 1.546875 -0.5625 C 1.546875 -0.382812 1.488281 -0.234375 1.375 -0.109375 C 1.257812 0.0234375 1.113281 0.09375 0.9375 0.09375 C 0.625 0.09375 0.46875 -0.0703125 0.46875 -0.40625 C 0.46875 -0.59375 0.523438 -0.75 0.640625 -0.875 C 0.753906 -1.007812 0.90625 -1.078125 1.09375 -1.078125 C 1.394531 -1.078125 1.546875 -0.90625 1.546875 -0.5625 Z M 1.546875 -0.5625 "/></g></g></g></g></g></svg>