<svg xmlns="http://www.w3.org/2000/svg" xmlns:xlink="http://www.w3.org/1999/xlink" width="168" zoomAndPan="magnify" viewBox="0 0 126 47.25" height="63" preserveAspectRatio="xMidYMid meet" version="1.0"><defs><g/><clipPath id="795a371274"><path d="M 0.445312 14 L 20 14 L 20 27 L 0.445312 27 Z M 0.445312 14 " clip-rule="nonzero"/></clipPath><clipPath id="cea9652f91"><rect x="0" width="73" y="0" height="37"/></clipPath><clipPath id="68ee74ee42"><rect x="0" width="4" y="0" height="13"/></clipPath></defs><g transform="matrix(1, 0, 0, 1, 27, 5)"><g clip-path="url(#cea9652f91)"><g clip-path="url(#795a371274)"><g fill="#000000" fill-opacity="1"><g transform="translate(0.783558, 26.307675)"><g><path d="M 18.703125 -9.9375 C 18.703125 -9 18.171875 -7.644531 17.109375 -5.875 C 16.046875 -4.113281 15.515625 -2.945312 15.515625 -2.375 C 15.515625 -1.96875 15.691406 -1.765625 16.046875 -1.765625 C 16.210938 -1.765625 16.519531 -1.929688 16.96875 -2.265625 C 17.425781 -2.597656 17.726562 -2.765625 17.875 -2.765625 C 18.175781 -2.765625 18.328125 -2.625 18.328125 -2.34375 C 18.328125 -1.914062 17.859375 -1.410156 16.921875 -0.828125 C 16.035156 -0.273438 15.359375 0 14.890625 0 C 14.304688 0 13.882812 -0.0859375 13.625 -0.265625 C 13.3125 -0.472656 13.15625 -0.867188 13.15625 -1.453125 C 13.15625 -1.847656 13.707031 -3.015625 14.8125 -4.953125 C 15.925781 -6.898438 16.484375 -8.179688 16.484375 -8.796875 C 16.484375 -9.179688 16.238281 -9.375 15.75 -9.375 C 15.425781 -9.375 14.71875 -8.765625 13.625 -7.546875 C 12.726562 -6.535156 12.082031 -5.734375 11.6875 -5.140625 C 11.09375 -4.148438 10.507812 -3.160156 9.9375 -2.171875 C 9.039062 -0.828125 8.238281 -0.15625 7.53125 -0.15625 C 7.019531 -0.15625 6.765625 -0.46875 6.765625 -1.09375 C 6.765625 -1.925781 7.222656 -3.222656 8.140625 -4.984375 C 9.066406 -6.742188 9.53125 -8.054688 9.53125 -8.921875 C 9.53125 -9.441406 9.351562 -9.703125 9 -9.703125 C 8.1875 -9.703125 6.960938 -8.441406 5.328125 -5.921875 C 4.304688 -4.242188 3.289062 -2.566406 2.28125 -0.890625 C 1.882812 -0.296875 1.421875 0 0.890625 0 C 0.378906 0 0.125 -0.3125 0.125 -0.9375 C 0.125 -1.25 0.34375 -1.921875 0.78125 -2.953125 L 2.109375 -6 C 2.546875 -7.019531 2.765625 -7.882812 2.765625 -8.59375 C 2.765625 -9.375 2.523438 -9.757812 2.046875 -9.75 C 1.773438 -9.4375 1.328125 -9.015625 0.703125 -8.484375 C 0.523438 -8.441406 0.382812 -8.421875 0.28125 -8.421875 C 0.0078125 -8.421875 -0.125 -8.515625 -0.125 -8.703125 C -0.125 -9.160156 0.414062 -9.785156 1.5 -10.578125 C 2.539062 -11.328125 3.304688 -11.703125 3.796875 -11.703125 C 4.390625 -11.703125 4.6875 -11.445312 4.6875 -10.9375 C 4.6875 -10.507812 4.546875 -9.890625 4.265625 -9.078125 C 3.992188 -8.273438 3.859375 -7.660156 3.859375 -7.234375 C 3.859375 -6.804688 3.992188 -6.601562 4.265625 -6.625 C 4.929688 -7.3125 5.9375 -8.328125 7.28125 -9.671875 C 8.664062 -11.023438 9.867188 -11.703125 10.890625 -11.703125 C 11.097656 -11.703125 11.300781 -11.632812 11.5 -11.5 C 11.695312 -11.375 11.796875 -11.21875 11.796875 -11.03125 C 11.796875 -10.6875 11.59375 -10.097656 11.1875 -9.265625 C 10.789062 -8.429688 10.59375 -7.75 10.59375 -7.21875 C 10.59375 -7.070312 10.644531 -6.925781 10.75 -6.78125 C 10.863281 -6.632812 10.988281 -6.5625 11.125 -6.5625 C 11.550781 -6.5625 11.957031 -6.820312 12.34375 -7.34375 C 12.445312 -7.5 12.613281 -7.742188 12.84375 -8.078125 C 13.363281 -8.804688 14.054688 -9.546875 14.921875 -10.296875 C 15.984375 -11.234375 16.828125 -11.703125 17.453125 -11.703125 C 17.867188 -11.703125 18.191406 -11.5 18.421875 -11.09375 C 18.609375 -10.769531 18.703125 -10.382812 18.703125 -9.9375 Z M 18.703125 -9.9375 "/></g></g></g></g><g fill="#000000" fill-opacity="1"><g transform="translate(21.005513, 26.307675)"><g><path d="M 11.8125 -3.953125 C 11.8125 -3.367188 11.328125 -2.570312 10.359375 -1.5625 C 9.398438 -0.5625 8.628906 -0.0625 8.046875 -0.0625 C 7.128906 -0.0625 6.671875 -0.5625 6.671875 -1.5625 C 6.671875 -1.769531 6.707031 -2.078125 6.78125 -2.484375 C 6.863281 -2.890625 6.90625 -3.195312 6.90625 -3.40625 C 6.90625 -3.65625 6.832031 -3.78125 6.6875 -3.78125 C 6.613281 -3.78125 5.941406 -3.148438 4.671875 -1.890625 C 3.410156 -0.628906 2.472656 0 1.859375 0 C 1.347656 0 0.9375 -0.203125 0.625 -0.609375 C 0.332031 -0.984375 0.1875 -1.429688 0.1875 -1.953125 C 0.1875 -3.617188 0.976562 -5.503906 2.5625 -7.609375 C 4.257812 -9.867188 6.050781 -11.179688 7.9375 -11.546875 C 8.320312 -11.609375 8.894531 -11.71875 9.65625 -11.875 C 10.3125 -12.320312 10.675781 -12.546875 10.75 -12.546875 C 11.007812 -12.546875 11.140625 -12.382812 11.140625 -12.0625 C 11.140625 -11.90625 11.09375 -11.707031 11 -11.46875 L 9.375 -7.296875 C 8.675781 -5.515625 8.328125 -4.210938 8.328125 -3.390625 C 8.328125 -2.679688 8.625 -2.328125 9.21875 -2.328125 C 9.46875 -2.328125 9.894531 -2.648438 10.5 -3.296875 C 11.101562 -3.941406 11.460938 -4.265625 11.578125 -4.265625 C 11.734375 -4.265625 11.8125 -4.160156 11.8125 -3.953125 Z M 8.4375 -9.21875 C 8.4375 -9.5625 8.144531 -9.734375 7.5625 -9.734375 L 7.390625 -9.734375 C 6.328125 -9.734375 5.144531 -8.945312 3.84375 -7.375 C 2.570312 -5.84375 1.9375 -4.535156 1.9375 -3.453125 C 1.9375 -2.710938 2.207031 -2.34375 2.75 -2.34375 C 3.695312 -2.34375 4.890625 -3.253906 6.328125 -5.078125 C 7.734375 -6.847656 8.4375 -8.226562 8.4375 -9.21875 Z M 8.4375 -9.21875 "/></g></g></g><g fill="#000000" fill-opacity="1"><g transform="translate(34.664157, 26.307675)"><g><path d="M 10.140625 -10.671875 C 10.140625 -10.222656 10.035156 -9.773438 9.828125 -9.328125 C 9.566406 -8.785156 9.238281 -8.515625 8.84375 -8.515625 C 8.632812 -8.515625 8.40625 -8.703125 8.15625 -9.078125 C 7.914062 -9.460938 7.703125 -9.65625 7.515625 -9.65625 C 6.941406 -9.65625 6.023438 -8.597656 4.765625 -6.484375 C 4.316406 -5.722656 3.972656 -4.984375 3.734375 -4.265625 L 2.46875 -0.453125 C 2.375 -0.148438 2.019531 0 1.40625 0 C 1.132812 0 0.90625 -0.125 0.71875 -0.375 C 0.53125 -0.632812 0.4375 -0.90625 0.4375 -1.1875 C 0.4375 -1.519531 0.585938 -2.109375 0.890625 -2.953125 C 1.265625 -3.941406 1.640625 -4.929688 2.015625 -5.921875 C 2.503906 -7.304688 2.75 -8.289062 2.75 -8.875 C 2.75 -9.644531 2.585938 -10.03125 2.265625 -10.03125 C 2.179688 -10.03125 2.054688 -9.992188 1.890625 -9.921875 C 1.734375 -9.859375 1.609375 -9.828125 1.515625 -9.828125 C 1.304688 -9.828125 1.203125 -9.9375 1.203125 -10.15625 C 1.203125 -10.539062 1.425781 -10.898438 1.875 -11.234375 C 2.300781 -11.546875 2.707031 -11.703125 3.09375 -11.703125 C 3.84375 -11.703125 4.21875 -11.367188 4.21875 -10.703125 C 4.21875 -10.460938 4.15625 -10.109375 4.03125 -9.640625 C 3.914062 -9.179688 3.859375 -8.832031 3.859375 -8.59375 C 3.859375 -8.144531 3.988281 -7.921875 4.25 -7.921875 C 4.4375 -7.921875 4.773438 -8.25 5.265625 -8.90625 C 5.910156 -9.769531 6.425781 -10.375 6.8125 -10.71875 C 7.519531 -11.375 8.238281 -11.703125 8.96875 -11.703125 C 9.75 -11.703125 10.140625 -11.359375 10.140625 -10.671875 Z M 10.140625 -10.671875 "/></g></g></g><g fill="#000000" fill-opacity="1"><g transform="translate(45.713783, 26.307675)"><g><path d="M 9.4375 -10.265625 C 9.4375 -9.566406 9.066406 -9.21875 8.328125 -9.21875 C 8.160156 -9.21875 7.875 -9.359375 7.46875 -9.640625 C 7.070312 -9.921875 6.753906 -10.0625 6.515625 -10.0625 C 5.054688 -10.0625 3.84375 -9.351562 2.875 -7.9375 C 2.019531 -6.675781 1.59375 -5.28125 1.59375 -3.75 C 1.59375 -3.175781 1.753906 -2.71875 2.078125 -2.375 C 2.410156 -2.03125 2.859375 -1.859375 3.421875 -1.859375 C 3.847656 -1.859375 4.429688 -2.03125 5.171875 -2.375 C 5.910156 -2.726562 6.367188 -2.90625 6.546875 -2.90625 C 7.035156 -2.90625 7.28125 -2.679688 7.28125 -2.234375 C 7.28125 -1.617188 6.753906 -1.078125 5.703125 -0.609375 C 4.816406 -0.203125 4.019531 0 3.3125 0 C 2.164062 0 1.300781 -0.4375 0.71875 -1.3125 C 0.226562 -2.070312 -0.015625 -3.050781 -0.015625 -4.25 C -0.015625 -5.914062 0.441406 -7.421875 1.359375 -8.765625 C 2.304688 -10.171875 3.566406 -11.09375 5.140625 -11.53125 C 5.515625 -11.644531 5.898438 -11.703125 6.296875 -11.703125 C 6.929688 -11.703125 7.5625 -11.601562 8.1875 -11.40625 C 9.019531 -11.132812 9.4375 -10.753906 9.4375 -10.265625 Z M 9.4375 -10.265625 "/></g></g></g><g fill="#000000" fill-opacity="1"><g transform="translate(56.437282, 26.307675)"><g><path d="M 12.453125 -8.328125 C 12.453125 -6.503906 11.84375 -4.71875 10.625 -2.96875 C 9.289062 -1.050781 7.757812 -0.09375 6.03125 -0.09375 C 5.507812 -0.09375 5.25 -0.445312 5.25 -1.15625 C 5.25 -2.0625 6.1875 -2.816406 8.0625 -3.421875 C 8.207031 -3.460938 8.425781 -3.550781 8.71875 -3.6875 C 8.925781 -3.8125 9.164062 -4.023438 9.4375 -4.328125 C 10.28125 -5.296875 10.703125 -6.40625 10.703125 -7.65625 C 10.703125 -9.289062 10.175781 -10.109375 9.125 -10.109375 C 8.613281 -10.109375 7.898438 -9.804688 6.984375 -9.203125 C 6.242188 -8.703125 5.613281 -8.1875 5.09375 -7.65625 C 3.925781 -6.46875 3.210938 -5.0625 2.953125 -3.4375 C 2.867188 -2.75 2.789062 -2.0625 2.71875 -1.375 C 2.519531 -0.457031 2.125 0 1.53125 0 C 0.84375 0 0.5 -0.554688 0.5 -1.671875 C 0.5 -2.753906 0.835938 -4.445312 1.515625 -6.75 C 2.523438 -10.15625 3.425781 -13.410156 4.21875 -16.515625 C 4.78125 -18.703125 5.0625 -20.09375 5.0625 -20.6875 C 5.0625 -21.101562 4.832031 -21.488281 4.375 -21.84375 C 3.925781 -22.195312 3.703125 -22.460938 3.703125 -22.640625 C 3.703125 -22.972656 3.984375 -23.238281 4.546875 -23.4375 C 4.984375 -23.59375 5.410156 -23.671875 5.828125 -23.671875 C 7.109375 -23.671875 7.75 -23.144531 7.75 -22.09375 C 7.75 -21.757812 7.660156 -21.363281 7.484375 -20.90625 C 7.328125 -20.53125 7.171875 -20.148438 7.015625 -19.765625 C 6.773438 -19.117188 6.285156 -17.398438 5.546875 -14.609375 C 4.765625 -11.703125 4.375 -10.070312 4.375 -9.71875 C 4.375 -9.40625 4.550781 -9.25 4.90625 -9.25 C 5.09375 -9.25 5.800781 -9.65625 7.03125 -10.46875 C 8.257812 -11.289062 9.175781 -11.703125 9.78125 -11.703125 C 11.5625 -11.703125 12.453125 -10.578125 12.453125 -8.328125 Z M 12.453125 -8.328125 "/></g></g></g></g></g><g transform="matrix(1, 0, 0, 1, 65, 11)"><g clip-path="url(#68ee74ee42)"><g fill="#000000" fill-opacity="1"><g transform="translate(0.78351, 9.438094)"><g><path d="M 1.53125 -0.5625 C 1.53125 -0.382812 1.476562 -0.234375 1.375 -0.109375 C 1.257812 0.0234375 1.113281 0.09375 0.9375 0.09375 C 0.625 0.09375 0.46875 -0.0664062 0.46875 -0.390625 C 0.46875 -0.578125 0.519531 -0.734375 0.625 -0.859375 C 0.738281 -0.992188 0.890625 -1.0625 1.078125 -1.0625 C 1.378906 -1.0625 1.53125 -0.894531 1.53125 -0.5625 Z M 1.53125 -0.5625 "/></g></g></g></g></g></svg>