<svg xmlns="http://www.w3.org/2000/svg" xmlns:xlink="http://www.w3.org/1999/xlink" width="149" zoomAndPan="magnify" viewBox="0 0 111.75 101.999999" height="136" preserveAspectRatio="xMidYMid meet" version="1.0"><defs><g/><clipPath id="73769bf040"><rect x="0" width="35" y="0" height="65"/></clipPath><clipPath id="8ba78d6c35"><path d="M 0.0195312 7 L 2 7 L 2 9 L 0.0195312 9 Z M 0.0195312 7 " clip-rule="nonzero"/></clipPath><clipPath id="b5b26a9544"><rect x="0" width="3" y="0" height="13"/></clipPath></defs><g transform="matrix(1, 0, 0, 1, 40, 16)"><g clip-path="url(#73769bf040)"><g fill="#cafc05" fill-opacity="1"><g transform="translate(5.418996, 56.938764)"><g><path d="M 26.609375 -35.671875 C 26.765625 -35.003906 26.941406 -34.210938 27.140625 -33.296875 C 27.335938 -32.378906 27.507812 -31.523438 27.65625 -30.734375 C 27.8125 -29.941406 27.890625 -29.34375 27.890625 -28.9375 C 27.890625 -28.488281 27.6875 -28.023438 27.28125 -27.546875 C 26.46875 -26.597656 25.359375 -25.179688 23.953125 -23.296875 C 22.554688 -21.421875 21.003906 -19.238281 19.296875 -16.75 C 17.585938 -14.269531 15.875 -11.640625 14.15625 -8.859375 C 12.445312 -6.078125 10.875 -3.304688 9.4375 -0.546875 C 9.4375 -0.546875 9.351562 -0.453125 9.1875 -0.265625 C 9.03125 -0.0859375 8.800781 0 8.5 0 C 8.238281 0 7.984375 -0.0703125 7.734375 -0.21875 C 6.878906 -0.738281 5.910156 -1.445312 4.828125 -2.34375 C 3.742188 -3.25 2.890625 -4.125 2.265625 -4.96875 C 2.191406 -5.113281 2.117188 -5.269531 2.046875 -5.4375 C 1.972656 -5.601562 1.9375 -5.78125 1.9375 -5.96875 C 1.9375 -6.21875 2.007812 -6.492188 2.15625 -6.796875 C 3.070312 -8.671875 4.238281 -10.796875 5.65625 -13.171875 C 7.070312 -15.546875 8.585938 -17.957031 10.203125 -20.40625 C 11.828125 -22.851562 13.359375 -25.085938 14.796875 -27.109375 C 14.796875 -27.109375 14.832031 -27.160156 14.90625 -27.265625 C 14.976562 -27.378906 15.015625 -27.472656 15.015625 -27.546875 C 15.015625 -27.773438 14.8125 -27.890625 14.40625 -27.890625 C 12.820312 -27.816406 11.332031 -27.75 9.9375 -27.6875 C 8.539062 -27.632812 7.457031 -27.585938 6.6875 -27.546875 C 5.976562 -27.546875 5.550781 -27.878906 5.40625 -28.546875 C 5.300781 -29.460938 5.21875 -30.519531 5.15625 -31.71875 C 5.101562 -32.914062 5.078125 -33.921875 5.078125 -34.734375 C 5.078125 -35.023438 5.175781 -35.300781 5.375 -35.5625 C 5.582031 -35.820312 5.816406 -35.96875 6.078125 -36 C 6.960938 -36.1875 8.269531 -36.351562 10 -36.5 C 11.726562 -36.644531 13.601562 -36.769531 15.625 -36.875 C 17.644531 -36.988281 19.503906 -37.046875 21.203125 -37.046875 C 22.046875 -37.046875 22.851562 -37.023438 23.625 -36.984375 C 24.40625 -36.953125 24.976562 -36.898438 25.34375 -36.828125 C 25.632812 -36.796875 25.898438 -36.675781 26.140625 -36.46875 C 26.378906 -36.269531 26.535156 -36.003906 26.609375 -35.671875 Z M 26.609375 -35.671875 "/></g></g></g><g fill="#e474ba" fill-opacity="1"><g transform="translate(0.537854, 52.057622)"><g><path d="M 26.609375 -35.671875 C 26.765625 -35.003906 26.941406 -34.210938 27.140625 -33.296875 C 27.335938 -32.378906 27.507812 -31.523438 27.65625 -30.734375 C 27.8125 -29.941406 27.890625 -29.34375 27.890625 -28.9375 C 27.890625 -28.488281 27.6875 -28.023438 27.28125 -27.546875 C 26.46875 -26.597656 25.359375 -25.179688 23.953125 -23.296875 C 22.554688 -21.421875 21.003906 -19.238281 19.296875 -16.75 C 17.585938 -14.269531 15.875 -11.640625 14.15625 -8.859375 C 12.445312 -6.078125 10.875 -3.304688 9.4375 -0.546875 C 9.4375 -0.546875 9.351562 -0.453125 9.1875 -0.265625 C 9.03125 -0.0859375 8.800781 0 8.5 0 C 8.238281 0 7.984375 -0.0703125 7.734375 -0.21875 C 6.878906 -0.738281 5.910156 -1.445312 4.828125 -2.34375 C 3.742188 -3.25 2.890625 -4.125 2.265625 -4.96875 C 2.191406 -5.113281 2.117188 -5.269531 2.046875 -5.4375 C 1.972656 -5.601562 1.9375 -5.78125 1.9375 -5.96875 C 1.9375 -6.21875 2.007812 -6.492188 2.15625 -6.796875 C 3.070312 -8.671875 4.238281 -10.796875 5.65625 -13.171875 C 7.070312 -15.546875 8.585938 -17.957031 10.203125 -20.40625 C 11.828125 -22.851562 13.359375 -25.085938 14.796875 -27.109375 C 14.796875 -27.109375 14.832031 -27.160156 14.90625 -27.265625 C 14.976562 -27.378906 15.015625 -27.472656 15.015625 -27.546875 C 15.015625 -27.773438 14.8125 -27.890625 14.40625 -27.890625 C 12.820312 -27.816406 11.332031 -27.75 9.9375 -27.6875 C 8.539062 -27.632812 7.457031 -27.585938 6.6875 -27.546875 C 5.976562 -27.546875 5.550781 -27.878906 5.40625 -28.546875 C 5.300781 -29.460938 5.21875 -30.519531 5.15625 -31.71875 C 5.101562 -32.914062 5.078125 -33.921875 5.078125 -34.734375 C 5.078125 -35.023438 5.175781 -35.300781 5.375 -35.5625 C 5.582031 -35.820312 5.816406 -35.96875 6.078125 -36 C 6.960938 -36.1875 8.269531 -36.351562 10 -36.5 C 11.726562 -36.644531 13.601562 -36.769531 15.625 -36.875 C 17.644531 -36.988281 19.503906 -37.046875 21.203125 -37.046875 C 22.046875 -37.046875 22.851562 -37.023438 23.625 -36.984375 C 24.40625 -36.953125 24.976562 -36.898438 25.34375 -36.828125 C 25.632812 -36.796875 25.898438 -36.675781 26.140625 -36.46875 C 26.378906 -36.269531 26.535156 -36.003906 26.609375 -35.671875 Z M 26.609375 -35.671875 "/></g></g></g></g></g><g transform="matrix(1, 0, 0, 1, 62, 40)"><g clip-path="url(#b5b26a9544)"><g clip-path="url(#8ba78d6c35)"><g fill="#000000" fill-opacity="1"><g transform="translate(0.0933592, 8.804763)"><g><path d="M 1.546875 -0.5625 C 1.546875 -0.382812 1.492188 -0.234375 1.390625 -0.109375 C 1.273438 0.0234375 1.125 0.09375 0.9375 0.09375 C 0.625 0.09375 0.46875 -0.0703125 0.46875 -0.40625 C 0.46875 -0.59375 0.523438 -0.75 0.640625 -0.875 C 0.753906 -1.007812 0.90625 -1.078125 1.09375 -1.078125 C 1.394531 -1.078125 1.546875 -0.90625 1.546875 -0.5625 Z M 1.546875 -0.5625 "/></g></g></g></g></g></g></svg>