<svg xmlns="http://www.w3.org/2000/svg" xmlns:xlink="http://www.w3.org/1999/xlink" width="431" zoomAndPan="magnify" viewBox="0 0 323.25 181.5" height="242" preserveAspectRatio="xMidYMid meet" version="1.0"><defs><g/><clipPath id="aa4a593891"><path d="M 0.0820312 91 L 1 91 L 1 92 L 0.0820312 92 Z M 0.0820312 91 " clip-rule="nonzero"/></clipPath><clipPath id="cb3aa19a76"><rect x="0" width="101" y="0" height="144"/></clipPath><clipPath id="2fc039bb9d"><rect x="0" width="4" y="0" height="13"/></clipPath></defs><g transform="matrix(1, 0, 0, 1, 112, 16)"><g clip-path="url(#cb3aa19a76)"><g fill="#cafc05" fill-opacity="1"><g transform="translate(6.084256, 56.787326)"><g><path d="M 23.015625 -36.640625 C 23.203125 -37.160156 23.550781 -37.421875 24.0625 -37.421875 C 24.394531 -37.421875 25.019531 -37.226562 25.9375 -36.84375 C 26.851562 -36.457031 27.84375 -35.988281 28.90625 -35.4375 C 29.976562 -34.882812 30.945312 -34.347656 31.8125 -33.828125 C 32.675781 -33.316406 33.238281 -32.929688 33.5 -32.671875 C 33.789062 -32.335938 33.9375 -32.023438 33.9375 -31.734375 C 33.9375 -31.617188 33.925781 -31.515625 33.90625 -31.421875 C 33.894531 -31.335938 33.867188 -31.238281 33.828125 -31.125 C 32.867188 -28.4375 31.679688 -25.617188 30.265625 -22.671875 C 28.847656 -19.734375 27.347656 -16.859375 25.765625 -14.046875 C 24.191406 -11.234375 22.640625 -8.65625 21.109375 -6.3125 C 19.578125 -3.976562 18.207031 -2.09375 17 -0.65625 C 16.851562 -0.507812 16.6875 -0.375 16.5 -0.25 C 16.3125 -0.125 16.019531 -0.0625 15.625 -0.0625 C 15.21875 -0.0625 14.570312 -0.234375 13.6875 -0.578125 C 12.800781 -0.929688 11.859375 -1.351562 10.859375 -1.84375 C 9.867188 -2.34375 8.976562 -2.8125 8.1875 -3.25 C 7.40625 -3.695312 6.882812 -4.007812 6.625 -4.1875 C 6.332031 -4.414062 6.1875 -4.675781 6.1875 -4.96875 C 6.1875 -5.300781 6.296875 -5.578125 6.515625 -5.796875 C 7.066406 -6.421875 7.78125 -7.285156 8.65625 -8.390625 C 9.539062 -9.492188 10.445312 -10.707031 11.375 -12.03125 C 11.445312 -12.101562 11.5 -12.1875 11.53125 -12.28125 C 11.570312 -12.375 11.59375 -12.492188 11.59375 -12.640625 C 11.59375 -12.898438 11.320312 -13.144531 10.78125 -13.375 C 10.25 -13.613281 9.894531 -13.773438 9.71875 -13.859375 C 9.269531 -14.035156 8.941406 -14.257812 8.734375 -14.53125 C 8.535156 -14.8125 8.398438 -15.082031 8.328125 -15.34375 C 8.003906 -16.300781 7.675781 -17.515625 7.34375 -18.984375 C 7.007812 -20.453125 6.703125 -22.015625 6.421875 -23.671875 C 6.148438 -25.328125 5.910156 -26.9375 5.703125 -28.5 C 5.503906 -30.0625 5.347656 -31.429688 5.234375 -32.609375 C 5.128906 -33.785156 5.078125 -34.613281 5.078125 -35.09375 C 5.078125 -35.351562 5.164062 -35.59375 5.34375 -35.8125 C 5.53125 -36.03125 5.828125 -36.179688 6.234375 -36.265625 C 7.046875 -36.441406 7.984375 -36.601562 9.046875 -36.75 C 10.117188 -36.894531 11.195312 -37.023438 12.28125 -37.140625 C 13.363281 -37.253906 14.289062 -37.328125 15.0625 -37.359375 C 15.757812 -37.359375 16.109375 -37.007812 16.109375 -36.3125 C 16.109375 -35.175781 16.21875 -33.425781 16.4375 -31.0625 C 16.664062 -28.707031 16.90625 -26.117188 17.15625 -23.296875 C 17.238281 -22.960938 17.316406 -22.796875 17.390625 -22.796875 C 17.492188 -22.796875 17.601562 -22.921875 17.71875 -23.171875 C 18.675781 -25.347656 19.578125 -27.566406 20.421875 -29.828125 C 21.265625 -32.085938 22.128906 -34.359375 23.015625 -36.640625 Z M 23.015625 -36.640625 "/></g></g></g><g fill="#cafc05" fill-opacity="1"><g transform="translate(35.99971, 56.787326)"><g><path d="M 19.09375 -28.03125 C 18.394531 -28.03125 17.703125 -27.597656 17.015625 -26.734375 C 16.335938 -25.867188 15.710938 -24.742188 15.140625 -23.359375 C 14.578125 -21.984375 14.117188 -20.515625 13.765625 -18.953125 C 13.421875 -17.390625 13.25 -15.890625 13.25 -14.453125 C 13.25 -12.546875 13.503906 -11.28125 14.015625 -10.65625 C 14.535156 -10.03125 15.070312 -9.71875 15.625 -9.71875 C 16.351562 -9.71875 17.054688 -10.128906 17.734375 -10.953125 C 18.421875 -11.785156 19.039062 -12.898438 19.59375 -14.296875 C 20.144531 -15.691406 20.578125 -17.234375 20.890625 -18.921875 C 21.203125 -20.617188 21.359375 -22.3125 21.359375 -24 C 21.359375 -24.550781 21.289062 -25.140625 21.15625 -25.765625 C 21.03125 -26.390625 20.800781 -26.921875 20.46875 -27.359375 C 20.144531 -27.804688 19.6875 -28.03125 19.09375 -28.03125 Z M 17.28125 0.0625 C 15.175781 0.0625 12.925781 -0.347656 10.53125 -1.171875 C 8.144531 -2.003906 6.03125 -3.453125 4.1875 -5.515625 C 3.164062 -6.691406 2.457031 -8.171875 2.0625 -9.953125 C 1.675781 -11.742188 1.484375 -13.375 1.484375 -14.84375 C 1.484375 -16.3125 1.65625 -18.03125 2 -20 C 2.351562 -21.96875 2.90625 -23.972656 3.65625 -26.015625 C 4.414062 -28.054688 5.394531 -29.953125 6.59375 -31.703125 C 7.789062 -33.453125 9.21875 -34.859375 10.875 -35.921875 C 12.53125 -36.992188 14.441406 -37.53125 16.609375 -37.53125 C 17.273438 -37.53125 18.238281 -37.390625 19.5 -37.109375 C 20.769531 -36.835938 22.140625 -36.425781 23.609375 -35.875 C 25.085938 -35.320312 26.46875 -34.65625 27.75 -33.875 C 29.039062 -33.101562 30.019531 -32.222656 30.6875 -31.234375 C 31.53125 -29.984375 32.109375 -28.613281 32.421875 -27.125 C 32.734375 -25.632812 32.890625 -24.132812 32.890625 -22.625 C 32.890625 -20.96875 32.695312 -19.128906 32.3125 -17.109375 C 31.925781 -15.085938 31.347656 -13.070312 30.578125 -11.0625 C 29.804688 -9.0625 28.800781 -7.210938 27.5625 -5.515625 C 26.332031 -3.828125 24.859375 -2.472656 23.140625 -1.453125 C 21.429688 -0.441406 19.476562 0.0625 17.28125 0.0625 Z M 17.28125 0.0625 "/></g></g></g><g fill="#cafc05" fill-opacity="1"><g transform="translate(68.067744, 56.787326)"><g><path d="M 30.015625 -34.328125 C 30.609375 -34.109375 30.957031 -33.796875 31.0625 -33.390625 C 31.175781 -32.984375 31.234375 -32.523438 31.234375 -32.015625 C 31.234375 -30.503906 31.128906 -28.679688 30.921875 -26.546875 C 30.722656 -24.410156 30.394531 -22.128906 29.9375 -19.703125 C 29.476562 -17.273438 28.863281 -14.890625 28.09375 -12.546875 C 27.320312 -10.210938 26.363281 -8.085938 25.21875 -6.171875 C 24.082031 -4.265625 22.738281 -2.738281 21.1875 -1.59375 C 19.644531 -0.457031 17.863281 0.109375 15.84375 0.109375 C 14.8125 0.109375 13.585938 -0.0820312 12.171875 -0.46875 C 10.753906 -0.851562 9.375 -1.367188 8.03125 -2.015625 C 6.6875 -2.660156 5.609375 -3.347656 4.796875 -4.078125 C 3.734375 -5.078125 2.960938 -6.3125 2.484375 -7.78125 C 2.003906 -9.25 1.765625 -10.773438 1.765625 -12.359375 C 1.765625 -14.710938 1.945312 -17.09375 2.3125 -19.5 C 2.6875 -21.914062 3.15625 -24.207031 3.71875 -26.375 C 4.289062 -28.550781 4.863281 -30.46875 5.4375 -32.125 C 6.007812 -33.78125 6.492188 -34.992188 6.890625 -35.765625 C 7.078125 -36.171875 7.257812 -36.460938 7.4375 -36.640625 C 7.625 -36.828125 7.957031 -36.921875 8.4375 -36.921875 C 8.957031 -36.921875 9.75 -36.8125 10.8125 -36.59375 C 11.882812 -36.375 12.976562 -36.101562 14.09375 -35.78125 C 15.21875 -35.46875 16.148438 -35.148438 16.890625 -34.828125 C 17.398438 -34.640625 17.65625 -34.269531 17.65625 -33.71875 C 17.65625 -33.644531 17.644531 -33.570312 17.625 -33.5 C 17.613281 -33.425781 17.609375 -33.390625 17.609375 -33.390625 C 17.085938 -31.847656 16.539062 -30.09375 15.96875 -28.125 C 15.40625 -26.15625 14.882812 -24.148438 14.40625 -22.109375 C 13.925781 -20.066406 13.535156 -18.160156 13.234375 -16.390625 C 12.941406 -14.617188 12.796875 -13.203125 12.796875 -12.140625 C 12.796875 -11.398438 12.894531 -10.8125 13.09375 -10.375 C 13.300781 -9.9375 13.570312 -9.71875 13.90625 -9.71875 C 14.425781 -9.71875 14.867188 -10.019531 15.234375 -10.625 C 15.597656 -11.226562 16.019531 -12.265625 16.5 -13.734375 C 17.09375 -15.460938 17.644531 -17.394531 18.15625 -19.53125 C 18.664062 -21.664062 19.125 -23.78125 19.53125 -25.875 C 19.9375 -27.976562 20.273438 -29.882812 20.546875 -31.59375 C 20.828125 -33.300781 21.023438 -34.597656 21.140625 -35.484375 C 21.242188 -36.109375 21.570312 -36.421875 22.125 -36.421875 C 22.351562 -36.421875 22.804688 -36.347656 23.484375 -36.203125 C 24.160156 -36.054688 24.921875 -35.867188 25.765625 -35.640625 C 26.617188 -35.421875 27.429688 -35.191406 28.203125 -34.953125 C 28.972656 -34.722656 29.578125 -34.515625 30.015625 -34.328125 Z M 30.015625 -34.328125 "/></g></g></g><g fill="#cafc05" fill-opacity="1"><g transform="translate(97.15544, 56.787326)"><g/></g></g><g fill="#cafc05" fill-opacity="1"><g transform="translate(4.979345, 96.380836)"><g/></g></g><g fill="#cafc05" fill-opacity="1"><g transform="translate(12.706587, 96.380836)"><g/></g></g><g fill="#cafc05" fill-opacity="1"><g transform="translate(20.435377, 96.380836)"><g/></g></g><g fill="#cafc05" fill-opacity="1"><g transform="translate(20.435377, 96.380836)"><g><path d="M 12.03125 0.109375 C 11.59375 0.109375 11.234375 0.078125 10.953125 0.015625 C 10.679688 -0.0351562 10.378906 -0.132812 10.046875 -0.28125 C 9.492188 -0.570312 8.738281 -1.101562 7.78125 -1.875 C 6.820312 -2.644531 5.828125 -3.546875 4.796875 -4.578125 C 3.765625 -5.609375 2.828125 -6.617188 1.984375 -7.609375 C 1.648438 -8.085938 1.484375 -8.585938 1.484375 -9.109375 C 1.484375 -10.066406 1.59375 -11.378906 1.8125 -13.046875 C 2.039062 -14.722656 2.316406 -16.546875 2.640625 -18.515625 C 2.972656 -20.484375 3.34375 -22.429688 3.75 -24.359375 C 4.15625 -26.296875 4.539062 -27.984375 4.90625 -29.421875 C 4.976562 -29.597656 5.015625 -29.75 5.015625 -29.875 C 5.015625 -30.007812 5.015625 -30.113281 5.015625 -30.1875 C 5.015625 -30.78125 5.023438 -31.414062 5.046875 -32.09375 C 5.066406 -32.769531 5.078125 -33.179688 5.078125 -33.328125 C 5.078125 -33.628906 5.148438 -33.914062 5.296875 -34.1875 C 5.441406 -34.46875 5.644531 -34.679688 5.90625 -34.828125 C 7.894531 -35.671875 9.796875 -36.3125 11.609375 -36.75 C 13.429688 -37.195312 15.082031 -37.421875 16.5625 -37.421875 C 18.988281 -37.421875 21.210938 -36.882812 23.234375 -35.8125 C 25.253906 -34.75 26.988281 -33.367188 28.4375 -31.671875 C 29.894531 -29.984375 31.019531 -28.164062 31.8125 -26.21875 C 32.601562 -24.269531 33 -22.425781 33 -20.6875 C 33 -18.15625 32.457031 -15.65625 31.375 -13.1875 C 30.289062 -10.726562 28.78125 -8.492188 26.84375 -6.484375 C 24.914062 -4.484375 22.679688 -2.882812 20.140625 -1.6875 C 17.597656 -0.488281 14.894531 0.109375 12.03125 0.109375 Z M 13.40625 -11.140625 C 14.769531 -11.140625 16.09375 -11.679688 17.375 -12.765625 C 18.664062 -13.859375 19.722656 -15.296875 20.546875 -17.078125 C 21.378906 -18.859375 21.796875 -20.78125 21.796875 -22.84375 C 21.796875 -24.351562 21.375 -25.550781 20.53125 -26.4375 C 19.6875 -27.320312 18.675781 -27.765625 17.5 -27.765625 C 16.644531 -27.765625 16.144531 -27.453125 16 -26.828125 C 15.925781 -26.421875 15.769531 -25.671875 15.53125 -24.578125 C 15.289062 -23.492188 15.015625 -22.269531 14.703125 -20.90625 C 14.390625 -19.550781 14.09375 -18.21875 13.8125 -16.90625 C 13.539062 -15.601562 13.3125 -14.472656 13.125 -13.515625 C 12.945312 -12.566406 12.859375 -12 12.859375 -11.8125 C 12.859375 -11.363281 13.039062 -11.140625 13.40625 -11.140625 Z M 13.40625 -11.140625 "/></g></g></g><g fill="#cafc05" fill-opacity="1"><g transform="translate(52.613807, 96.380836)"><g><path d="M 10.65625 -0.9375 C 10.613281 -0.382812 10.300781 -0.109375 9.71875 -0.109375 C 9.414062 -0.109375 8.890625 -0.191406 8.140625 -0.359375 C 7.390625 -0.523438 6.5625 -0.726562 5.65625 -0.96875 C 4.75 -1.207031 3.910156 -1.453125 3.140625 -1.703125 C 2.367188 -1.960938 1.78125 -2.164062 1.375 -2.3125 C 0.644531 -2.644531 0.28125 -3.144531 0.28125 -3.8125 C 0.3125 -5.0625 0.425781 -6.601562 0.625 -8.4375 C 0.832031 -10.28125 1.101562 -12.285156 1.4375 -14.453125 C 1.769531 -16.628906 2.15625 -18.828125 2.59375 -21.046875 C 3.03125 -23.273438 3.476562 -25.398438 3.9375 -27.421875 C 4.40625 -29.453125 4.867188 -31.265625 5.328125 -32.859375 C 5.785156 -34.460938 6.195312 -35.6875 6.5625 -36.53125 C 6.820312 -37.007812 7.25 -37.25 7.84375 -37.25 C 8.164062 -37.25 8.703125 -37.164062 9.453125 -37 C 10.210938 -36.832031 11.039062 -36.628906 11.9375 -36.390625 C 12.84375 -36.148438 13.71875 -35.898438 14.5625 -35.640625 C 15.414062 -35.390625 16.117188 -35.15625 16.671875 -34.9375 C 16.890625 -34.863281 17.085938 -34.722656 17.265625 -34.515625 C 17.453125 -34.316406 17.546875 -34.109375 17.546875 -33.890625 C 17.546875 -33.847656 17.535156 -33.789062 17.515625 -33.71875 C 17.503906 -33.644531 17.5 -33.609375 17.5 -33.609375 C 17.050781 -32.316406 16.523438 -30.492188 15.921875 -28.140625 C 15.316406 -25.785156 14.691406 -23.097656 14.046875 -20.078125 C 13.398438 -17.066406 12.78125 -13.914062 12.1875 -10.625 C 11.601562 -7.332031 11.09375 -4.101562 10.65625 -0.9375 Z M 10.65625 -0.9375 "/></g></g></g><g fill="#cafc05" fill-opacity="1"><g transform="translate(66.081273, 96.380836)"><g><path d="M 12.03125 0.109375 C 11.59375 0.109375 11.234375 0.078125 10.953125 0.015625 C 10.679688 -0.0351562 10.378906 -0.132812 10.046875 -0.28125 C 9.492188 -0.570312 8.738281 -1.101562 7.78125 -1.875 C 6.820312 -2.644531 5.828125 -3.546875 4.796875 -4.578125 C 3.765625 -5.609375 2.828125 -6.617188 1.984375 -7.609375 C 1.648438 -8.085938 1.484375 -8.585938 1.484375 -9.109375 C 1.484375 -10.066406 1.59375 -11.378906 1.8125 -13.046875 C 2.039062 -14.722656 2.316406 -16.546875 2.640625 -18.515625 C 2.972656 -20.484375 3.34375 -22.429688 3.75 -24.359375 C 4.15625 -26.296875 4.539062 -27.984375 4.90625 -29.421875 C 4.976562 -29.597656 5.015625 -29.75 5.015625 -29.875 C 5.015625 -30.007812 5.015625 -30.113281 5.015625 -30.1875 C 5.015625 -30.78125 5.023438 -31.414062 5.046875 -32.09375 C 5.066406 -32.769531 5.078125 -33.179688 5.078125 -33.328125 C 5.078125 -33.628906 5.148438 -33.914062 5.296875 -34.1875 C 5.441406 -34.46875 5.644531 -34.679688 5.90625 -34.828125 C 7.894531 -35.671875 9.796875 -36.3125 11.609375 -36.75 C 13.429688 -37.195312 15.082031 -37.421875 16.5625 -37.421875 C 18.988281 -37.421875 21.210938 -36.882812 23.234375 -35.8125 C 25.253906 -34.75 26.988281 -33.367188 28.4375 -31.671875 C 29.894531 -29.984375 31.019531 -28.164062 31.8125 -26.21875 C 32.601562 -24.269531 33 -22.425781 33 -20.6875 C 33 -18.15625 32.457031 -15.65625 31.375 -13.1875 C 30.289062 -10.726562 28.78125 -8.492188 26.84375 -6.484375 C 24.914062 -4.484375 22.679688 -2.882812 20.140625 -1.6875 C 17.597656 -0.488281 14.894531 0.109375 12.03125 0.109375 Z M 13.40625 -11.140625 C 14.769531 -11.140625 16.09375 -11.679688 17.375 -12.765625 C 18.664062 -13.859375 19.722656 -15.296875 20.546875 -17.078125 C 21.378906 -18.859375 21.796875 -20.78125 21.796875 -22.84375 C 21.796875 -24.351562 21.375 -25.550781 20.53125 -26.4375 C 19.6875 -27.320312 18.675781 -27.765625 17.5 -27.765625 C 16.644531 -27.765625 16.144531 -27.453125 16 -26.828125 C 15.925781 -26.421875 15.769531 -25.671875 15.53125 -24.578125 C 15.289062 -23.492188 15.015625 -22.269531 14.703125 -20.90625 C 14.390625 -19.550781 14.09375 -18.21875 13.8125 -16.90625 C 13.539062 -15.601562 13.3125 -14.472656 13.125 -13.515625 C 12.945312 -12.566406 12.859375 -12 12.859375 -11.8125 C 12.859375 -11.363281 13.039062 -11.140625 13.40625 -11.140625 Z M 13.40625 -11.140625 "/></g></g></g><g fill="#cafc05" fill-opacity="1"><g transform="translate(98.260352, 96.380836)"><g/></g></g><g fill="#cafc05" fill-opacity="1"><g transform="translate(16.295778, 135.974347)"><g><path d="M 10.65625 -0.9375 C 10.613281 -0.382812 10.300781 -0.109375 9.71875 -0.109375 C 9.414062 -0.109375 8.890625 -0.191406 8.140625 -0.359375 C 7.390625 -0.523438 6.5625 -0.726562 5.65625 -0.96875 C 4.75 -1.207031 3.910156 -1.453125 3.140625 -1.703125 C 2.367188 -1.960938 1.78125 -2.164062 1.375 -2.3125 C 0.644531 -2.644531 0.28125 -3.144531 0.28125 -3.8125 C 0.3125 -5.0625 0.425781 -6.601562 0.625 -8.4375 C 0.832031 -10.28125 1.101562 -12.285156 1.4375 -14.453125 C 1.769531 -16.628906 2.15625 -18.828125 2.59375 -21.046875 C 3.03125 -23.273438 3.476562 -25.398438 3.9375 -27.421875 C 4.40625 -29.453125 4.867188 -31.265625 5.328125 -32.859375 C 5.785156 -34.460938 6.195312 -35.6875 6.5625 -36.53125 C 6.820312 -37.007812 7.25 -37.25 7.84375 -37.25 C 8.164062 -37.25 8.703125 -37.164062 9.453125 -37 C 10.210938 -36.832031 11.039062 -36.628906 11.9375 -36.390625 C 12.84375 -36.148438 13.71875 -35.898438 14.5625 -35.640625 C 15.414062 -35.390625 16.117188 -35.15625 16.671875 -34.9375 C 16.890625 -34.863281 17.085938 -34.722656 17.265625 -34.515625 C 17.453125 -34.316406 17.546875 -34.109375 17.546875 -33.890625 C 17.546875 -33.847656 17.535156 -33.789062 17.515625 -33.71875 C 17.503906 -33.644531 17.5 -33.609375 17.5 -33.609375 C 17.050781 -32.316406 16.523438 -30.492188 15.921875 -28.140625 C 15.316406 -25.785156 14.691406 -23.097656 14.046875 -20.078125 C 13.398438 -17.066406 12.78125 -13.914062 12.1875 -10.625 C 11.601562 -7.332031 11.09375 -4.101562 10.65625 -0.9375 Z M 10.65625 -0.9375 "/></g></g></g><g fill="#cafc05" fill-opacity="1"><g transform="translate(29.763244, 135.974347)"><g><path d="M 29.296875 -36.96875 C 29.597656 -36.9375 29.867188 -36.800781 30.109375 -36.5625 C 30.347656 -36.320312 30.484375 -36.035156 30.515625 -35.703125 C 30.554688 -35.441406 30.578125 -35.144531 30.578125 -34.8125 C 30.578125 -34.488281 30.578125 -34.125 30.578125 -33.71875 C 30.578125 -32.5 30.539062 -31.160156 30.46875 -29.703125 C 30.394531 -28.253906 30.320312 -27.144531 30.25 -26.375 C 30.09375 -25.71875 29.628906 -25.351562 28.859375 -25.28125 C 28.304688 -25.28125 27.609375 -25.269531 26.765625 -25.25 C 25.921875 -25.226562 24.984375 -25.179688 23.953125 -25.109375 C 23.515625 -25.078125 23.191406 -24.96875 22.984375 -24.78125 C 22.785156 -24.59375 22.648438 -24.351562 22.578125 -24.0625 C 21.765625 -20.71875 20.90625 -17.03125 20 -13 C 19.101562 -8.96875 18.378906 -4.929688 17.828125 -0.890625 C 17.753906 -0.296875 17.40625 0 16.78125 0 C 16.40625 0 15.832031 -0.0820312 15.0625 -0.25 C 14.289062 -0.414062 13.4375 -0.625 12.5 -0.875 C 11.5625 -1.132812 10.6875 -1.394531 9.875 -1.65625 C 9.070312 -1.914062 8.445312 -2.117188 8 -2.265625 C 7.414062 -2.523438 7.125 -2.945312 7.125 -3.53125 C 7.125 -4.269531 7.210938 -5.300781 7.390625 -6.625 C 7.578125 -7.945312 7.816406 -9.40625 8.109375 -11 C 8.398438 -12.601562 8.710938 -14.222656 9.046875 -15.859375 C 9.378906 -17.503906 9.691406 -19.015625 9.984375 -20.390625 C 10.285156 -21.773438 10.523438 -22.890625 10.703125 -23.734375 L 10.765625 -24 C 10.765625 -24.476562 10.503906 -24.71875 9.984375 -24.71875 C 9.953125 -24.71875 9.695312 -24.707031 9.21875 -24.6875 C 8.738281 -24.675781 8.222656 -24.660156 7.671875 -24.640625 C 7.117188 -24.617188 6.695312 -24.609375 6.40625 -24.609375 C 5.664062 -24.609375 5.257812 -24.957031 5.1875 -25.65625 C 5.039062 -26.46875 4.9375 -27.414062 4.875 -28.5 C 4.820312 -29.582031 4.796875 -30.640625 4.796875 -31.671875 C 4.796875 -32.296875 4.804688 -32.875 4.828125 -33.40625 C 4.847656 -33.945312 4.875 -34.398438 4.90625 -34.765625 C 4.945312 -35.054688 5.050781 -35.332031 5.21875 -35.59375 C 5.382812 -35.851562 5.6875 -36.019531 6.125 -36.09375 C 6.894531 -36.207031 7.941406 -36.335938 9.265625 -36.484375 C 10.597656 -36.628906 12.082031 -36.753906 13.71875 -36.859375 C 15.351562 -36.972656 17.035156 -37.066406 18.765625 -37.140625 C 20.492188 -37.210938 22.148438 -37.25 23.734375 -37.25 C 24.835938 -37.25 25.863281 -37.226562 26.8125 -37.1875 C 27.769531 -37.15625 28.597656 -37.082031 29.296875 -36.96875 Z M 29.296875 -36.96875 "/></g></g></g><g fill="#cafc05" fill-opacity="1"><g transform="translate(57.470916, 135.974347)"><g><path d="M 12.90625 -13.734375 C 12.757812 -13.078125 12.300781 -12.75 11.53125 -12.75 C 10.757812 -12.894531 9.867188 -13.09375 8.859375 -13.34375 C 7.847656 -13.601562 6.875 -13.878906 5.9375 -14.171875 C 5 -14.472656 4.21875 -14.734375 3.59375 -14.953125 C 3.289062 -15.066406 3.078125 -15.25 2.953125 -15.5 C 2.828125 -15.757812 2.765625 -16.019531 2.765625 -16.28125 L 2.765625 -16.5625 C 2.835938 -17.738281 3.007812 -19.226562 3.28125 -21.03125 C 3.5625 -22.832031 3.894531 -24.734375 4.28125 -26.734375 C 4.664062 -28.742188 5.085938 -30.628906 5.546875 -32.390625 C 6.003906 -34.160156 6.472656 -35.597656 6.953125 -36.703125 C 7.210938 -37.253906 7.632812 -37.53125 8.21875 -37.53125 L 8.4375 -37.53125 C 8.84375 -37.488281 9.550781 -37.359375 10.5625 -37.140625 C 11.582031 -36.921875 12.648438 -36.65625 13.765625 -36.34375 C 14.890625 -36.03125 15.851562 -35.679688 16.65625 -35.296875 C 17.46875 -34.910156 17.875 -34.515625 17.875 -34.109375 C 17.875 -33.992188 17.835938 -33.828125 17.765625 -33.609375 C 17.441406 -32.722656 17.054688 -31.523438 16.609375 -30.015625 C 16.171875 -28.515625 15.71875 -26.832031 15.25 -24.96875 C 14.789062 -23.113281 14.359375 -21.21875 13.953125 -19.28125 C 13.554688 -17.351562 13.207031 -15.503906 12.90625 -13.734375 Z M 5.078125 -11.59375 C 7.390625 -11.445312 9.070312 -10.859375 10.125 -9.828125 C 11.175781 -8.796875 11.703125 -7.46875 11.703125 -5.84375 C 11.703125 -4.113281 11.175781 -2.671875 10.125 -1.515625 C 9.070312 -0.359375 7.59375 0.21875 5.6875 0.21875 C 3.8125 0.21875 2.457031 -0.335938 1.625 -1.453125 C 0.800781 -2.578125 0.390625 -3.929688 0.390625 -5.515625 C 0.535156 -7.867188 1.523438 -9.691406 3.359375 -10.984375 C 3.910156 -11.390625 4.484375 -11.59375 5.078125 -11.59375 Z M 5.078125 -11.59375 "/></g></g></g><g fill="#cafc05" fill-opacity="1"><g transform="translate(71.490435, 135.974347)"><g/></g></g><g fill="#cafc05" fill-opacity="1"><g transform="translate(71.490435, 135.974347)"><g/></g></g><g fill="#cafc05" fill-opacity="1"><g transform="translate(79.217677, 135.974347)"><g/></g></g><g fill="#cafc05" fill-opacity="1"><g transform="translate(86.946466, 135.974347)"><g/></g></g><g fill="#e474ba" fill-opacity="1"><g transform="translate(1.205637, 51.908704)"><g><path d="M 23.015625 -36.640625 C 23.203125 -37.160156 23.550781 -37.421875 24.0625 -37.421875 C 24.394531 -37.421875 25.019531 -37.226562 25.9375 -36.84375 C 26.851562 -36.457031 27.84375 -35.988281 28.90625 -35.4375 C 29.976562 -34.882812 30.945312 -34.347656 31.8125 -33.828125 C 32.675781 -33.316406 33.238281 -32.929688 33.5 -32.671875 C 33.789062 -32.335938 33.9375 -32.023438 33.9375 -31.734375 C 33.9375 -31.617188 33.925781 -31.515625 33.90625 -31.421875 C 33.894531 -31.335938 33.867188 -31.238281 33.828125 -31.125 C 32.867188 -28.4375 31.679688 -25.617188 30.265625 -22.671875 C 28.847656 -19.734375 27.347656 -16.859375 25.765625 -14.046875 C 24.191406 -11.234375 22.640625 -8.65625 21.109375 -6.3125 C 19.578125 -3.976562 18.207031 -2.09375 17 -0.65625 C 16.851562 -0.507812 16.6875 -0.375 16.5 -0.25 C 16.3125 -0.125 16.019531 -0.0625 15.625 -0.0625 C 15.21875 -0.0625 14.570312 -0.234375 13.6875 -0.578125 C 12.800781 -0.929688 11.859375 -1.351562 10.859375 -1.84375 C 9.867188 -2.34375 8.976562 -2.8125 8.1875 -3.25 C 7.40625 -3.695312 6.882812 -4.007812 6.625 -4.1875 C 6.332031 -4.414062 6.1875 -4.675781 6.1875 -4.96875 C 6.1875 -5.300781 6.296875 -5.578125 6.515625 -5.796875 C 7.066406 -6.421875 7.78125 -7.285156 8.65625 -8.390625 C 9.539062 -9.492188 10.445312 -10.707031 11.375 -12.03125 C 11.445312 -12.101562 11.5 -12.1875 11.53125 -12.28125 C 11.570312 -12.375 11.59375 -12.492188 11.59375 -12.640625 C 11.59375 -12.898438 11.320312 -13.144531 10.78125 -13.375 C 10.25 -13.613281 9.894531 -13.773438 9.71875 -13.859375 C 9.269531 -14.035156 8.941406 -14.257812 8.734375 -14.53125 C 8.535156 -14.8125 8.398438 -15.082031 8.328125 -15.34375 C 8.003906 -16.300781 7.675781 -17.515625 7.34375 -18.984375 C 7.007812 -20.453125 6.703125 -22.015625 6.421875 -23.671875 C 6.148438 -25.328125 5.910156 -26.9375 5.703125 -28.5 C 5.503906 -30.0625 5.347656 -31.429688 5.234375 -32.609375 C 5.128906 -33.785156 5.078125 -34.613281 5.078125 -35.09375 C 5.078125 -35.351562 5.164062 -35.59375 5.34375 -35.8125 C 5.53125 -36.03125 5.828125 -36.179688 6.234375 -36.265625 C 7.046875 -36.441406 7.984375 -36.601562 9.046875 -36.75 C 10.117188 -36.894531 11.195312 -37.023438 12.28125 -37.140625 C 13.363281 -37.253906 14.289062 -37.328125 15.0625 -37.359375 C 15.757812 -37.359375 16.109375 -37.007812 16.109375 -36.3125 C 16.109375 -35.175781 16.21875 -33.425781 16.4375 -31.0625 C 16.664062 -28.707031 16.90625 -26.117188 17.15625 -23.296875 C 17.238281 -22.960938 17.316406 -22.796875 17.390625 -22.796875 C 17.492188 -22.796875 17.601562 -22.921875 17.71875 -23.171875 C 18.675781 -25.347656 19.578125 -27.566406 20.421875 -29.828125 C 21.265625 -32.085938 22.128906 -34.359375 23.015625 -36.640625 Z M 23.015625 -36.640625 "/></g></g></g><g fill="#e474ba" fill-opacity="1"><g transform="translate(31.121091, 51.908704)"><g><path d="M 19.09375 -28.03125 C 18.394531 -28.03125 17.703125 -27.597656 17.015625 -26.734375 C 16.335938 -25.867188 15.710938 -24.742188 15.140625 -23.359375 C 14.578125 -21.984375 14.117188 -20.515625 13.765625 -18.953125 C 13.421875 -17.390625 13.25 -15.890625 13.25 -14.453125 C 13.25 -12.546875 13.503906 -11.28125 14.015625 -10.65625 C 14.535156 -10.03125 15.070312 -9.71875 15.625 -9.71875 C 16.351562 -9.71875 17.054688 -10.128906 17.734375 -10.953125 C 18.421875 -11.785156 19.039062 -12.898438 19.59375 -14.296875 C 20.144531 -15.691406 20.578125 -17.234375 20.890625 -18.921875 C 21.203125 -20.617188 21.359375 -22.3125 21.359375 -24 C 21.359375 -24.550781 21.289062 -25.140625 21.15625 -25.765625 C 21.03125 -26.390625 20.800781 -26.921875 20.46875 -27.359375 C 20.144531 -27.804688 19.6875 -28.03125 19.09375 -28.03125 Z M 17.28125 0.0625 C 15.175781 0.0625 12.925781 -0.347656 10.53125 -1.171875 C 8.144531 -2.003906 6.03125 -3.453125 4.1875 -5.515625 C 3.164062 -6.691406 2.457031 -8.171875 2.0625 -9.953125 C 1.675781 -11.742188 1.484375 -13.375 1.484375 -14.84375 C 1.484375 -16.3125 1.65625 -18.03125 2 -20 C 2.351562 -21.96875 2.90625 -23.972656 3.65625 -26.015625 C 4.414062 -28.054688 5.394531 -29.953125 6.59375 -31.703125 C 7.789062 -33.453125 9.21875 -34.859375 10.875 -35.921875 C 12.53125 -36.992188 14.441406 -37.53125 16.609375 -37.53125 C 17.273438 -37.53125 18.238281 -37.390625 19.5 -37.109375 C 20.769531 -36.835938 22.140625 -36.425781 23.609375 -35.875 C 25.085938 -35.320312 26.46875 -34.65625 27.75 -33.875 C 29.039062 -33.101562 30.019531 -32.222656 30.6875 -31.234375 C 31.53125 -29.984375 32.109375 -28.613281 32.421875 -27.125 C 32.734375 -25.632812 32.890625 -24.132812 32.890625 -22.625 C 32.890625 -20.96875 32.695312 -19.128906 32.3125 -17.109375 C 31.925781 -15.085938 31.347656 -13.070312 30.578125 -11.0625 C 29.804688 -9.0625 28.800781 -7.210938 27.5625 -5.515625 C 26.332031 -3.828125 24.859375 -2.472656 23.140625 -1.453125 C 21.429688 -0.441406 19.476562 0.0625 17.28125 0.0625 Z M 17.28125 0.0625 "/></g></g></g><g fill="#e474ba" fill-opacity="1"><g transform="translate(63.189124, 51.908704)"><g><path d="M 30.015625 -34.328125 C 30.609375 -34.109375 30.957031 -33.796875 31.0625 -33.390625 C 31.175781 -32.984375 31.234375 -32.523438 31.234375 -32.015625 C 31.234375 -30.503906 31.128906 -28.679688 30.921875 -26.546875 C 30.722656 -24.410156 30.394531 -22.128906 29.9375 -19.703125 C 29.476562 -17.273438 28.863281 -14.890625 28.09375 -12.546875 C 27.320312 -10.210938 26.363281 -8.085938 25.21875 -6.171875 C 24.082031 -4.265625 22.738281 -2.738281 21.1875 -1.59375 C 19.644531 -0.457031 17.863281 0.109375 15.84375 0.109375 C 14.8125 0.109375 13.585938 -0.0820312 12.171875 -0.46875 C 10.753906 -0.851562 9.375 -1.367188 8.03125 -2.015625 C 6.6875 -2.660156 5.609375 -3.347656 4.796875 -4.078125 C 3.734375 -5.078125 2.960938 -6.3125 2.484375 -7.78125 C 2.003906 -9.25 1.765625 -10.773438 1.765625 -12.359375 C 1.765625 -14.710938 1.945312 -17.09375 2.3125 -19.5 C 2.6875 -21.914062 3.15625 -24.207031 3.71875 -26.375 C 4.289062 -28.550781 4.863281 -30.46875 5.4375 -32.125 C 6.007812 -33.78125 6.492188 -34.992188 6.890625 -35.765625 C 7.078125 -36.171875 7.257812 -36.460938 7.4375 -36.640625 C 7.625 -36.828125 7.957031 -36.921875 8.4375 -36.921875 C 8.957031 -36.921875 9.75 -36.8125 10.8125 -36.59375 C 11.882812 -36.375 12.976562 -36.101562 14.09375 -35.78125 C 15.21875 -35.46875 16.148438 -35.148438 16.890625 -34.828125 C 17.398438 -34.640625 17.65625 -34.269531 17.65625 -33.71875 C 17.65625 -33.644531 17.644531 -33.570312 17.625 -33.5 C 17.613281 -33.425781 17.609375 -33.390625 17.609375 -33.390625 C 17.085938 -31.847656 16.539062 -30.09375 15.96875 -28.125 C 15.40625 -26.15625 14.882812 -24.148438 14.40625 -22.109375 C 13.925781 -20.066406 13.535156 -18.160156 13.234375 -16.390625 C 12.941406 -14.617188 12.796875 -13.203125 12.796875 -12.140625 C 12.796875 -11.398438 12.894531 -10.8125 13.09375 -10.375 C 13.300781 -9.9375 13.570312 -9.71875 13.90625 -9.71875 C 14.425781 -9.71875 14.867188 -10.019531 15.234375 -10.625 C 15.597656 -11.226562 16.019531 -12.265625 16.5 -13.734375 C 17.09375 -15.460938 17.644531 -17.394531 18.15625 -19.53125 C 18.664062 -21.664062 19.125 -23.78125 19.53125 -25.875 C 19.9375 -27.976562 20.273438 -29.882812 20.546875 -31.59375 C 20.828125 -33.300781 21.023438 -34.597656 21.140625 -35.484375 C 21.242188 -36.109375 21.570312 -36.421875 22.125 -36.421875 C 22.351562 -36.421875 22.804688 -36.347656 23.484375 -36.203125 C 24.160156 -36.054688 24.921875 -35.867188 25.765625 -35.640625 C 26.617188 -35.421875 27.429688 -35.191406 28.203125 -34.953125 C 28.972656 -34.722656 29.578125 -34.515625 30.015625 -34.328125 Z M 30.015625 -34.328125 "/></g></g></g><g fill="#e474ba" fill-opacity="1"><g transform="translate(92.276821, 51.908704)"><g/></g></g><g clip-path="url(#aa4a593891)"><g fill="#e474ba" fill-opacity="1"><g transform="translate(0.100726, 91.502215)"><g/></g></g></g><g fill="#e474ba" fill-opacity="1"><g transform="translate(7.827968, 91.502215)"><g/></g></g><g fill="#e474ba" fill-opacity="1"><g transform="translate(15.556758, 91.502215)"><g/></g></g><g fill="#e474ba" fill-opacity="1"><g transform="translate(15.556758, 91.502215)"><g><path d="M 12.03125 0.109375 C 11.59375 0.109375 11.234375 0.078125 10.953125 0.015625 C 10.679688 -0.0351562 10.378906 -0.132812 10.046875 -0.28125 C 9.492188 -0.570312 8.738281 -1.101562 7.78125 -1.875 C 6.820312 -2.644531 5.828125 -3.546875 4.796875 -4.578125 C 3.765625 -5.609375 2.828125 -6.617188 1.984375 -7.609375 C 1.648438 -8.085938 1.484375 -8.585938 1.484375 -9.109375 C 1.484375 -10.066406 1.59375 -11.378906 1.8125 -13.046875 C 2.039062 -14.722656 2.316406 -16.546875 2.640625 -18.515625 C 2.972656 -20.484375 3.34375 -22.429688 3.75 -24.359375 C 4.15625 -26.296875 4.539062 -27.984375 4.90625 -29.421875 C 4.976562 -29.597656 5.015625 -29.75 5.015625 -29.875 C 5.015625 -30.007812 5.015625 -30.113281 5.015625 -30.1875 C 5.015625 -30.78125 5.023438 -31.414062 5.046875 -32.09375 C 5.066406 -32.769531 5.078125 -33.179688 5.078125 -33.328125 C 5.078125 -33.628906 5.148438 -33.914062 5.296875 -34.1875 C 5.441406 -34.46875 5.644531 -34.679688 5.90625 -34.828125 C 7.894531 -35.671875 9.796875 -36.3125 11.609375 -36.75 C 13.429688 -37.195312 15.082031 -37.421875 16.5625 -37.421875 C 18.988281 -37.421875 21.210938 -36.882812 23.234375 -35.8125 C 25.253906 -34.75 26.988281 -33.367188 28.4375 -31.671875 C 29.894531 -29.984375 31.019531 -28.164062 31.8125 -26.21875 C 32.601562 -24.269531 33 -22.425781 33 -20.6875 C 33 -18.15625 32.457031 -15.65625 31.375 -13.1875 C 30.289062 -10.726562 28.78125 -8.492188 26.84375 -6.484375 C 24.914062 -4.484375 22.679688 -2.882812 20.140625 -1.6875 C 17.597656 -0.488281 14.894531 0.109375 12.03125 0.109375 Z M 13.40625 -11.140625 C 14.769531 -11.140625 16.09375 -11.679688 17.375 -12.765625 C 18.664062 -13.859375 19.722656 -15.296875 20.546875 -17.078125 C 21.378906 -18.859375 21.796875 -20.78125 21.796875 -22.84375 C 21.796875 -24.351562 21.375 -25.550781 20.53125 -26.4375 C 19.6875 -27.320312 18.675781 -27.765625 17.5 -27.765625 C 16.644531 -27.765625 16.144531 -27.453125 16 -26.828125 C 15.925781 -26.421875 15.769531 -25.671875 15.53125 -24.578125 C 15.289062 -23.492188 15.015625 -22.269531 14.703125 -20.90625 C 14.390625 -19.550781 14.09375 -18.21875 13.8125 -16.90625 C 13.539062 -15.601562 13.3125 -14.472656 13.125 -13.515625 C 12.945312 -12.566406 12.859375 -12 12.859375 -11.8125 C 12.859375 -11.363281 13.039062 -11.140625 13.40625 -11.140625 Z M 13.40625 -11.140625 "/></g></g></g><g fill="#e474ba" fill-opacity="1"><g transform="translate(47.735188, 91.502215)"><g><path d="M 10.65625 -0.9375 C 10.613281 -0.382812 10.300781 -0.109375 9.71875 -0.109375 C 9.414062 -0.109375 8.890625 -0.191406 8.140625 -0.359375 C 7.390625 -0.523438 6.5625 -0.726562 5.65625 -0.96875 C 4.75 -1.207031 3.910156 -1.453125 3.140625 -1.703125 C 2.367188 -1.960938 1.78125 -2.164062 1.375 -2.3125 C 0.644531 -2.644531 0.28125 -3.144531 0.28125 -3.8125 C 0.3125 -5.0625 0.425781 -6.601562 0.625 -8.4375 C 0.832031 -10.28125 1.101562 -12.285156 1.4375 -14.453125 C 1.769531 -16.628906 2.15625 -18.828125 2.59375 -21.046875 C 3.03125 -23.273438 3.476562 -25.398438 3.9375 -27.421875 C 4.40625 -29.453125 4.867188 -31.265625 5.328125 -32.859375 C 5.785156 -34.460938 6.195312 -35.6875 6.5625 -36.53125 C 6.820312 -37.007812 7.25 -37.25 7.84375 -37.25 C 8.164062 -37.25 8.703125 -37.164062 9.453125 -37 C 10.210938 -36.832031 11.039062 -36.628906 11.9375 -36.390625 C 12.84375 -36.148438 13.71875 -35.898438 14.5625 -35.640625 C 15.414062 -35.390625 16.117188 -35.15625 16.671875 -34.9375 C 16.890625 -34.863281 17.085938 -34.722656 17.265625 -34.515625 C 17.453125 -34.316406 17.546875 -34.109375 17.546875 -33.890625 C 17.546875 -33.847656 17.535156 -33.789062 17.515625 -33.71875 C 17.503906 -33.644531 17.5 -33.609375 17.5 -33.609375 C 17.050781 -32.316406 16.523438 -30.492188 15.921875 -28.140625 C 15.316406 -25.785156 14.691406 -23.097656 14.046875 -20.078125 C 13.398438 -17.066406 12.78125 -13.914062 12.1875 -10.625 C 11.601562 -7.332031 11.09375 -4.101562 10.65625 -0.9375 Z M 10.65625 -0.9375 "/></g></g></g><g fill="#e474ba" fill-opacity="1"><g transform="translate(61.202654, 91.502215)"><g><path d="M 12.03125 0.109375 C 11.59375 0.109375 11.234375 0.078125 10.953125 0.015625 C 10.679688 -0.0351562 10.378906 -0.132812 10.046875 -0.28125 C 9.492188 -0.570312 8.738281 -1.101562 7.78125 -1.875 C 6.820312 -2.644531 5.828125 -3.546875 4.796875 -4.578125 C 3.765625 -5.609375 2.828125 -6.617188 1.984375 -7.609375 C 1.648438 -8.085938 1.484375 -8.585938 1.484375 -9.109375 C 1.484375 -10.066406 1.59375 -11.378906 1.8125 -13.046875 C 2.039062 -14.722656 2.316406 -16.546875 2.640625 -18.515625 C 2.972656 -20.484375 3.34375 -22.429688 3.75 -24.359375 C 4.15625 -26.296875 4.539062 -27.984375 4.90625 -29.421875 C 4.976562 -29.597656 5.015625 -29.75 5.015625 -29.875 C 5.015625 -30.007812 5.015625 -30.113281 5.015625 -30.1875 C 5.015625 -30.78125 5.023438 -31.414062 5.046875 -32.09375 C 5.066406 -32.769531 5.078125 -33.179688 5.078125 -33.328125 C 5.078125 -33.628906 5.148438 -33.914062 5.296875 -34.1875 C 5.441406 -34.46875 5.644531 -34.679688 5.90625 -34.828125 C 7.894531 -35.671875 9.796875 -36.3125 11.609375 -36.75 C 13.429688 -37.195312 15.082031 -37.421875 16.5625 -37.421875 C 18.988281 -37.421875 21.210938 -36.882812 23.234375 -35.8125 C 25.253906 -34.75 26.988281 -33.367188 28.4375 -31.671875 C 29.894531 -29.984375 31.019531 -28.164062 31.8125 -26.21875 C 32.601562 -24.269531 33 -22.425781 33 -20.6875 C 33 -18.15625 32.457031 -15.65625 31.375 -13.1875 C 30.289062 -10.726562 28.78125 -8.492188 26.84375 -6.484375 C 24.914062 -4.484375 22.679688 -2.882812 20.140625 -1.6875 C 17.597656 -0.488281 14.894531 0.109375 12.03125 0.109375 Z M 13.40625 -11.140625 C 14.769531 -11.140625 16.09375 -11.679688 17.375 -12.765625 C 18.664062 -13.859375 19.722656 -15.296875 20.546875 -17.078125 C 21.378906 -18.859375 21.796875 -20.78125 21.796875 -22.84375 C 21.796875 -24.351562 21.375 -25.550781 20.53125 -26.4375 C 19.6875 -27.320312 18.675781 -27.765625 17.5 -27.765625 C 16.644531 -27.765625 16.144531 -27.453125 16 -26.828125 C 15.925781 -26.421875 15.769531 -25.671875 15.53125 -24.578125 C 15.289062 -23.492188 15.015625 -22.269531 14.703125 -20.90625 C 14.390625 -19.550781 14.09375 -18.21875 13.8125 -16.90625 C 13.539062 -15.601562 13.3125 -14.472656 13.125 -13.515625 C 12.945312 -12.566406 12.859375 -12 12.859375 -11.8125 C 12.859375 -11.363281 13.039062 -11.140625 13.40625 -11.140625 Z M 13.40625 -11.140625 "/></g></g></g><g fill="#e474ba" fill-opacity="1"><g transform="translate(93.381733, 91.502215)"><g/></g></g><g fill="#e474ba" fill-opacity="1"><g transform="translate(11.417159, 131.095725)"><g><path d="M 10.65625 -0.9375 C 10.613281 -0.382812 10.300781 -0.109375 9.71875 -0.109375 C 9.414062 -0.109375 8.890625 -0.191406 8.140625 -0.359375 C 7.390625 -0.523438 6.5625 -0.726562 5.65625 -0.96875 C 4.75 -1.207031 3.910156 -1.453125 3.140625 -1.703125 C 2.367188 -1.960938 1.78125 -2.164062 1.375 -2.3125 C 0.644531 -2.644531 0.28125 -3.144531 0.28125 -3.8125 C 0.3125 -5.0625 0.425781 -6.601562 0.625 -8.4375 C 0.832031 -10.28125 1.101562 -12.285156 1.4375 -14.453125 C 1.769531 -16.628906 2.15625 -18.828125 2.59375 -21.046875 C 3.03125 -23.273438 3.476562 -25.398438 3.9375 -27.421875 C 4.40625 -29.453125 4.867188 -31.265625 5.328125 -32.859375 C 5.785156 -34.460938 6.195312 -35.6875 6.5625 -36.53125 C 6.820312 -37.007812 7.25 -37.25 7.84375 -37.25 C 8.164062 -37.25 8.703125 -37.164062 9.453125 -37 C 10.210938 -36.832031 11.039062 -36.628906 11.9375 -36.390625 C 12.84375 -36.148438 13.71875 -35.898438 14.5625 -35.640625 C 15.414062 -35.390625 16.117188 -35.15625 16.671875 -34.9375 C 16.890625 -34.863281 17.085938 -34.722656 17.265625 -34.515625 C 17.453125 -34.316406 17.546875 -34.109375 17.546875 -33.890625 C 17.546875 -33.847656 17.535156 -33.789062 17.515625 -33.71875 C 17.503906 -33.644531 17.5 -33.609375 17.5 -33.609375 C 17.050781 -32.316406 16.523438 -30.492188 15.921875 -28.140625 C 15.316406 -25.785156 14.691406 -23.097656 14.046875 -20.078125 C 13.398438 -17.066406 12.78125 -13.914062 12.1875 -10.625 C 11.601562 -7.332031 11.09375 -4.101562 10.65625 -0.9375 Z M 10.65625 -0.9375 "/></g></g></g><g fill="#e474ba" fill-opacity="1"><g transform="translate(24.884625, 131.095725)"><g><path d="M 29.296875 -36.96875 C 29.597656 -36.9375 29.867188 -36.800781 30.109375 -36.5625 C 30.347656 -36.320312 30.484375 -36.035156 30.515625 -35.703125 C 30.554688 -35.441406 30.578125 -35.144531 30.578125 -34.8125 C 30.578125 -34.488281 30.578125 -34.125 30.578125 -33.71875 C 30.578125 -32.5 30.539062 -31.160156 30.46875 -29.703125 C 30.394531 -28.253906 30.320312 -27.144531 30.25 -26.375 C 30.09375 -25.71875 29.628906 -25.351562 28.859375 -25.28125 C 28.304688 -25.28125 27.609375 -25.269531 26.765625 -25.25 C 25.921875 -25.226562 24.984375 -25.179688 23.953125 -25.109375 C 23.515625 -25.078125 23.191406 -24.96875 22.984375 -24.78125 C 22.785156 -24.59375 22.648438 -24.351562 22.578125 -24.0625 C 21.765625 -20.71875 20.90625 -17.03125 20 -13 C 19.101562 -8.96875 18.378906 -4.929688 17.828125 -0.890625 C 17.753906 -0.296875 17.40625 0 16.78125 0 C 16.40625 0 15.832031 -0.0820312 15.0625 -0.25 C 14.289062 -0.414062 13.4375 -0.625 12.5 -0.875 C 11.5625 -1.132812 10.6875 -1.394531 9.875 -1.65625 C 9.070312 -1.914062 8.445312 -2.117188 8 -2.265625 C 7.414062 -2.523438 7.125 -2.945312 7.125 -3.53125 C 7.125 -4.269531 7.210938 -5.300781 7.390625 -6.625 C 7.578125 -7.945312 7.816406 -9.40625 8.109375 -11 C 8.398438 -12.601562 8.710938 -14.222656 9.046875 -15.859375 C 9.378906 -17.503906 9.691406 -19.015625 9.984375 -20.390625 C 10.285156 -21.773438 10.523438 -22.890625 10.703125 -23.734375 L 10.765625 -24 C 10.765625 -24.476562 10.503906 -24.71875 9.984375 -24.71875 C 9.953125 -24.71875 9.695312 -24.707031 9.21875 -24.6875 C 8.738281 -24.675781 8.222656 -24.660156 7.671875 -24.640625 C 7.117188 -24.617188 6.695312 -24.609375 6.40625 -24.609375 C 5.664062 -24.609375 5.257812 -24.957031 5.1875 -25.65625 C 5.039062 -26.46875 4.9375 -27.414062 4.875 -28.5 C 4.820312 -29.582031 4.796875 -30.640625 4.796875 -31.671875 C 4.796875 -32.296875 4.804688 -32.875 4.828125 -33.40625 C 4.847656 -33.945312 4.875 -34.398438 4.90625 -34.765625 C 4.945312 -35.054688 5.050781 -35.332031 5.21875 -35.59375 C 5.382812 -35.851562 5.6875 -36.019531 6.125 -36.09375 C 6.894531 -36.207031 7.941406 -36.335938 9.265625 -36.484375 C 10.597656 -36.628906 12.082031 -36.753906 13.71875 -36.859375 C 15.351562 -36.972656 17.035156 -37.066406 18.765625 -37.140625 C 20.492188 -37.210938 22.148438 -37.25 23.734375 -37.25 C 24.835938 -37.25 25.863281 -37.226562 26.8125 -37.1875 C 27.769531 -37.15625 28.597656 -37.082031 29.296875 -36.96875 Z M 29.296875 -36.96875 "/></g></g></g><g fill="#e474ba" fill-opacity="1"><g transform="translate(52.592297, 131.095725)"><g><path d="M 12.90625 -13.734375 C 12.757812 -13.078125 12.300781 -12.75 11.53125 -12.75 C 10.757812 -12.894531 9.867188 -13.09375 8.859375 -13.34375 C 7.847656 -13.601562 6.875 -13.878906 5.9375 -14.171875 C 5 -14.472656 4.21875 -14.734375 3.59375 -14.953125 C 3.289062 -15.066406 3.078125 -15.25 2.953125 -15.5 C 2.828125 -15.757812 2.765625 -16.019531 2.765625 -16.28125 L 2.765625 -16.5625 C 2.835938 -17.738281 3.007812 -19.226562 3.28125 -21.03125 C 3.5625 -22.832031 3.894531 -24.734375 4.28125 -26.734375 C 4.664062 -28.742188 5.085938 -30.628906 5.546875 -32.390625 C 6.003906 -34.160156 6.472656 -35.597656 6.953125 -36.703125 C 7.210938 -37.253906 7.632812 -37.53125 8.21875 -37.53125 L 8.4375 -37.53125 C 8.84375 -37.488281 9.550781 -37.359375 10.5625 -37.140625 C 11.582031 -36.921875 12.648438 -36.65625 13.765625 -36.34375 C 14.890625 -36.03125 15.851562 -35.679688 16.65625 -35.296875 C 17.46875 -34.910156 17.875 -34.515625 17.875 -34.109375 C 17.875 -33.992188 17.835938 -33.828125 17.765625 -33.609375 C 17.441406 -32.722656 17.054688 -31.523438 16.609375 -30.015625 C 16.171875 -28.515625 15.71875 -26.832031 15.25 -24.96875 C 14.789062 -23.113281 14.359375 -21.21875 13.953125 -19.28125 C 13.554688 -17.351562 13.207031 -15.503906 12.90625 -13.734375 Z M 5.078125 -11.59375 C 7.390625 -11.445312 9.070312 -10.859375 10.125 -9.828125 C 11.175781 -8.796875 11.703125 -7.46875 11.703125 -5.84375 C 11.703125 -4.113281 11.175781 -2.671875 10.125 -1.515625 C 9.070312 -0.359375 7.59375 0.21875 5.6875 0.21875 C 3.8125 0.21875 2.457031 -0.335938 1.625 -1.453125 C 0.800781 -2.578125 0.390625 -3.929688 0.390625 -5.515625 C 0.535156 -7.867188 1.523438 -9.691406 3.359375 -10.984375 C 3.910156 -11.390625 4.484375 -11.59375 5.078125 -11.59375 Z M 5.078125 -11.59375 "/></g></g></g><g fill="#e474ba" fill-opacity="1"><g transform="translate(66.611816, 131.095725)"><g/></g></g><g fill="#e474ba" fill-opacity="1"><g transform="translate(66.611816, 131.095725)"><g/></g></g><g fill="#e474ba" fill-opacity="1"><g transform="translate(74.339058, 131.095725)"><g/></g></g><g fill="#e474ba" fill-opacity="1"><g transform="translate(82.067846, 131.095725)"><g/></g></g></g></g><g transform="matrix(1, 0, 0, 1, 157, 135)"><g clip-path="url(#2fc039bb9d)"><g fill="#000000" fill-opacity="1"><g transform="translate(0.596373, 9.446997)"><g><path d="M 1.546875 -0.5625 C 1.546875 -0.382812 1.492188 -0.234375 1.390625 -0.109375 C 1.273438 0.0234375 1.125 0.09375 0.9375 0.09375 C 0.625 0.09375 0.46875 -0.0703125 0.46875 -0.40625 C 0.46875 -0.59375 0.523438 -0.75 0.640625 -0.875 C 0.753906 -1.007812 0.90625 -1.078125 1.09375 -1.078125 C 1.394531 -1.078125 1.546875 -0.90625 1.546875 -0.5625 Z M 1.546875 -0.5625 "/></g></g></g></g></g></svg>