<svg xmlns="http://www.w3.org/2000/svg" xmlns:xlink="http://www.w3.org/1999/xlink" width="168" zoomAndPan="magnify" viewBox="0 0 126 47.25" height="63" preserveAspectRatio="xMidYMid meet" version="1.0"><defs><g/><clipPath id="2f994979fb"><rect x="0" width="55" y="0" height="37"/></clipPath><clipPath id="686e5ab79f"><rect x="0" width="4" y="0" height="13"/></clipPath></defs><g transform="matrix(1, 0, 0, 1, 36, 5)"><g clip-path="url(#2f994979fb)"><g fill="#000000" fill-opacity="1"><g transform="translate(0.439519, 26.307675)"><g><path d="M 10.015625 -1.46875 C 10.015625 -0.46875 9.390625 0.03125 8.140625 0.03125 C 8.003906 0.03125 7.800781 0.0234375 7.53125 0.015625 C 7.269531 0.00390625 7.070312 0 6.9375 0 C 6.550781 0 5.972656 0.00390625 5.203125 0.015625 C 4.441406 0.0351562 3.867188 0.046875 3.484375 0.046875 C 2.253906 0.046875 1.640625 -0.078125 1.640625 -0.328125 C 1.640625 -1.234375 2.125 -2.164062 3.09375 -3.125 C 4 -3.925781 4.90625 -4.722656 5.8125 -5.515625 C 6.78125 -6.472656 7.265625 -7.410156 7.265625 -8.328125 C 7.265625 -8.828125 7.140625 -9.25 6.890625 -9.59375 C 6.609375 -9.96875 6.222656 -10.15625 5.734375 -10.15625 C 5.359375 -10.15625 4.816406 -9.867188 4.109375 -9.296875 C 3.410156 -8.734375 2.925781 -8.453125 2.65625 -8.453125 C 2.445312 -8.453125 2.257812 -8.523438 2.09375 -8.671875 C 1.925781 -8.828125 1.84375 -9.007812 1.84375 -9.21875 C 1.84375 -9.800781 2.425781 -10.375 3.59375 -10.9375 C 4.632812 -11.445312 5.488281 -11.703125 6.15625 -11.703125 C 7.070312 -11.703125 7.835938 -11.539062 8.453125 -11.21875 C 9.234375 -10.8125 9.625 -10.191406 9.625 -9.359375 C 9.625 -8.453125 9.222656 -7.515625 8.421875 -6.546875 C 8.054688 -6.097656 7.316406 -5.367188 6.203125 -4.359375 C 5.398438 -3.640625 5 -3.140625 5 -2.859375 C 5 -2.671875 5.144531 -2.507812 5.4375 -2.375 C 5.675781 -2.257812 5.898438 -2.203125 6.109375 -2.203125 C 6.316406 -2.203125 6.625 -2.207031 7.03125 -2.21875 C 7.445312 -2.226562 7.757812 -2.234375 7.96875 -2.234375 C 9.332031 -2.234375 10.015625 -1.976562 10.015625 -1.46875 Z M 10.015625 -1.46875 "/></g></g></g><g fill="#000000" fill-opacity="1"><g transform="translate(12.684945, 26.307675)"><g><path d="M 12.796875 -5.890625 C 12.796875 -4.242188 12.269531 -2.820312 11.21875 -1.625 C 10.125 -0.382812 8.769531 0.234375 7.15625 0.234375 C 5.394531 0.234375 4.023438 -0.328125 3.046875 -1.453125 C 2.117188 -2.515625 1.65625 -3.941406 1.65625 -5.734375 C 1.65625 -7.398438 2.179688 -8.8125 3.234375 -9.96875 C 4.296875 -11.125 5.65625 -11.703125 7.3125 -11.703125 C 8.84375 -11.703125 10.144531 -11.113281 11.21875 -9.9375 C 12.269531 -8.78125 12.796875 -7.429688 12.796875 -5.890625 Z M 10.75 -5.765625 C 10.75 -8.566406 9.59375 -9.96875 7.28125 -9.96875 C 6.144531 -9.96875 5.253906 -9.550781 4.609375 -8.71875 C 4.003906 -7.957031 3.703125 -7 3.703125 -5.84375 C 3.703125 -2.957031 4.882812 -1.515625 7.25 -1.515625 C 8.351562 -1.515625 9.226562 -1.957031 9.875 -2.84375 C 10.457031 -3.632812 10.75 -4.609375 10.75 -5.765625 Z M 10.75 -5.765625 "/></g></g></g><g fill="#000000" fill-opacity="1"><g transform="translate(27.811162, 26.307675)"><g><path d="M 10.015625 -1.46875 C 10.015625 -0.46875 9.390625 0.03125 8.140625 0.03125 C 8.003906 0.03125 7.800781 0.0234375 7.53125 0.015625 C 7.269531 0.00390625 7.070312 0 6.9375 0 C 6.550781 0 5.972656 0.00390625 5.203125 0.015625 C 4.441406 0.0351562 3.867188 0.046875 3.484375 0.046875 C 2.253906 0.046875 1.640625 -0.078125 1.640625 -0.328125 C 1.640625 -1.234375 2.125 -2.164062 3.09375 -3.125 C 4 -3.925781 4.90625 -4.722656 5.8125 -5.515625 C 6.78125 -6.472656 7.265625 -7.410156 7.265625 -8.328125 C 7.265625 -8.828125 7.140625 -9.25 6.890625 -9.59375 C 6.609375 -9.96875 6.222656 -10.15625 5.734375 -10.15625 C 5.359375 -10.15625 4.816406 -9.867188 4.109375 -9.296875 C 3.410156 -8.734375 2.925781 -8.453125 2.65625 -8.453125 C 2.445312 -8.453125 2.257812 -8.523438 2.09375 -8.671875 C 1.925781 -8.828125 1.84375 -9.007812 1.84375 -9.21875 C 1.84375 -9.800781 2.425781 -10.375 3.59375 -10.9375 C 4.632812 -11.445312 5.488281 -11.703125 6.15625 -11.703125 C 7.070312 -11.703125 7.835938 -11.539062 8.453125 -11.21875 C 9.234375 -10.8125 9.625 -10.191406 9.625 -9.359375 C 9.625 -8.453125 9.222656 -7.515625 8.421875 -6.546875 C 8.054688 -6.097656 7.316406 -5.367188 6.203125 -4.359375 C 5.398438 -3.640625 5 -3.140625 5 -2.859375 C 5 -2.671875 5.144531 -2.507812 5.4375 -2.375 C 5.675781 -2.257812 5.898438 -2.203125 6.109375 -2.203125 C 6.316406 -2.203125 6.625 -2.207031 7.03125 -2.21875 C 7.445312 -2.226562 7.757812 -2.234375 7.96875 -2.234375 C 9.332031 -2.234375 10.015625 -1.976562 10.015625 -1.46875 Z M 10.015625 -1.46875 "/></g></g></g><g fill="#000000" fill-opacity="1"><g transform="translate(40.056588, 26.307675)"><g><path d="M 13.328125 -16.78125 C 13.328125 -16.257812 13.085938 -15.851562 12.609375 -15.5625 C 10.785156 -14.507812 8.96875 -13.457031 7.15625 -12.40625 C 5.0625 -11.050781 3.628906 -9.585938 2.859375 -8.015625 C 2.398438 -7.066406 2.171875 -6.195312 2.171875 -5.40625 C 2.171875 -4.332031 2.691406 -3.457031 3.734375 -2.78125 C 4.648438 -2.195312 5.675781 -1.90625 6.8125 -1.90625 C 7.539062 -1.90625 8.175781 -2.1875 8.71875 -2.75 C 9.257812 -3.3125 9.53125 -3.96875 9.53125 -4.71875 C 9.53125 -5.664062 9.289062 -6.476562 8.8125 -7.15625 C 8.601562 -7.46875 8.160156 -7.921875 7.484375 -8.515625 C 7.015625 -8.929688 6.78125 -9.296875 6.78125 -9.609375 C 6.78125 -10.753906 7.171875 -11.328125 7.953125 -11.328125 C 8.734375 -11.328125 9.570312 -10.816406 10.46875 -9.796875 C 11.375 -8.785156 11.828125 -7.875 11.828125 -7.0625 C 11.828125 -5.375 11.191406 -3.726562 9.921875 -2.125 C 8.660156 -0.53125 7.3125 0.265625 5.875 0.265625 C 2.476562 0.265625 0.78125 -1.363281 0.78125 -4.625 C 0.78125 -6.75 1.523438 -8.742188 3.015625 -10.609375 C 4.085938 -11.953125 5.722656 -13.398438 7.921875 -14.953125 C 8.378906 -15.285156 8.75 -15.535156 9.03125 -15.703125 C 9.15625 -15.765625 9.335938 -15.863281 9.578125 -16 C 9.703125 -16.09375 9.863281 -16.296875 10.0625 -16.609375 C 10.132812 -16.742188 10.253906 -16.9375 10.421875 -17.1875 C 10.703125 -17.59375 11.347656 -17.796875 12.359375 -17.796875 C 13.003906 -17.796875 13.328125 -17.457031 13.328125 -16.78125 Z M 13.328125 -16.78125 "/></g></g></g></g></g><g transform="matrix(1, 0, 0, 1, 79, 21)"><g clip-path="url(#686e5ab79f)"><g fill="#000000" fill-opacity="1"><g transform="translate(0.741545, 8.753092)"><g><path d="M 1.53125 -0.5625 C 1.53125 -0.382812 1.476562 -0.234375 1.375 -0.109375 C 1.257812 0.0234375 1.113281 0.09375 0.9375 0.09375 C 0.625 0.09375 0.46875 -0.0664062 0.46875 -0.390625 C 0.46875 -0.578125 0.519531 -0.734375 0.625 -0.859375 C 0.738281 -0.992188 0.890625 -1.0625 1.078125 -1.0625 C 1.378906 -1.0625 1.53125 -0.894531 1.53125 -0.5625 Z M 1.53125 -0.5625 "/></g></g></g></g></g></svg>