<svg xmlns="http://www.w3.org/2000/svg" xmlns:xlink="http://www.w3.org/1999/xlink" width="428" zoomAndPan="magnify" viewBox="0 0 321 56.999997" height="76" preserveAspectRatio="xMidYMid meet" version="1.0"><defs><g/><clipPath id="fea9be07eb"><path d="M 0.28125 8 L 2 8 L 2 10 L 0.28125 10 Z M 0.28125 8 " clip-rule="nonzero"/></clipPath><clipPath id="eab1557d3d"><rect x="0" width="3" y="0" height="13"/></clipPath></defs><g fill="#ffde59" fill-opacity="1"><g transform="translate(28.199928, 39.952313)"><g><path d="M 9.140625 -16.6875 C 9.890625 -17.4375 10.769531 -18.015625 11.78125 -18.421875 C 12.789062 -18.835938 13.847656 -19.046875 14.953125 -19.046875 C 17.117188 -19.046875 18.742188 -18.445312 19.828125 -17.25 C 20.910156 -16.050781 21.453125 -14.320312 21.453125 -12.0625 L 21.453125 0 L 14.4375 0 L 14.4375 -11.21875 C 14.4375 -12.019531 14.226562 -12.660156 13.8125 -13.140625 C 13.394531 -13.617188 12.8125 -13.859375 12.0625 -13.859375 C 11.195312 -13.859375 10.492188 -13.578125 9.953125 -13.015625 C 9.410156 -12.453125 9.140625 -11.757812 9.140625 -10.9375 L 9.140625 0 L 2.109375 0 L 2.109375 -25.578125 L 9.140625 -25.578125 Z M 9.140625 -16.6875 "/></g></g></g><g fill="#ffde59" fill-opacity="1"><g transform="translate(51.735136, 39.952313)"><g><path d="M 11.328125 -19.046875 C 14.171875 -19.046875 16.484375 -18.566406 18.265625 -17.609375 C 20.054688 -16.660156 20.953125 -15.117188 20.953125 -12.984375 L 20.953125 -5.71875 C 20.953125 -5.3125 21.046875 -4.976562 21.234375 -4.71875 C 21.421875 -4.46875 21.707031 -4.34375 22.09375 -4.34375 L 23.359375 -4.34375 L 23.359375 -0.28125 C 23.285156 -0.238281 23.101562 -0.160156 22.8125 -0.046875 C 22.519531 0.0546875 22.101562 0.160156 21.5625 0.265625 C 21.019531 0.367188 20.394531 0.421875 19.6875 0.421875 C 18.320312 0.421875 17.195312 0.21875 16.3125 -0.1875 C 15.4375 -0.601562 14.832031 -1.175781 14.5 -1.90625 C 13.601562 -1.195312 12.601562 -0.628906 11.5 -0.203125 C 10.394531 0.210938 9.101562 0.421875 7.625 0.421875 C 3.25 0.421875 1.0625 -1.316406 1.0625 -4.796875 C 1.0625 -6.609375 1.546875 -7.988281 2.515625 -8.9375 C 3.492188 -9.894531 4.898438 -10.550781 6.734375 -10.90625 C 8.566406 -11.257812 10.96875 -11.4375 13.9375 -11.4375 L 13.9375 -12.34375 C 13.9375 -13.070312 13.679688 -13.625 13.171875 -14 C 12.671875 -14.382812 12.019531 -14.578125 11.21875 -14.578125 C 10.488281 -14.578125 9.859375 -14.445312 9.328125 -14.1875 C 8.796875 -13.925781 8.53125 -13.515625 8.53125 -12.953125 L 8.53125 -12.8125 L 1.625 -12.8125 C 1.601562 -12.925781 1.59375 -13.085938 1.59375 -13.296875 C 1.59375 -15.066406 2.429688 -16.46875 4.109375 -17.5 C 5.796875 -18.53125 8.203125 -19.046875 11.328125 -19.046875 Z M 13.9375 -8.109375 C 11.9375 -8.109375 10.457031 -7.890625 9.5 -7.453125 C 8.550781 -7.023438 8.078125 -6.445312 8.078125 -5.71875 C 8.078125 -4.539062 8.878906 -3.953125 10.484375 -3.953125 C 11.398438 -3.953125 12.203125 -4.195312 12.890625 -4.6875 C 13.585938 -5.1875 13.9375 -5.800781 13.9375 -6.53125 Z M 13.9375 -8.109375 "/></g></g></g><g fill="#ffde59" fill-opacity="1"><g transform="translate(75.623222, 39.952313)"><g><path d="M 14.390625 -19.046875 C 16.910156 -19.046875 18.851562 -18.222656 20.21875 -16.578125 C 21.582031 -14.929688 22.265625 -12.5 22.265625 -9.28125 C 22.265625 -6.082031 21.582031 -3.664062 20.21875 -2.03125 C 18.851562 -0.394531 16.910156 0.421875 14.390625 0.421875 C 12.234375 0.421875 10.492188 -0.28125 9.171875 -1.6875 L 9.171875 6.953125 L 2.15625 6.953125 L 2.15625 -18.625 L 7.875 -18.625 L 8.46875 -15.984375 C 9.832031 -18.023438 11.804688 -19.046875 14.390625 -19.046875 Z M 12.203125 -13.859375 C 11.171875 -13.859375 10.394531 -13.492188 9.875 -12.765625 C 9.363281 -12.035156 9.109375 -11.082031 9.109375 -9.90625 L 9.109375 -8.75 C 9.109375 -7.570312 9.363281 -6.613281 9.875 -5.875 C 10.394531 -5.132812 11.171875 -4.765625 12.203125 -4.765625 C 14.222656 -4.765625 15.234375 -5.972656 15.234375 -8.390625 L 15.234375 -10.265625 C 15.234375 -12.660156 14.222656 -13.859375 12.203125 -13.859375 Z M 12.203125 -13.859375 "/></g></g></g><g fill="#ffde59" fill-opacity="1"><g transform="translate(99.158429, 39.952313)"><g><path d="M 14.390625 -19.046875 C 16.910156 -19.046875 18.851562 -18.222656 20.21875 -16.578125 C 21.582031 -14.929688 22.265625 -12.5 22.265625 -9.28125 C 22.265625 -6.082031 21.582031 -3.664062 20.21875 -2.03125 C 18.851562 -0.394531 16.910156 0.421875 14.390625 0.421875 C 12.234375 0.421875 10.492188 -0.28125 9.171875 -1.6875 L 9.171875 6.953125 L 2.15625 6.953125 L 2.15625 -18.625 L 7.875 -18.625 L 8.46875 -15.984375 C 9.832031 -18.023438 11.804688 -19.046875 14.390625 -19.046875 Z M 12.203125 -13.859375 C 11.171875 -13.859375 10.394531 -13.492188 9.875 -12.765625 C 9.363281 -12.035156 9.109375 -11.082031 9.109375 -9.90625 L 9.109375 -8.75 C 9.109375 -7.570312 9.363281 -6.613281 9.875 -5.875 C 10.394531 -5.132812 11.171875 -4.765625 12.203125 -4.765625 C 14.222656 -4.765625 15.234375 -5.972656 15.234375 -8.390625 L 15.234375 -10.265625 C 15.234375 -12.660156 14.222656 -13.859375 12.203125 -13.859375 Z M 12.203125 -13.859375 "/></g></g></g><g fill="#ffde59" fill-opacity="1"><g transform="translate(122.093749, 39.952313)"><g><path d="M 14.921875 -0.5625 C 13.960938 2.050781 12.78125 4.03125 11.375 5.375 C 9.976562 6.726562 8.019531 7.40625 5.5 7.40625 C 3.96875 7.40625 2.617188 7.195312 1.453125 6.78125 L 1.453125 2.578125 L 4.265625 2.578125 C 6.035156 2.578125 7.082031 1.71875 7.40625 0 L 0 -18.625 L 7.546875 -18.625 L 11.109375 -6.25 L 11.359375 -6.25 L 14.640625 -18.625 L 21.5625 -18.625 Z M 14.921875 -0.5625 "/></g></g></g><g fill="#ffde59" fill-opacity="1"><g transform="translate(143.652985, 39.952313)"><g/></g></g><g fill="#ffde59" fill-opacity="1"><g transform="translate(155.402942, 39.952313)"><g><path d="M 10.96875 -19.046875 C 13.46875 -19.046875 15.582031 -18.554688 17.3125 -17.578125 C 19.039062 -16.609375 19.90625 -15.097656 19.90625 -13.046875 L 13.375 -13.046875 C 13.375 -13.734375 13.066406 -14.21875 12.453125 -14.5 C 12.023438 -14.738281 11.492188 -14.859375 10.859375 -14.859375 C 9.171875 -14.859375 8.328125 -14.457031 8.328125 -13.65625 C 8.328125 -13.207031 8.617188 -12.890625 9.203125 -12.703125 C 9.796875 -12.515625 10.757812 -12.3125 12.09375 -12.09375 C 13.75 -11.863281 15.128906 -11.585938 16.234375 -11.265625 C 17.335938 -10.953125 18.300781 -10.390625 19.125 -9.578125 C 19.945312 -8.765625 20.359375 -7.628906 20.359375 -6.171875 C 20.359375 -3.796875 19.46875 -2.101562 17.6875 -1.09375 C 15.914062 -0.0820312 13.59375 0.421875 10.71875 0.421875 C 9.070312 0.421875 7.519531 0.191406 6.0625 -0.265625 C 4.601562 -0.722656 3.414062 -1.429688 2.5 -2.390625 C 1.582031 -3.359375 1.125 -4.582031 1.125 -6.0625 L 7.65625 -6.0625 L 7.65625 -5.921875 C 7.675781 -5.128906 8.007812 -4.570312 8.65625 -4.25 C 9.300781 -3.9375 9.988281 -3.78125 10.71875 -3.78125 C 12.675781 -3.78125 13.65625 -4.238281 13.65625 -5.15625 C 13.65625 -5.625 13.347656 -5.960938 12.734375 -6.171875 C 12.117188 -6.378906 11.117188 -6.601562 9.734375 -6.84375 C 8.066406 -7.125 6.695312 -7.425781 5.625 -7.75 C 4.550781 -8.082031 3.613281 -8.644531 2.8125 -9.4375 C 2.019531 -10.226562 1.625 -11.328125 1.625 -12.734375 C 1.625 -15.015625 2.488281 -16.632812 4.21875 -17.59375 C 5.945312 -18.5625 8.195312 -19.046875 10.96875 -19.046875 Z M 10.96875 -19.046875 "/></g></g></g><g fill="#ffde59" fill-opacity="1"><g transform="translate(176.962178, 39.952313)"><g><path d="M 15.625 0 L 15.171875 -2.828125 C 14.441406 -1.816406 13.484375 -1.019531 12.296875 -0.4375 C 11.109375 0.132812 9.851562 0.421875 8.53125 0.421875 C 6.375 0.421875 4.753906 -0.175781 3.671875 -1.375 C 2.585938 -2.570312 2.046875 -4.300781 2.046875 -6.5625 L 2.046875 -18.625 L 9.0625 -18.625 L 9.0625 -7.40625 C 9.0625 -6.601562 9.265625 -5.960938 9.671875 -5.484375 C 10.085938 -5.003906 10.675781 -4.765625 11.4375 -4.765625 C 12.300781 -4.765625 13.003906 -5.046875 13.546875 -5.609375 C 14.085938 -6.171875 14.359375 -6.863281 14.359375 -7.6875 L 14.359375 -18.625 L 21.375 -18.625 L 21.375 0 Z M 15.625 0 "/></g></g></g><g fill="#ffde59" fill-opacity="1"><g transform="translate(200.497386, 39.952313)"><g><path d="M 14.953125 -19.046875 C 17.117188 -19.046875 18.742188 -18.445312 19.828125 -17.25 C 20.910156 -16.050781 21.453125 -14.320312 21.453125 -12.0625 L 21.453125 0 L 14.4375 0 L 14.4375 -11.21875 C 14.4375 -12.019531 14.226562 -12.660156 13.8125 -13.140625 C 13.394531 -13.617188 12.8125 -13.859375 12.0625 -13.859375 C 11.195312 -13.859375 10.492188 -13.578125 9.953125 -13.015625 C 9.410156 -12.453125 9.140625 -11.757812 9.140625 -10.9375 L 9.140625 0 L 2.109375 0 L 2.109375 -18.625 L 7.875 -18.625 L 8.328125 -15.8125 C 9.054688 -16.789062 10.015625 -17.570312 11.203125 -18.15625 C 12.390625 -18.75 13.640625 -19.046875 14.953125 -19.046875 Z M 14.953125 -19.046875 "/></g></g></g><g fill="#ffde59" fill-opacity="1"><g transform="translate(224.032582, 39.952313)"><g><path d="M 15.671875 0 L 15.0625 -2.640625 C 13.695312 -0.597656 11.722656 0.421875 9.140625 0.421875 C 6.617188 0.421875 4.675781 -0.398438 3.3125 -2.046875 C 1.945312 -3.691406 1.265625 -6.125 1.265625 -9.34375 C 1.265625 -12.539062 1.945312 -14.957031 3.3125 -16.59375 C 4.675781 -18.226562 6.617188 -19.046875 9.140625 -19.046875 C 11.273438 -19.046875 13.015625 -18.332031 14.359375 -16.90625 L 14.359375 -25.578125 L 21.375 -25.578125 L 21.375 0 Z M 11.328125 -13.859375 C 9.304688 -13.859375 8.296875 -12.648438 8.296875 -10.234375 L 8.296875 -8.359375 C 8.296875 -5.960938 9.304688 -4.765625 11.328125 -4.765625 C 12.359375 -4.765625 13.132812 -5.128906 13.65625 -5.859375 C 14.175781 -6.585938 14.4375 -7.539062 14.4375 -8.71875 L 14.4375 -9.875 C 14.4375 -11.050781 14.175781 -12.007812 13.65625 -12.75 C 13.132812 -13.488281 12.359375 -13.859375 11.328125 -13.859375 Z M 11.328125 -13.859375 "/></g></g></g><g fill="#ffde59" fill-opacity="1"><g transform="translate(247.567812, 39.952313)"><g><path d="M 11.328125 -19.046875 C 14.171875 -19.046875 16.484375 -18.566406 18.265625 -17.609375 C 20.054688 -16.660156 20.953125 -15.117188 20.953125 -12.984375 L 20.953125 -5.71875 C 20.953125 -5.3125 21.046875 -4.976562 21.234375 -4.71875 C 21.421875 -4.46875 21.707031 -4.34375 22.09375 -4.34375 L 23.359375 -4.34375 L 23.359375 -0.28125 C 23.285156 -0.238281 23.101562 -0.160156 22.8125 -0.046875 C 22.519531 0.0546875 22.101562 0.160156 21.5625 0.265625 C 21.019531 0.367188 20.394531 0.421875 19.6875 0.421875 C 18.320312 0.421875 17.195312 0.21875 16.3125 -0.1875 C 15.4375 -0.601562 14.832031 -1.175781 14.5 -1.90625 C 13.601562 -1.195312 12.601562 -0.628906 11.5 -0.203125 C 10.394531 0.210938 9.101562 0.421875 7.625 0.421875 C 3.25 0.421875 1.0625 -1.316406 1.0625 -4.796875 C 1.0625 -6.609375 1.546875 -7.988281 2.515625 -8.9375 C 3.492188 -9.894531 4.898438 -10.550781 6.734375 -10.90625 C 8.566406 -11.257812 10.96875 -11.4375 13.9375 -11.4375 L 13.9375 -12.34375 C 13.9375 -13.070312 13.679688 -13.625 13.171875 -14 C 12.671875 -14.382812 12.019531 -14.578125 11.21875 -14.578125 C 10.488281 -14.578125 9.859375 -14.445312 9.328125 -14.1875 C 8.796875 -13.925781 8.53125 -13.515625 8.53125 -12.953125 L 8.53125 -12.8125 L 1.625 -12.8125 C 1.601562 -12.925781 1.59375 -13.085938 1.59375 -13.296875 C 1.59375 -15.066406 2.429688 -16.46875 4.109375 -17.5 C 5.796875 -18.53125 8.203125 -19.046875 11.328125 -19.046875 Z M 13.9375 -8.109375 C 11.9375 -8.109375 10.457031 -7.890625 9.5 -7.453125 C 8.550781 -7.023438 8.078125 -6.445312 8.078125 -5.71875 C 8.078125 -4.539062 8.878906 -3.953125 10.484375 -3.953125 C 11.398438 -3.953125 12.203125 -4.195312 12.890625 -4.6875 C 13.585938 -5.1875 13.9375 -5.800781 13.9375 -6.53125 Z M 13.9375 -8.109375 "/></g></g></g><g fill="#ffde59" fill-opacity="1"><g transform="translate(271.102997, 39.952313)"><g><path d="M 14.921875 -0.5625 C 13.960938 2.050781 12.78125 4.03125 11.375 5.375 C 9.976562 6.726562 8.019531 7.40625 5.5 7.40625 C 3.96875 7.40625 2.617188 7.195312 1.453125 6.78125 L 1.453125 2.578125 L 4.265625 2.578125 C 6.035156 2.578125 7.082031 1.71875 7.40625 0 L 0 -18.625 L 7.546875 -18.625 L 11.109375 -6.25 L 11.359375 -6.25 L 14.640625 -18.625 L 21.5625 -18.625 Z M 14.921875 -0.5625 "/></g></g></g><g transform="matrix(1, 0, 0, 1, 35, 20)"><g clip-path="url(#eab1557d3d)"><g clip-path="url(#fea9be07eb)"><g fill="#000000" fill-opacity="1"><g transform="translate(0.306346, 9.323583)"><g><path d="M 1.5625 -0.5625 C 1.5625 -0.382812 1.503906 -0.234375 1.390625 -0.109375 C 1.273438 0.0234375 1.128906 0.09375 0.953125 0.09375 C 0.628906 0.09375 0.46875 -0.0703125 0.46875 -0.40625 C 0.46875 -0.59375 0.523438 -0.75 0.640625 -0.875 C 0.753906 -1.007812 0.90625 -1.078125 1.09375 -1.078125 C 1.40625 -1.078125 1.5625 -0.90625 1.5625 -0.5625 Z M 1.5625 -0.5625 "/></g></g></g></g></g></g></svg>