<svg xmlns="http://www.w3.org/2000/svg" xmlns:xlink="http://www.w3.org/1999/xlink" width="203" zoomAndPan="magnify" viewBox="0 0 152.25 42" height="56" preserveAspectRatio="xMidYMid meet" version="1.0"><defs><g/><clipPath id="dd72e72670"><rect x="0" width="139" y="0" height="26"/></clipPath><clipPath id="7fe8dfa6da"><rect x="0" width="4" y="0" height="13"/></clipPath></defs><g transform="matrix(1, 0, 0, 1, 7, 7)"><g clip-path="url(#dd72e72670)"><g fill="#000000" fill-opacity="1"><g transform="translate(0.295411, 19.622433)"><g><path d="M 5.515625 0 L 1.984375 0 L 1.984375 -17.703125 L 5.515625 -17.703125 Z M 5.515625 0 "/></g></g></g><g fill="#000000" fill-opacity="1"><g transform="translate(7.820508, 19.622433)"><g/></g></g><g fill="#000000" fill-opacity="1"><g transform="translate(14.850523, 19.622433)"><g><path d="M 1.984375 -17.703125 L 5.515625 -17.703125 L 5.515625 -3.546875 L 11.140625 -3.546875 L 11.140625 0 L 1.984375 0 Z M 1.984375 -17.703125 "/></g></g></g><g fill="#000000" fill-opacity="1"><g transform="translate(27.054042, 19.622433)"><g><path d="M 10.5 0.25 C 8.976562 0.25 7.644531 -0.00390625 6.5 -0.515625 C 5.351562 -1.023438 4.398438 -1.710938 3.640625 -2.578125 C 2.878906 -3.453125 2.304688 -4.429688 1.921875 -5.515625 C 1.546875 -6.609375 1.359375 -7.726562 1.359375 -8.875 C 1.359375 -10.019531 1.546875 -11.132812 1.921875 -12.21875 C 2.304688 -13.3125 2.878906 -14.289062 3.640625 -15.15625 C 4.398438 -16.019531 5.351562 -16.707031 6.5 -17.21875 C 7.644531 -17.738281 8.976562 -18 10.5 -18 C 12.007812 -18 13.335938 -17.738281 14.484375 -17.21875 C 15.640625 -16.707031 16.59375 -16.019531 17.34375 -15.15625 C 18.101562 -14.289062 18.671875 -13.3125 19.046875 -12.21875 C 19.429688 -11.132812 19.625 -10.019531 19.625 -8.875 C 19.625 -7.726562 19.429688 -6.609375 19.046875 -5.515625 C 18.671875 -4.429688 18.101562 -3.453125 17.34375 -2.578125 C 16.59375 -1.710938 15.640625 -1.023438 14.484375 -0.515625 C 13.335938 -0.00390625 12.007812 0.25 10.5 0.25 Z M 10.5 -3.421875 C 11.5 -3.421875 12.363281 -3.617188 13.09375 -4.015625 C 13.820312 -4.410156 14.398438 -4.929688 14.828125 -5.578125 C 15.253906 -6.234375 15.539062 -6.945312 15.6875 -7.71875 C 15.84375 -8.5 15.84375 -9.273438 15.6875 -10.046875 C 15.539062 -10.828125 15.253906 -11.539062 14.828125 -12.1875 C 14.398438 -12.84375 13.820312 -13.367188 13.09375 -13.765625 C 12.363281 -14.160156 11.5 -14.359375 10.5 -14.359375 C 9.488281 -14.359375 8.617188 -14.160156 7.890625 -13.765625 C 7.171875 -13.367188 6.59375 -12.84375 6.15625 -12.1875 C 5.726562 -11.539062 5.441406 -10.828125 5.296875 -10.046875 C 5.148438 -9.273438 5.148438 -8.5 5.296875 -7.71875 C 5.441406 -6.945312 5.726562 -6.234375 6.15625 -5.578125 C 6.59375 -4.929688 7.171875 -4.410156 7.890625 -4.015625 C 8.617188 -3.617188 9.488281 -3.421875 10.5 -3.421875 Z M 10.5 -3.421875 "/></g></g></g><g fill="#000000" fill-opacity="1"><g transform="translate(48.020341, 19.622433)"><g><path d="M 7.46875 0.375 L 0.15625 -17.703125 L 4.234375 -17.703125 L 6.578125 -11.8125 L 7.875 -8.140625 L 9.125 -11.6875 L 11.515625 -17.703125 L 15.59375 -17.703125 L 8.265625 0.375 Z M 7.46875 0.375 "/></g></g></g><g fill="#000000" fill-opacity="1"><g transform="translate(63.788371, 19.622433)"><g><path d="M 11.140625 0 L 1.984375 0 L 1.984375 -17.703125 L 10.84375 -17.703125 L 10.84375 -14.15625 L 5.515625 -14.15625 L 5.515625 -10.625 L 10.171875 -10.625 L 10.171875 -7.078125 L 5.515625 -7.078125 L 5.515625 -3.546875 L 11.140625 -3.546875 Z M 11.140625 0 "/></g></g></g><g fill="#000000" fill-opacity="1"><g transform="translate(76.264171, 19.622433)"><g/></g></g><g fill="#000000" fill-opacity="1"><g transform="translate(83.294186, 19.622433)"><g><path d="M 6.3125 0 L 6.3125 -7.96875 L 0.15625 -17.703125 L 4.453125 -17.703125 L 8.0625 -11.609375 L 11.6875 -17.703125 L 16.015625 -17.703125 L 9.828125 -7.96875 L 9.828125 0 Z M 6.3125 0 "/></g></g></g><g fill="#000000" fill-opacity="1"><g transform="translate(99.359261, 19.622433)"><g><path d="M 10.5 0.25 C 8.976562 0.25 7.644531 -0.00390625 6.5 -0.515625 C 5.351562 -1.023438 4.398438 -1.710938 3.640625 -2.578125 C 2.878906 -3.453125 2.304688 -4.429688 1.921875 -5.515625 C 1.546875 -6.609375 1.359375 -7.726562 1.359375 -8.875 C 1.359375 -10.019531 1.546875 -11.132812 1.921875 -12.21875 C 2.304688 -13.3125 2.878906 -14.289062 3.640625 -15.15625 C 4.398438 -16.019531 5.351562 -16.707031 6.5 -17.21875 C 7.644531 -17.738281 8.976562 -18 10.5 -18 C 12.007812 -18 13.335938 -17.738281 14.484375 -17.21875 C 15.640625 -16.707031 16.59375 -16.019531 17.34375 -15.15625 C 18.101562 -14.289062 18.671875 -13.3125 19.046875 -12.21875 C 19.429688 -11.132812 19.625 -10.019531 19.625 -8.875 C 19.625 -7.726562 19.429688 -6.609375 19.046875 -5.515625 C 18.671875 -4.429688 18.101562 -3.453125 17.34375 -2.578125 C 16.59375 -1.710938 15.640625 -1.023438 14.484375 -0.515625 C 13.335938 -0.00390625 12.007812 0.25 10.5 0.25 Z M 10.5 -3.421875 C 11.5 -3.421875 12.363281 -3.617188 13.09375 -4.015625 C 13.820312 -4.410156 14.398438 -4.929688 14.828125 -5.578125 C 15.253906 -6.234375 15.539062 -6.945312 15.6875 -7.71875 C 15.84375 -8.5 15.84375 -9.273438 15.6875 -10.046875 C 15.539062 -10.828125 15.253906 -11.539062 14.828125 -12.1875 C 14.398438 -12.84375 13.820312 -13.367188 13.09375 -13.765625 C 12.363281 -14.160156 11.5 -14.359375 10.5 -14.359375 C 9.488281 -14.359375 8.617188 -14.160156 7.890625 -13.765625 C 7.171875 -13.367188 6.59375 -12.84375 6.15625 -12.1875 C 5.726562 -11.539062 5.441406 -10.828125 5.296875 -10.046875 C 5.148438 -9.273438 5.148438 -8.5 5.296875 -7.71875 C 5.441406 -6.945312 5.726562 -6.234375 6.15625 -5.578125 C 6.59375 -4.929688 7.171875 -4.410156 7.890625 -4.015625 C 8.617188 -3.617188 9.488281 -3.421875 10.5 -3.421875 Z M 10.5 -3.421875 "/></g></g></g><g fill="#000000" fill-opacity="1"><g transform="translate(120.325559, 19.622433)"><g><path d="M 14.671875 -6.15625 C 14.671875 -4.957031 14.441406 -3.925781 13.984375 -3.0625 C 13.523438 -2.207031 12.914062 -1.523438 12.15625 -1.015625 C 11.394531 -0.503906 10.5625 -0.164062 9.65625 0 C 8.75 0.175781 7.835938 0.175781 6.921875 0 C 6.003906 -0.164062 5.164062 -0.503906 4.40625 -1.015625 C 3.644531 -1.523438 3.03125 -2.207031 2.5625 -3.0625 C 2.101562 -3.925781 1.875 -4.957031 1.875 -6.15625 L 1.875 -17.703125 L 5.421875 -17.703125 L 5.421875 -6.1875 C 5.421875 -5.445312 5.613281 -4.851562 6 -4.40625 C 6.382812 -3.957031 6.863281 -3.660156 7.4375 -3.515625 C 8.007812 -3.367188 8.578125 -3.367188 9.140625 -3.515625 C 9.710938 -3.660156 10.191406 -3.957031 10.578125 -4.40625 C 10.960938 -4.851562 11.15625 -5.445312 11.15625 -6.1875 L 11.15625 -17.703125 L 14.671875 -17.703125 Z M 14.671875 -6.15625 "/></g></g></g></g></g><g transform="matrix(1, 0, 0, 1, 124, 11)"><g clip-path="url(#7fe8dfa6da)"><g fill="#000000" fill-opacity="1"><g transform="translate(0.979296, 9.445473)"><g><path d="M 1.515625 -0.5625 C 1.515625 -0.375 1.460938 -0.222656 1.359375 -0.109375 C 1.242188 0.0234375 1.097656 0.09375 0.921875 0.09375 C 0.609375 0.09375 0.453125 -0.0664062 0.453125 -0.390625 C 0.453125 -0.578125 0.507812 -0.734375 0.625 -0.859375 C 0.738281 -0.992188 0.882812 -1.0625 1.0625 -1.0625 C 1.363281 -1.0625 1.515625 -0.894531 1.515625 -0.5625 Z M 1.515625 -0.5625 "/></g></g></g></g></g></svg>