<svg xmlns="http://www.w3.org/2000/svg" xmlns:xlink="http://www.w3.org/1999/xlink" width="345" zoomAndPan="magnify" viewBox="0 0 258.75 78.749999" height="105" preserveAspectRatio="xMidYMid meet" version="1.0"><defs><g/></defs><g fill="#812c2c" fill-opacity="1"><g transform="translate(17.584827, 48.185602)"><g><path d="M 3.171875 -6.6875 L 3.171875 -17.9375 C 3.171875 -18.832031 3.085938 -19.523438 2.921875 -20.015625 C 2.753906 -20.503906 2.546875 -20.882812 2.296875 -21.15625 C 2.054688 -21.425781 1.8125 -21.640625 1.5625 -21.796875 C 1.320312 -21.960938 1.117188 -22.15625 0.953125 -22.375 C 0.785156 -22.601562 0.703125 -22.929688 0.703125 -23.359375 C 0.703125 -23.828125 0.851562 -24.15625 1.15625 -24.34375 C 1.46875 -24.53125 2.046875 -24.625 2.890625 -24.625 L 10.203125 -24.625 C 10.992188 -24.625 11.546875 -24.53125 11.859375 -24.34375 C 12.179688 -24.15625 12.34375 -23.828125 12.34375 -23.359375 C 12.34375 -22.929688 12.257812 -22.601562 12.09375 -22.375 C 11.9375 -22.15625 11.734375 -21.960938 11.484375 -21.796875 C 11.234375 -21.640625 10.976562 -21.425781 10.71875 -21.15625 C 10.46875 -20.882812 10.257812 -20.503906 10.09375 -20.015625 C 9.925781 -19.523438 9.84375 -18.832031 9.84375 -17.9375 L 9.84375 -6.6875 C 9.84375 -5.789062 9.925781 -5.097656 10.09375 -4.609375 C 10.257812 -4.117188 10.460938 -3.738281 10.703125 -3.46875 C 10.953125 -3.195312 11.191406 -2.976562 11.421875 -2.8125 C 11.660156 -2.644531 11.863281 -2.453125 12.03125 -2.234375 C 12.195312 -2.015625 12.28125 -1.691406 12.28125 -1.265625 C 12.28125 -0.816406 12.125 -0.492188 11.8125 -0.296875 C 11.507812 -0.0976562 10.945312 0 10.125 0 L 2.8125 0 C 2.019531 0 1.457031 -0.0976562 1.125 -0.296875 C 0.800781 -0.492188 0.640625 -0.816406 0.640625 -1.265625 C 0.640625 -1.691406 0.722656 -2.015625 0.890625 -2.234375 C 1.066406 -2.453125 1.28125 -2.644531 1.53125 -2.8125 C 1.78125 -2.976562 2.023438 -3.195312 2.265625 -3.46875 C 2.515625 -3.738281 2.726562 -4.117188 2.90625 -4.609375 C 3.082031 -5.097656 3.171875 -5.789062 3.171875 -6.6875 Z M 3.171875 -6.6875 "/></g></g></g><g fill="#812c2c" fill-opacity="1"><g transform="translate(30.563853, 48.185602)"><g/></g></g><g fill="#812c2c" fill-opacity="1"><g transform="translate(37.598554, 48.185602)"><g><path d="M 19.03125 -8.515625 C 19.5 -8.421875 19.785156 -8.207031 19.890625 -7.875 C 19.992188 -7.550781 20.035156 -7.082031 20.015625 -6.46875 C 19.992188 -5.394531 19.925781 -4.460938 19.8125 -3.671875 C 19.707031 -2.890625 19.585938 -2.238281 19.453125 -1.71875 C 19.285156 -1.09375 18.988281 -0.648438 18.5625 -0.390625 C 18.144531 -0.128906 17.421875 0 16.390625 0 L 2.8125 0 C 2.019531 0 1.457031 -0.0976562 1.125 -0.296875 C 0.800781 -0.492188 0.640625 -0.816406 0.640625 -1.265625 C 0.640625 -1.734375 0.722656 -2.078125 0.890625 -2.296875 C 1.066406 -2.523438 1.28125 -2.71875 1.53125 -2.875 C 1.78125 -3.039062 2.023438 -3.253906 2.265625 -3.515625 C 2.515625 -3.773438 2.726562 -4.179688 2.90625 -4.734375 C 3.082031 -5.285156 3.171875 -6.078125 3.171875 -7.109375 L 3.171875 -17.9375 C 3.171875 -18.832031 3.085938 -19.523438 2.921875 -20.015625 C 2.753906 -20.503906 2.546875 -20.882812 2.296875 -21.15625 C 2.054688 -21.425781 1.8125 -21.640625 1.5625 -21.796875 C 1.320312 -21.960938 1.117188 -22.15625 0.953125 -22.375 C 0.785156 -22.601562 0.703125 -22.929688 0.703125 -23.359375 C 0.703125 -23.828125 0.851562 -24.15625 1.15625 -24.34375 C 1.46875 -24.53125 2.046875 -24.625 2.890625 -24.625 L 10.203125 -24.625 C 10.992188 -24.625 11.546875 -24.53125 11.859375 -24.34375 C 12.179688 -24.15625 12.34375 -23.828125 12.34375 -23.359375 C 12.34375 -22.929688 12.257812 -22.601562 12.09375 -22.375 C 11.9375 -22.15625 11.734375 -21.960938 11.484375 -21.796875 C 11.234375 -21.640625 10.976562 -21.425781 10.71875 -21.15625 C 10.46875 -20.882812 10.257812 -20.503906 10.09375 -20.015625 C 9.925781 -19.523438 9.84375 -18.832031 9.84375 -17.9375 L 9.84375 -4.390625 C 9.84375 -3.878906 10 -3.5 10.3125 -3.25 C 10.632812 -3.007812 11.265625 -2.890625 12.203125 -2.890625 L 13.1875 -2.890625 C 14.125 -2.890625 14.863281 -3.273438 15.40625 -4.046875 C 15.945312 -4.816406 16.554688 -5.867188 17.234375 -7.203125 C 17.535156 -7.796875 17.832031 -8.1875 18.125 -8.375 C 18.425781 -8.5625 18.726562 -8.609375 19.03125 -8.515625 Z M 19.03125 -8.515625 "/></g></g></g><g fill="#812c2c" fill-opacity="1"><g transform="translate(58.561963, 48.185602)"><g><path d="M 13.1875 0.359375 C 11.570312 0.359375 10.050781 0.078125 8.625 -0.484375 C 7.207031 -1.054688 5.957031 -1.863281 4.875 -2.90625 C 3.800781 -3.945312 2.953125 -5.1875 2.328125 -6.625 C 1.710938 -8.070312 1.40625 -9.660156 1.40625 -11.390625 C 1.40625 -13.265625 1.738281 -15.023438 2.40625 -16.671875 C 3.070312 -18.316406 4.003906 -19.757812 5.203125 -21 C 6.398438 -22.238281 7.804688 -23.207031 9.421875 -23.90625 C 11.046875 -24.613281 12.796875 -24.96875 14.671875 -24.96875 C 17.054688 -24.96875 19.128906 -24.425781 20.890625 -23.34375 C 22.648438 -22.269531 24.007812 -20.816406 24.96875 -18.984375 C 25.9375 -17.160156 26.421875 -15.113281 26.421875 -12.84375 C 26.421875 -10.988281 26.085938 -9.253906 25.421875 -7.640625 C 24.765625 -6.035156 23.835938 -4.632812 22.640625 -3.4375 C 21.453125 -2.25 20.050781 -1.316406 18.4375 -0.640625 C 16.832031 0.0234375 15.082031 0.359375 13.1875 0.359375 Z M 15.328125 -3.125 C 16.523438 -3.125 17.460938 -3.394531 18.140625 -3.9375 C 18.828125 -4.476562 19.3125 -5.226562 19.59375 -6.1875 C 19.875 -7.144531 20.015625 -8.25 20.015625 -9.5 C 20.015625 -10.882812 19.84375 -12.296875 19.5 -13.734375 C 19.164062 -15.171875 18.679688 -16.503906 18.046875 -17.734375 C 17.410156 -18.972656 16.640625 -19.972656 15.734375 -20.734375 C 14.835938 -21.492188 13.828125 -21.875 12.703125 -21.875 C 11.597656 -21.875 10.691406 -21.582031 9.984375 -21 C 9.285156 -20.414062 8.769531 -19.625 8.4375 -18.625 C 8.113281 -17.625 7.953125 -16.492188 7.953125 -15.234375 C 7.953125 -13.890625 8.113281 -12.515625 8.4375 -11.109375 C 8.769531 -9.703125 9.25 -8.394531 9.875 -7.1875 C 10.507812 -5.976562 11.285156 -5 12.203125 -4.25 C 13.117188 -3.5 14.160156 -3.125 15.328125 -3.125 Z M 15.328125 -3.125 "/></g></g></g><g fill="#812c2c" fill-opacity="1"><g transform="translate(86.560074, 48.185602)"><g><path d="M 20.40625 -24.578125 L 23.875 -24.578125 C 24.5625 -24.578125 25.097656 -24.5 25.484375 -24.34375 C 25.867188 -24.195312 26.0625 -23.890625 26.0625 -23.421875 C 26.0625 -23.066406 25.945312 -22.78125 25.71875 -22.5625 C 25.5 -22.34375 25.222656 -22.125 24.890625 -21.90625 C 24.566406 -21.695312 24.234375 -21.429688 23.890625 -21.109375 C 23.554688 -20.796875 23.269531 -20.347656 23.03125 -19.765625 L 15.9375 -1.515625 C 15.769531 -1.066406 15.550781 -0.722656 15.28125 -0.484375 C 15.007812 -0.253906 14.429688 -0.0820312 13.546875 0.03125 C 12.484375 0.15625 11.78125 0.164062 11.4375 0.0625 C 11.101562 -0.03125 10.84375 -0.3125 10.65625 -0.78125 L 3.203125 -19.515625 C 2.921875 -20.242188 2.625 -20.785156 2.3125 -21.140625 C 2.007812 -21.492188 1.726562 -21.753906 1.46875 -21.921875 C 1.21875 -22.097656 1.007812 -22.28125 0.84375 -22.46875 C 0.675781 -22.65625 0.59375 -22.953125 0.59375 -23.359375 C 0.59375 -23.828125 0.738281 -24.15625 1.03125 -24.34375 C 1.332031 -24.53125 1.867188 -24.625 2.640625 -24.625 L 9.84375 -24.625 C 10.53125 -24.625 11.023438 -24.53125 11.328125 -24.34375 C 11.628906 -24.15625 11.78125 -23.828125 11.78125 -23.359375 C 11.78125 -22.953125 11.660156 -22.648438 11.421875 -22.453125 C 11.191406 -22.253906 10.945312 -22.0625 10.6875 -21.875 C 10.4375 -21.6875 10.253906 -21.421875 10.140625 -21.078125 C 10.035156 -20.742188 10.125 -20.222656 10.40625 -19.515625 L 15.015625 -7.765625 L 19.484375 -19.765625 C 19.742188 -20.421875 19.835938 -20.914062 19.765625 -21.25 C 19.691406 -21.59375 19.554688 -21.859375 19.359375 -22.046875 C 19.160156 -22.234375 18.96875 -22.425781 18.78125 -22.625 C 18.59375 -22.832031 18.5 -23.125 18.5 -23.5 C 18.5 -23.96875 18.6875 -24.265625 19.0625 -24.390625 C 19.4375 -24.515625 19.882812 -24.578125 20.40625 -24.578125 Z M 20.40625 -24.578125 "/></g></g></g><g fill="#812c2c" fill-opacity="1"><g transform="translate(112.693988, 48.185602)"><g><path d="M 20.328125 -8.515625 C 20.796875 -8.421875 21.078125 -8.207031 21.171875 -7.875 C 21.265625 -7.550781 21.300781 -7.082031 21.28125 -6.46875 C 21.257812 -5.394531 21.191406 -4.460938 21.078125 -3.671875 C 20.972656 -2.890625 20.851562 -2.238281 20.71875 -1.71875 C 20.550781 -1.09375 20.253906 -0.648438 19.828125 -0.390625 C 19.410156 -0.128906 18.6875 0 17.65625 0 L 2.8125 0 C 2.019531 0 1.457031 -0.0976562 1.125 -0.296875 C 0.800781 -0.492188 0.640625 -0.816406 0.640625 -1.265625 C 0.640625 -1.734375 0.722656 -2.078125 0.890625 -2.296875 C 1.066406 -2.523438 1.28125 -2.71875 1.53125 -2.875 C 1.78125 -3.039062 2.023438 -3.253906 2.265625 -3.515625 C 2.515625 -3.773438 2.726562 -4.179688 2.90625 -4.734375 C 3.082031 -5.285156 3.171875 -6.078125 3.171875 -7.109375 L 3.171875 -17.515625 C 3.171875 -18.546875 3.082031 -19.335938 2.90625 -19.890625 C 2.726562 -20.441406 2.515625 -20.84375 2.265625 -21.09375 C 2.023438 -21.351562 1.78125 -21.566406 1.53125 -21.734375 C 1.28125 -21.898438 1.066406 -22.09375 0.890625 -22.3125 C 0.722656 -22.539062 0.640625 -22.890625 0.640625 -23.359375 C 0.640625 -23.828125 0.800781 -24.15625 1.125 -24.34375 C 1.457031 -24.53125 2.019531 -24.625 2.8125 -24.625 L 16.921875 -24.625 C 17.972656 -24.625 18.726562 -24.539062 19.1875 -24.375 C 19.644531 -24.207031 19.988281 -23.832031 20.21875 -23.25 C 20.570312 -22.332031 20.890625 -21.160156 21.171875 -19.734375 C 21.285156 -19.148438 21.300781 -18.671875 21.21875 -18.296875 C 21.144531 -17.921875 20.921875 -17.660156 20.546875 -17.515625 C 19.890625 -17.273438 19.253906 -17.59375 18.640625 -18.46875 C 17.835938 -19.570312 17.035156 -20.390625 16.234375 -20.921875 C 15.441406 -21.460938 14.507812 -21.734375 13.4375 -21.734375 L 12.09375 -21.734375 C 11.226562 -21.734375 10.632812 -21.609375 10.3125 -21.359375 C 10 -21.117188 9.84375 -20.726562 9.84375 -20.1875 L 9.84375 -17.15625 C 9.84375 -16.5 10 -16.050781 10.3125 -15.8125 C 10.632812 -15.582031 11.125 -15.457031 11.78125 -15.4375 C 12.507812 -15.457031 13.046875 -15.566406 13.390625 -15.765625 C 13.742188 -15.972656 14.054688 -16.175781 14.328125 -16.375 C 14.597656 -16.570312 14.957031 -16.671875 15.40625 -16.671875 C 15.875 -16.671875 16.179688 -16.570312 16.328125 -16.375 C 16.484375 -16.175781 16.570312 -15.957031 16.59375 -15.71875 L 17.65625 -10.65625 C 17.769531 -10.070312 17.753906 -9.671875 17.609375 -9.453125 C 17.472656 -9.242188 17.207031 -9.09375 16.8125 -9 C 16.289062 -8.90625 15.859375 -9.019531 15.515625 -9.34375 C 15.179688 -9.675781 14.851562 -10.09375 14.53125 -10.59375 C 14.21875 -11.101562 13.84375 -11.554688 13.40625 -11.953125 C 12.976562 -12.359375 12.425781 -12.570312 11.75 -12.59375 C 11.09375 -12.570312 10.609375 -12.441406 10.296875 -12.203125 C 9.992188 -11.972656 9.84375 -11.53125 9.84375 -10.875 L 9.84375 -4.4375 C 9.84375 -3.914062 10.015625 -3.523438 10.359375 -3.265625 C 10.703125 -3.015625 11.410156 -2.890625 12.484375 -2.890625 L 14.453125 -2.890625 C 15.390625 -2.890625 16.132812 -3.273438 16.6875 -4.046875 C 17.238281 -4.816406 17.84375 -5.867188 18.5 -7.203125 C 18.800781 -7.796875 19.097656 -8.1875 19.390625 -8.375 C 19.691406 -8.5625 20.003906 -8.609375 20.328125 -8.515625 Z M 20.328125 -8.515625 "/></g></g></g><g fill="#812c2c" fill-opacity="1"><g transform="translate(135.169865, 48.185602)"><g/></g></g><g fill="#812c2c" fill-opacity="1"><g transform="translate(142.204566, 48.185602)"><g><path d="M 19.375 -24.578125 L 23.421875 -24.578125 C 24.097656 -24.578125 24.632812 -24.5 25.03125 -24.34375 C 25.4375 -24.195312 25.640625 -23.890625 25.640625 -23.421875 C 25.640625 -23.066406 25.507812 -22.785156 25.25 -22.578125 C 24.988281 -22.367188 24.664062 -22.164062 24.28125 -21.96875 C 23.894531 -21.769531 23.476562 -21.5 23.03125 -21.15625 C 22.59375 -20.8125 22.171875 -20.335938 21.765625 -19.734375 L 16.421875 -11.078125 L 16.3125 -11.109375 L 16.3125 -6.6875 C 16.3125 -5.789062 16.394531 -5.097656 16.5625 -4.609375 C 16.726562 -4.117188 16.929688 -3.738281 17.171875 -3.46875 C 17.421875 -3.195312 17.671875 -2.976562 17.921875 -2.8125 C 18.171875 -2.644531 18.375 -2.453125 18.53125 -2.234375 C 18.695312 -2.015625 18.78125 -1.691406 18.78125 -1.265625 C 18.78125 -0.816406 18.628906 -0.492188 18.328125 -0.296875 C 18.023438 -0.0976562 17.445312 0 16.59375 0 L 9.28125 0 C 8.488281 0 7.929688 -0.0976562 7.609375 -0.296875 C 7.296875 -0.492188 7.140625 -0.816406 7.140625 -1.265625 C 7.140625 -1.691406 7.21875 -2.015625 7.375 -2.234375 C 7.539062 -2.453125 7.753906 -2.644531 8.015625 -2.8125 C 8.273438 -2.976562 8.523438 -3.195312 8.765625 -3.46875 C 9.015625 -3.738281 9.222656 -4.117188 9.390625 -4.609375 C 9.554688 -5.097656 9.640625 -5.789062 9.640625 -6.6875 L 9.640625 -10.90625 L 3.59375 -19.984375 C 3.164062 -20.609375 2.753906 -21.078125 2.359375 -21.390625 C 1.960938 -21.710938 1.609375 -21.960938 1.296875 -22.140625 C 0.992188 -22.316406 0.753906 -22.5 0.578125 -22.6875 C 0.398438 -22.875 0.3125 -23.15625 0.3125 -23.53125 C 0.3125 -24 0.472656 -24.296875 0.796875 -24.421875 C 1.128906 -24.554688 1.554688 -24.625 2.078125 -24.625 L 10.265625 -24.625 C 10.859375 -24.625 11.304688 -24.539062 11.609375 -24.375 C 11.910156 -24.207031 12.0625 -23.890625 12.0625 -23.421875 C 12.0625 -23.066406 11.972656 -22.796875 11.796875 -22.609375 C 11.617188 -22.421875 11.445312 -22.242188 11.28125 -22.078125 C 11.125 -21.921875 11.054688 -21.679688 11.078125 -21.359375 C 11.097656 -21.046875 11.3125 -20.570312 11.71875 -19.9375 L 15.125 -14.484375 L 18.046875 -19.65625 C 18.441406 -20.363281 18.640625 -20.890625 18.640625 -21.234375 C 18.640625 -21.585938 18.539062 -21.859375 18.34375 -22.046875 C 18.144531 -22.234375 17.941406 -22.425781 17.734375 -22.625 C 17.535156 -22.832031 17.4375 -23.125 17.4375 -23.5 C 17.4375 -23.96875 17.628906 -24.265625 18.015625 -24.390625 C 18.410156 -24.515625 18.863281 -24.578125 19.375 -24.578125 Z M 19.375 -24.578125 "/></g></g></g><g fill="#812c2c" fill-opacity="1"><g transform="translate(168.162617, 48.185602)"><g><path d="M 13.1875 0.359375 C 11.570312 0.359375 10.050781 0.078125 8.625 -0.484375 C 7.207031 -1.054688 5.957031 -1.863281 4.875 -2.90625 C 3.800781 -3.945312 2.953125 -5.1875 2.328125 -6.625 C 1.710938 -8.070312 1.40625 -9.660156 1.40625 -11.390625 C 1.40625 -13.265625 1.738281 -15.023438 2.40625 -16.671875 C 3.070312 -18.316406 4.003906 -19.757812 5.203125 -21 C 6.398438 -22.238281 7.804688 -23.207031 9.421875 -23.90625 C 11.046875 -24.613281 12.796875 -24.96875 14.671875 -24.96875 C 17.054688 -24.96875 19.128906 -24.425781 20.890625 -23.34375 C 22.648438 -22.269531 24.007812 -20.816406 24.96875 -18.984375 C 25.9375 -17.160156 26.421875 -15.113281 26.421875 -12.84375 C 26.421875 -10.988281 26.085938 -9.253906 25.421875 -7.640625 C 24.765625 -6.035156 23.835938 -4.632812 22.640625 -3.4375 C 21.453125 -2.25 20.050781 -1.316406 18.4375 -0.640625 C 16.832031 0.0234375 15.082031 0.359375 13.1875 0.359375 Z M 15.328125 -3.125 C 16.523438 -3.125 17.460938 -3.394531 18.140625 -3.9375 C 18.828125 -4.476562 19.3125 -5.226562 19.59375 -6.1875 C 19.875 -7.144531 20.015625 -8.25 20.015625 -9.5 C 20.015625 -10.882812 19.84375 -12.296875 19.5 -13.734375 C 19.164062 -15.171875 18.679688 -16.503906 18.046875 -17.734375 C 17.410156 -18.972656 16.640625 -19.972656 15.734375 -20.734375 C 14.835938 -21.492188 13.828125 -21.875 12.703125 -21.875 C 11.597656 -21.875 10.691406 -21.582031 9.984375 -21 C 9.285156 -20.414062 8.769531 -19.625 8.4375 -18.625 C 8.113281 -17.625 7.953125 -16.492188 7.953125 -15.234375 C 7.953125 -13.890625 8.113281 -12.515625 8.4375 -11.109375 C 8.769531 -9.703125 9.25 -8.394531 9.875 -7.1875 C 10.507812 -5.976562 11.285156 -5 12.203125 -4.25 C 13.117188 -3.5 14.160156 -3.125 15.328125 -3.125 Z M 15.328125 -3.125 "/></g></g></g><g fill="#812c2c" fill-opacity="1"><g transform="translate(196.160727, 48.185602)"><g><path d="M 19.625 -15.890625 L 19.59375 -11.078125 L 19.5625 -5.90625 C 19.5625 -5.269531 19.660156 -4.796875 19.859375 -4.484375 C 20.054688 -4.171875 20.289062 -3.929688 20.5625 -3.765625 C 20.832031 -3.597656 21.066406 -3.441406 21.265625 -3.296875 C 21.460938 -3.160156 21.5625 -2.960938 21.5625 -2.703125 C 21.5625 -2.140625 21.101562 -1.625 20.1875 -1.15625 C 19.789062 -0.945312 19.273438 -0.726562 18.640625 -0.5 C 18.003906 -0.28125 17.375 -0.09375 16.75 0.0625 C 16.132812 0.226562 15.640625 0.3125 15.265625 0.3125 C 14.703125 0.3125 14.28125 0.144531 14 -0.1875 C 13.71875 -0.53125 13.550781 -1.132812 13.5 -2 L 13.46875 -2.421875 C 12.832031 -1.554688 12.035156 -0.882812 11.078125 -0.40625 C 10.117188 0.0703125 9.179688 0.3125 8.265625 0.3125 C 6.878906 0.3125 5.753906 0.00390625 4.890625 -0.609375 C 4.023438 -1.234375 3.382812 -2.082031 2.96875 -3.15625 C 2.5625 -4.238281 2.359375 -5.472656 2.359375 -6.859375 L 2.328125 -11.078125 C 2.328125 -11.691406 2.191406 -12.144531 1.921875 -12.4375 C 1.648438 -12.726562 1.378906 -12.976562 1.109375 -13.1875 C 0.835938 -13.394531 0.703125 -13.675781 0.703125 -14.03125 C 0.703125 -14.332031 0.796875 -14.570312 0.984375 -14.75 C 1.171875 -14.925781 1.476562 -15.109375 1.90625 -15.296875 C 2.25 -15.460938 2.710938 -15.65625 3.296875 -15.875 C 3.890625 -16.101562 4.492188 -16.316406 5.109375 -16.515625 C 5.734375 -16.710938 6.289062 -16.878906 6.78125 -17.015625 C 7.28125 -17.160156 7.597656 -17.234375 7.734375 -17.234375 C 8.367188 -17.234375 8.6875 -16.785156 8.6875 -15.890625 L 8.65625 -11.078125 L 8.65625 -7 C 8.65625 -5.914062 8.78125 -5.082031 9.03125 -4.5 C 9.289062 -3.914062 9.796875 -3.625 10.546875 -3.625 C 11.296875 -3.601562 11.921875 -3.957031 12.421875 -4.6875 C 12.929688 -5.425781 13.222656 -6.375 13.296875 -7.53125 L 13.265625 -11.078125 C 13.265625 -11.691406 13.128906 -12.144531 12.859375 -12.4375 C 12.585938 -12.726562 12.316406 -12.976562 12.046875 -13.1875 C 11.773438 -13.394531 11.640625 -13.675781 11.640625 -14.03125 C 11.640625 -14.332031 11.734375 -14.570312 11.921875 -14.75 C 12.109375 -14.925781 12.414062 -15.109375 12.84375 -15.296875 C 13.1875 -15.460938 13.644531 -15.65625 14.21875 -15.875 C 14.800781 -16.101562 15.398438 -16.316406 16.015625 -16.515625 C 16.640625 -16.710938 17.195312 -16.878906 17.6875 -17.015625 C 18.1875 -17.160156 18.515625 -17.234375 18.671875 -17.234375 C 19.304688 -17.234375 19.625 -16.785156 19.625 -15.890625 Z M 19.625 -15.890625 "/></g></g></g><g fill="#812c2c" fill-opacity="1"><g transform="translate(218.284865, 48.185602)"><g/></g></g><g fill="#812c2c" fill-opacity="1"><g transform="translate(225.319554, 48.185602)"><g><path d="M 4.296875 -8.375 C 3.941406 -8.375 3.695312 -8.46875 3.5625 -8.65625 C 3.4375 -8.84375 3.363281 -9.191406 3.34375 -9.703125 C 3.25 -10.765625 3.070312 -11.832031 2.8125 -12.90625 C 2.550781 -13.988281 2.273438 -15.039062 1.984375 -16.0625 C 1.691406 -17.082031 1.441406 -18.03125 1.234375 -18.90625 C 1.023438 -19.78125 0.921875 -20.546875 0.921875 -21.203125 C 0.921875 -22.378906 1.25 -23.300781 1.90625 -23.96875 C 2.5625 -24.632812 3.359375 -24.96875 4.296875 -24.96875 C 5.253906 -24.96875 6.066406 -24.632812 6.734375 -23.96875 C 7.398438 -23.300781 7.734375 -22.378906 7.734375 -21.203125 C 7.734375 -20.546875 7.617188 -19.78125 7.390625 -18.90625 C 7.171875 -18.03125 6.910156 -17.082031 6.609375 -16.0625 C 6.304688 -15.039062 6.023438 -13.988281 5.765625 -12.90625 C 5.503906 -11.832031 5.328125 -10.765625 5.234375 -9.703125 C 5.210938 -9.191406 5.132812 -8.84375 5 -8.65625 C 4.875 -8.46875 4.640625 -8.375 4.296875 -8.375 Z M 4.078125 0.359375 C 3.253906 0.359375 2.523438 0.0976562 1.890625 -0.421875 C 1.265625 -0.941406 0.953125 -1.703125 0.953125 -2.703125 C 0.953125 -3.804688 1.328125 -4.675781 2.078125 -5.3125 C 2.828125 -5.945312 3.632812 -6.265625 4.5 -6.265625 C 5.320312 -6.265625 6.054688 -5.992188 6.703125 -5.453125 C 7.347656 -4.910156 7.671875 -4.125 7.671875 -3.09375 C 7.671875 -2.019531 7.3125 -1.175781 6.59375 -0.5625 C 5.875 0.0507812 5.035156 0.359375 4.078125 0.359375 Z M 4.078125 0.359375 "/></g></g></g><g fill="#812c2c" fill-opacity="1"><g transform="translate(233.937064, 48.185602)"><g><path d="M 4.296875 -8.375 C 3.941406 -8.375 3.695312 -8.46875 3.5625 -8.65625 C 3.4375 -8.84375 3.363281 -9.191406 3.34375 -9.703125 C 3.25 -10.765625 3.070312 -11.832031 2.8125 -12.90625 C 2.550781 -13.988281 2.273438 -15.039062 1.984375 -16.0625 C 1.691406 -17.082031 1.441406 -18.03125 1.234375 -18.90625 C 1.023438 -19.78125 0.921875 -20.546875 0.921875 -21.203125 C 0.921875 -22.378906 1.25 -23.300781 1.90625 -23.96875 C 2.5625 -24.632812 3.359375 -24.96875 4.296875 -24.96875 C 5.253906 -24.96875 6.066406 -24.632812 6.734375 -23.96875 C 7.398438 -23.300781 7.734375 -22.378906 7.734375 -21.203125 C 7.734375 -20.546875 7.617188 -19.78125 7.390625 -18.90625 C 7.171875 -18.03125 6.910156 -17.082031 6.609375 -16.0625 C 6.304688 -15.039062 6.023438 -13.988281 5.765625 -12.90625 C 5.503906 -11.832031 5.328125 -10.765625 5.234375 -9.703125 C 5.210938 -9.191406 5.132812 -8.84375 5 -8.65625 C 4.875 -8.46875 4.640625 -8.375 4.296875 -8.375 Z M 4.078125 0.359375 C 3.253906 0.359375 2.523438 0.0976562 1.890625 -0.421875 C 1.265625 -0.941406 0.953125 -1.703125 0.953125 -2.703125 C 0.953125 -3.804688 1.328125 -4.675781 2.078125 -5.3125 C 2.828125 -5.945312 3.632812 -6.265625 4.5 -6.265625 C 5.320312 -6.265625 6.054688 -5.992188 6.703125 -5.453125 C 7.347656 -4.910156 7.671875 -4.125 7.671875 -3.09375 C 7.671875 -2.019531 7.3125 -1.175781 6.59375 -0.5625 C 5.875 0.0507812 5.035156 0.359375 4.078125 0.359375 Z M 4.078125 0.359375 "/></g></g></g><g fill="#ffc700" fill-opacity="1"><g transform="translate(15.657106, 46.257883)"><g><path d="M 3.171875 -6.6875 L 3.171875 -17.9375 C 3.171875 -18.832031 3.085938 -19.523438 2.921875 -20.015625 C 2.753906 -20.503906 2.546875 -20.882812 2.296875 -21.15625 C 2.054688 -21.425781 1.8125 -21.640625 1.5625 -21.796875 C 1.320312 -21.960938 1.117188 -22.15625 0.953125 -22.375 C 0.785156 -22.601562 0.703125 -22.929688 0.703125 -23.359375 C 0.703125 -23.828125 0.851562 -24.15625 1.15625 -24.34375 C 1.46875 -24.53125 2.046875 -24.625 2.890625 -24.625 L 10.203125 -24.625 C 10.992188 -24.625 11.546875 -24.53125 11.859375 -24.34375 C 12.179688 -24.15625 12.34375 -23.828125 12.34375 -23.359375 C 12.34375 -22.929688 12.257812 -22.601562 12.09375 -22.375 C 11.9375 -22.15625 11.734375 -21.960938 11.484375 -21.796875 C 11.234375 -21.640625 10.976562 -21.425781 10.71875 -21.15625 C 10.46875 -20.882812 10.257812 -20.503906 10.09375 -20.015625 C 9.925781 -19.523438 9.84375 -18.832031 9.84375 -17.9375 L 9.84375 -6.6875 C 9.84375 -5.789062 9.925781 -5.097656 10.09375 -4.609375 C 10.257812 -4.117188 10.460938 -3.738281 10.703125 -3.46875 C 10.953125 -3.195312 11.191406 -2.976562 11.421875 -2.8125 C 11.660156 -2.644531 11.863281 -2.453125 12.03125 -2.234375 C 12.195312 -2.015625 12.28125 -1.691406 12.28125 -1.265625 C 12.28125 -0.816406 12.125 -0.492188 11.8125 -0.296875 C 11.507812 -0.0976562 10.945312 0 10.125 0 L 2.8125 0 C 2.019531 0 1.457031 -0.0976562 1.125 -0.296875 C 0.800781 -0.492188 0.640625 -0.816406 0.640625 -1.265625 C 0.640625 -1.691406 0.722656 -2.015625 0.890625 -2.234375 C 1.066406 -2.453125 1.28125 -2.644531 1.53125 -2.8125 C 1.78125 -2.976562 2.023438 -3.195312 2.265625 -3.46875 C 2.515625 -3.738281 2.726562 -4.117188 2.90625 -4.609375 C 3.082031 -5.097656 3.171875 -5.789062 3.171875 -6.6875 Z M 3.171875 -6.6875 "/></g></g></g><g fill="#ffc700" fill-opacity="1"><g transform="translate(28.636132, 46.257883)"><g/></g></g><g fill="#ffc700" fill-opacity="1"><g transform="translate(35.670833, 46.257883)"><g><path d="M 19.03125 -8.515625 C 19.5 -8.421875 19.785156 -8.207031 19.890625 -7.875 C 19.992188 -7.550781 20.035156 -7.082031 20.015625 -6.46875 C 19.992188 -5.394531 19.925781 -4.460938 19.8125 -3.671875 C 19.707031 -2.890625 19.585938 -2.238281 19.453125 -1.71875 C 19.285156 -1.09375 18.988281 -0.648438 18.5625 -0.390625 C 18.144531 -0.128906 17.421875 0 16.390625 0 L 2.8125 0 C 2.019531 0 1.457031 -0.0976562 1.125 -0.296875 C 0.800781 -0.492188 0.640625 -0.816406 0.640625 -1.265625 C 0.640625 -1.734375 0.722656 -2.078125 0.890625 -2.296875 C 1.066406 -2.523438 1.28125 -2.71875 1.53125 -2.875 C 1.78125 -3.039062 2.023438 -3.253906 2.265625 -3.515625 C 2.515625 -3.773438 2.726562 -4.179688 2.90625 -4.734375 C 3.082031 -5.285156 3.171875 -6.078125 3.171875 -7.109375 L 3.171875 -17.9375 C 3.171875 -18.832031 3.085938 -19.523438 2.921875 -20.015625 C 2.753906 -20.503906 2.546875 -20.882812 2.296875 -21.15625 C 2.054688 -21.425781 1.8125 -21.640625 1.5625 -21.796875 C 1.320312 -21.960938 1.117188 -22.15625 0.953125 -22.375 C 0.785156 -22.601562 0.703125 -22.929688 0.703125 -23.359375 C 0.703125 -23.828125 0.851562 -24.15625 1.15625 -24.34375 C 1.46875 -24.53125 2.046875 -24.625 2.890625 -24.625 L 10.203125 -24.625 C 10.992188 -24.625 11.546875 -24.53125 11.859375 -24.34375 C 12.179688 -24.15625 12.34375 -23.828125 12.34375 -23.359375 C 12.34375 -22.929688 12.257812 -22.601562 12.09375 -22.375 C 11.9375 -22.15625 11.734375 -21.960938 11.484375 -21.796875 C 11.234375 -21.640625 10.976562 -21.425781 10.71875 -21.15625 C 10.46875 -20.882812 10.257812 -20.503906 10.09375 -20.015625 C 9.925781 -19.523438 9.84375 -18.832031 9.84375 -17.9375 L 9.84375 -4.390625 C 9.84375 -3.878906 10 -3.5 10.3125 -3.25 C 10.632812 -3.007812 11.265625 -2.890625 12.203125 -2.890625 L 13.1875 -2.890625 C 14.125 -2.890625 14.863281 -3.273438 15.40625 -4.046875 C 15.945312 -4.816406 16.554688 -5.867188 17.234375 -7.203125 C 17.535156 -7.796875 17.832031 -8.1875 18.125 -8.375 C 18.425781 -8.5625 18.726562 -8.609375 19.03125 -8.515625 Z M 19.03125 -8.515625 "/></g></g></g><g fill="#ffc700" fill-opacity="1"><g transform="translate(56.634242, 46.257883)"><g><path d="M 13.1875 0.359375 C 11.570312 0.359375 10.050781 0.078125 8.625 -0.484375 C 7.207031 -1.054688 5.957031 -1.863281 4.875 -2.90625 C 3.800781 -3.945312 2.953125 -5.1875 2.328125 -6.625 C 1.710938 -8.070312 1.40625 -9.660156 1.40625 -11.390625 C 1.40625 -13.265625 1.738281 -15.023438 2.40625 -16.671875 C 3.070312 -18.316406 4.003906 -19.757812 5.203125 -21 C 6.398438 -22.238281 7.804688 -23.207031 9.421875 -23.90625 C 11.046875 -24.613281 12.796875 -24.96875 14.671875 -24.96875 C 17.054688 -24.96875 19.128906 -24.425781 20.890625 -23.34375 C 22.648438 -22.269531 24.007812 -20.816406 24.96875 -18.984375 C 25.9375 -17.160156 26.421875 -15.113281 26.421875 -12.84375 C 26.421875 -10.988281 26.085938 -9.253906 25.421875 -7.640625 C 24.765625 -6.035156 23.835938 -4.632812 22.640625 -3.4375 C 21.453125 -2.25 20.050781 -1.316406 18.4375 -0.640625 C 16.832031 0.0234375 15.082031 0.359375 13.1875 0.359375 Z M 15.328125 -3.125 C 16.523438 -3.125 17.460938 -3.394531 18.140625 -3.9375 C 18.828125 -4.476562 19.3125 -5.226562 19.59375 -6.1875 C 19.875 -7.144531 20.015625 -8.25 20.015625 -9.5 C 20.015625 -10.882812 19.84375 -12.296875 19.5 -13.734375 C 19.164062 -15.171875 18.679688 -16.503906 18.046875 -17.734375 C 17.410156 -18.972656 16.640625 -19.972656 15.734375 -20.734375 C 14.835938 -21.492188 13.828125 -21.875 12.703125 -21.875 C 11.597656 -21.875 10.691406 -21.582031 9.984375 -21 C 9.285156 -20.414062 8.769531 -19.625 8.4375 -18.625 C 8.113281 -17.625 7.953125 -16.492188 7.953125 -15.234375 C 7.953125 -13.890625 8.113281 -12.515625 8.4375 -11.109375 C 8.769531 -9.703125 9.25 -8.394531 9.875 -7.1875 C 10.507812 -5.976562 11.285156 -5 12.203125 -4.25 C 13.117188 -3.5 14.160156 -3.125 15.328125 -3.125 Z M 15.328125 -3.125 "/></g></g></g><g fill="#ffc700" fill-opacity="1"><g transform="translate(84.632352, 46.257883)"><g><path d="M 20.40625 -24.578125 L 23.875 -24.578125 C 24.5625 -24.578125 25.097656 -24.5 25.484375 -24.34375 C 25.867188 -24.195312 26.0625 -23.890625 26.0625 -23.421875 C 26.0625 -23.066406 25.945312 -22.78125 25.71875 -22.5625 C 25.5 -22.34375 25.222656 -22.125 24.890625 -21.90625 C 24.566406 -21.695312 24.234375 -21.429688 23.890625 -21.109375 C 23.554688 -20.796875 23.269531 -20.347656 23.03125 -19.765625 L 15.9375 -1.515625 C 15.769531 -1.066406 15.550781 -0.722656 15.28125 -0.484375 C 15.007812 -0.253906 14.429688 -0.0820312 13.546875 0.03125 C 12.484375 0.15625 11.78125 0.164062 11.4375 0.0625 C 11.101562 -0.03125 10.84375 -0.3125 10.65625 -0.78125 L 3.203125 -19.515625 C 2.921875 -20.242188 2.625 -20.785156 2.3125 -21.140625 C 2.007812 -21.492188 1.726562 -21.753906 1.46875 -21.921875 C 1.21875 -22.097656 1.007812 -22.28125 0.84375 -22.46875 C 0.675781 -22.65625 0.59375 -22.953125 0.59375 -23.359375 C 0.59375 -23.828125 0.738281 -24.15625 1.03125 -24.34375 C 1.332031 -24.53125 1.867188 -24.625 2.640625 -24.625 L 9.84375 -24.625 C 10.53125 -24.625 11.023438 -24.53125 11.328125 -24.34375 C 11.628906 -24.15625 11.78125 -23.828125 11.78125 -23.359375 C 11.78125 -22.953125 11.660156 -22.648438 11.421875 -22.453125 C 11.191406 -22.253906 10.945312 -22.0625 10.6875 -21.875 C 10.4375 -21.6875 10.253906 -21.421875 10.140625 -21.078125 C 10.035156 -20.742188 10.125 -20.222656 10.40625 -19.515625 L 15.015625 -7.765625 L 19.484375 -19.765625 C 19.742188 -20.421875 19.835938 -20.914062 19.765625 -21.25 C 19.691406 -21.59375 19.554688 -21.859375 19.359375 -22.046875 C 19.160156 -22.234375 18.96875 -22.425781 18.78125 -22.625 C 18.59375 -22.832031 18.5 -23.125 18.5 -23.5 C 18.5 -23.96875 18.6875 -24.265625 19.0625 -24.390625 C 19.4375 -24.515625 19.882812 -24.578125 20.40625 -24.578125 Z M 20.40625 -24.578125 "/></g></g></g><g fill="#ffc700" fill-opacity="1"><g transform="translate(110.766267, 46.257883)"><g><path d="M 20.328125 -8.515625 C 20.796875 -8.421875 21.078125 -8.207031 21.171875 -7.875 C 21.265625 -7.550781 21.300781 -7.082031 21.28125 -6.46875 C 21.257812 -5.394531 21.191406 -4.460938 21.078125 -3.671875 C 20.972656 -2.890625 20.851562 -2.238281 20.71875 -1.71875 C 20.550781 -1.09375 20.253906 -0.648438 19.828125 -0.390625 C 19.410156 -0.128906 18.6875 0 17.65625 0 L 2.8125 0 C 2.019531 0 1.457031 -0.0976562 1.125 -0.296875 C 0.800781 -0.492188 0.640625 -0.816406 0.640625 -1.265625 C 0.640625 -1.734375 0.722656 -2.078125 0.890625 -2.296875 C 1.066406 -2.523438 1.28125 -2.71875 1.53125 -2.875 C 1.78125 -3.039062 2.023438 -3.253906 2.265625 -3.515625 C 2.515625 -3.773438 2.726562 -4.179688 2.90625 -4.734375 C 3.082031 -5.285156 3.171875 -6.078125 3.171875 -7.109375 L 3.171875 -17.515625 C 3.171875 -18.546875 3.082031 -19.335938 2.90625 -19.890625 C 2.726562 -20.441406 2.515625 -20.84375 2.265625 -21.09375 C 2.023438 -21.351562 1.78125 -21.566406 1.53125 -21.734375 C 1.28125 -21.898438 1.066406 -22.09375 0.890625 -22.3125 C 0.722656 -22.539062 0.640625 -22.890625 0.640625 -23.359375 C 0.640625 -23.828125 0.800781 -24.15625 1.125 -24.34375 C 1.457031 -24.53125 2.019531 -24.625 2.8125 -24.625 L 16.921875 -24.625 C 17.972656 -24.625 18.726562 -24.539062 19.1875 -24.375 C 19.644531 -24.207031 19.988281 -23.832031 20.21875 -23.25 C 20.570312 -22.332031 20.890625 -21.160156 21.171875 -19.734375 C 21.285156 -19.148438 21.300781 -18.671875 21.21875 -18.296875 C 21.144531 -17.921875 20.921875 -17.660156 20.546875 -17.515625 C 19.890625 -17.273438 19.253906 -17.59375 18.640625 -18.46875 C 17.835938 -19.570312 17.035156 -20.390625 16.234375 -20.921875 C 15.441406 -21.460938 14.507812 -21.734375 13.4375 -21.734375 L 12.09375 -21.734375 C 11.226562 -21.734375 10.632812 -21.609375 10.3125 -21.359375 C 10 -21.117188 9.84375 -20.726562 9.84375 -20.1875 L 9.84375 -17.15625 C 9.84375 -16.5 10 -16.050781 10.3125 -15.8125 C 10.632812 -15.582031 11.125 -15.457031 11.78125 -15.4375 C 12.507812 -15.457031 13.046875 -15.566406 13.390625 -15.765625 C 13.742188 -15.972656 14.054688 -16.175781 14.328125 -16.375 C 14.597656 -16.570312 14.957031 -16.671875 15.40625 -16.671875 C 15.875 -16.671875 16.179688 -16.570312 16.328125 -16.375 C 16.484375 -16.175781 16.570312 -15.957031 16.59375 -15.71875 L 17.65625 -10.65625 C 17.769531 -10.070312 17.753906 -9.671875 17.609375 -9.453125 C 17.472656 -9.242188 17.207031 -9.09375 16.8125 -9 C 16.289062 -8.90625 15.859375 -9.019531 15.515625 -9.34375 C 15.179688 -9.675781 14.851562 -10.09375 14.53125 -10.59375 C 14.21875 -11.101562 13.84375 -11.554688 13.40625 -11.953125 C 12.976562 -12.359375 12.425781 -12.570312 11.75 -12.59375 C 11.09375 -12.570312 10.609375 -12.441406 10.296875 -12.203125 C 9.992188 -11.972656 9.84375 -11.53125 9.84375 -10.875 L 9.84375 -4.4375 C 9.84375 -3.914062 10.015625 -3.523438 10.359375 -3.265625 C 10.703125 -3.015625 11.410156 -2.890625 12.484375 -2.890625 L 14.453125 -2.890625 C 15.390625 -2.890625 16.132812 -3.273438 16.6875 -4.046875 C 17.238281 -4.816406 17.84375 -5.867188 18.5 -7.203125 C 18.800781 -7.796875 19.097656 -8.1875 19.390625 -8.375 C 19.691406 -8.5625 20.003906 -8.609375 20.328125 -8.515625 Z M 20.328125 -8.515625 "/></g></g></g><g fill="#ffc700" fill-opacity="1"><g transform="translate(133.242144, 46.257883)"><g/></g></g><g fill="#ffc700" fill-opacity="1"><g transform="translate(140.276844, 46.257883)"><g><path d="M 19.375 -24.578125 L 23.421875 -24.578125 C 24.097656 -24.578125 24.632812 -24.5 25.03125 -24.34375 C 25.4375 -24.195312 25.640625 -23.890625 25.640625 -23.421875 C 25.640625 -23.066406 25.507812 -22.785156 25.25 -22.578125 C 24.988281 -22.367188 24.664062 -22.164062 24.28125 -21.96875 C 23.894531 -21.769531 23.476562 -21.5 23.03125 -21.15625 C 22.59375 -20.8125 22.171875 -20.335938 21.765625 -19.734375 L 16.421875 -11.078125 L 16.3125 -11.109375 L 16.3125 -6.6875 C 16.3125 -5.789062 16.394531 -5.097656 16.5625 -4.609375 C 16.726562 -4.117188 16.929688 -3.738281 17.171875 -3.46875 C 17.421875 -3.195312 17.671875 -2.976562 17.921875 -2.8125 C 18.171875 -2.644531 18.375 -2.453125 18.53125 -2.234375 C 18.695312 -2.015625 18.78125 -1.691406 18.78125 -1.265625 C 18.78125 -0.816406 18.628906 -0.492188 18.328125 -0.296875 C 18.023438 -0.0976562 17.445312 0 16.59375 0 L 9.28125 0 C 8.488281 0 7.929688 -0.0976562 7.609375 -0.296875 C 7.296875 -0.492188 7.140625 -0.816406 7.140625 -1.265625 C 7.140625 -1.691406 7.21875 -2.015625 7.375 -2.234375 C 7.539062 -2.453125 7.753906 -2.644531 8.015625 -2.8125 C 8.273438 -2.976562 8.523438 -3.195312 8.765625 -3.46875 C 9.015625 -3.738281 9.222656 -4.117188 9.390625 -4.609375 C 9.554688 -5.097656 9.640625 -5.789062 9.640625 -6.6875 L 9.640625 -10.90625 L 3.59375 -19.984375 C 3.164062 -20.609375 2.753906 -21.078125 2.359375 -21.390625 C 1.960938 -21.710938 1.609375 -21.960938 1.296875 -22.140625 C 0.992188 -22.316406 0.753906 -22.5 0.578125 -22.6875 C 0.398438 -22.875 0.3125 -23.15625 0.3125 -23.53125 C 0.3125 -24 0.472656 -24.296875 0.796875 -24.421875 C 1.128906 -24.554688 1.554688 -24.625 2.078125 -24.625 L 10.265625 -24.625 C 10.859375 -24.625 11.304688 -24.539062 11.609375 -24.375 C 11.910156 -24.207031 12.0625 -23.890625 12.0625 -23.421875 C 12.0625 -23.066406 11.972656 -22.796875 11.796875 -22.609375 C 11.617188 -22.421875 11.445312 -22.242188 11.28125 -22.078125 C 11.125 -21.921875 11.054688 -21.679688 11.078125 -21.359375 C 11.097656 -21.046875 11.3125 -20.570312 11.71875 -19.9375 L 15.125 -14.484375 L 18.046875 -19.65625 C 18.441406 -20.363281 18.640625 -20.890625 18.640625 -21.234375 C 18.640625 -21.585938 18.539062 -21.859375 18.34375 -22.046875 C 18.144531 -22.234375 17.941406 -22.425781 17.734375 -22.625 C 17.535156 -22.832031 17.4375 -23.125 17.4375 -23.5 C 17.4375 -23.96875 17.628906 -24.265625 18.015625 -24.390625 C 18.410156 -24.515625 18.863281 -24.578125 19.375 -24.578125 Z M 19.375 -24.578125 "/></g></g></g><g fill="#ffc700" fill-opacity="1"><g transform="translate(166.234896, 46.257883)"><g><path d="M 13.1875 0.359375 C 11.570312 0.359375 10.050781 0.078125 8.625 -0.484375 C 7.207031 -1.054688 5.957031 -1.863281 4.875 -2.90625 C 3.800781 -3.945312 2.953125 -5.1875 2.328125 -6.625 C 1.710938 -8.070312 1.40625 -9.660156 1.40625 -11.390625 C 1.40625 -13.265625 1.738281 -15.023438 2.40625 -16.671875 C 3.070312 -18.316406 4.003906 -19.757812 5.203125 -21 C 6.398438 -22.238281 7.804688 -23.207031 9.421875 -23.90625 C 11.046875 -24.613281 12.796875 -24.96875 14.671875 -24.96875 C 17.054688 -24.96875 19.128906 -24.425781 20.890625 -23.34375 C 22.648438 -22.269531 24.007812 -20.816406 24.96875 -18.984375 C 25.9375 -17.160156 26.421875 -15.113281 26.421875 -12.84375 C 26.421875 -10.988281 26.085938 -9.253906 25.421875 -7.640625 C 24.765625 -6.035156 23.835938 -4.632812 22.640625 -3.4375 C 21.453125 -2.25 20.050781 -1.316406 18.4375 -0.640625 C 16.832031 0.0234375 15.082031 0.359375 13.1875 0.359375 Z M 15.328125 -3.125 C 16.523438 -3.125 17.460938 -3.394531 18.140625 -3.9375 C 18.828125 -4.476562 19.3125 -5.226562 19.59375 -6.1875 C 19.875 -7.144531 20.015625 -8.25 20.015625 -9.5 C 20.015625 -10.882812 19.84375 -12.296875 19.5 -13.734375 C 19.164062 -15.171875 18.679688 -16.503906 18.046875 -17.734375 C 17.410156 -18.972656 16.640625 -19.972656 15.734375 -20.734375 C 14.835938 -21.492188 13.828125 -21.875 12.703125 -21.875 C 11.597656 -21.875 10.691406 -21.582031 9.984375 -21 C 9.285156 -20.414062 8.769531 -19.625 8.4375 -18.625 C 8.113281 -17.625 7.953125 -16.492188 7.953125 -15.234375 C 7.953125 -13.890625 8.113281 -12.515625 8.4375 -11.109375 C 8.769531 -9.703125 9.25 -8.394531 9.875 -7.1875 C 10.507812 -5.976562 11.285156 -5 12.203125 -4.25 C 13.117188 -3.5 14.160156 -3.125 15.328125 -3.125 Z M 15.328125 -3.125 "/></g></g></g><g fill="#ffc700" fill-opacity="1"><g transform="translate(194.233006, 46.257883)"><g><path d="M 19.625 -15.890625 L 19.59375 -11.078125 L 19.5625 -5.90625 C 19.5625 -5.269531 19.660156 -4.796875 19.859375 -4.484375 C 20.054688 -4.171875 20.289062 -3.929688 20.5625 -3.765625 C 20.832031 -3.597656 21.066406 -3.441406 21.265625 -3.296875 C 21.460938 -3.160156 21.5625 -2.960938 21.5625 -2.703125 C 21.5625 -2.140625 21.101562 -1.625 20.1875 -1.15625 C 19.789062 -0.945312 19.273438 -0.726562 18.640625 -0.5 C 18.003906 -0.28125 17.375 -0.09375 16.75 0.0625 C 16.132812 0.226562 15.640625 0.3125 15.265625 0.3125 C 14.703125 0.3125 14.28125 0.144531 14 -0.1875 C 13.71875 -0.53125 13.550781 -1.132812 13.5 -2 L 13.46875 -2.421875 C 12.832031 -1.554688 12.035156 -0.882812 11.078125 -0.40625 C 10.117188 0.0703125 9.179688 0.3125 8.265625 0.3125 C 6.878906 0.3125 5.753906 0.00390625 4.890625 -0.609375 C 4.023438 -1.234375 3.382812 -2.082031 2.96875 -3.15625 C 2.5625 -4.238281 2.359375 -5.472656 2.359375 -6.859375 L 2.328125 -11.078125 C 2.328125 -11.691406 2.191406 -12.144531 1.921875 -12.4375 C 1.648438 -12.726562 1.378906 -12.976562 1.109375 -13.1875 C 0.835938 -13.394531 0.703125 -13.675781 0.703125 -14.03125 C 0.703125 -14.332031 0.796875 -14.570312 0.984375 -14.75 C 1.171875 -14.925781 1.476562 -15.109375 1.90625 -15.296875 C 2.25 -15.460938 2.710938 -15.65625 3.296875 -15.875 C 3.890625 -16.101562 4.492188 -16.316406 5.109375 -16.515625 C 5.734375 -16.710938 6.289062 -16.878906 6.78125 -17.015625 C 7.28125 -17.160156 7.597656 -17.234375 7.734375 -17.234375 C 8.367188 -17.234375 8.6875 -16.785156 8.6875 -15.890625 L 8.65625 -11.078125 L 8.65625 -7 C 8.65625 -5.914062 8.78125 -5.082031 9.03125 -4.5 C 9.289062 -3.914062 9.796875 -3.625 10.546875 -3.625 C 11.296875 -3.601562 11.921875 -3.957031 12.421875 -4.6875 C 12.929688 -5.425781 13.222656 -6.375 13.296875 -7.53125 L 13.265625 -11.078125 C 13.265625 -11.691406 13.128906 -12.144531 12.859375 -12.4375 C 12.585938 -12.726562 12.316406 -12.976562 12.046875 -13.1875 C 11.773438 -13.394531 11.640625 -13.675781 11.640625 -14.03125 C 11.640625 -14.332031 11.734375 -14.570312 11.921875 -14.75 C 12.109375 -14.925781 12.414062 -15.109375 12.84375 -15.296875 C 13.1875 -15.460938 13.644531 -15.65625 14.21875 -15.875 C 14.800781 -16.101562 15.398438 -16.316406 16.015625 -16.515625 C 16.640625 -16.710938 17.195312 -16.878906 17.6875 -17.015625 C 18.1875 -17.160156 18.515625 -17.234375 18.671875 -17.234375 C 19.304688 -17.234375 19.625 -16.785156 19.625 -15.890625 Z M 19.625 -15.890625 "/></g></g></g><g fill="#ffc700" fill-opacity="1"><g transform="translate(216.357144, 46.257883)"><g/></g></g><g fill="#ffc700" fill-opacity="1"><g transform="translate(223.391833, 46.257883)"><g><path d="M 4.296875 -8.375 C 3.941406 -8.375 3.695312 -8.46875 3.5625 -8.65625 C 3.4375 -8.84375 3.363281 -9.191406 3.34375 -9.703125 C 3.25 -10.765625 3.070312 -11.832031 2.8125 -12.90625 C 2.550781 -13.988281 2.273438 -15.039062 1.984375 -16.0625 C 1.691406 -17.082031 1.441406 -18.03125 1.234375 -18.90625 C 1.023438 -19.78125 0.921875 -20.546875 0.921875 -21.203125 C 0.921875 -22.378906 1.25 -23.300781 1.90625 -23.96875 C 2.5625 -24.632812 3.359375 -24.96875 4.296875 -24.96875 C 5.253906 -24.96875 6.066406 -24.632812 6.734375 -23.96875 C 7.398438 -23.300781 7.734375 -22.378906 7.734375 -21.203125 C 7.734375 -20.546875 7.617188 -19.78125 7.390625 -18.90625 C 7.171875 -18.03125 6.910156 -17.082031 6.609375 -16.0625 C 6.304688 -15.039062 6.023438 -13.988281 5.765625 -12.90625 C 5.503906 -11.832031 5.328125 -10.765625 5.234375 -9.703125 C 5.210938 -9.191406 5.132812 -8.84375 5 -8.65625 C 4.875 -8.46875 4.640625 -8.375 4.296875 -8.375 Z M 4.078125 0.359375 C 3.253906 0.359375 2.523438 0.0976562 1.890625 -0.421875 C 1.265625 -0.941406 0.953125 -1.703125 0.953125 -2.703125 C 0.953125 -3.804688 1.328125 -4.675781 2.078125 -5.3125 C 2.828125 -5.945312 3.632812 -6.265625 4.5 -6.265625 C 5.320312 -6.265625 6.054688 -5.992188 6.703125 -5.453125 C 7.347656 -4.910156 7.671875 -4.125 7.671875 -3.09375 C 7.671875 -2.019531 7.3125 -1.175781 6.59375 -0.5625 C 5.875 0.0507812 5.035156 0.359375 4.078125 0.359375 Z M 4.078125 0.359375 "/></g></g></g><g fill="#ffc700" fill-opacity="1"><g transform="translate(232.009342, 46.257883)"><g><path d="M 4.296875 -8.375 C 3.941406 -8.375 3.695312 -8.46875 3.5625 -8.65625 C 3.4375 -8.84375 3.363281 -9.191406 3.34375 -9.703125 C 3.25 -10.765625 3.070312 -11.832031 2.8125 -12.90625 C 2.550781 -13.988281 2.273438 -15.039062 1.984375 -16.0625 C 1.691406 -17.082031 1.441406 -18.03125 1.234375 -18.90625 C 1.023438 -19.78125 0.921875 -20.546875 0.921875 -21.203125 C 0.921875 -22.378906 1.25 -23.300781 1.90625 -23.96875 C 2.5625 -24.632812 3.359375 -24.96875 4.296875 -24.96875 C 5.253906 -24.96875 6.066406 -24.632812 6.734375 -23.96875 C 7.398438 -23.300781 7.734375 -22.378906 7.734375 -21.203125 C 7.734375 -20.546875 7.617188 -19.78125 7.390625 -18.90625 C 7.171875 -18.03125 6.910156 -17.082031 6.609375 -16.0625 C 6.304688 -15.039062 6.023438 -13.988281 5.765625 -12.90625 C 5.503906 -11.832031 5.328125 -10.765625 5.234375 -9.703125 C 5.210938 -9.191406 5.132812 -8.84375 5 -8.65625 C 4.875 -8.46875 4.640625 -8.375 4.296875 -8.375 Z M 4.078125 0.359375 C 3.253906 0.359375 2.523438 0.0976562 1.890625 -0.421875 C 1.265625 -0.941406 0.953125 -1.703125 0.953125 -2.703125 C 0.953125 -3.804688 1.328125 -4.675781 2.078125 -5.3125 C 2.828125 -5.945312 3.632812 -6.265625 4.5 -6.265625 C 5.320312 -6.265625 6.054688 -5.992188 6.703125 -5.453125 C 7.347656 -4.910156 7.671875 -4.125 7.671875 -3.09375 C 7.671875 -2.019531 7.3125 -1.175781 6.59375 -0.5625 C 5.875 0.0507812 5.035156 0.359375 4.078125 0.359375 Z M 4.078125 0.359375 "/></g></g></g><g fill="#812c2c" fill-opacity="1"><g transform="translate(218.287513, 44.435018)"><g/></g></g><g fill="#812c2c" fill-opacity="1"><g transform="translate(225.331557, 44.435018)"><g><path d="M 4.296875 -8.375 C 3.941406 -8.375 3.695312 -8.46875 3.5625 -8.65625 C 3.4375 -8.84375 3.363281 -9.191406 3.34375 -9.703125 C 3.25 -10.765625 3.070312 -11.832031 2.8125 -12.90625 C 2.550781 -13.988281 2.273438 -15.039062 1.984375 -16.0625 C 1.691406 -17.082031 1.441406 -18.03125 1.234375 -18.90625 C 1.023438 -19.78125 0.921875 -20.546875 0.921875 -21.203125 C 0.921875 -22.378906 1.25 -23.300781 1.90625 -23.96875 C 2.5625 -24.632812 3.359375 -24.96875 4.296875 -24.96875 C 5.253906 -24.96875 6.066406 -24.632812 6.734375 -23.96875 C 7.398438 -23.300781 7.734375 -22.378906 7.734375 -21.203125 C 7.734375 -20.546875 7.617188 -19.78125 7.390625 -18.90625 C 7.171875 -18.03125 6.910156 -17.082031 6.609375 -16.0625 C 6.304688 -15.039062 6.023438 -13.988281 5.765625 -12.90625 C 5.503906 -11.832031 5.328125 -10.765625 5.234375 -9.703125 C 5.210938 -9.191406 5.132812 -8.84375 5 -8.65625 C 4.875 -8.46875 4.640625 -8.375 4.296875 -8.375 Z M 4.078125 0.359375 C 3.253906 0.359375 2.523438 0.0976562 1.890625 -0.421875 C 1.265625 -0.941406 0.953125 -1.703125 0.953125 -2.703125 C 0.953125 -3.804688 1.328125 -4.675781 2.078125 -5.3125 C 2.828125 -5.945312 3.632812 -6.265625 4.5 -6.265625 C 5.320312 -6.265625 6.054688 -5.992188 6.703125 -5.453125 C 7.347656 -4.910156 7.671875 -4.125 7.671875 -3.09375 C 7.671875 -2.019531 7.3125 -1.175781 6.59375 -0.5625 C 5.875 0.0507812 5.035156 0.359375 4.078125 0.359375 Z M 4.078125 0.359375 "/></g></g></g><g fill="#812c2c" fill-opacity="1"><g transform="translate(233.949066, 44.435018)"><g><path d="M 4.296875 -8.375 C 3.941406 -8.375 3.695312 -8.46875 3.5625 -8.65625 C 3.4375 -8.84375 3.363281 -9.191406 3.34375 -9.703125 C 3.25 -10.765625 3.070312 -11.832031 2.8125 -12.90625 C 2.550781 -13.988281 2.273438 -15.039062 1.984375 -16.0625 C 1.691406 -17.082031 1.441406 -18.03125 1.234375 -18.90625 C 1.023438 -19.78125 0.921875 -20.546875 0.921875 -21.203125 C 0.921875 -22.378906 1.25 -23.300781 1.90625 -23.96875 C 2.5625 -24.632812 3.359375 -24.96875 4.296875 -24.96875 C 5.253906 -24.96875 6.066406 -24.632812 6.734375 -23.96875 C 7.398438 -23.300781 7.734375 -22.378906 7.734375 -21.203125 C 7.734375 -20.546875 7.617188 -19.78125 7.390625 -18.90625 C 7.171875 -18.03125 6.910156 -17.082031 6.609375 -16.0625 C 6.304688 -15.039062 6.023438 -13.988281 5.765625 -12.90625 C 5.503906 -11.832031 5.328125 -10.765625 5.234375 -9.703125 C 5.210938 -9.191406 5.132812 -8.84375 5 -8.65625 C 4.875 -8.46875 4.640625 -8.375 4.296875 -8.375 Z M 4.078125 0.359375 C 3.253906 0.359375 2.523438 0.0976562 1.890625 -0.421875 C 1.265625 -0.941406 0.953125 -1.703125 0.953125 -2.703125 C 0.953125 -3.804688 1.328125 -4.675781 2.078125 -5.3125 C 2.828125 -5.945312 3.632812 -6.265625 4.5 -6.265625 C 5.320312 -6.265625 6.054688 -5.992188 6.703125 -5.453125 C 7.347656 -4.910156 7.671875 -4.125 7.671875 -3.09375 C 7.671875 -2.019531 7.3125 -1.175781 6.59375 -0.5625 C 5.875 0.0507812 5.035156 0.359375 4.078125 0.359375 Z M 4.078125 0.359375 "/></g></g></g><g fill="#ffc700" fill-opacity="1"><g transform="translate(216.35979, 42.507298)"><g/></g></g><g fill="#ffc700" fill-opacity="1"><g transform="translate(223.403834, 42.507298)"><g><path d="M 4.296875 -8.375 C 3.941406 -8.375 3.695312 -8.46875 3.5625 -8.65625 C 3.4375 -8.84375 3.363281 -9.191406 3.34375 -9.703125 C 3.25 -10.765625 3.070312 -11.832031 2.8125 -12.90625 C 2.550781 -13.988281 2.273438 -15.039062 1.984375 -16.0625 C 1.691406 -17.082031 1.441406 -18.03125 1.234375 -18.90625 C 1.023438 -19.78125 0.921875 -20.546875 0.921875 -21.203125 C 0.921875 -22.378906 1.25 -23.300781 1.90625 -23.96875 C 2.5625 -24.632812 3.359375 -24.96875 4.296875 -24.96875 C 5.253906 -24.96875 6.066406 -24.632812 6.734375 -23.96875 C 7.398438 -23.300781 7.734375 -22.378906 7.734375 -21.203125 C 7.734375 -20.546875 7.617188 -19.78125 7.390625 -18.90625 C 7.171875 -18.03125 6.910156 -17.082031 6.609375 -16.0625 C 6.304688 -15.039062 6.023438 -13.988281 5.765625 -12.90625 C 5.503906 -11.832031 5.328125 -10.765625 5.234375 -9.703125 C 5.210938 -9.191406 5.132812 -8.84375 5 -8.65625 C 4.875 -8.46875 4.640625 -8.375 4.296875 -8.375 Z M 4.078125 0.359375 C 3.253906 0.359375 2.523438 0.0976562 1.890625 -0.421875 C 1.265625 -0.941406 0.953125 -1.703125 0.953125 -2.703125 C 0.953125 -3.804688 1.328125 -4.675781 2.078125 -5.3125 C 2.828125 -5.945312 3.632812 -6.265625 4.5 -6.265625 C 5.320312 -6.265625 6.054688 -5.992188 6.703125 -5.453125 C 7.347656 -4.910156 7.671875 -4.125 7.671875 -3.09375 C 7.671875 -2.019531 7.3125 -1.175781 6.59375 -0.5625 C 5.875 0.0507812 5.035156 0.359375 4.078125 0.359375 Z M 4.078125 0.359375 "/></g></g></g><g fill="#ffc700" fill-opacity="1"><g transform="translate(232.021343, 42.507298)"><g><path d="M 4.296875 -8.375 C 3.941406 -8.375 3.695312 -8.46875 3.5625 -8.65625 C 3.4375 -8.84375 3.363281 -9.191406 3.34375 -9.703125 C 3.25 -10.765625 3.070312 -11.832031 2.8125 -12.90625 C 2.550781 -13.988281 2.273438 -15.039062 1.984375 -16.0625 C 1.691406 -17.082031 1.441406 -18.03125 1.234375 -18.90625 C 1.023438 -19.78125 0.921875 -20.546875 0.921875 -21.203125 C 0.921875 -22.378906 1.25 -23.300781 1.90625 -23.96875 C 2.5625 -24.632812 3.359375 -24.96875 4.296875 -24.96875 C 5.253906 -24.96875 6.066406 -24.632812 6.734375 -23.96875 C 7.398438 -23.300781 7.734375 -22.378906 7.734375 -21.203125 C 7.734375 -20.546875 7.617188 -19.78125 7.390625 -18.90625 C 7.171875 -18.03125 6.910156 -17.082031 6.609375 -16.0625 C 6.304688 -15.039062 6.023438 -13.988281 5.765625 -12.90625 C 5.503906 -11.832031 5.328125 -10.765625 5.234375 -9.703125 C 5.210938 -9.191406 5.132812 -8.84375 5 -8.65625 C 4.875 -8.46875 4.640625 -8.375 4.296875 -8.375 Z M 4.078125 0.359375 C 3.253906 0.359375 2.523438 0.0976562 1.890625 -0.421875 C 1.265625 -0.941406 0.953125 -1.703125 0.953125 -2.703125 C 0.953125 -3.804688 1.328125 -4.675781 2.078125 -5.3125 C 2.828125 -5.945312 3.632812 -6.265625 4.5 -6.265625 C 5.320312 -6.265625 6.054688 -5.992188 6.703125 -5.453125 C 7.347656 -4.910156 7.671875 -4.125 7.671875 -3.09375 C 7.671875 -2.019531 7.3125 -1.175781 6.59375 -0.5625 C 5.875 0.0507812 5.035156 0.359375 4.078125 0.359375 Z M 4.078125 0.359375 "/></g></g></g></svg>