<svg xmlns="http://www.w3.org/2000/svg" xmlns:xlink="http://www.w3.org/1999/xlink" width="149" zoomAndPan="magnify" viewBox="0 0 111.75 101.999999" height="136" preserveAspectRatio="xMidYMid meet" version="1.0"><defs><g/><clipPath id="ee668b4f7d"><rect x="0" width="35" y="0" height="65"/></clipPath><clipPath id="529d40cf59"><rect x="0" width="4" y="0" height="13"/></clipPath></defs><g transform="matrix(1, 0, 0, 1, 39, 16)"><g clip-path="url(#ee668b4f7d)"><g fill="#cafc05" fill-opacity="1"><g transform="translate(5.728706, 56.938764)"><g><path d="M 26.671875 -24.296875 C 26.484375 -24.003906 26.207031 -23.859375 25.84375 -23.859375 C 25.625 -23.859375 25.226562 -23.910156 24.65625 -24.015625 C 24.082031 -24.128906 23.453125 -24.269531 22.765625 -24.4375 C 22.085938 -24.601562 21.472656 -24.757812 20.921875 -24.90625 C 20.367188 -25.050781 20.003906 -25.160156 19.828125 -25.234375 C 19.679688 -25.304688 19.53125 -25.40625 19.375 -25.53125 C 19.226562 -25.664062 19.15625 -25.863281 19.15625 -26.125 C 19.15625 -26.226562 19.191406 -26.488281 19.265625 -26.90625 C 19.335938 -27.332031 19.375 -27.734375 19.375 -28.109375 C 19.375 -29.171875 18.9375 -29.703125 18.0625 -29.703125 C 17.351562 -29.703125 16.625 -29.296875 15.875 -28.484375 C 15.125 -27.679688 14.453125 -26.707031 13.859375 -25.5625 C 13.265625 -24.425781 12.878906 -23.34375 12.703125 -22.3125 C 12.703125 -22.09375 12.753906 -21.984375 12.859375 -21.984375 C 12.929688 -21.984375 13.007812 -22.019531 13.09375 -22.09375 C 13.9375 -22.675781 14.679688 -23.101562 15.328125 -23.375 C 15.972656 -23.65625 16.679688 -23.796875 17.453125 -23.796875 C 18.109375 -23.796875 18.941406 -23.554688 19.953125 -23.078125 C 20.972656 -22.597656 21.953125 -22.019531 22.890625 -21.34375 C 23.828125 -20.664062 24.515625 -19.992188 24.953125 -19.328125 C 25.398438 -18.734375 25.722656 -17.945312 25.921875 -16.96875 C 26.128906 -16 26.234375 -15.257812 26.234375 -14.75 C 26.234375 -13.269531 26 -11.679688 25.53125 -9.984375 C 25.070312 -8.296875 24.375 -6.695312 23.4375 -5.1875 C 22.5 -3.675781 21.289062 -2.429688 19.8125 -1.453125 C 18.34375 -0.484375 16.617188 0 14.640625 0 C 13.523438 0 12.273438 -0.207031 10.890625 -0.625 C 9.515625 -1.050781 8.203125 -1.648438 6.953125 -2.421875 C 5.703125 -3.203125 4.691406 -4.109375 3.921875 -5.140625 C 3.367188 -5.941406 2.941406 -6.894531 2.640625 -8 C 2.347656 -9.101562 2.144531 -10.253906 2.03125 -11.453125 C 1.925781 -12.648438 1.875 -13.75 1.875 -14.75 C 1.875 -16.21875 2.054688 -17.914062 2.421875 -19.84375 C 2.796875 -21.78125 3.347656 -23.757812 4.078125 -25.78125 C 4.816406 -27.8125 5.765625 -29.691406 6.921875 -31.421875 C 8.085938 -33.148438 9.453125 -34.546875 11.015625 -35.609375 C 12.578125 -36.679688 14.375 -37.21875 16.40625 -37.21875 C 16.84375 -37.21875 17.554688 -37.078125 18.546875 -36.796875 C 19.546875 -36.523438 20.625 -36.140625 21.78125 -35.640625 C 22.9375 -35.140625 24.019531 -34.550781 25.03125 -33.875 C 26.050781 -33.195312 26.835938 -32.429688 27.390625 -31.578125 C 27.796875 -30.992188 28 -30.242188 28 -29.328125 C 28 -28.660156 27.859375 -27.820312 27.578125 -26.8125 C 27.304688 -25.800781 27.003906 -24.960938 26.671875 -24.296875 Z M 14.96875 -17.5625 C 14.15625 -17.5625 13.453125 -17.21875 12.859375 -16.53125 C 12.273438 -15.851562 11.816406 -15.007812 11.484375 -14 C 11.148438 -12.988281 10.984375 -11.984375 10.984375 -10.984375 C 10.984375 -10.179688 11.140625 -9.421875 11.453125 -8.703125 C 11.765625 -7.984375 12.328125 -7.625 13.140625 -7.625 C 13.878906 -7.625 14.53125 -7.984375 15.09375 -8.703125 C 15.664062 -9.421875 16.109375 -10.320312 16.421875 -11.40625 C 16.734375 -12.488281 16.890625 -13.546875 16.890625 -14.578125 C 16.890625 -15.347656 16.742188 -16.035156 16.453125 -16.640625 C 16.160156 -17.253906 15.664062 -17.5625 14.96875 -17.5625 Z M 14.96875 -17.5625 "/></g></g></g><g fill="#e474ba" fill-opacity="1"><g transform="translate(0.847564, 52.057622)"><g><path d="M 26.671875 -24.296875 C 26.484375 -24.003906 26.207031 -23.859375 25.84375 -23.859375 C 25.625 -23.859375 25.226562 -23.910156 24.65625 -24.015625 C 24.082031 -24.128906 23.453125 -24.269531 22.765625 -24.4375 C 22.085938 -24.601562 21.472656 -24.757812 20.921875 -24.90625 C 20.367188 -25.050781 20.003906 -25.160156 19.828125 -25.234375 C 19.679688 -25.304688 19.53125 -25.40625 19.375 -25.53125 C 19.226562 -25.664062 19.15625 -25.863281 19.15625 -26.125 C 19.15625 -26.226562 19.191406 -26.488281 19.265625 -26.90625 C 19.335938 -27.332031 19.375 -27.734375 19.375 -28.109375 C 19.375 -29.171875 18.9375 -29.703125 18.0625 -29.703125 C 17.351562 -29.703125 16.625 -29.296875 15.875 -28.484375 C 15.125 -27.679688 14.453125 -26.707031 13.859375 -25.5625 C 13.265625 -24.425781 12.878906 -23.34375 12.703125 -22.3125 C 12.703125 -22.09375 12.753906 -21.984375 12.859375 -21.984375 C 12.929688 -21.984375 13.007812 -22.019531 13.09375 -22.09375 C 13.9375 -22.675781 14.679688 -23.101562 15.328125 -23.375 C 15.972656 -23.65625 16.679688 -23.796875 17.453125 -23.796875 C 18.109375 -23.796875 18.941406 -23.554688 19.953125 -23.078125 C 20.972656 -22.597656 21.953125 -22.019531 22.890625 -21.34375 C 23.828125 -20.664062 24.515625 -19.992188 24.953125 -19.328125 C 25.398438 -18.734375 25.722656 -17.945312 25.921875 -16.96875 C 26.128906 -16 26.234375 -15.257812 26.234375 -14.75 C 26.234375 -13.269531 26 -11.679688 25.53125 -9.984375 C 25.070312 -8.296875 24.375 -6.695312 23.4375 -5.1875 C 22.5 -3.675781 21.289062 -2.429688 19.8125 -1.453125 C 18.34375 -0.484375 16.617188 0 14.640625 0 C 13.523438 0 12.273438 -0.207031 10.890625 -0.625 C 9.515625 -1.050781 8.203125 -1.648438 6.953125 -2.421875 C 5.703125 -3.203125 4.691406 -4.109375 3.921875 -5.140625 C 3.367188 -5.941406 2.941406 -6.894531 2.640625 -8 C 2.347656 -9.101562 2.144531 -10.253906 2.03125 -11.453125 C 1.925781 -12.648438 1.875 -13.75 1.875 -14.75 C 1.875 -16.21875 2.054688 -17.914062 2.421875 -19.84375 C 2.796875 -21.78125 3.347656 -23.757812 4.078125 -25.78125 C 4.816406 -27.8125 5.765625 -29.691406 6.921875 -31.421875 C 8.085938 -33.148438 9.453125 -34.546875 11.015625 -35.609375 C 12.578125 -36.679688 14.375 -37.21875 16.40625 -37.21875 C 16.84375 -37.21875 17.554688 -37.078125 18.546875 -36.796875 C 19.546875 -36.523438 20.625 -36.140625 21.78125 -35.640625 C 22.9375 -35.140625 24.019531 -34.550781 25.03125 -33.875 C 26.050781 -33.195312 26.835938 -32.429688 27.390625 -31.578125 C 27.796875 -30.992188 28 -30.242188 28 -29.328125 C 28 -28.660156 27.859375 -27.820312 27.578125 -26.8125 C 27.304688 -25.800781 27.003906 -24.960938 26.671875 -24.296875 Z M 14.96875 -17.5625 C 14.15625 -17.5625 13.453125 -17.21875 12.859375 -16.53125 C 12.273438 -15.851562 11.816406 -15.007812 11.484375 -14 C 11.148438 -12.988281 10.984375 -11.984375 10.984375 -10.984375 C 10.984375 -10.179688 11.140625 -9.421875 11.453125 -8.703125 C 11.765625 -7.984375 12.328125 -7.625 13.140625 -7.625 C 13.878906 -7.625 14.53125 -7.984375 15.09375 -8.703125 C 15.664062 -9.421875 16.109375 -10.320312 16.421875 -11.40625 C 16.734375 -12.488281 16.890625 -13.546875 16.890625 -14.578125 C 16.890625 -15.347656 16.742188 -16.035156 16.453125 -16.640625 C 16.160156 -17.253906 15.664062 -17.5625 14.96875 -17.5625 Z M 14.96875 -17.5625 "/></g></g></g></g></g><g transform="matrix(1, 0, 0, 1, 62, 36)"><g clip-path="url(#529d40cf59)"><g fill="#000000" fill-opacity="1"><g transform="translate(0.840001, 9.565527)"><g><path d="M 1.546875 -0.5625 C 1.546875 -0.382812 1.492188 -0.234375 1.390625 -0.109375 C 1.273438 0.0234375 1.125 0.09375 0.9375 0.09375 C 0.625 0.09375 0.46875 -0.0703125 0.46875 -0.40625 C 0.46875 -0.59375 0.523438 -0.75 0.640625 -0.875 C 0.753906 -1.007812 0.90625 -1.078125 1.09375 -1.078125 C 1.394531 -1.078125 1.546875 -0.90625 1.546875 -0.5625 Z M 1.546875 -0.5625 "/></g></g></g></g></g></svg>