<svg xmlns="http://www.w3.org/2000/svg" xmlns:xlink="http://www.w3.org/1999/xlink" width="168" zoomAndPan="magnify" viewBox="0 0 126 47.25" height="63" preserveAspectRatio="xMidYMid meet" version="1.0"><defs><g/><clipPath id="b56ff9cde3"><rect x="0" width="84" y="0" height="37"/></clipPath><clipPath id="6530dd8742"><rect x="0" width="4" y="0" height="13"/></clipPath></defs><g transform="matrix(1, 0, 0, 1, 21, 5)"><g clip-path="url(#b56ff9cde3)"><g fill="#000000" fill-opacity="1"><g transform="translate(0.739332, 26.307675)"><g><path d="M 8.4375 -11.3125 C 8.4375 -10.570312 7.90625 -10.203125 6.84375 -10.203125 C 6.6875 -10.203125 6.445312 -10.210938 6.125 -10.234375 C 5.800781 -10.265625 5.554688 -10.28125 5.390625 -10.28125 C 4.890625 -10.28125 4.535156 -10.070312 4.328125 -9.65625 C 4.253906 -9.53125 4.125 -9.109375 3.9375 -8.390625 L 2.515625 -3 C 2.492188 -2.925781 2.484375 -2.847656 2.484375 -2.765625 C 2.484375 -2.222656 2.734375 -1.953125 3.234375 -1.953125 C 3.671875 -1.953125 4.113281 -2.296875 4.5625 -2.984375 C 5.007812 -3.679688 5.367188 -4.03125 5.640625 -4.03125 C 6.066406 -4.03125 6.28125 -3.84375 6.28125 -3.46875 C 6.28125 -3.03125 6.003906 -2.410156 5.453125 -1.609375 C 4.710938 -0.535156 3.6875 0 2.375 0 C 1.894531 0 1.460938 -0.148438 1.078125 -0.453125 C 0.640625 -0.765625 0.421875 -1.148438 0.421875 -1.609375 C 0.421875 -2.410156 0.992188 -4.707031 2.140625 -8.5 C 2.367188 -9.238281 2.484375 -9.6875 2.484375 -9.84375 C 2.484375 -10.050781 2.289062 -10.164062 1.90625 -10.1875 C 2.1875 -10.164062 1.914062 -10.15625 1.09375 -10.15625 C 0.726562 -10.15625 0.546875 -10.296875 0.546875 -10.578125 C 0.546875 -11.097656 0.765625 -11.425781 1.203125 -11.5625 C 1.410156 -11.632812 1.84375 -11.671875 2.5 -11.671875 C 2.988281 -11.671875 3.351562 -12.035156 3.59375 -12.765625 C 3.875 -13.597656 4.082031 -14.054688 4.21875 -14.140625 C 4.394531 -14.265625 4.695312 -14.328125 5.125 -14.328125 C 5.53125 -14.328125 5.734375 -14.195312 5.734375 -13.9375 C 5.734375 -13.738281 5.648438 -13.457031 5.484375 -13.09375 C 5.328125 -12.738281 5.25 -12.457031 5.25 -12.25 C 5.25 -11.8125 5.5 -11.59375 6 -11.59375 C 6.238281 -11.59375 6.59375 -11.609375 7.0625 -11.640625 C 7.53125 -11.679688 7.882812 -11.703125 8.125 -11.703125 C 8.332031 -11.703125 8.4375 -11.570312 8.4375 -11.3125 Z M 8.4375 -11.3125 "/></g></g></g><g fill="#000000" fill-opacity="1"><g transform="translate(10.443683, 26.307675)"><g><path d="M 11.40625 -10.375 C 11.40625 -9.820312 11.179688 -9.066406 10.734375 -8.109375 C 10.378906 -7.378906 10.023438 -6.644531 9.671875 -5.90625 C 9.472656 -5.40625 9.296875 -4.929688 9.140625 -4.484375 C 8.890625 -3.734375 8.765625 -3.160156 8.765625 -2.765625 C 8.765625 -2.234375 8.882812 -1.96875 9.125 -1.96875 C 9.34375 -1.96875 9.644531 -2.15625 10.03125 -2.53125 C 10.414062 -2.90625 10.707031 -3.09375 10.90625 -3.09375 C 11.175781 -3.09375 11.3125 -2.984375 11.3125 -2.765625 C 11.3125 -2.222656 10.851562 -1.628906 9.9375 -0.984375 C 9.0625 -0.359375 8.335938 -0.046875 7.765625 -0.046875 C 7.273438 -0.046875 7.03125 -0.289062 7.03125 -0.78125 C 7.03125 -1.238281 7.171875 -1.894531 7.453125 -2.75 C 7.742188 -3.613281 7.890625 -4.273438 7.890625 -4.734375 C 7.890625 -5.085938 7.796875 -5.265625 7.609375 -5.265625 C 7.328125 -5.265625 6.832031 -4.8125 6.125 -3.90625 C 5.113281 -2.59375 4.410156 -1.742188 4.015625 -1.359375 C 3.085938 -0.453125 2.222656 0 1.421875 0 C 1.035156 0 0.722656 -0.179688 0.484375 -0.546875 C 0.285156 -0.847656 0.1875 -1.207031 0.1875 -1.625 C 0.1875 -2.59375 0.628906 -3.914062 1.515625 -5.59375 C 2.410156 -7.269531 2.859375 -8.453125 2.859375 -9.140625 C 2.859375 -9.566406 2.691406 -9.78125 2.359375 -9.78125 C 2.078125 -9.78125 1.722656 -9.597656 1.296875 -9.234375 C 0.878906 -8.878906 0.601562 -8.703125 0.46875 -8.703125 C 0.257812 -8.703125 0.15625 -8.796875 0.15625 -8.984375 C 0.15625 -9.554688 0.609375 -10.160156 1.515625 -10.796875 C 2.359375 -11.398438 3.085938 -11.703125 3.703125 -11.703125 C 4.066406 -11.703125 4.367188 -11.5625 4.609375 -11.28125 C 4.847656 -11 4.96875 -10.671875 4.96875 -10.296875 C 4.96875 -9.421875 4.503906 -8.171875 3.578125 -6.546875 C 2.660156 -4.929688 2.203125 -3.703125 2.203125 -2.859375 C 2.203125 -2.347656 2.320312 -2.09375 2.5625 -2.09375 C 3.289062 -2.09375 4.359375 -3.082031 5.765625 -5.0625 C 6.753906 -6.457031 7.59375 -7.816406 8.28125 -9.140625 C 8.4375 -9.503906 8.703125 -10.039062 9.078125 -10.75 C 9.453125 -11.382812 9.867188 -11.703125 10.328125 -11.703125 C 10.660156 -11.703125 10.929688 -11.5625 11.140625 -11.28125 C 11.316406 -11.019531 11.40625 -10.71875 11.40625 -10.375 Z M 11.40625 -10.375 "/></g></g></g><g fill="#000000" fill-opacity="1"><g transform="translate(23.490839, 26.307675)"><g><path d="M 8.78125 -9.265625 C 8.78125 -8.335938 8.269531 -7.519531 7.25 -6.8125 C 6.332031 -6.15625 5.390625 -5.828125 4.421875 -5.828125 C 4.273438 -5.828125 4.054688 -5.851562 3.765625 -5.90625 C 3.472656 -5.96875 3.25 -6 3.09375 -6 C 2.195312 -6 1.75 -5.300781 1.75 -3.90625 C 1.75 -2.539062 2.398438 -1.859375 3.703125 -1.859375 C 4.441406 -1.859375 5.222656 -2.171875 6.046875 -2.796875 C 6.867188 -3.421875 7.253906 -3.734375 7.203125 -3.734375 C 7.753906 -3.734375 8.03125 -3.59375 8.03125 -3.3125 C 8.03125 -3.21875 7.976562 -3.070312 7.875 -2.875 C 7.425781 -2.019531 6.789062 -1.328125 5.96875 -0.796875 C 5.144531 -0.265625 4.253906 0 3.296875 0 C 2.148438 0 1.285156 -0.445312 0.703125 -1.34375 C 0.222656 -2.09375 -0.015625 -3.078125 -0.015625 -4.296875 C -0.015625 -6.179688 0.523438 -7.851562 1.609375 -9.3125 C 2.796875 -10.90625 4.300781 -11.703125 6.125 -11.703125 C 6.8125 -11.703125 7.425781 -11.460938 7.96875 -10.984375 C 8.507812 -10.515625 8.78125 -9.941406 8.78125 -9.265625 Z M 6.859375 -8.671875 C 6.859375 -9.046875 6.710938 -9.367188 6.421875 -9.640625 C 6.140625 -9.921875 5.8125 -10.0625 5.4375 -10.0625 C 4.945312 -10.0625 4.460938 -9.796875 3.984375 -9.265625 C 3.503906 -8.734375 3.265625 -8.222656 3.265625 -7.734375 C 3.265625 -7.515625 3.390625 -7.316406 3.640625 -7.140625 C 3.867188 -7.003906 4.097656 -6.9375 4.328125 -6.9375 C 4.828125 -6.9375 5.359375 -7.097656 5.921875 -7.421875 C 6.546875 -7.785156 6.859375 -8.203125 6.859375 -8.671875 Z M 6.859375 -8.671875 "/></g></g></g><g fill="#000000" fill-opacity="1"><g transform="translate(33.249545, 26.307675)"><g><path d="M 7.640625 -9.640625 C 7.640625 -8.804688 7.492188 -8.390625 7.203125 -8.390625 C 7.054688 -8.390625 6.695312 -8.648438 6.125 -9.171875 C 5.550781 -9.691406 5.054688 -9.953125 4.640625 -9.953125 C 4.179688 -9.953125 3.789062 -9.769531 3.46875 -9.40625 C 3.15625 -9.039062 3 -8.628906 3 -8.171875 C 3 -7.773438 3.335938 -7.269531 4.015625 -6.65625 C 5.265625 -5.539062 5.90625 -4.972656 5.9375 -4.953125 C 6.613281 -4.210938 6.953125 -3.503906 6.953125 -2.828125 C 6.953125 -1.984375 6.613281 -1.289062 5.9375 -0.75 C 5.3125 -0.25 4.566406 0 3.703125 0 C 2.984375 0 2.296875 -0.144531 1.640625 -0.4375 C 0.828125 -0.800781 0.421875 -1.296875 0.421875 -1.921875 C 0.421875 -2.890625 0.578125 -3.375 0.890625 -3.375 C 0.890625 -3.375 0.914062 -3.367188 0.96875 -3.359375 C 1.96875 -2.429688 2.832031 -1.96875 3.5625 -1.96875 C 4.414062 -1.96875 4.84375 -2.34375 4.84375 -3.09375 C 4.84375 -3.40625 4.59375 -3.8125 4.09375 -4.3125 C 3.3125 -5.082031 2.835938 -5.570312 2.671875 -5.78125 C 2.171875 -6.4375 1.921875 -7.125 1.921875 -7.84375 C 1.921875 -8.832031 2.203125 -9.703125 2.765625 -10.453125 C 3.367188 -11.285156 4.148438 -11.703125 5.109375 -11.703125 C 5.460938 -11.703125 5.894531 -11.597656 6.40625 -11.390625 C 6.976562 -11.148438 7.335938 -10.894531 7.484375 -10.625 C 7.585938 -10.4375 7.640625 -10.109375 7.640625 -9.640625 Z M 7.640625 -9.640625 "/></g></g></g><g fill="#000000" fill-opacity="1"><g transform="translate(42.940307, 26.307675)"><g><path d="M 16.640625 -23.1875 C 16.640625 -22.976562 16.503906 -22.671875 16.234375 -22.265625 C 15.859375 -21.710938 15.660156 -21.414062 15.640625 -21.375 C 15.453125 -20.988281 15.265625 -20.414062 15.078125 -19.65625 C 14.878906 -18.820312 14.554688 -17.5625 14.109375 -15.875 L 11.015625 -4.390625 C 10.929688 -4.054688 10.890625 -3.785156 10.890625 -3.578125 C 10.890625 -2.984375 11.257812 -2.6875 12 -2.6875 C 12.070312 -2.6875 12.234375 -2.742188 12.484375 -2.859375 C 12.734375 -2.984375 12.925781 -3.046875 13.0625 -3.046875 C 13.25 -3.046875 13.34375 -2.925781 13.34375 -2.6875 C 13.34375 -2.082031 12.875 -1.484375 11.9375 -0.890625 C 11.09375 -0.347656 10.34375 -0.078125 9.6875 -0.078125 C 8.738281 -0.078125 8.265625 -0.453125 8.265625 -1.203125 C 8.265625 -1.585938 8.390625 -2.140625 8.640625 -2.859375 C 8.890625 -3.585938 9.015625 -4.144531 9.015625 -4.53125 C 9.015625 -4.695312 8.957031 -4.78125 8.84375 -4.78125 C 8.832031 -4.78125 8.8125 -4.773438 8.78125 -4.765625 C 8.21875 -3.765625 7.539062 -2.804688 6.75 -1.890625 C 5.675781 -0.628906 4.785156 0 4.078125 0 C 2.960938 0 2.097656 -0.503906 1.484375 -1.515625 C 0.941406 -2.359375 0.671875 -3.367188 0.671875 -4.546875 C 0.671875 -6.234375 1.285156 -7.828125 2.515625 -9.328125 C 3.796875 -10.910156 5.265625 -11.703125 6.921875 -11.703125 C 7.203125 -11.703125 7.617188 -11.691406 8.171875 -11.671875 C 8.734375 -11.648438 9.15625 -11.640625 9.4375 -11.640625 C 10.28125 -11.640625 10.882812 -11.90625 11.25 -12.4375 C 11.300781 -12.519531 11.671875 -13.8125 12.359375 -16.3125 C 13.046875 -18.8125 13.390625 -20.128906 13.390625 -20.265625 C 13.390625 -20.585938 13.097656 -20.925781 12.515625 -21.28125 C 11.929688 -21.632812 11.640625 -21.875 11.640625 -22 C 11.640625 -22.332031 12.082031 -22.5 12.96875 -22.5 C 13.519531 -22.5 14.59375 -22.890625 16.1875 -23.671875 C 16.488281 -23.660156 16.640625 -23.5 16.640625 -23.1875 Z M 10.46875 -9.734375 C 10.46875 -10.160156 9.828125 -10.375 8.546875 -10.375 C 7.078125 -10.375 5.742188 -9.726562 4.546875 -8.4375 C 3.359375 -7.144531 2.765625 -5.757812 2.765625 -4.28125 C 2.765625 -3.769531 2.867188 -3.320312 3.078125 -2.9375 C 3.316406 -2.4375 3.664062 -2.1875 4.125 -2.1875 C 4.65625 -2.1875 5.238281 -2.460938 5.875 -3.015625 C 6.507812 -3.566406 7.398438 -4.640625 8.546875 -6.234375 C 9.828125 -7.992188 10.46875 -9.160156 10.46875 -9.734375 Z M 10.46875 -9.734375 "/></g></g></g><g fill="#000000" fill-opacity="1"><g transform="translate(58.514949, 26.307675)"><g><path d="M 11.8125 -3.953125 C 11.8125 -3.367188 11.328125 -2.570312 10.359375 -1.5625 C 9.398438 -0.5625 8.628906 -0.0625 8.046875 -0.0625 C 7.128906 -0.0625 6.671875 -0.5625 6.671875 -1.5625 C 6.671875 -1.769531 6.707031 -2.078125 6.78125 -2.484375 C 6.863281 -2.890625 6.90625 -3.195312 6.90625 -3.40625 C 6.90625 -3.65625 6.832031 -3.78125 6.6875 -3.78125 C 6.613281 -3.78125 5.941406 -3.148438 4.671875 -1.890625 C 3.410156 -0.628906 2.472656 0 1.859375 0 C 1.347656 0 0.9375 -0.203125 0.625 -0.609375 C 0.332031 -0.984375 0.1875 -1.429688 0.1875 -1.953125 C 0.1875 -3.617188 0.976562 -5.503906 2.5625 -7.609375 C 4.257812 -9.867188 6.050781 -11.179688 7.9375 -11.546875 C 8.320312 -11.609375 8.894531 -11.71875 9.65625 -11.875 C 10.3125 -12.320312 10.675781 -12.546875 10.75 -12.546875 C 11.007812 -12.546875 11.140625 -12.382812 11.140625 -12.0625 C 11.140625 -11.90625 11.09375 -11.707031 11 -11.46875 L 9.375 -7.296875 C 8.675781 -5.515625 8.328125 -4.210938 8.328125 -3.390625 C 8.328125 -2.679688 8.625 -2.328125 9.21875 -2.328125 C 9.46875 -2.328125 9.894531 -2.648438 10.5 -3.296875 C 11.101562 -3.941406 11.460938 -4.265625 11.578125 -4.265625 C 11.734375 -4.265625 11.8125 -4.160156 11.8125 -3.953125 Z M 8.4375 -9.21875 C 8.4375 -9.5625 8.144531 -9.734375 7.5625 -9.734375 L 7.390625 -9.734375 C 6.328125 -9.734375 5.144531 -8.945312 3.84375 -7.375 C 2.570312 -5.84375 1.9375 -4.535156 1.9375 -3.453125 C 1.9375 -2.710938 2.207031 -2.34375 2.75 -2.34375 C 3.695312 -2.34375 4.890625 -3.253906 6.328125 -5.078125 C 7.734375 -6.847656 8.4375 -8.226562 8.4375 -9.21875 Z M 8.4375 -9.21875 "/></g></g></g><g fill="#000000" fill-opacity="1"><g transform="translate(72.173593, 26.307675)"><g><path d="M 9.484375 -9.84375 C 9.484375 -7.320312 8.738281 -4.726562 7.25 -2.0625 C 5.832031 0.445312 4.0625 2.507812 1.9375 4.125 C -0.132812 5.71875 -2.535156 6.515625 -5.265625 6.515625 C -5.890625 6.515625 -6.515625 6.347656 -7.140625 6.015625 C -7.890625 5.640625 -8.265625 5.171875 -8.265625 4.609375 C -8.265625 4.296875 -8.046875 4.140625 -7.609375 4.140625 L -7.53125 4.140625 C -6.757812 4.703125 -6.296875 5.023438 -6.140625 5.109375 C -5.554688 5.453125 -5.03125 5.625 -4.5625 5.625 C -1.90625 5.625 0.492188 3.878906 2.640625 0.390625 C 3.429688 -0.910156 3.828125 -2.289062 3.828125 -3.75 C 3.828125 -4.445312 3.738281 -5.316406 3.5625 -6.359375 C 3.351562 -7.578125 3.109375 -8.382812 2.828125 -8.78125 C 2.816406 -8.789062 2.535156 -9.078125 1.984375 -9.640625 C 1.703125 -9.921875 1.5625 -10.304688 1.5625 -10.796875 C 1.5625 -11.398438 1.957031 -11.703125 2.75 -11.703125 C 3.28125 -11.703125 3.71875 -11.394531 4.0625 -10.78125 C 4.238281 -10.457031 4.5 -9.144531 4.84375 -6.84375 C 5.144531 -4.8125 5.492188 -3.710938 5.890625 -3.546875 C 6.492188 -3.628906 7.007812 -4.488281 7.4375 -6.125 C 7.757812 -7.425781 7.921875 -8.53125 7.921875 -9.4375 C 7.921875 -9.613281 7.894531 -9.875 7.84375 -10.21875 C 7.800781 -10.570312 7.78125 -10.832031 7.78125 -11 C 7.78125 -11.46875 8.019531 -11.703125 8.5 -11.703125 C 9.15625 -11.703125 9.484375 -11.082031 9.484375 -9.84375 Z M 9.484375 -9.84375 "/></g></g></g></g></g><g transform="matrix(1, 0, 0, 1, 61, 28)"><g clip-path="url(#6530dd8742)"><g fill="#000000" fill-opacity="1"><g transform="translate(0.75672, 9.083628)"><g><path d="M 1.53125 -0.5625 C 1.53125 -0.382812 1.476562 -0.234375 1.375 -0.109375 C 1.257812 0.0234375 1.113281 0.09375 0.9375 0.09375 C 0.625 0.09375 0.46875 -0.0664062 0.46875 -0.390625 C 0.46875 -0.578125 0.519531 -0.734375 0.625 -0.859375 C 0.738281 -0.992188 0.890625 -1.0625 1.078125 -1.0625 C 1.378906 -1.0625 1.53125 -0.894531 1.53125 -0.5625 Z M 1.53125 -0.5625 "/></g></g></g></g></g></svg>