<svg xmlns="http://www.w3.org/2000/svg" xmlns:xlink="http://www.w3.org/1999/xlink" width="149" zoomAndPan="magnify" viewBox="0 0 111.75 101.999999" height="136" preserveAspectRatio="xMidYMid meet" version="1.0"><defs><g/><clipPath id="cbb9d2c31c"><path d="M 7 19 L 23.726562 19 L 23.726562 57 L 7 57 Z M 7 19 " clip-rule="nonzero"/></clipPath><clipPath id="4effb59a99"><rect x="0" width="24" y="0" height="65"/></clipPath><clipPath id="e3df37b95d"><rect x="0" width="4" y="0" height="13"/></clipPath></defs><g transform="matrix(1, 0, 0, 1, 45, 16)"><g clip-path="url(#4effb59a99)"><g clip-path="url(#cbb9d2c31c)"><g fill="#cafc05" fill-opacity="1"><g transform="translate(5.33508, 56.938764)"><g><path d="M 9.21875 -36.390625 C 9.476562 -36.867188 9.882812 -37.109375 10.4375 -37.109375 C 10.800781 -37.109375 11.425781 -36.992188 12.3125 -36.765625 C 13.195312 -36.546875 14.117188 -36.28125 15.078125 -35.96875 C 16.035156 -35.65625 16.804688 -35.390625 17.390625 -35.171875 C 17.835938 -35.066406 18.0625 -34.738281 18.0625 -34.1875 C 18.0625 -34.144531 18.050781 -34.085938 18.03125 -34.015625 C 18.007812 -33.941406 18 -33.90625 18 -33.90625 C 17.59375 -32.613281 17.09375 -30.78125 16.5 -28.40625 C 15.914062 -26.03125 15.3125 -23.316406 14.6875 -20.265625 C 14.0625 -17.210938 13.472656 -14.007812 12.921875 -10.65625 C 12.367188 -7.300781 11.925781 -4.003906 11.59375 -0.765625 C 11.488281 -0.253906 11.175781 0 10.65625 0 C 10.21875 0 9.554688 -0.0976562 8.671875 -0.296875 C 7.785156 -0.503906 6.910156 -0.742188 6.046875 -1.015625 C 5.179688 -1.296875 4.507812 -1.53125 4.03125 -1.71875 C 3.4375 -1.96875 3.140625 -2.441406 3.140625 -3.140625 C 3.140625 -4.066406 3.210938 -5.226562 3.359375 -6.625 C 3.515625 -8.019531 3.703125 -9.484375 3.921875 -11.015625 C 4.140625 -12.546875 4.347656 -14 4.546875 -15.375 C 4.753906 -16.757812 4.929688 -17.898438 5.078125 -18.796875 C 5.222656 -19.703125 5.296875 -20.191406 5.296875 -20.265625 C 5.296875 -20.703125 5.078125 -21.035156 4.640625 -21.265625 L 3.140625 -21.984375 C 2.742188 -22.160156 2.546875 -22.453125 2.546875 -22.859375 C 2.546875 -23.117188 2.597656 -23.320312 2.703125 -23.46875 C 3.078125 -24.238281 3.566406 -25.226562 4.171875 -26.4375 C 4.773438 -27.65625 5.40625 -28.914062 6.0625 -30.21875 C 6.726562 -31.53125 7.347656 -32.738281 7.921875 -33.84375 C 8.492188 -34.945312 8.925781 -35.796875 9.21875 -36.390625 Z M 9.21875 -36.390625 "/></g></g></g></g><g fill="#e474ba" fill-opacity="1"><g transform="translate(0.453938, 52.057622)"><g><path d="M 9.21875 -36.390625 C 9.476562 -36.867188 9.882812 -37.109375 10.4375 -37.109375 C 10.800781 -37.109375 11.425781 -36.992188 12.3125 -36.765625 C 13.195312 -36.546875 14.117188 -36.28125 15.078125 -35.96875 C 16.035156 -35.65625 16.804688 -35.390625 17.390625 -35.171875 C 17.835938 -35.066406 18.0625 -34.738281 18.0625 -34.1875 C 18.0625 -34.144531 18.050781 -34.085938 18.03125 -34.015625 C 18.007812 -33.941406 18 -33.90625 18 -33.90625 C 17.59375 -32.613281 17.09375 -30.78125 16.5 -28.40625 C 15.914062 -26.03125 15.3125 -23.316406 14.6875 -20.265625 C 14.0625 -17.210938 13.472656 -14.007812 12.921875 -10.65625 C 12.367188 -7.300781 11.925781 -4.003906 11.59375 -0.765625 C 11.488281 -0.253906 11.175781 0 10.65625 0 C 10.21875 0 9.554688 -0.0976562 8.671875 -0.296875 C 7.785156 -0.503906 6.910156 -0.742188 6.046875 -1.015625 C 5.179688 -1.296875 4.507812 -1.53125 4.03125 -1.71875 C 3.4375 -1.96875 3.140625 -2.441406 3.140625 -3.140625 C 3.140625 -4.066406 3.210938 -5.226562 3.359375 -6.625 C 3.515625 -8.019531 3.703125 -9.484375 3.921875 -11.015625 C 4.140625 -12.546875 4.347656 -14 4.546875 -15.375 C 4.753906 -16.757812 4.929688 -17.898438 5.078125 -18.796875 C 5.222656 -19.703125 5.296875 -20.191406 5.296875 -20.265625 C 5.296875 -20.703125 5.078125 -21.035156 4.640625 -21.265625 L 3.140625 -21.984375 C 2.742188 -22.160156 2.546875 -22.453125 2.546875 -22.859375 C 2.546875 -23.117188 2.597656 -23.320312 2.703125 -23.46875 C 3.078125 -24.238281 3.566406 -25.226562 4.171875 -26.4375 C 4.773438 -27.65625 5.40625 -28.914062 6.0625 -30.21875 C 6.726562 -31.53125 7.347656 -32.738281 7.921875 -33.84375 C 8.492188 -34.945312 8.925781 -35.796875 9.21875 -36.390625 Z M 9.21875 -36.390625 "/></g></g></g></g></g><g transform="matrix(1, 0, 0, 1, 60, 52)"><g clip-path="url(#e3df37b95d)"><g fill="#000000" fill-opacity="1"><g transform="translate(0.595023, 9.233059)"><g><path d="M 1.546875 -0.5625 C 1.546875 -0.382812 1.492188 -0.234375 1.390625 -0.109375 C 1.273438 0.0234375 1.125 0.09375 0.9375 0.09375 C 0.625 0.09375 0.46875 -0.0703125 0.46875 -0.40625 C 0.46875 -0.59375 0.523438 -0.75 0.640625 -0.875 C 0.753906 -1.007812 0.90625 -1.078125 1.09375 -1.078125 C 1.394531 -1.078125 1.546875 -0.90625 1.546875 -0.5625 Z M 1.546875 -0.5625 "/></g></g></g></g></g></svg>