<svg xmlns="http://www.w3.org/2000/svg" xmlns:xlink="http://www.w3.org/1999/xlink" width="149" zoomAndPan="magnify" viewBox="0 0 111.75 101.999999" height="136" preserveAspectRatio="xMidYMid meet" version="1.0"><defs><g/><clipPath id="cf830d204a"><path d="M 0.46875 14 L 28 14 L 28 53 L 0.46875 53 Z M 0.46875 14 " clip-rule="nonzero"/></clipPath><clipPath id="85b64a410a"><rect x="0" width="34" y="0" height="65"/></clipPath><clipPath id="0f33b2f9ea"><rect x="0" width="4" y="0" height="13"/></clipPath></defs><g transform="matrix(1, 0, 0, 1, 40, 16)"><g clip-path="url(#85b64a410a)"><g fill="#cafc05" fill-opacity="1"><g transform="translate(5.447015, 56.938764)"><g><path d="M 21.3125 -19.828125 C 21.019531 -19.640625 20.875 -19.488281 20.875 -19.375 C 20.875 -19.269531 20.921875 -19.179688 21.015625 -19.109375 C 21.109375 -19.035156 21.191406 -18.960938 21.265625 -18.890625 C 22.109375 -18.179688 22.894531 -17.382812 23.625 -16.5 C 24.363281 -15.625 24.734375 -14.488281 24.734375 -13.09375 C 24.734375 -11.757812 24.46875 -10.335938 23.9375 -8.828125 C 23.40625 -7.328125 22.628906 -5.894531 21.609375 -4.53125 C 20.597656 -3.164062 19.382812 -2.054688 17.96875 -1.203125 C 16.550781 -0.359375 14.941406 0.0625 13.140625 0.0625 C 12.222656 0.0625 11.128906 -0.0820312 9.859375 -0.375 C 8.585938 -0.675781 7.332031 -1.128906 6.09375 -1.734375 C 4.863281 -2.347656 3.804688 -3.09375 2.921875 -3.96875 C 2.367188 -4.519531 1.910156 -5.226562 1.546875 -6.09375 C 1.179688 -6.96875 0.894531 -7.828125 0.6875 -8.671875 C 0.488281 -9.515625 0.390625 -10.160156 0.390625 -10.609375 C 0.390625 -10.898438 0.429688 -11.171875 0.515625 -11.421875 C 0.609375 -11.679688 0.84375 -11.90625 1.21875 -12.09375 C 1.507812 -12.238281 2.0625 -12.457031 2.875 -12.75 C 3.6875 -13.050781 4.484375 -13.320312 5.265625 -13.5625 C 6.054688 -13.800781 6.546875 -13.921875 6.734375 -13.921875 C 7.359375 -13.921875 7.707031 -13.679688 7.78125 -13.203125 C 8.15625 -11.941406 8.644531 -10.769531 9.25 -9.6875 C 9.851562 -8.601562 10.617188 -8.0625 11.546875 -8.0625 C 12.273438 -8.0625 12.914062 -8.347656 13.46875 -8.921875 C 14.019531 -9.492188 14.441406 -10.191406 14.734375 -11.015625 C 15.035156 -11.847656 15.1875 -12.613281 15.1875 -13.3125 C 15.1875 -13.894531 15.046875 -14.472656 14.765625 -15.046875 C 14.492188 -15.617188 13.878906 -15.90625 12.921875 -15.90625 C 12.554688 -15.90625 12.101562 -15.832031 11.5625 -15.6875 C 11.03125 -15.539062 10.523438 -15.410156 10.046875 -15.296875 C 9.828125 -15.296875 9.625 -15.347656 9.4375 -15.453125 C 9.257812 -15.566406 9.113281 -15.789062 9 -16.125 C 8.851562 -16.53125 8.6875 -17.082031 8.5 -17.78125 C 8.320312 -18.476562 8.15625 -19.148438 8 -19.796875 C 7.851562 -20.441406 7.78125 -20.851562 7.78125 -21.03125 C 7.78125 -21.582031 8.078125 -21.9375 8.671875 -22.09375 C 10.179688 -22.53125 11.625 -22.96875 13 -23.40625 C 14.382812 -23.851562 15.507812 -24.367188 16.375 -24.953125 C 17.238281 -25.546875 17.671875 -26.226562 17.671875 -27 C 17.671875 -27.445312 17.484375 -27.757812 17.109375 -27.9375 C 16.742188 -28.125 16.269531 -28.21875 15.6875 -28.21875 C 14.65625 -28.21875 13.351562 -27.988281 11.78125 -27.53125 C 10.21875 -27.070312 8.832031 -26.472656 7.625 -25.734375 C 7.476562 -25.585938 7.253906 -25.515625 6.953125 -25.515625 C 6.660156 -25.515625 6.40625 -25.695312 6.1875 -26.0625 C 6 -26.613281 5.757812 -27.335938 5.46875 -28.234375 C 5.175781 -29.140625 4.914062 -30.003906 4.6875 -30.828125 C 4.46875 -31.660156 4.359375 -32.226562 4.359375 -32.53125 C 4.359375 -33.082031 4.5625 -33.484375 4.96875 -33.734375 C 5.5625 -34.066406 6.460938 -34.507812 7.671875 -35.0625 C 8.890625 -35.613281 10.296875 -36.109375 11.890625 -36.546875 C 13.492188 -36.992188 15.144531 -37.21875 16.84375 -37.21875 C 18.382812 -37.21875 19.769531 -36.867188 21 -36.171875 C 22.238281 -35.472656 23.304688 -34.578125 24.203125 -33.484375 C 25.109375 -32.398438 25.800781 -31.238281 26.28125 -30 C 26.757812 -28.769531 27 -27.601562 27 -26.5 C 27 -25.101562 26.472656 -23.851562 25.421875 -22.75 C 24.378906 -21.644531 23.007812 -20.671875 21.3125 -19.828125 Z M 21.3125 -19.828125 "/></g></g></g><g clip-path="url(#cf830d204a)"><g fill="#e474ba" fill-opacity="1"><g transform="translate(0.565873, 52.057622)"><g><path d="M 21.3125 -19.828125 C 21.019531 -19.640625 20.875 -19.488281 20.875 -19.375 C 20.875 -19.269531 20.921875 -19.179688 21.015625 -19.109375 C 21.109375 -19.035156 21.191406 -18.960938 21.265625 -18.890625 C 22.109375 -18.179688 22.894531 -17.382812 23.625 -16.5 C 24.363281 -15.625 24.734375 -14.488281 24.734375 -13.09375 C 24.734375 -11.757812 24.46875 -10.335938 23.9375 -8.828125 C 23.40625 -7.328125 22.628906 -5.894531 21.609375 -4.53125 C 20.597656 -3.164062 19.382812 -2.054688 17.96875 -1.203125 C 16.550781 -0.359375 14.941406 0.0625 13.140625 0.0625 C 12.222656 0.0625 11.128906 -0.0820312 9.859375 -0.375 C 8.585938 -0.675781 7.332031 -1.128906 6.09375 -1.734375 C 4.863281 -2.347656 3.804688 -3.09375 2.921875 -3.96875 C 2.367188 -4.519531 1.910156 -5.226562 1.546875 -6.09375 C 1.179688 -6.96875 0.894531 -7.828125 0.6875 -8.671875 C 0.488281 -9.515625 0.390625 -10.160156 0.390625 -10.609375 C 0.390625 -10.898438 0.429688 -11.171875 0.515625 -11.421875 C 0.609375 -11.679688 0.84375 -11.90625 1.21875 -12.09375 C 1.507812 -12.238281 2.0625 -12.457031 2.875 -12.75 C 3.6875 -13.050781 4.484375 -13.320312 5.265625 -13.5625 C 6.054688 -13.800781 6.546875 -13.921875 6.734375 -13.921875 C 7.359375 -13.921875 7.707031 -13.679688 7.78125 -13.203125 C 8.15625 -11.941406 8.644531 -10.769531 9.25 -9.6875 C 9.851562 -8.601562 10.617188 -8.0625 11.546875 -8.0625 C 12.273438 -8.0625 12.914062 -8.347656 13.46875 -8.921875 C 14.019531 -9.492188 14.441406 -10.191406 14.734375 -11.015625 C 15.035156 -11.847656 15.1875 -12.613281 15.1875 -13.3125 C 15.1875 -13.894531 15.046875 -14.472656 14.765625 -15.046875 C 14.492188 -15.617188 13.878906 -15.90625 12.921875 -15.90625 C 12.554688 -15.90625 12.101562 -15.832031 11.5625 -15.6875 C 11.03125 -15.539062 10.523438 -15.410156 10.046875 -15.296875 C 9.828125 -15.296875 9.625 -15.347656 9.4375 -15.453125 C 9.257812 -15.566406 9.113281 -15.789062 9 -16.125 C 8.851562 -16.53125 8.6875 -17.082031 8.5 -17.78125 C 8.320312 -18.476562 8.15625 -19.148438 8 -19.796875 C 7.851562 -20.441406 7.78125 -20.851562 7.78125 -21.03125 C 7.78125 -21.582031 8.078125 -21.9375 8.671875 -22.09375 C 10.179688 -22.53125 11.625 -22.96875 13 -23.40625 C 14.382812 -23.851562 15.507812 -24.367188 16.375 -24.953125 C 17.238281 -25.546875 17.671875 -26.226562 17.671875 -27 C 17.671875 -27.445312 17.484375 -27.757812 17.109375 -27.9375 C 16.742188 -28.125 16.269531 -28.21875 15.6875 -28.21875 C 14.65625 -28.21875 13.351562 -27.988281 11.78125 -27.53125 C 10.21875 -27.070312 8.832031 -26.472656 7.625 -25.734375 C 7.476562 -25.585938 7.253906 -25.515625 6.953125 -25.515625 C 6.660156 -25.515625 6.40625 -25.695312 6.1875 -26.0625 C 6 -26.613281 5.757812 -27.335938 5.46875 -28.234375 C 5.175781 -29.140625 4.914062 -30.003906 4.6875 -30.828125 C 4.46875 -31.660156 4.359375 -32.226562 4.359375 -32.53125 C 4.359375 -33.082031 4.5625 -33.484375 4.96875 -33.734375 C 5.5625 -34.066406 6.460938 -34.507812 7.671875 -35.0625 C 8.890625 -35.613281 10.296875 -36.109375 11.890625 -36.546875 C 13.492188 -36.992188 15.144531 -37.21875 16.84375 -37.21875 C 18.382812 -37.21875 19.769531 -36.867188 21 -36.171875 C 22.238281 -35.472656 23.304688 -34.578125 24.203125 -33.484375 C 25.109375 -32.398438 25.800781 -31.238281 26.28125 -30 C 26.757812 -28.769531 27 -27.601562 27 -26.5 C 27 -25.101562 26.472656 -23.851562 25.421875 -22.75 C 24.378906 -21.644531 23.007812 -20.671875 21.3125 -19.828125 Z M 21.3125 -19.828125 "/></g></g></g></g></g></g><g transform="matrix(1, 0, 0, 1, 51, 33)"><g clip-path="url(#0f33b2f9ea)"><g fill="#000000" fill-opacity="1"><g transform="translate(1.093742, 9.356675)"><g><path d="M 1.546875 -0.5625 C 1.546875 -0.382812 1.492188 -0.234375 1.390625 -0.109375 C 1.273438 0.0234375 1.125 0.09375 0.9375 0.09375 C 0.625 0.09375 0.46875 -0.0703125 0.46875 -0.40625 C 0.46875 -0.59375 0.523438 -0.75 0.640625 -0.875 C 0.753906 -1.007812 0.90625 -1.078125 1.09375 -1.078125 C 1.394531 -1.078125 1.546875 -0.90625 1.546875 -0.5625 Z M 1.546875 -0.5625 "/></g></g></g></g></g></svg>