<svg xmlns="http://www.w3.org/2000/svg" xmlns:xlink="http://www.w3.org/1999/xlink" width="168" zoomAndPan="magnify" viewBox="0 0 126 47.25" height="63" preserveAspectRatio="xMidYMid meet" version="1.0"><defs><g/><clipPath id="9a1ee1bf30"><path d="M 0.0898438 2 L 17 2 L 17 27 L 0.0898438 27 Z M 0.0898438 2 " clip-rule="nonzero"/></clipPath><clipPath id="0e7b6e5869"><rect x="0" width="103" y="0" height="37"/></clipPath><clipPath id="7d46bae6d9"><rect x="0" width="4" y="0" height="13"/></clipPath></defs><g transform="matrix(1, 0, 0, 1, 12, 5)"><g clip-path="url(#0e7b6e5869)"><g clip-path="url(#9a1ee1bf30)"><g fill="#000000" fill-opacity="1"><g transform="translate(0.254464, 26.307675)"><g><path d="M 16.640625 -23.1875 C 16.640625 -22.976562 16.503906 -22.671875 16.234375 -22.265625 C 15.859375 -21.710938 15.660156 -21.414062 15.640625 -21.375 C 15.453125 -20.988281 15.265625 -20.414062 15.078125 -19.65625 C 14.878906 -18.820312 14.554688 -17.5625 14.109375 -15.875 L 11.015625 -4.390625 C 10.929688 -4.054688 10.890625 -3.785156 10.890625 -3.578125 C 10.890625 -2.984375 11.257812 -2.6875 12 -2.6875 C 12.070312 -2.6875 12.234375 -2.742188 12.484375 -2.859375 C 12.734375 -2.984375 12.925781 -3.046875 13.0625 -3.046875 C 13.25 -3.046875 13.34375 -2.925781 13.34375 -2.6875 C 13.34375 -2.082031 12.875 -1.484375 11.9375 -0.890625 C 11.09375 -0.347656 10.34375 -0.078125 9.6875 -0.078125 C 8.738281 -0.078125 8.265625 -0.453125 8.265625 -1.203125 C 8.265625 -1.585938 8.390625 -2.140625 8.640625 -2.859375 C 8.890625 -3.585938 9.015625 -4.144531 9.015625 -4.53125 C 9.015625 -4.695312 8.957031 -4.78125 8.84375 -4.78125 C 8.832031 -4.78125 8.8125 -4.773438 8.78125 -4.765625 C 8.21875 -3.765625 7.539062 -2.804688 6.75 -1.890625 C 5.675781 -0.628906 4.785156 0 4.078125 0 C 2.960938 0 2.097656 -0.503906 1.484375 -1.515625 C 0.941406 -2.359375 0.671875 -3.367188 0.671875 -4.546875 C 0.671875 -6.234375 1.285156 -7.828125 2.515625 -9.328125 C 3.796875 -10.910156 5.265625 -11.703125 6.921875 -11.703125 C 7.203125 -11.703125 7.617188 -11.691406 8.171875 -11.671875 C 8.734375 -11.648438 9.15625 -11.640625 9.4375 -11.640625 C 10.28125 -11.640625 10.882812 -11.90625 11.25 -12.4375 C 11.300781 -12.519531 11.671875 -13.8125 12.359375 -16.3125 C 13.046875 -18.8125 13.390625 -20.128906 13.390625 -20.265625 C 13.390625 -20.585938 13.097656 -20.925781 12.515625 -21.28125 C 11.929688 -21.632812 11.640625 -21.875 11.640625 -22 C 11.640625 -22.332031 12.082031 -22.5 12.96875 -22.5 C 13.519531 -22.5 14.59375 -22.890625 16.1875 -23.671875 C 16.488281 -23.660156 16.640625 -23.5 16.640625 -23.1875 Z M 10.46875 -9.734375 C 10.46875 -10.160156 9.828125 -10.375 8.546875 -10.375 C 7.078125 -10.375 5.742188 -9.726562 4.546875 -8.4375 C 3.359375 -7.144531 2.765625 -5.757812 2.765625 -4.28125 C 2.765625 -3.769531 2.867188 -3.320312 3.078125 -2.9375 C 3.316406 -2.4375 3.664062 -2.1875 4.125 -2.1875 C 4.65625 -2.1875 5.238281 -2.460938 5.875 -3.015625 C 6.507812 -3.566406 7.398438 -4.640625 8.546875 -6.234375 C 9.828125 -7.992188 10.46875 -9.160156 10.46875 -9.734375 Z M 10.46875 -9.734375 "/></g></g></g></g><g fill="#000000" fill-opacity="1"><g transform="translate(15.829106, 26.307675)"><g><path d="M 8.78125 -9.265625 C 8.78125 -8.335938 8.269531 -7.519531 7.25 -6.8125 C 6.332031 -6.15625 5.390625 -5.828125 4.421875 -5.828125 C 4.273438 -5.828125 4.054688 -5.851562 3.765625 -5.90625 C 3.472656 -5.96875 3.25 -6 3.09375 -6 C 2.195312 -6 1.75 -5.300781 1.75 -3.90625 C 1.75 -2.539062 2.398438 -1.859375 3.703125 -1.859375 C 4.441406 -1.859375 5.222656 -2.171875 6.046875 -2.796875 C 6.867188 -3.421875 7.253906 -3.734375 7.203125 -3.734375 C 7.753906 -3.734375 8.03125 -3.59375 8.03125 -3.3125 C 8.03125 -3.21875 7.976562 -3.070312 7.875 -2.875 C 7.425781 -2.019531 6.789062 -1.328125 5.96875 -0.796875 C 5.144531 -0.265625 4.253906 0 3.296875 0 C 2.148438 0 1.285156 -0.445312 0.703125 -1.34375 C 0.222656 -2.09375 -0.015625 -3.078125 -0.015625 -4.296875 C -0.015625 -6.179688 0.523438 -7.851562 1.609375 -9.3125 C 2.796875 -10.90625 4.300781 -11.703125 6.125 -11.703125 C 6.8125 -11.703125 7.425781 -11.460938 7.96875 -10.984375 C 8.507812 -10.515625 8.78125 -9.941406 8.78125 -9.265625 Z M 6.859375 -8.671875 C 6.859375 -9.046875 6.710938 -9.367188 6.421875 -9.640625 C 6.140625 -9.921875 5.8125 -10.0625 5.4375 -10.0625 C 4.945312 -10.0625 4.460938 -9.796875 3.984375 -9.265625 C 3.503906 -8.734375 3.265625 -8.222656 3.265625 -7.734375 C 3.265625 -7.515625 3.390625 -7.316406 3.640625 -7.140625 C 3.867188 -7.003906 4.097656 -6.9375 4.328125 -6.9375 C 4.828125 -6.9375 5.359375 -7.097656 5.921875 -7.421875 C 6.546875 -7.785156 6.859375 -8.203125 6.859375 -8.671875 Z M 6.859375 -8.671875 "/></g></g></g><g fill="#000000" fill-opacity="1"><g transform="translate(25.587811, 26.307675)"><g><path d="M 9.4375 -10.265625 C 9.4375 -9.566406 9.066406 -9.21875 8.328125 -9.21875 C 8.160156 -9.21875 7.875 -9.359375 7.46875 -9.640625 C 7.070312 -9.921875 6.753906 -10.0625 6.515625 -10.0625 C 5.054688 -10.0625 3.84375 -9.351562 2.875 -7.9375 C 2.019531 -6.675781 1.59375 -5.28125 1.59375 -3.75 C 1.59375 -3.175781 1.753906 -2.71875 2.078125 -2.375 C 2.410156 -2.03125 2.859375 -1.859375 3.421875 -1.859375 C 3.847656 -1.859375 4.429688 -2.03125 5.171875 -2.375 C 5.910156 -2.726562 6.367188 -2.90625 6.546875 -2.90625 C 7.035156 -2.90625 7.28125 -2.679688 7.28125 -2.234375 C 7.28125 -1.617188 6.753906 -1.078125 5.703125 -0.609375 C 4.816406 -0.203125 4.019531 0 3.3125 0 C 2.164062 0 1.300781 -0.4375 0.71875 -1.3125 C 0.226562 -2.070312 -0.015625 -3.050781 -0.015625 -4.25 C -0.015625 -5.914062 0.441406 -7.421875 1.359375 -8.765625 C 2.304688 -10.171875 3.566406 -11.09375 5.140625 -11.53125 C 5.515625 -11.644531 5.898438 -11.703125 6.296875 -11.703125 C 6.929688 -11.703125 7.5625 -11.601562 8.1875 -11.40625 C 9.019531 -11.132812 9.4375 -10.753906 9.4375 -10.265625 Z M 9.4375 -10.265625 "/></g></g></g><g fill="#000000" fill-opacity="1"><g transform="translate(36.31131, 26.307675)"><g><path d="M 8.78125 -9.265625 C 8.78125 -8.335938 8.269531 -7.519531 7.25 -6.8125 C 6.332031 -6.15625 5.390625 -5.828125 4.421875 -5.828125 C 4.273438 -5.828125 4.054688 -5.851562 3.765625 -5.90625 C 3.472656 -5.96875 3.25 -6 3.09375 -6 C 2.195312 -6 1.75 -5.300781 1.75 -3.90625 C 1.75 -2.539062 2.398438 -1.859375 3.703125 -1.859375 C 4.441406 -1.859375 5.222656 -2.171875 6.046875 -2.796875 C 6.867188 -3.421875 7.253906 -3.734375 7.203125 -3.734375 C 7.753906 -3.734375 8.03125 -3.59375 8.03125 -3.3125 C 8.03125 -3.21875 7.976562 -3.070312 7.875 -2.875 C 7.425781 -2.019531 6.789062 -1.328125 5.96875 -0.796875 C 5.144531 -0.265625 4.253906 0 3.296875 0 C 2.148438 0 1.285156 -0.445312 0.703125 -1.34375 C 0.222656 -2.09375 -0.015625 -3.078125 -0.015625 -4.296875 C -0.015625 -6.179688 0.523438 -7.851562 1.609375 -9.3125 C 2.796875 -10.90625 4.300781 -11.703125 6.125 -11.703125 C 6.8125 -11.703125 7.425781 -11.460938 7.96875 -10.984375 C 8.507812 -10.515625 8.78125 -9.941406 8.78125 -9.265625 Z M 6.859375 -8.671875 C 6.859375 -9.046875 6.710938 -9.367188 6.421875 -9.640625 C 6.140625 -9.921875 5.8125 -10.0625 5.4375 -10.0625 C 4.945312 -10.0625 4.460938 -9.796875 3.984375 -9.265625 C 3.503906 -8.734375 3.265625 -8.222656 3.265625 -7.734375 C 3.265625 -7.515625 3.390625 -7.316406 3.640625 -7.140625 C 3.867188 -7.003906 4.097656 -6.9375 4.328125 -6.9375 C 4.828125 -6.9375 5.359375 -7.097656 5.921875 -7.421875 C 6.546875 -7.785156 6.859375 -8.203125 6.859375 -8.671875 Z M 6.859375 -8.671875 "/></g></g></g><g fill="#000000" fill-opacity="1"><g transform="translate(46.070016, 26.307675)"><g><path d="M 18.703125 -9.9375 C 18.703125 -9 18.171875 -7.644531 17.109375 -5.875 C 16.046875 -4.113281 15.515625 -2.945312 15.515625 -2.375 C 15.515625 -1.96875 15.691406 -1.765625 16.046875 -1.765625 C 16.210938 -1.765625 16.519531 -1.929688 16.96875 -2.265625 C 17.425781 -2.597656 17.726562 -2.765625 17.875 -2.765625 C 18.175781 -2.765625 18.328125 -2.625 18.328125 -2.34375 C 18.328125 -1.914062 17.859375 -1.410156 16.921875 -0.828125 C 16.035156 -0.273438 15.359375 0 14.890625 0 C 14.304688 0 13.882812 -0.0859375 13.625 -0.265625 C 13.3125 -0.472656 13.15625 -0.867188 13.15625 -1.453125 C 13.15625 -1.847656 13.707031 -3.015625 14.8125 -4.953125 C 15.925781 -6.898438 16.484375 -8.179688 16.484375 -8.796875 C 16.484375 -9.179688 16.238281 -9.375 15.75 -9.375 C 15.425781 -9.375 14.71875 -8.765625 13.625 -7.546875 C 12.726562 -6.535156 12.082031 -5.734375 11.6875 -5.140625 C 11.09375 -4.148438 10.507812 -3.160156 9.9375 -2.171875 C 9.039062 -0.828125 8.238281 -0.15625 7.53125 -0.15625 C 7.019531 -0.15625 6.765625 -0.46875 6.765625 -1.09375 C 6.765625 -1.925781 7.222656 -3.222656 8.140625 -4.984375 C 9.066406 -6.742188 9.53125 -8.054688 9.53125 -8.921875 C 9.53125 -9.441406 9.351562 -9.703125 9 -9.703125 C 8.1875 -9.703125 6.960938 -8.441406 5.328125 -5.921875 C 4.304688 -4.242188 3.289062 -2.566406 2.28125 -0.890625 C 1.882812 -0.296875 1.421875 0 0.890625 0 C 0.378906 0 0.125 -0.3125 0.125 -0.9375 C 0.125 -1.25 0.34375 -1.921875 0.78125 -2.953125 L 2.109375 -6 C 2.546875 -7.019531 2.765625 -7.882812 2.765625 -8.59375 C 2.765625 -9.375 2.523438 -9.757812 2.046875 -9.75 C 1.773438 -9.4375 1.328125 -9.015625 0.703125 -8.484375 C 0.523438 -8.441406 0.382812 -8.421875 0.28125 -8.421875 C 0.0078125 -8.421875 -0.125 -8.515625 -0.125 -8.703125 C -0.125 -9.160156 0.414062 -9.785156 1.5 -10.578125 C 2.539062 -11.328125 3.304688 -11.703125 3.796875 -11.703125 C 4.390625 -11.703125 4.6875 -11.445312 4.6875 -10.9375 C 4.6875 -10.507812 4.546875 -9.890625 4.265625 -9.078125 C 3.992188 -8.273438 3.859375 -7.660156 3.859375 -7.234375 C 3.859375 -6.804688 3.992188 -6.601562 4.265625 -6.625 C 4.929688 -7.3125 5.9375 -8.328125 7.28125 -9.671875 C 8.664062 -11.023438 9.867188 -11.703125 10.890625 -11.703125 C 11.097656 -11.703125 11.300781 -11.632812 11.5 -11.5 C 11.695312 -11.375 11.796875 -11.21875 11.796875 -11.03125 C 11.796875 -10.6875 11.59375 -10.097656 11.1875 -9.265625 C 10.789062 -8.429688 10.59375 -7.75 10.59375 -7.21875 C 10.59375 -7.070312 10.644531 -6.925781 10.75 -6.78125 C 10.863281 -6.632812 10.988281 -6.5625 11.125 -6.5625 C 11.550781 -6.5625 11.957031 -6.820312 12.34375 -7.34375 C 12.445312 -7.5 12.613281 -7.742188 12.84375 -8.078125 C 13.363281 -8.804688 14.054688 -9.546875 14.921875 -10.296875 C 15.984375 -11.234375 16.828125 -11.703125 17.453125 -11.703125 C 17.867188 -11.703125 18.191406 -11.5 18.421875 -11.09375 C 18.609375 -10.769531 18.703125 -10.382812 18.703125 -9.9375 Z M 18.703125 -9.9375 "/></g></g></g><g fill="#000000" fill-opacity="1"><g transform="translate(66.291971, 26.307675)"><g><path d="M 12.53125 -8.140625 C 12.53125 -5.773438 11.539062 -3.800781 9.5625 -2.21875 C 7.726562 -0.738281 5.597656 0 3.171875 0 L 2.265625 0 C 1.191406 0 0.65625 -0.707031 0.65625 -2.125 C 0.65625 -3.195312 0.957031 -4.828125 1.5625 -7.015625 L 3.828125 -15.203125 C 4.546875 -17.679688 4.90625 -19.390625 4.90625 -20.328125 C 4.90625 -20.910156 4.664062 -21.40625 4.1875 -21.8125 C 3.71875 -22.21875 3.484375 -22.503906 3.484375 -22.671875 C 3.484375 -22.984375 3.765625 -23.238281 4.328125 -23.4375 C 4.785156 -23.59375 5.203125 -23.671875 5.578125 -23.671875 C 6.953125 -23.671875 7.640625 -23.132812 7.640625 -22.0625 C 7.640625 -21.75 7.546875 -21.359375 7.359375 -20.890625 C 7.210938 -20.515625 7.0625 -20.132812 6.90625 -19.75 C 6.6875 -19.15625 6.195312 -17.394531 5.4375 -14.46875 C 4.65625 -11.457031 4.265625 -9.785156 4.265625 -9.453125 C 4.265625 -9.171875 4.476562 -9.03125 4.90625 -9.03125 C 5.25 -9.03125 6.003906 -9.472656 7.171875 -10.359375 C 8.347656 -11.253906 9.222656 -11.703125 9.796875 -11.703125 C 11.617188 -11.703125 12.53125 -10.515625 12.53125 -8.140625 Z M 10.5 -7.703125 C 10.5 -9.066406 10.117188 -9.75 9.359375 -9.75 C 9.066406 -9.75 8.703125 -9.648438 8.265625 -9.453125 C 6.609375 -8.703125 5.398438 -7.890625 4.640625 -7.015625 C 3.835938 -6.078125 3.25 -4.75 2.875 -3.03125 C 2.851562 -2.90625 2.84375 -2.796875 2.84375 -2.703125 C 2.84375 -1.941406 3.226562 -1.5625 4 -1.5625 C 4.582031 -1.5625 5.304688 -1.734375 6.171875 -2.078125 C 7.378906 -2.566406 8.382812 -3.296875 9.1875 -4.265625 C 10.0625 -5.328125 10.5 -6.472656 10.5 -7.703125 Z M 10.5 -7.703125 "/></g></g></g><g fill="#000000" fill-opacity="1"><g transform="translate(81.377422, 26.307675)"><g><path d="M 8.78125 -9.265625 C 8.78125 -8.335938 8.269531 -7.519531 7.25 -6.8125 C 6.332031 -6.15625 5.390625 -5.828125 4.421875 -5.828125 C 4.273438 -5.828125 4.054688 -5.851562 3.765625 -5.90625 C 3.472656 -5.96875 3.25 -6 3.09375 -6 C 2.195312 -6 1.75 -5.300781 1.75 -3.90625 C 1.75 -2.539062 2.398438 -1.859375 3.703125 -1.859375 C 4.441406 -1.859375 5.222656 -2.171875 6.046875 -2.796875 C 6.867188 -3.421875 7.253906 -3.734375 7.203125 -3.734375 C 7.753906 -3.734375 8.03125 -3.59375 8.03125 -3.3125 C 8.03125 -3.21875 7.976562 -3.070312 7.875 -2.875 C 7.425781 -2.019531 6.789062 -1.328125 5.96875 -0.796875 C 5.144531 -0.265625 4.253906 0 3.296875 0 C 2.148438 0 1.285156 -0.445312 0.703125 -1.34375 C 0.222656 -2.09375 -0.015625 -3.078125 -0.015625 -4.296875 C -0.015625 -6.179688 0.523438 -7.851562 1.609375 -9.3125 C 2.796875 -10.90625 4.300781 -11.703125 6.125 -11.703125 C 6.8125 -11.703125 7.425781 -11.460938 7.96875 -10.984375 C 8.507812 -10.515625 8.78125 -9.941406 8.78125 -9.265625 Z M 6.859375 -8.671875 C 6.859375 -9.046875 6.710938 -9.367188 6.421875 -9.640625 C 6.140625 -9.921875 5.8125 -10.0625 5.4375 -10.0625 C 4.945312 -10.0625 4.460938 -9.796875 3.984375 -9.265625 C 3.503906 -8.734375 3.265625 -8.222656 3.265625 -7.734375 C 3.265625 -7.515625 3.390625 -7.316406 3.640625 -7.140625 C 3.867188 -7.003906 4.097656 -6.9375 4.328125 -6.9375 C 4.828125 -6.9375 5.359375 -7.097656 5.921875 -7.421875 C 6.546875 -7.785156 6.859375 -8.203125 6.859375 -8.671875 Z M 6.859375 -8.671875 "/></g></g></g><g fill="#000000" fill-opacity="1"><g transform="translate(91.136133, 26.307675)"><g><path d="M 10.140625 -10.671875 C 10.140625 -10.222656 10.035156 -9.773438 9.828125 -9.328125 C 9.566406 -8.785156 9.238281 -8.515625 8.84375 -8.515625 C 8.632812 -8.515625 8.40625 -8.703125 8.15625 -9.078125 C 7.914062 -9.460938 7.703125 -9.65625 7.515625 -9.65625 C 6.941406 -9.65625 6.023438 -8.597656 4.765625 -6.484375 C 4.316406 -5.722656 3.972656 -4.984375 3.734375 -4.265625 L 2.46875 -0.453125 C 2.375 -0.148438 2.019531 0 1.40625 0 C 1.132812 0 0.90625 -0.125 0.71875 -0.375 C 0.53125 -0.632812 0.4375 -0.90625 0.4375 -1.1875 C 0.4375 -1.519531 0.585938 -2.109375 0.890625 -2.953125 C 1.265625 -3.941406 1.640625 -4.929688 2.015625 -5.921875 C 2.503906 -7.304688 2.75 -8.289062 2.75 -8.875 C 2.75 -9.644531 2.585938 -10.03125 2.265625 -10.03125 C 2.179688 -10.03125 2.054688 -9.992188 1.890625 -9.921875 C 1.734375 -9.859375 1.609375 -9.828125 1.515625 -9.828125 C 1.304688 -9.828125 1.203125 -9.9375 1.203125 -10.15625 C 1.203125 -10.539062 1.425781 -10.898438 1.875 -11.234375 C 2.300781 -11.546875 2.707031 -11.703125 3.09375 -11.703125 C 3.84375 -11.703125 4.21875 -11.367188 4.21875 -10.703125 C 4.21875 -10.460938 4.15625 -10.109375 4.03125 -9.640625 C 3.914062 -9.179688 3.859375 -8.832031 3.859375 -8.59375 C 3.859375 -8.144531 3.988281 -7.921875 4.25 -7.921875 C 4.4375 -7.921875 4.773438 -8.25 5.265625 -8.90625 C 5.910156 -9.769531 6.425781 -10.375 6.8125 -10.71875 C 7.519531 -11.375 8.238281 -11.703125 8.96875 -11.703125 C 9.75 -11.703125 10.140625 -11.359375 10.140625 -10.671875 Z M 10.140625 -10.671875 "/></g></g></g></g></g><g transform="matrix(1, 0, 0, 1, 43, 17)"><g clip-path="url(#7d46bae6d9)"><g fill="#000000" fill-opacity="1"><g transform="translate(0.771897, 9.538718)"><g><path d="M 1.53125 -0.5625 C 1.53125 -0.382812 1.476562 -0.234375 1.375 -0.109375 C 1.257812 0.0234375 1.113281 0.09375 0.9375 0.09375 C 0.625 0.09375 0.46875 -0.0664062 0.46875 -0.390625 C 0.46875 -0.578125 0.519531 -0.734375 0.625 -0.859375 C 0.738281 -0.992188 0.890625 -1.0625 1.078125 -1.0625 C 1.378906 -1.0625 1.53125 -0.894531 1.53125 -0.5625 Z M 1.53125 -0.5625 "/></g></g></g></g></g></svg>