<svg xmlns="http://www.w3.org/2000/svg" xmlns:xlink="http://www.w3.org/1999/xlink" width="168" zoomAndPan="magnify" viewBox="0 0 126 47.25" height="63" preserveAspectRatio="xMidYMid meet" version="1.0"><defs><g/><clipPath id="39d87631fc"><path d="M 0.324219 2 L 17 2 L 17 33 L 0.324219 33 Z M 0.324219 2 " clip-rule="nonzero"/></clipPath><clipPath id="8434b372ca"><rect x="0" width="100" y="0" height="37"/></clipPath><clipPath id="b7463067b2"><rect x="0" width="4" y="0" height="13"/></clipPath></defs><g transform="matrix(1, 0, 0, 1, 12, 5)"><g clip-path="url(#8434b372ca)"><g clip-path="url(#39d87631fc)"><g fill="#000000" fill-opacity="1"><g transform="translate(3.181456, 26.307675)"><g><path d="M 13.59375 -22.671875 C 13.59375 -22.472656 13.515625 -22.226562 13.359375 -21.9375 C 13.171875 -21.601562 12.984375 -21.4375 12.796875 -21.4375 C 12.628906 -21.4375 12.378906 -21.460938 12.046875 -21.515625 C 11.710938 -21.566406 11.460938 -21.59375 11.296875 -21.59375 C 10.472656 -21.59375 9.835938 -21.222656 9.390625 -20.484375 C 9.234375 -20.242188 8.863281 -19.109375 8.28125 -17.078125 C 7.707031 -15.046875 7.421875 -13.890625 7.421875 -13.609375 C 7.421875 -13.503906 7.515625 -13.40625 7.703125 -13.3125 C 7.890625 -13.21875 8.046875 -13.171875 8.171875 -13.171875 C 8.273438 -13.171875 8.429688 -13.207031 8.640625 -13.28125 C 8.859375 -13.351562 9.019531 -13.390625 9.125 -13.390625 C 9.53125 -13.390625 9.734375 -13.140625 9.734375 -12.640625 C 9.734375 -11.929688 9.5 -11.515625 9.03125 -11.390625 C 8.53125 -11.316406 8.035156 -11.25 7.546875 -11.1875 C 6.910156 -10.988281 6.453125 -10.460938 6.171875 -9.609375 C 6.148438 -9.554688 6.023438 -9.035156 5.796875 -8.046875 C 5.691406 -7.578125 5.128906 -5.523438 4.109375 -1.890625 L 2.40625 4.234375 C 2.269531 4.734375 2 5.21875 1.59375 5.6875 C 1.125 6.238281 0.664062 6.515625 0.21875 6.515625 C -0.414062 6.515625 -1.003906 6.375 -1.546875 6.09375 C -2.203125 5.75 -2.53125 5.285156 -2.53125 4.703125 C -2.53125 4.109375 -2.210938 3.8125 -1.578125 3.8125 C -1.460938 3.8125 -1.296875 3.832031 -1.078125 3.875 C -0.867188 3.925781 -0.707031 3.953125 -0.59375 3.953125 C -0.132812 3.953125 0.222656 3.757812 0.484375 3.375 C 0.691406 3.0625 1.382812 0.851562 2.5625 -3.25 C 3.738281 -7.351562 4.328125 -9.613281 4.328125 -10.03125 C 4.328125 -10.320312 4.195312 -10.46875 3.9375 -10.46875 C 3.789062 -10.46875 3.582031 -10.441406 3.3125 -10.390625 C 3.039062 -10.347656 2.832031 -10.328125 2.6875 -10.328125 C 2.25 -10.328125 2.03125 -10.519531 2.03125 -10.90625 C 2.03125 -11.507812 2.503906 -11.96875 3.453125 -12.28125 C 4.515625 -12.644531 5.113281 -12.976562 5.25 -13.28125 C 5.269531 -13.34375 5.382812 -13.796875 5.59375 -14.640625 L 6.3125 -17.546875 C 6.851562 -19.691406 7.382812 -21.132812 7.90625 -21.875 C 8.757812 -23.070312 10.109375 -23.671875 11.953125 -23.671875 C 12.285156 -23.671875 12.625 -23.582031 12.96875 -23.40625 C 13.382812 -23.207031 13.59375 -22.960938 13.59375 -22.671875 Z M 13.59375 -22.671875 "/></g></g></g></g><g fill="#000000" fill-opacity="1"><g transform="translate(14.081607, 26.307675)"><g><path d="M 8.78125 -9.265625 C 8.78125 -8.335938 8.269531 -7.519531 7.25 -6.8125 C 6.332031 -6.15625 5.390625 -5.828125 4.421875 -5.828125 C 4.273438 -5.828125 4.054688 -5.851562 3.765625 -5.90625 C 3.472656 -5.96875 3.25 -6 3.09375 -6 C 2.195312 -6 1.75 -5.300781 1.75 -3.90625 C 1.75 -2.539062 2.398438 -1.859375 3.703125 -1.859375 C 4.441406 -1.859375 5.222656 -2.171875 6.046875 -2.796875 C 6.867188 -3.421875 7.253906 -3.734375 7.203125 -3.734375 C 7.753906 -3.734375 8.03125 -3.59375 8.03125 -3.3125 C 8.03125 -3.21875 7.976562 -3.070312 7.875 -2.875 C 7.425781 -2.019531 6.789062 -1.328125 5.96875 -0.796875 C 5.144531 -0.265625 4.253906 0 3.296875 0 C 2.148438 0 1.285156 -0.445312 0.703125 -1.34375 C 0.222656 -2.09375 -0.015625 -3.078125 -0.015625 -4.296875 C -0.015625 -6.179688 0.523438 -7.851562 1.609375 -9.3125 C 2.796875 -10.90625 4.300781 -11.703125 6.125 -11.703125 C 6.8125 -11.703125 7.425781 -11.460938 7.96875 -10.984375 C 8.507812 -10.515625 8.78125 -9.941406 8.78125 -9.265625 Z M 6.859375 -8.671875 C 6.859375 -9.046875 6.710938 -9.367188 6.421875 -9.640625 C 6.140625 -9.921875 5.8125 -10.0625 5.4375 -10.0625 C 4.945312 -10.0625 4.460938 -9.796875 3.984375 -9.265625 C 3.503906 -8.734375 3.265625 -8.222656 3.265625 -7.734375 C 3.265625 -7.515625 3.390625 -7.316406 3.640625 -7.140625 C 3.867188 -7.003906 4.097656 -6.9375 4.328125 -6.9375 C 4.828125 -6.9375 5.359375 -7.097656 5.921875 -7.421875 C 6.546875 -7.785156 6.859375 -8.203125 6.859375 -8.671875 Z M 6.859375 -8.671875 "/></g></g></g><g fill="#000000" fill-opacity="1"><g transform="translate(23.840313, 26.307675)"><g><path d="M 12.53125 -8.140625 C 12.53125 -5.773438 11.539062 -3.800781 9.5625 -2.21875 C 7.726562 -0.738281 5.597656 0 3.171875 0 L 2.265625 0 C 1.191406 0 0.65625 -0.707031 0.65625 -2.125 C 0.65625 -3.195312 0.957031 -4.828125 1.5625 -7.015625 L 3.828125 -15.203125 C 4.546875 -17.679688 4.90625 -19.390625 4.90625 -20.328125 C 4.90625 -20.910156 4.664062 -21.40625 4.1875 -21.8125 C 3.71875 -22.21875 3.484375 -22.503906 3.484375 -22.671875 C 3.484375 -22.984375 3.765625 -23.238281 4.328125 -23.4375 C 4.785156 -23.59375 5.203125 -23.671875 5.578125 -23.671875 C 6.953125 -23.671875 7.640625 -23.132812 7.640625 -22.0625 C 7.640625 -21.75 7.546875 -21.359375 7.359375 -20.890625 C 7.210938 -20.515625 7.0625 -20.132812 6.90625 -19.75 C 6.6875 -19.15625 6.195312 -17.394531 5.4375 -14.46875 C 4.65625 -11.457031 4.265625 -9.785156 4.265625 -9.453125 C 4.265625 -9.171875 4.476562 -9.03125 4.90625 -9.03125 C 5.25 -9.03125 6.003906 -9.472656 7.171875 -10.359375 C 8.347656 -11.253906 9.222656 -11.703125 9.796875 -11.703125 C 11.617188 -11.703125 12.53125 -10.515625 12.53125 -8.140625 Z M 10.5 -7.703125 C 10.5 -9.066406 10.117188 -9.75 9.359375 -9.75 C 9.066406 -9.75 8.703125 -9.648438 8.265625 -9.453125 C 6.609375 -8.703125 5.398438 -7.890625 4.640625 -7.015625 C 3.835938 -6.078125 3.25 -4.75 2.875 -3.03125 C 2.851562 -2.90625 2.84375 -2.796875 2.84375 -2.703125 C 2.84375 -1.941406 3.226562 -1.5625 4 -1.5625 C 4.582031 -1.5625 5.304688 -1.734375 6.171875 -2.078125 C 7.378906 -2.566406 8.382812 -3.296875 9.1875 -4.265625 C 10.0625 -5.328125 10.5 -6.472656 10.5 -7.703125 Z M 10.5 -7.703125 "/></g></g></g><g fill="#000000" fill-opacity="1"><g transform="translate(38.925764, 26.307675)"><g><path d="M 10.140625 -10.671875 C 10.140625 -10.222656 10.035156 -9.773438 9.828125 -9.328125 C 9.566406 -8.785156 9.238281 -8.515625 8.84375 -8.515625 C 8.632812 -8.515625 8.40625 -8.703125 8.15625 -9.078125 C 7.914062 -9.460938 7.703125 -9.65625 7.515625 -9.65625 C 6.941406 -9.65625 6.023438 -8.597656 4.765625 -6.484375 C 4.316406 -5.722656 3.972656 -4.984375 3.734375 -4.265625 L 2.46875 -0.453125 C 2.375 -0.148438 2.019531 0 1.40625 0 C 1.132812 0 0.90625 -0.125 0.71875 -0.375 C 0.53125 -0.632812 0.4375 -0.90625 0.4375 -1.1875 C 0.4375 -1.519531 0.585938 -2.109375 0.890625 -2.953125 C 1.265625 -3.941406 1.640625 -4.929688 2.015625 -5.921875 C 2.503906 -7.304688 2.75 -8.289062 2.75 -8.875 C 2.75 -9.644531 2.585938 -10.03125 2.265625 -10.03125 C 2.179688 -10.03125 2.054688 -9.992188 1.890625 -9.921875 C 1.734375 -9.859375 1.609375 -9.828125 1.515625 -9.828125 C 1.304688 -9.828125 1.203125 -9.9375 1.203125 -10.15625 C 1.203125 -10.539062 1.425781 -10.898438 1.875 -11.234375 C 2.300781 -11.546875 2.707031 -11.703125 3.09375 -11.703125 C 3.84375 -11.703125 4.21875 -11.367188 4.21875 -10.703125 C 4.21875 -10.460938 4.15625 -10.109375 4.03125 -9.640625 C 3.914062 -9.179688 3.859375 -8.832031 3.859375 -8.59375 C 3.859375 -8.144531 3.988281 -7.921875 4.25 -7.921875 C 4.4375 -7.921875 4.773438 -8.25 5.265625 -8.90625 C 5.910156 -9.769531 6.425781 -10.375 6.8125 -10.71875 C 7.519531 -11.375 8.238281 -11.703125 8.96875 -11.703125 C 9.75 -11.703125 10.140625 -11.359375 10.140625 -10.671875 Z M 10.140625 -10.671875 "/></g></g></g><g fill="#000000" fill-opacity="1"><g transform="translate(49.97539, 26.307675)"><g><path d="M 11.40625 -10.375 C 11.40625 -9.820312 11.179688 -9.066406 10.734375 -8.109375 C 10.378906 -7.378906 10.023438 -6.644531 9.671875 -5.90625 C 9.472656 -5.40625 9.296875 -4.929688 9.140625 -4.484375 C 8.890625 -3.734375 8.765625 -3.160156 8.765625 -2.765625 C 8.765625 -2.234375 8.882812 -1.96875 9.125 -1.96875 C 9.34375 -1.96875 9.644531 -2.15625 10.03125 -2.53125 C 10.414062 -2.90625 10.707031 -3.09375 10.90625 -3.09375 C 11.175781 -3.09375 11.3125 -2.984375 11.3125 -2.765625 C 11.3125 -2.222656 10.851562 -1.628906 9.9375 -0.984375 C 9.0625 -0.359375 8.335938 -0.046875 7.765625 -0.046875 C 7.273438 -0.046875 7.03125 -0.289062 7.03125 -0.78125 C 7.03125 -1.238281 7.171875 -1.894531 7.453125 -2.75 C 7.742188 -3.613281 7.890625 -4.273438 7.890625 -4.734375 C 7.890625 -5.085938 7.796875 -5.265625 7.609375 -5.265625 C 7.328125 -5.265625 6.832031 -4.8125 6.125 -3.90625 C 5.113281 -2.59375 4.410156 -1.742188 4.015625 -1.359375 C 3.085938 -0.453125 2.222656 0 1.421875 0 C 1.035156 0 0.722656 -0.179688 0.484375 -0.546875 C 0.285156 -0.847656 0.1875 -1.207031 0.1875 -1.625 C 0.1875 -2.59375 0.628906 -3.914062 1.515625 -5.59375 C 2.410156 -7.269531 2.859375 -8.453125 2.859375 -9.140625 C 2.859375 -9.566406 2.691406 -9.78125 2.359375 -9.78125 C 2.078125 -9.78125 1.722656 -9.597656 1.296875 -9.234375 C 0.878906 -8.878906 0.601562 -8.703125 0.46875 -8.703125 C 0.257812 -8.703125 0.15625 -8.796875 0.15625 -8.984375 C 0.15625 -9.554688 0.609375 -10.160156 1.515625 -10.796875 C 2.359375 -11.398438 3.085938 -11.703125 3.703125 -11.703125 C 4.066406 -11.703125 4.367188 -11.5625 4.609375 -11.28125 C 4.847656 -11 4.96875 -10.671875 4.96875 -10.296875 C 4.96875 -9.421875 4.503906 -8.171875 3.578125 -6.546875 C 2.660156 -4.929688 2.203125 -3.703125 2.203125 -2.859375 C 2.203125 -2.347656 2.320312 -2.09375 2.5625 -2.09375 C 3.289062 -2.09375 4.359375 -3.082031 5.765625 -5.0625 C 6.753906 -6.457031 7.59375 -7.816406 8.28125 -9.140625 C 8.4375 -9.503906 8.703125 -10.039062 9.078125 -10.75 C 9.453125 -11.382812 9.867188 -11.703125 10.328125 -11.703125 C 10.660156 -11.703125 10.929688 -11.5625 11.140625 -11.28125 C 11.316406 -11.019531 11.40625 -10.71875 11.40625 -10.375 Z M 11.40625 -10.375 "/></g></g></g><g fill="#000000" fill-opacity="1"><g transform="translate(63.022545, 26.307675)"><g><path d="M 11.8125 -3.953125 C 11.8125 -3.367188 11.328125 -2.570312 10.359375 -1.5625 C 9.398438 -0.5625 8.628906 -0.0625 8.046875 -0.0625 C 7.128906 -0.0625 6.671875 -0.5625 6.671875 -1.5625 C 6.671875 -1.769531 6.707031 -2.078125 6.78125 -2.484375 C 6.863281 -2.890625 6.90625 -3.195312 6.90625 -3.40625 C 6.90625 -3.65625 6.832031 -3.78125 6.6875 -3.78125 C 6.613281 -3.78125 5.941406 -3.148438 4.671875 -1.890625 C 3.410156 -0.628906 2.472656 0 1.859375 0 C 1.347656 0 0.9375 -0.203125 0.625 -0.609375 C 0.332031 -0.984375 0.1875 -1.429688 0.1875 -1.953125 C 0.1875 -3.617188 0.976562 -5.503906 2.5625 -7.609375 C 4.257812 -9.867188 6.050781 -11.179688 7.9375 -11.546875 C 8.320312 -11.609375 8.894531 -11.71875 9.65625 -11.875 C 10.3125 -12.320312 10.675781 -12.546875 10.75 -12.546875 C 11.007812 -12.546875 11.140625 -12.382812 11.140625 -12.0625 C 11.140625 -11.90625 11.09375 -11.707031 11 -11.46875 L 9.375 -7.296875 C 8.675781 -5.515625 8.328125 -4.210938 8.328125 -3.390625 C 8.328125 -2.679688 8.625 -2.328125 9.21875 -2.328125 C 9.46875 -2.328125 9.894531 -2.648438 10.5 -3.296875 C 11.101562 -3.941406 11.460938 -4.265625 11.578125 -4.265625 C 11.734375 -4.265625 11.8125 -4.160156 11.8125 -3.953125 Z M 8.4375 -9.21875 C 8.4375 -9.5625 8.144531 -9.734375 7.5625 -9.734375 L 7.390625 -9.734375 C 6.328125 -9.734375 5.144531 -8.945312 3.84375 -7.375 C 2.570312 -5.84375 1.9375 -4.535156 1.9375 -3.453125 C 1.9375 -2.710938 2.207031 -2.34375 2.75 -2.34375 C 3.695312 -2.34375 4.890625 -3.253906 6.328125 -5.078125 C 7.734375 -6.847656 8.4375 -8.226562 8.4375 -9.21875 Z M 8.4375 -9.21875 "/></g></g></g><g fill="#000000" fill-opacity="1"><g transform="translate(76.681189, 26.307675)"><g><path d="M 10.140625 -10.671875 C 10.140625 -10.222656 10.035156 -9.773438 9.828125 -9.328125 C 9.566406 -8.785156 9.238281 -8.515625 8.84375 -8.515625 C 8.632812 -8.515625 8.40625 -8.703125 8.15625 -9.078125 C 7.914062 -9.460938 7.703125 -9.65625 7.515625 -9.65625 C 6.941406 -9.65625 6.023438 -8.597656 4.765625 -6.484375 C 4.316406 -5.722656 3.972656 -4.984375 3.734375 -4.265625 L 2.46875 -0.453125 C 2.375 -0.148438 2.019531 0 1.40625 0 C 1.132812 0 0.90625 -0.125 0.71875 -0.375 C 0.53125 -0.632812 0.4375 -0.90625 0.4375 -1.1875 C 0.4375 -1.519531 0.585938 -2.109375 0.890625 -2.953125 C 1.265625 -3.941406 1.640625 -4.929688 2.015625 -5.921875 C 2.503906 -7.304688 2.75 -8.289062 2.75 -8.875 C 2.75 -9.644531 2.585938 -10.03125 2.265625 -10.03125 C 2.179688 -10.03125 2.054688 -9.992188 1.890625 -9.921875 C 1.734375 -9.859375 1.609375 -9.828125 1.515625 -9.828125 C 1.304688 -9.828125 1.203125 -9.9375 1.203125 -10.15625 C 1.203125 -10.539062 1.425781 -10.898438 1.875 -11.234375 C 2.300781 -11.546875 2.707031 -11.703125 3.09375 -11.703125 C 3.84375 -11.703125 4.21875 -11.367188 4.21875 -10.703125 C 4.21875 -10.460938 4.15625 -10.109375 4.03125 -9.640625 C 3.914062 -9.179688 3.859375 -8.832031 3.859375 -8.59375 C 3.859375 -8.144531 3.988281 -7.921875 4.25 -7.921875 C 4.4375 -7.921875 4.773438 -8.25 5.265625 -8.90625 C 5.910156 -9.769531 6.425781 -10.375 6.8125 -10.71875 C 7.519531 -11.375 8.238281 -11.703125 8.96875 -11.703125 C 9.75 -11.703125 10.140625 -11.359375 10.140625 -10.671875 Z M 10.140625 -10.671875 "/></g></g></g><g fill="#000000" fill-opacity="1"><g transform="translate(87.730815, 26.307675)"><g><path d="M 9.484375 -9.84375 C 9.484375 -7.320312 8.738281 -4.726562 7.25 -2.0625 C 5.832031 0.445312 4.0625 2.507812 1.9375 4.125 C -0.132812 5.71875 -2.535156 6.515625 -5.265625 6.515625 C -5.890625 6.515625 -6.515625 6.347656 -7.140625 6.015625 C -7.890625 5.640625 -8.265625 5.171875 -8.265625 4.609375 C -8.265625 4.296875 -8.046875 4.140625 -7.609375 4.140625 L -7.53125 4.140625 C -6.757812 4.703125 -6.296875 5.023438 -6.140625 5.109375 C -5.554688 5.453125 -5.03125 5.625 -4.5625 5.625 C -1.90625 5.625 0.492188 3.878906 2.640625 0.390625 C 3.429688 -0.910156 3.828125 -2.289062 3.828125 -3.75 C 3.828125 -4.445312 3.738281 -5.316406 3.5625 -6.359375 C 3.351562 -7.578125 3.109375 -8.382812 2.828125 -8.78125 C 2.816406 -8.789062 2.535156 -9.078125 1.984375 -9.640625 C 1.703125 -9.921875 1.5625 -10.304688 1.5625 -10.796875 C 1.5625 -11.398438 1.957031 -11.703125 2.75 -11.703125 C 3.28125 -11.703125 3.71875 -11.394531 4.0625 -10.78125 C 4.238281 -10.457031 4.5 -9.144531 4.84375 -6.84375 C 5.144531 -4.8125 5.492188 -3.710938 5.890625 -3.546875 C 6.492188 -3.628906 7.007812 -4.488281 7.4375 -6.125 C 7.757812 -7.425781 7.921875 -8.53125 7.921875 -9.4375 C 7.921875 -9.613281 7.894531 -9.875 7.84375 -10.21875 C 7.800781 -10.570312 7.78125 -10.832031 7.78125 -11 C 7.78125 -11.46875 8.019531 -11.703125 8.5 -11.703125 C 9.15625 -11.703125 9.484375 -11.082031 9.484375 -9.84375 Z M 9.484375 -9.84375 "/></g></g></g></g></g><g transform="matrix(1, 0, 0, 1, 77, 22)"><g clip-path="url(#b7463067b2)"><g fill="#000000" fill-opacity="1"><g transform="translate(0.883117, 9.259289)"><g><path d="M 1.53125 -0.5625 C 1.53125 -0.382812 1.476562 -0.234375 1.375 -0.109375 C 1.257812 0.0234375 1.113281 0.09375 0.9375 0.09375 C 0.625 0.09375 0.46875 -0.0664062 0.46875 -0.390625 C 0.46875 -0.578125 0.519531 -0.734375 0.625 -0.859375 C 0.738281 -0.992188 0.890625 -1.0625 1.078125 -1.0625 C 1.378906 -1.0625 1.53125 -0.894531 1.53125 -0.5625 Z M 1.53125 -0.5625 "/></g></g></g></g></g></svg>