<svg xmlns="http://www.w3.org/2000/svg" xmlns:xlink="http://www.w3.org/1999/xlink" width="168" zoomAndPan="magnify" viewBox="0 0 126 47.25" height="63" preserveAspectRatio="xMidYMid meet" version="1.0"><defs><g/><clipPath id="4ae9afd310"><path d="M 0.207031 13 L 13 13 L 13 27 L 0.207031 27 Z M 0.207031 13 " clip-rule="nonzero"/></clipPath><clipPath id="683107ca0b"><rect x="0" width="73" y="0" height="37"/></clipPath><clipPath id="3aa768ea9c"><rect x="0" width="4" y="0" height="13"/></clipPath></defs><g transform="matrix(1, 0, 0, 1, 27, 5)"><g clip-path="url(#683107ca0b)"><g clip-path="url(#4ae9afd310)"><g fill="#000000" fill-opacity="1"><g transform="translate(0.38677, 26.307675)"><g><path d="M 11.8125 -3.953125 C 11.8125 -3.367188 11.328125 -2.570312 10.359375 -1.5625 C 9.398438 -0.5625 8.628906 -0.0625 8.046875 -0.0625 C 7.128906 -0.0625 6.671875 -0.5625 6.671875 -1.5625 C 6.671875 -1.769531 6.707031 -2.078125 6.78125 -2.484375 C 6.863281 -2.890625 6.90625 -3.195312 6.90625 -3.40625 C 6.90625 -3.65625 6.832031 -3.78125 6.6875 -3.78125 C 6.613281 -3.78125 5.941406 -3.148438 4.671875 -1.890625 C 3.410156 -0.628906 2.472656 0 1.859375 0 C 1.347656 0 0.9375 -0.203125 0.625 -0.609375 C 0.332031 -0.984375 0.1875 -1.429688 0.1875 -1.953125 C 0.1875 -3.617188 0.976562 -5.503906 2.5625 -7.609375 C 4.257812 -9.867188 6.050781 -11.179688 7.9375 -11.546875 C 8.320312 -11.609375 8.894531 -11.71875 9.65625 -11.875 C 10.3125 -12.320312 10.675781 -12.546875 10.75 -12.546875 C 11.007812 -12.546875 11.140625 -12.382812 11.140625 -12.0625 C 11.140625 -11.90625 11.09375 -11.707031 11 -11.46875 L 9.375 -7.296875 C 8.675781 -5.515625 8.328125 -4.210938 8.328125 -3.390625 C 8.328125 -2.679688 8.625 -2.328125 9.21875 -2.328125 C 9.46875 -2.328125 9.894531 -2.648438 10.5 -3.296875 C 11.101562 -3.941406 11.460938 -4.265625 11.578125 -4.265625 C 11.734375 -4.265625 11.8125 -4.160156 11.8125 -3.953125 Z M 8.4375 -9.21875 C 8.4375 -9.5625 8.144531 -9.734375 7.5625 -9.734375 L 7.390625 -9.734375 C 6.328125 -9.734375 5.144531 -8.945312 3.84375 -7.375 C 2.570312 -5.84375 1.9375 -4.535156 1.9375 -3.453125 C 1.9375 -2.710938 2.207031 -2.34375 2.75 -2.34375 C 3.695312 -2.34375 4.890625 -3.253906 6.328125 -5.078125 C 7.734375 -6.847656 8.4375 -8.226562 8.4375 -9.21875 Z M 8.4375 -9.21875 "/></g></g></g></g><g fill="#000000" fill-opacity="1"><g transform="translate(14.045414, 26.307675)"><g><path d="M 11.40625 -10.375 C 11.40625 -9.820312 11.179688 -9.066406 10.734375 -8.109375 C 10.378906 -7.378906 10.023438 -6.644531 9.671875 -5.90625 C 9.472656 -5.40625 9.296875 -4.929688 9.140625 -4.484375 C 8.890625 -3.734375 8.765625 -3.160156 8.765625 -2.765625 C 8.765625 -2.234375 8.882812 -1.96875 9.125 -1.96875 C 9.34375 -1.96875 9.644531 -2.15625 10.03125 -2.53125 C 10.414062 -2.90625 10.707031 -3.09375 10.90625 -3.09375 C 11.175781 -3.09375 11.3125 -2.984375 11.3125 -2.765625 C 11.3125 -2.222656 10.851562 -1.628906 9.9375 -0.984375 C 9.0625 -0.359375 8.335938 -0.046875 7.765625 -0.046875 C 7.273438 -0.046875 7.03125 -0.289062 7.03125 -0.78125 C 7.03125 -1.238281 7.171875 -1.894531 7.453125 -2.75 C 7.742188 -3.613281 7.890625 -4.273438 7.890625 -4.734375 C 7.890625 -5.085938 7.796875 -5.265625 7.609375 -5.265625 C 7.328125 -5.265625 6.832031 -4.8125 6.125 -3.90625 C 5.113281 -2.59375 4.410156 -1.742188 4.015625 -1.359375 C 3.085938 -0.453125 2.222656 0 1.421875 0 C 1.035156 0 0.722656 -0.179688 0.484375 -0.546875 C 0.285156 -0.847656 0.1875 -1.207031 0.1875 -1.625 C 0.1875 -2.59375 0.628906 -3.914062 1.515625 -5.59375 C 2.410156 -7.269531 2.859375 -8.453125 2.859375 -9.140625 C 2.859375 -9.566406 2.691406 -9.78125 2.359375 -9.78125 C 2.078125 -9.78125 1.722656 -9.597656 1.296875 -9.234375 C 0.878906 -8.878906 0.601562 -8.703125 0.46875 -8.703125 C 0.257812 -8.703125 0.15625 -8.796875 0.15625 -8.984375 C 0.15625 -9.554688 0.609375 -10.160156 1.515625 -10.796875 C 2.359375 -11.398438 3.085938 -11.703125 3.703125 -11.703125 C 4.066406 -11.703125 4.367188 -11.5625 4.609375 -11.28125 C 4.847656 -11 4.96875 -10.671875 4.96875 -10.296875 C 4.96875 -9.421875 4.503906 -8.171875 3.578125 -6.546875 C 2.660156 -4.929688 2.203125 -3.703125 2.203125 -2.859375 C 2.203125 -2.347656 2.320312 -2.09375 2.5625 -2.09375 C 3.289062 -2.09375 4.359375 -3.082031 5.765625 -5.0625 C 6.753906 -6.457031 7.59375 -7.816406 8.28125 -9.140625 C 8.4375 -9.503906 8.703125 -10.039062 9.078125 -10.75 C 9.453125 -11.382812 9.867188 -11.703125 10.328125 -11.703125 C 10.660156 -11.703125 10.929688 -11.5625 11.140625 -11.28125 C 11.316406 -11.019531 11.40625 -10.71875 11.40625 -10.375 Z M 11.40625 -10.375 "/></g></g></g><g fill="#000000" fill-opacity="1"><g transform="translate(27.092569, 26.307675)"><g><path d="M 10.90625 -9.75 C 10.90625 -9.457031 10.664062 -9.253906 10.1875 -9.140625 C 9.582031 -9.003906 9.191406 -8.820312 9.015625 -8.59375 C 8.878906 -8.425781 8.773438 -8.019531 8.703125 -7.375 C 8.609375 -6.625 8.53125 -6.164062 8.46875 -6 C 8.164062 -5.164062 7.488281 -4.4375 6.4375 -3.8125 C 5.488281 -3.25 4.535156 -2.925781 3.578125 -2.84375 C 2.773438 -2.34375 2.375 -1.722656 2.375 -0.984375 C 2.375 -0.566406 2.9375 -0.078125 4.0625 0.484375 C 5.769531 1.359375 6.804688 1.925781 7.171875 2.1875 C 8.296875 2.988281 8.859375 3.875 8.859375 4.84375 C 8.859375 6.039062 8.140625 6.941406 6.703125 7.546875 C 5.628906 7.984375 4.382812 8.203125 2.96875 8.203125 C 1.414062 8.203125 -0.03125 7.929688 -1.375 7.390625 C -3.132812 6.671875 -4.015625 5.65625 -4.015625 4.34375 C -4.015625 3.445312 -3.488281 2.742188 -2.4375 2.234375 C -1.59375 1.816406 -0.664062 1.609375 0.34375 1.609375 C 1.039062 1.609375 1.390625 1.421875 1.390625 1.046875 C 1.390625 1.003906 1.382812 0.960938 1.375 0.921875 C 0.75 0.253906 0.4375 -0.316406 0.4375 -0.796875 C 0.4375 -1.296875 0.71875 -1.828125 1.28125 -2.390625 C 1.851562 -2.953125 2.160156 -3.4375 2.203125 -3.84375 C 1.285156 -4.976562 0.828125 -6.070312 0.828125 -7.125 C 0.828125 -8.15625 1.195312 -9.15625 1.9375 -10.125 C 2.738281 -11.175781 3.640625 -11.703125 4.640625 -11.703125 C 5.472656 -11.703125 6.84375 -11.300781 8.75 -10.5 C 9.363281 -10.707031 9.796875 -10.8125 10.046875 -10.8125 C 10.617188 -10.8125 10.90625 -10.457031 10.90625 -9.75 Z M 6.96875 -8.84375 C 6.96875 -9.3125 6.835938 -9.71875 6.578125 -10.0625 C 6.296875 -10.425781 5.925781 -10.609375 5.46875 -10.609375 C 4.601562 -10.609375 3.882812 -10.066406 3.3125 -8.984375 C 2.832031 -8.066406 2.59375 -7.132812 2.59375 -6.1875 C 2.59375 -5.707031 2.71875 -5.28125 2.96875 -4.90625 C 3.238281 -4.476562 3.597656 -4.265625 4.046875 -4.265625 C 4.898438 -4.265625 5.625 -4.835938 6.21875 -5.984375 C 6.71875 -6.941406 6.96875 -7.894531 6.96875 -8.84375 Z M 6.90625 4.640625 C 6.90625 3.804688 6.316406 3.203125 5.140625 2.828125 C 4.328125 2.566406 3.390625 2.4375 2.328125 2.4375 C 1.234375 2.4375 0.296875 2.546875 -0.484375 2.765625 C -1.671875 3.117188 -2.265625 3.6875 -2.265625 4.46875 C -2.265625 5.40625 -1.597656 6.09375 -0.265625 6.53125 C 0.671875 6.832031 1.738281 6.984375 2.9375 6.984375 C 3.757812 6.984375 4.578125 6.789062 5.390625 6.40625 C 6.398438 5.957031 6.90625 5.367188 6.90625 4.640625 Z M 6.90625 4.640625 "/></g></g></g><g fill="#000000" fill-opacity="1"><g transform="translate(39.609768, 26.307675)"><g><path d="M 11.40625 -10.375 C 11.40625 -9.820312 11.179688 -9.066406 10.734375 -8.109375 C 10.378906 -7.378906 10.023438 -6.644531 9.671875 -5.90625 C 9.472656 -5.40625 9.296875 -4.929688 9.140625 -4.484375 C 8.890625 -3.734375 8.765625 -3.160156 8.765625 -2.765625 C 8.765625 -2.234375 8.882812 -1.96875 9.125 -1.96875 C 9.34375 -1.96875 9.644531 -2.15625 10.03125 -2.53125 C 10.414062 -2.90625 10.707031 -3.09375 10.90625 -3.09375 C 11.175781 -3.09375 11.3125 -2.984375 11.3125 -2.765625 C 11.3125 -2.222656 10.851562 -1.628906 9.9375 -0.984375 C 9.0625 -0.359375 8.335938 -0.046875 7.765625 -0.046875 C 7.273438 -0.046875 7.03125 -0.289062 7.03125 -0.78125 C 7.03125 -1.238281 7.171875 -1.894531 7.453125 -2.75 C 7.742188 -3.613281 7.890625 -4.273438 7.890625 -4.734375 C 7.890625 -5.085938 7.796875 -5.265625 7.609375 -5.265625 C 7.328125 -5.265625 6.832031 -4.8125 6.125 -3.90625 C 5.113281 -2.59375 4.410156 -1.742188 4.015625 -1.359375 C 3.085938 -0.453125 2.222656 0 1.421875 0 C 1.035156 0 0.722656 -0.179688 0.484375 -0.546875 C 0.285156 -0.847656 0.1875 -1.207031 0.1875 -1.625 C 0.1875 -2.59375 0.628906 -3.914062 1.515625 -5.59375 C 2.410156 -7.269531 2.859375 -8.453125 2.859375 -9.140625 C 2.859375 -9.566406 2.691406 -9.78125 2.359375 -9.78125 C 2.078125 -9.78125 1.722656 -9.597656 1.296875 -9.234375 C 0.878906 -8.878906 0.601562 -8.703125 0.46875 -8.703125 C 0.257812 -8.703125 0.15625 -8.796875 0.15625 -8.984375 C 0.15625 -9.554688 0.609375 -10.160156 1.515625 -10.796875 C 2.359375 -11.398438 3.085938 -11.703125 3.703125 -11.703125 C 4.066406 -11.703125 4.367188 -11.5625 4.609375 -11.28125 C 4.847656 -11 4.96875 -10.671875 4.96875 -10.296875 C 4.96875 -9.421875 4.503906 -8.171875 3.578125 -6.546875 C 2.660156 -4.929688 2.203125 -3.703125 2.203125 -2.859375 C 2.203125 -2.347656 2.320312 -2.09375 2.5625 -2.09375 C 3.289062 -2.09375 4.359375 -3.082031 5.765625 -5.0625 C 6.753906 -6.457031 7.59375 -7.816406 8.28125 -9.140625 C 8.4375 -9.503906 8.703125 -10.039062 9.078125 -10.75 C 9.453125 -11.382812 9.867188 -11.703125 10.328125 -11.703125 C 10.660156 -11.703125 10.929688 -11.5625 11.140625 -11.28125 C 11.316406 -11.019531 11.40625 -10.71875 11.40625 -10.375 Z M 11.40625 -10.375 "/></g></g></g><g fill="#000000" fill-opacity="1"><g transform="translate(52.656924, 26.307675)"><g><path d="M 7.640625 -9.640625 C 7.640625 -8.804688 7.492188 -8.390625 7.203125 -8.390625 C 7.054688 -8.390625 6.695312 -8.648438 6.125 -9.171875 C 5.550781 -9.691406 5.054688 -9.953125 4.640625 -9.953125 C 4.179688 -9.953125 3.789062 -9.769531 3.46875 -9.40625 C 3.15625 -9.039062 3 -8.628906 3 -8.171875 C 3 -7.773438 3.335938 -7.269531 4.015625 -6.65625 C 5.265625 -5.539062 5.90625 -4.972656 5.9375 -4.953125 C 6.613281 -4.210938 6.953125 -3.503906 6.953125 -2.828125 C 6.953125 -1.984375 6.613281 -1.289062 5.9375 -0.75 C 5.3125 -0.25 4.566406 0 3.703125 0 C 2.984375 0 2.296875 -0.144531 1.640625 -0.4375 C 0.828125 -0.800781 0.421875 -1.296875 0.421875 -1.921875 C 0.421875 -2.890625 0.578125 -3.375 0.890625 -3.375 C 0.890625 -3.375 0.914062 -3.367188 0.96875 -3.359375 C 1.96875 -2.429688 2.832031 -1.96875 3.5625 -1.96875 C 4.414062 -1.96875 4.84375 -2.34375 4.84375 -3.09375 C 4.84375 -3.40625 4.59375 -3.8125 4.09375 -4.3125 C 3.3125 -5.082031 2.835938 -5.570312 2.671875 -5.78125 C 2.171875 -6.4375 1.921875 -7.125 1.921875 -7.84375 C 1.921875 -8.832031 2.203125 -9.703125 2.765625 -10.453125 C 3.367188 -11.285156 4.148438 -11.703125 5.109375 -11.703125 C 5.460938 -11.703125 5.894531 -11.597656 6.40625 -11.390625 C 6.976562 -11.148438 7.335938 -10.894531 7.484375 -10.625 C 7.585938 -10.4375 7.640625 -10.109375 7.640625 -9.640625 Z M 7.640625 -9.640625 "/></g></g></g><g fill="#000000" fill-opacity="1"><g transform="translate(62.347686, 26.307675)"><g><path d="M 8.4375 -11.3125 C 8.4375 -10.570312 7.90625 -10.203125 6.84375 -10.203125 C 6.6875 -10.203125 6.445312 -10.210938 6.125 -10.234375 C 5.800781 -10.265625 5.554688 -10.28125 5.390625 -10.28125 C 4.890625 -10.28125 4.535156 -10.070312 4.328125 -9.65625 C 4.253906 -9.53125 4.125 -9.109375 3.9375 -8.390625 L 2.515625 -3 C 2.492188 -2.925781 2.484375 -2.847656 2.484375 -2.765625 C 2.484375 -2.222656 2.734375 -1.953125 3.234375 -1.953125 C 3.671875 -1.953125 4.113281 -2.296875 4.5625 -2.984375 C 5.007812 -3.679688 5.367188 -4.03125 5.640625 -4.03125 C 6.066406 -4.03125 6.28125 -3.84375 6.28125 -3.46875 C 6.28125 -3.03125 6.003906 -2.410156 5.453125 -1.609375 C 4.710938 -0.535156 3.6875 0 2.375 0 C 1.894531 0 1.460938 -0.148438 1.078125 -0.453125 C 0.640625 -0.765625 0.421875 -1.148438 0.421875 -1.609375 C 0.421875 -2.410156 0.992188 -4.707031 2.140625 -8.5 C 2.367188 -9.238281 2.484375 -9.6875 2.484375 -9.84375 C 2.484375 -10.050781 2.289062 -10.164062 1.90625 -10.1875 C 2.1875 -10.164062 1.914062 -10.15625 1.09375 -10.15625 C 0.726562 -10.15625 0.546875 -10.296875 0.546875 -10.578125 C 0.546875 -11.097656 0.765625 -11.425781 1.203125 -11.5625 C 1.410156 -11.632812 1.84375 -11.671875 2.5 -11.671875 C 2.988281 -11.671875 3.351562 -12.035156 3.59375 -12.765625 C 3.875 -13.597656 4.082031 -14.054688 4.21875 -14.140625 C 4.394531 -14.265625 4.695312 -14.328125 5.125 -14.328125 C 5.53125 -14.328125 5.734375 -14.195312 5.734375 -13.9375 C 5.734375 -13.738281 5.648438 -13.457031 5.484375 -13.09375 C 5.328125 -12.738281 5.25 -12.457031 5.25 -12.25 C 5.25 -11.8125 5.5 -11.59375 6 -11.59375 C 6.238281 -11.59375 6.59375 -11.609375 7.0625 -11.640625 C 7.53125 -11.679688 7.882812 -11.703125 8.125 -11.703125 C 8.332031 -11.703125 8.4375 -11.570312 8.4375 -11.3125 Z M 8.4375 -11.3125 "/></g></g></g></g></g><g transform="matrix(1, 0, 0, 1, 74, 22)"><g clip-path="url(#3aa768ea9c)"><g fill="#000000" fill-opacity="1"><g transform="translate(0.555304, 9.259289)"><g><path d="M 1.53125 -0.5625 C 1.53125 -0.382812 1.476562 -0.234375 1.375 -0.109375 C 1.257812 0.0234375 1.113281 0.09375 0.9375 0.09375 C 0.625 0.09375 0.46875 -0.0664062 0.46875 -0.390625 C 0.46875 -0.578125 0.519531 -0.734375 0.625 -0.859375 C 0.738281 -0.992188 0.890625 -1.0625 1.078125 -1.0625 C 1.378906 -1.0625 1.53125 -0.894531 1.53125 -0.5625 Z M 1.53125 -0.5625 "/></g></g></g></g></g></svg>