<svg xmlns="http://www.w3.org/2000/svg" xmlns:xlink="http://www.w3.org/1999/xlink" width="149" zoomAndPan="magnify" viewBox="0 0 111.75 101.999999" height="136" preserveAspectRatio="xMidYMid meet" version="1.0"><defs><g/><clipPath id="388fcb9a06"><rect x="0" width="33" y="0" height="65"/></clipPath><clipPath id="cacae09d8d"><path d="M 0.316406 7 L 2 7 L 2 9 L 0.316406 9 Z M 0.316406 7 " clip-rule="nonzero"/></clipPath><clipPath id="081b146474"><rect x="0" width="3" y="0" height="12"/></clipPath></defs><g transform="matrix(1, 0, 0, 1, 40, 16)"><g clip-path="url(#388fcb9a06)"><g fill="#cafc05" fill-opacity="1"><g transform="translate(5.503053, 56.938764)"><g><path d="M 1.265625 -12.03125 C 1.484375 -12.144531 1.859375 -12.273438 2.390625 -12.421875 C 2.929688 -12.566406 3.523438 -12.710938 4.171875 -12.859375 C 4.816406 -13.015625 5.394531 -13.144531 5.90625 -13.25 C 6.425781 -13.363281 6.757812 -13.421875 6.90625 -13.421875 C 7.488281 -13.421875 7.851562 -13.179688 8 -12.703125 C 8.375 -11.410156 8.765625 -10.3125 9.171875 -9.40625 C 9.578125 -8.507812 10.238281 -8.0625 11.15625 -8.0625 C 11.851562 -8.0625 12.503906 -8.410156 13.109375 -9.109375 C 13.722656 -9.804688 14.210938 -10.671875 14.578125 -11.703125 C 14.941406 -12.734375 15.125 -13.75 15.125 -14.75 C 15.125 -15.59375 14.945312 -16.304688 14.59375 -16.890625 C 14.25 -17.484375 13.707031 -17.78125 12.96875 -17.78125 C 12.53125 -17.78125 12.0625 -17.59375 11.5625 -17.21875 C 11.070312 -16.851562 10.613281 -16.488281 10.1875 -16.125 C 9.757812 -15.757812 9.421875 -15.578125 9.171875 -15.578125 C 8.910156 -15.578125 8.632812 -15.628906 8.34375 -15.734375 C 7.457031 -16.109375 6.5625 -16.578125 5.65625 -17.140625 C 4.757812 -17.710938 3.976562 -18.332031 3.3125 -19 C 2.945312 -19.363281 2.765625 -19.84375 2.765625 -20.4375 C 2.765625 -20.65625 2.875 -21.203125 3.09375 -22.078125 C 3.3125 -22.960938 3.585938 -24.015625 3.921875 -25.234375 C 4.253906 -26.453125 4.578125 -27.664062 4.890625 -28.875 C 5.203125 -30.09375 5.445312 -31.125 5.625 -31.96875 C 5.707031 -32.257812 5.75 -32.539062 5.75 -32.8125 C 5.75 -33.09375 5.75 -33.347656 5.75 -33.578125 C 5.75 -34.085938 5.8125 -34.546875 5.9375 -34.953125 C 6.0625 -35.359375 6.421875 -35.632812 7.015625 -35.78125 C 7.859375 -36 9.097656 -36.179688 10.734375 -36.328125 C 12.378906 -36.484375 14.148438 -36.601562 16.046875 -36.6875 C 17.941406 -36.78125 19.660156 -36.828125 21.203125 -36.828125 C 21.828125 -36.828125 22.46875 -36.828125 23.125 -36.828125 C 23.789062 -36.828125 24.328125 -36.789062 24.734375 -36.71875 C 25.035156 -36.6875 25.300781 -36.550781 25.53125 -36.3125 C 25.769531 -36.070312 25.910156 -35.800781 25.953125 -35.5 C 26.066406 -34.625 26.125 -33.550781 26.125 -32.28125 C 26.125 -31.007812 26.085938 -29.96875 26.015625 -29.15625 C 26.015625 -28.894531 25.910156 -28.671875 25.703125 -28.484375 C 25.503906 -28.304688 25.253906 -28.195312 24.953125 -28.15625 C 24.804688 -28.15625 24.382812 -28.132812 23.6875 -28.09375 C 22.988281 -28.0625 22.160156 -28.023438 21.203125 -27.984375 C 20.242188 -27.953125 19.296875 -27.914062 18.359375 -27.875 C 17.421875 -27.84375 16.617188 -27.816406 15.953125 -27.796875 C 15.296875 -27.785156 14.910156 -27.78125 14.796875 -27.78125 C 14.242188 -27.738281 13.859375 -27.460938 13.640625 -26.953125 C 13.566406 -26.691406 13.425781 -26.289062 13.21875 -25.75 C 13.019531 -25.21875 12.847656 -24.710938 12.703125 -24.234375 C 12.554688 -23.753906 12.484375 -23.460938 12.484375 -23.359375 C 12.484375 -23.066406 12.628906 -22.921875 12.921875 -22.921875 C 13.066406 -22.921875 13.3125 -23.054688 13.65625 -23.328125 C 14.007812 -23.609375 14.4375 -23.875 14.9375 -24.125 C 15.4375 -24.382812 15.960938 -24.515625 16.515625 -24.515625 C 17.390625 -24.515625 18.367188 -24.21875 19.453125 -23.625 C 20.546875 -23.039062 21.539062 -22.304688 22.4375 -21.421875 C 23.34375 -20.535156 23.925781 -19.632812 24.1875 -18.71875 C 24.332031 -18.28125 24.46875 -17.71875 24.59375 -17.03125 C 24.726562 -16.351562 24.796875 -15.664062 24.796875 -14.96875 C 24.796875 -12.976562 24.484375 -11.070312 23.859375 -9.25 C 23.234375 -7.425781 22.375 -5.8125 21.28125 -4.40625 C 20.195312 -3.007812 18.945312 -1.90625 17.53125 -1.09375 C 16.113281 -0.289062 14.59375 0.109375 12.96875 0.109375 C 12.09375 0.109375 11.019531 -0.0351562 9.75 -0.328125 C 8.476562 -0.617188 7.207031 -1.066406 5.9375 -1.671875 C 4.664062 -2.285156 3.585938 -3.050781 2.703125 -3.96875 C 2.117188 -4.5625 1.660156 -5.289062 1.328125 -6.15625 C 0.992188 -7.019531 0.753906 -7.863281 0.609375 -8.6875 C 0.460938 -9.519531 0.390625 -10.160156 0.390625 -10.609375 C 0.390625 -10.898438 0.441406 -11.164062 0.546875 -11.40625 C 0.660156 -11.644531 0.898438 -11.851562 1.265625 -12.03125 Z M 1.265625 -12.03125 "/></g></g></g><g fill="#e474ba" fill-opacity="1"><g transform="translate(0.621911, 52.057622)"><g><path d="M 1.265625 -12.03125 C 1.484375 -12.144531 1.859375 -12.273438 2.390625 -12.421875 C 2.929688 -12.566406 3.523438 -12.710938 4.171875 -12.859375 C 4.816406 -13.015625 5.394531 -13.144531 5.90625 -13.25 C 6.425781 -13.363281 6.757812 -13.421875 6.90625 -13.421875 C 7.488281 -13.421875 7.851562 -13.179688 8 -12.703125 C 8.375 -11.410156 8.765625 -10.3125 9.171875 -9.40625 C 9.578125 -8.507812 10.238281 -8.0625 11.15625 -8.0625 C 11.851562 -8.0625 12.503906 -8.410156 13.109375 -9.109375 C 13.722656 -9.804688 14.210938 -10.671875 14.578125 -11.703125 C 14.941406 -12.734375 15.125 -13.75 15.125 -14.75 C 15.125 -15.59375 14.945312 -16.304688 14.59375 -16.890625 C 14.25 -17.484375 13.707031 -17.78125 12.96875 -17.78125 C 12.53125 -17.78125 12.0625 -17.59375 11.5625 -17.21875 C 11.070312 -16.851562 10.613281 -16.488281 10.1875 -16.125 C 9.757812 -15.757812 9.421875 -15.578125 9.171875 -15.578125 C 8.910156 -15.578125 8.632812 -15.628906 8.34375 -15.734375 C 7.457031 -16.109375 6.5625 -16.578125 5.65625 -17.140625 C 4.757812 -17.710938 3.976562 -18.332031 3.3125 -19 C 2.945312 -19.363281 2.765625 -19.84375 2.765625 -20.4375 C 2.765625 -20.65625 2.875 -21.203125 3.09375 -22.078125 C 3.3125 -22.960938 3.585938 -24.015625 3.921875 -25.234375 C 4.253906 -26.453125 4.578125 -27.664062 4.890625 -28.875 C 5.203125 -30.09375 5.445312 -31.125 5.625 -31.96875 C 5.707031 -32.257812 5.75 -32.539062 5.75 -32.8125 C 5.75 -33.09375 5.75 -33.347656 5.75 -33.578125 C 5.75 -34.085938 5.8125 -34.546875 5.9375 -34.953125 C 6.0625 -35.359375 6.421875 -35.632812 7.015625 -35.78125 C 7.859375 -36 9.097656 -36.179688 10.734375 -36.328125 C 12.378906 -36.484375 14.148438 -36.601562 16.046875 -36.6875 C 17.941406 -36.78125 19.660156 -36.828125 21.203125 -36.828125 C 21.828125 -36.828125 22.46875 -36.828125 23.125 -36.828125 C 23.789062 -36.828125 24.328125 -36.789062 24.734375 -36.71875 C 25.035156 -36.6875 25.300781 -36.550781 25.53125 -36.3125 C 25.769531 -36.070312 25.910156 -35.800781 25.953125 -35.5 C 26.066406 -34.625 26.125 -33.550781 26.125 -32.28125 C 26.125 -31.007812 26.085938 -29.96875 26.015625 -29.15625 C 26.015625 -28.894531 25.910156 -28.671875 25.703125 -28.484375 C 25.503906 -28.304688 25.253906 -28.195312 24.953125 -28.15625 C 24.804688 -28.15625 24.382812 -28.132812 23.6875 -28.09375 C 22.988281 -28.0625 22.160156 -28.023438 21.203125 -27.984375 C 20.242188 -27.953125 19.296875 -27.914062 18.359375 -27.875 C 17.421875 -27.84375 16.617188 -27.816406 15.953125 -27.796875 C 15.296875 -27.785156 14.910156 -27.78125 14.796875 -27.78125 C 14.242188 -27.738281 13.859375 -27.460938 13.640625 -26.953125 C 13.566406 -26.691406 13.425781 -26.289062 13.21875 -25.75 C 13.019531 -25.21875 12.847656 -24.710938 12.703125 -24.234375 C 12.554688 -23.753906 12.484375 -23.460938 12.484375 -23.359375 C 12.484375 -23.066406 12.628906 -22.921875 12.921875 -22.921875 C 13.066406 -22.921875 13.3125 -23.054688 13.65625 -23.328125 C 14.007812 -23.609375 14.4375 -23.875 14.9375 -24.125 C 15.4375 -24.382812 15.960938 -24.515625 16.515625 -24.515625 C 17.390625 -24.515625 18.367188 -24.21875 19.453125 -23.625 C 20.546875 -23.039062 21.539062 -22.304688 22.4375 -21.421875 C 23.34375 -20.535156 23.925781 -19.632812 24.1875 -18.71875 C 24.332031 -18.28125 24.46875 -17.71875 24.59375 -17.03125 C 24.726562 -16.351562 24.796875 -15.664062 24.796875 -14.96875 C 24.796875 -12.976562 24.484375 -11.070312 23.859375 -9.25 C 23.234375 -7.425781 22.375 -5.8125 21.28125 -4.40625 C 20.195312 -3.007812 18.945312 -1.90625 17.53125 -1.09375 C 16.113281 -0.289062 14.59375 0.109375 12.96875 0.109375 C 12.09375 0.109375 11.019531 -0.0351562 9.75 -0.328125 C 8.476562 -0.617188 7.207031 -1.066406 5.9375 -1.671875 C 4.664062 -2.285156 3.585938 -3.050781 2.703125 -3.96875 C 2.117188 -4.5625 1.660156 -5.289062 1.328125 -6.15625 C 0.992188 -7.019531 0.753906 -7.863281 0.609375 -8.6875 C 0.460938 -9.519531 0.390625 -10.160156 0.390625 -10.609375 C 0.390625 -10.898438 0.441406 -11.164062 0.546875 -11.40625 C 0.660156 -11.644531 0.898438 -11.851562 1.265625 -12.03125 Z M 1.265625 -12.03125 "/></g></g></g></g></g><g transform="matrix(1, 0, 0, 1, 55, 59)"><g clip-path="url(#081b146474)"><g clip-path="url(#cacae09d8d)"><g fill="#000000" fill-opacity="1"><g transform="translate(0.358426, 8.841551)"><g><path d="M 1.546875 -0.5625 C 1.546875 -0.382812 1.492188 -0.234375 1.390625 -0.109375 C 1.273438 0.0234375 1.125 0.09375 0.9375 0.09375 C 0.625 0.09375 0.46875 -0.0703125 0.46875 -0.40625 C 0.46875 -0.59375 0.523438 -0.75 0.640625 -0.875 C 0.753906 -1.007812 0.90625 -1.078125 1.09375 -1.078125 C 1.394531 -1.078125 1.546875 -0.90625 1.546875 -0.5625 Z M 1.546875 -0.5625 "/></g></g></g></g></g></g></svg>