<svg xmlns="http://www.w3.org/2000/svg" xmlns:xlink="http://www.w3.org/1999/xlink" width="168" zoomAndPan="magnify" viewBox="0 0 126 47.25" height="63" preserveAspectRatio="xMidYMid meet" version="1.0"><defs><g/><clipPath id="d03a7c3baa"><rect x="0" width="46" y="0" height="37"/></clipPath><clipPath id="2a78023f04"><path d="M 0.101562 7 L 2 7 L 2 9 L 0.101562 9 Z M 0.101562 7 " clip-rule="nonzero"/></clipPath><clipPath id="7a7cf03306"><rect x="0" width="3" y="0" height="13"/></clipPath></defs><g transform="matrix(1, 0, 0, 1, 39, 5)"><g clip-path="url(#d03a7c3baa)"><g fill="#000000" fill-opacity="1"><g transform="translate(3.228276, 26.307675)"><g><path d="M 7.5 -14.640625 C 7.5 -14.191406 7.351562 -13.828125 7.0625 -13.546875 C 6.78125 -13.273438 6.421875 -13.140625 5.984375 -13.140625 C 5.097656 -13.140625 4.65625 -13.554688 4.65625 -14.390625 C 4.65625 -14.835938 4.800781 -15.207031 5.09375 -15.5 C 5.394531 -15.800781 5.765625 -15.953125 6.203125 -15.953125 C 7.066406 -15.953125 7.5 -15.515625 7.5 -14.640625 Z M 6.765625 -11.09375 C 6.765625 -10.75 6.601562 -10.328125 6.28125 -9.828125 C 5.882812 -9.242188 5.65625 -8.832031 5.59375 -8.59375 L 1.859375 5.1875 C 1.773438 5.507812 1.546875 5.769531 1.171875 5.96875 C 0.835938 6.144531 0.492188 6.234375 0.140625 6.234375 C -0.367188 6.234375 -0.835938 6.125 -1.265625 5.90625 C -1.785156 5.632812 -2.046875 5.273438 -2.046875 4.828125 C -2.046875 4.398438 -1.796875 4.1875 -1.296875 4.1875 C -1.222656 4.1875 -1.097656 4.191406 -0.921875 4.203125 C -0.753906 4.210938 -0.628906 4.21875 -0.546875 4.21875 C -0.148438 4.21875 0.144531 4.070312 0.34375 3.78125 C 0.5 3.539062 0.738281 2.757812 1.0625 1.4375 C 1.257812 0.582031 1.460938 -0.28125 1.671875 -1.15625 L 2.8125 -5.46875 C 3.21875 -7.007812 3.421875 -7.878906 3.421875 -8.078125 C 3.421875 -8.191406 3.359375 -8.25 3.234375 -8.25 C 3.117188 -8.25 2.957031 -8.207031 2.75 -8.125 C 2.539062 -8.050781 2.375 -8.015625 2.25 -8.015625 C 2.09375 -8.015625 2.015625 -8.242188 2.015625 -8.703125 C 2.015625 -9.046875 2.578125 -9.632812 3.703125 -10.46875 C 4.796875 -11.289062 5.535156 -11.703125 5.921875 -11.703125 C 6.484375 -11.703125 6.765625 -11.5 6.765625 -11.09375 Z M 6.765625 -11.09375 "/></g></g></g><g fill="#000000" fill-opacity="1"><g transform="translate(12.226018, 26.307675)"><g><path d="M 11.40625 -10.375 C 11.40625 -9.820312 11.179688 -9.066406 10.734375 -8.109375 C 10.378906 -7.378906 10.023438 -6.644531 9.671875 -5.90625 C 9.472656 -5.40625 9.296875 -4.929688 9.140625 -4.484375 C 8.890625 -3.734375 8.765625 -3.160156 8.765625 -2.765625 C 8.765625 -2.234375 8.882812 -1.96875 9.125 -1.96875 C 9.34375 -1.96875 9.644531 -2.15625 10.03125 -2.53125 C 10.414062 -2.90625 10.707031 -3.09375 10.90625 -3.09375 C 11.175781 -3.09375 11.3125 -2.984375 11.3125 -2.765625 C 11.3125 -2.222656 10.851562 -1.628906 9.9375 -0.984375 C 9.0625 -0.359375 8.335938 -0.046875 7.765625 -0.046875 C 7.273438 -0.046875 7.03125 -0.289062 7.03125 -0.78125 C 7.03125 -1.238281 7.171875 -1.894531 7.453125 -2.75 C 7.742188 -3.613281 7.890625 -4.273438 7.890625 -4.734375 C 7.890625 -5.085938 7.796875 -5.265625 7.609375 -5.265625 C 7.328125 -5.265625 6.832031 -4.8125 6.125 -3.90625 C 5.113281 -2.59375 4.410156 -1.742188 4.015625 -1.359375 C 3.085938 -0.453125 2.222656 0 1.421875 0 C 1.035156 0 0.722656 -0.179688 0.484375 -0.546875 C 0.285156 -0.847656 0.1875 -1.207031 0.1875 -1.625 C 0.1875 -2.59375 0.628906 -3.914062 1.515625 -5.59375 C 2.410156 -7.269531 2.859375 -8.453125 2.859375 -9.140625 C 2.859375 -9.566406 2.691406 -9.78125 2.359375 -9.78125 C 2.078125 -9.78125 1.722656 -9.597656 1.296875 -9.234375 C 0.878906 -8.878906 0.601562 -8.703125 0.46875 -8.703125 C 0.257812 -8.703125 0.15625 -8.796875 0.15625 -8.984375 C 0.15625 -9.554688 0.609375 -10.160156 1.515625 -10.796875 C 2.359375 -11.398438 3.085938 -11.703125 3.703125 -11.703125 C 4.066406 -11.703125 4.367188 -11.5625 4.609375 -11.28125 C 4.847656 -11 4.96875 -10.671875 4.96875 -10.296875 C 4.96875 -9.421875 4.503906 -8.171875 3.578125 -6.546875 C 2.660156 -4.929688 2.203125 -3.703125 2.203125 -2.859375 C 2.203125 -2.347656 2.320312 -2.09375 2.5625 -2.09375 C 3.289062 -2.09375 4.359375 -3.082031 5.765625 -5.0625 C 6.753906 -6.457031 7.59375 -7.816406 8.28125 -9.140625 C 8.4375 -9.503906 8.703125 -10.039062 9.078125 -10.75 C 9.453125 -11.382812 9.867188 -11.703125 10.328125 -11.703125 C 10.660156 -11.703125 10.929688 -11.5625 11.140625 -11.28125 C 11.316406 -11.019531 11.40625 -10.71875 11.40625 -10.375 Z M 11.40625 -10.375 "/></g></g></g><g fill="#000000" fill-opacity="1"><g transform="translate(25.273174, 26.307675)"><g><path d="M 9.359375 -23.421875 C 9.359375 -23.347656 9.304688 -23.21875 9.203125 -23.03125 C 9.109375 -22.851562 8.957031 -22.59375 8.75 -22.25 C 8.445312 -21.9375 8.070312 -21.4375 7.625 -20.75 C 7.582031 -20.65625 7.460938 -20.257812 7.265625 -19.5625 L 6.453125 -16.6875 C 5.929688 -14.800781 5.171875 -12.007812 4.171875 -8.3125 C 3.359375 -5.300781 2.953125 -3.757812 2.953125 -3.6875 C 2.953125 -3.488281 3.117188 -3.304688 3.453125 -3.140625 C 3.742188 -3.003906 4 -2.9375 4.21875 -2.9375 C 4.34375 -2.9375 4.519531 -2.976562 4.75 -3.0625 C 4.988281 -3.144531 5.171875 -3.1875 5.296875 -3.1875 C 5.578125 -3.1875 5.71875 -3.046875 5.71875 -2.765625 C 5.71875 -2.296875 5.234375 -1.707031 4.265625 -1 C 3.328125 -0.332031 2.613281 0 2.125 0 C 1.019531 0 0.46875 -0.46875 0.46875 -1.40625 C 0.46875 -1.71875 0.738281 -2.851562 1.28125 -4.8125 C 1.625 -6.039062 1.96875 -7.269531 2.3125 -8.5 L 3.890625 -14.53125 C 4.210938 -15.570312 4.53125 -16.617188 4.84375 -17.671875 C 5.332031 -19.210938 5.578125 -20.179688 5.578125 -20.578125 C 5.578125 -20.867188 5.3125 -21.179688 4.78125 -21.515625 C 4.257812 -21.859375 4 -22.09375 4 -22.21875 C 4 -22.375 4.148438 -22.484375 4.453125 -22.546875 C 4.953125 -22.566406 5.6875 -22.65625 6.65625 -22.8125 C 6.78125 -22.851562 7.1875 -23.015625 7.875 -23.296875 C 8.4375 -23.546875 8.816406 -23.671875 9.015625 -23.671875 C 9.242188 -23.671875 9.359375 -23.585938 9.359375 -23.421875 Z M 9.359375 -23.421875 "/></g></g></g><g fill="#000000" fill-opacity="1"><g transform="translate(33.686605, 26.307675)"><g><path d="M 9.484375 -9.84375 C 9.484375 -7.320312 8.738281 -4.726562 7.25 -2.0625 C 5.832031 0.445312 4.0625 2.507812 1.9375 4.125 C -0.132812 5.71875 -2.535156 6.515625 -5.265625 6.515625 C -5.890625 6.515625 -6.515625 6.347656 -7.140625 6.015625 C -7.890625 5.640625 -8.265625 5.171875 -8.265625 4.609375 C -8.265625 4.296875 -8.046875 4.140625 -7.609375 4.140625 L -7.53125 4.140625 C -6.757812 4.703125 -6.296875 5.023438 -6.140625 5.109375 C -5.554688 5.453125 -5.03125 5.625 -4.5625 5.625 C -1.90625 5.625 0.492188 3.878906 2.640625 0.390625 C 3.429688 -0.910156 3.828125 -2.289062 3.828125 -3.75 C 3.828125 -4.445312 3.738281 -5.316406 3.5625 -6.359375 C 3.351562 -7.578125 3.109375 -8.382812 2.828125 -8.78125 C 2.816406 -8.789062 2.535156 -9.078125 1.984375 -9.640625 C 1.703125 -9.921875 1.5625 -10.304688 1.5625 -10.796875 C 1.5625 -11.398438 1.957031 -11.703125 2.75 -11.703125 C 3.28125 -11.703125 3.71875 -11.394531 4.0625 -10.78125 C 4.238281 -10.457031 4.5 -9.144531 4.84375 -6.84375 C 5.144531 -4.8125 5.492188 -3.710938 5.890625 -3.546875 C 6.492188 -3.628906 7.007812 -4.488281 7.4375 -6.125 C 7.757812 -7.425781 7.921875 -8.53125 7.921875 -9.4375 C 7.921875 -9.613281 7.894531 -9.875 7.84375 -10.21875 C 7.800781 -10.570312 7.78125 -10.832031 7.78125 -11 C 7.78125 -11.46875 8.019531 -11.703125 8.5 -11.703125 C 9.15625 -11.703125 9.484375 -11.082031 9.484375 -9.84375 Z M 9.484375 -9.84375 "/></g></g></g></g></g><g transform="matrix(1, 0, 0, 1, 59, 17)"><g clip-path="url(#7a7cf03306)"><g clip-path="url(#2a78023f04)"><g fill="#000000" fill-opacity="1"><g transform="translate(0.311314, 8.848693)"><g><path d="M 1.53125 -0.5625 C 1.53125 -0.382812 1.476562 -0.234375 1.375 -0.109375 C 1.257812 0.0234375 1.113281 0.09375 0.9375 0.09375 C 0.625 0.09375 0.46875 -0.0664062 0.46875 -0.390625 C 0.46875 -0.578125 0.519531 -0.734375 0.625 -0.859375 C 0.738281 -0.992188 0.890625 -1.0625 1.078125 -1.0625 C 1.378906 -1.0625 1.53125 -0.894531 1.53125 -0.5625 Z M 1.53125 -0.5625 "/></g></g></g></g></g></g></svg>