<svg xmlns="http://www.w3.org/2000/svg" xmlns:xlink="http://www.w3.org/1999/xlink" width="149" zoomAndPan="magnify" viewBox="0 0 111.75 101.999999" height="136" preserveAspectRatio="xMidYMid meet" version="1.0"><defs><g/><clipPath id="d7e3da069d"><rect x="0" width="35" y="0" height="65"/></clipPath><clipPath id="4c2233ab54"><path d="M 0.0351562 8 L 2 8 L 2 10 L 0.0351562 10 Z M 0.0351562 8 " clip-rule="nonzero"/></clipPath><clipPath id="529539e4e2"><rect x="0" width="3" y="0" height="13"/></clipPath></defs><g transform="matrix(1, 0, 0, 1, 39, 16)"><g clip-path="url(#d7e3da069d)"><g fill="#cafc05" fill-opacity="1"><g transform="translate(6.11588, 56.938764)"><g><path d="M 14.1875 -37.328125 C 15.476562 -37.328125 16.882812 -37.019531 18.40625 -36.40625 C 19.9375 -35.800781 21.382812 -34.972656 22.75 -33.921875 C 24.113281 -32.878906 25.234375 -31.675781 26.109375 -30.3125 C 26.992188 -28.945312 27.4375 -27.515625 27.4375 -26.015625 C 27.4375 -24.679688 27.078125 -23.269531 26.359375 -21.78125 C 25.648438 -20.289062 24.703125 -18.804688 23.515625 -17.328125 C 22.335938 -15.859375 21.019531 -14.46875 19.5625 -13.15625 C 18.113281 -11.851562 16.632812 -10.707031 15.125 -9.71875 C 15.125 -9.71875 15.078125 -9.679688 14.984375 -9.609375 C 14.898438 -9.535156 14.859375 -9.460938 14.859375 -9.390625 C 14.859375 -9.316406 14.929688 -9.28125 15.078125 -9.28125 C 15.179688 -9.28125 15.570312 -9.285156 16.25 -9.296875 C 16.9375 -9.316406 17.726562 -9.335938 18.625 -9.359375 C 19.53125 -9.378906 20.332031 -9.390625 21.03125 -9.390625 C 21.40625 -9.390625 21.71875 -9.273438 21.96875 -9.046875 C 22.226562 -8.828125 22.378906 -8.570312 22.421875 -8.28125 C 22.597656 -7.582031 22.75 -6.632812 22.875 -5.4375 C 23.007812 -4.238281 23.132812 -3.085938 23.25 -1.984375 C 23.25 -1.398438 22.914062 -1.070312 22.25 -1 C 21.550781 -0.957031 20.578125 -0.898438 19.328125 -0.828125 C 18.078125 -0.753906 16.703125 -0.671875 15.203125 -0.578125 C 13.710938 -0.484375 12.222656 -0.398438 10.734375 -0.328125 C 9.242188 -0.253906 7.875 -0.179688 6.625 -0.109375 C 5.375 -0.0351562 4.378906 0.0195312 3.640625 0.0625 C 3.347656 0.0625 3.050781 0.00390625 2.75 -0.109375 C 2.457031 -0.222656 2.238281 -0.425781 2.09375 -0.71875 C 1.914062 -1.195312 1.675781 -1.878906 1.375 -2.765625 C 1.082031 -3.648438 0.832031 -4.503906 0.625 -5.328125 C 0.425781 -6.160156 0.328125 -6.722656 0.328125 -7.015625 C 0.328125 -7.523438 0.585938 -7.945312 1.109375 -8.28125 C 3.316406 -9.644531 5.441406 -11.238281 7.484375 -13.0625 C 9.523438 -14.882812 11.363281 -16.734375 13 -18.609375 C 14.644531 -20.484375 15.9375 -22.210938 16.875 -23.796875 C 17.8125 -25.378906 18.28125 -26.59375 18.28125 -27.4375 C 18.28125 -27.988281 18.113281 -28.382812 17.78125 -28.625 C 17.445312 -28.863281 17.0625 -28.984375 16.625 -28.984375 C 15.769531 -28.984375 14.726562 -28.46875 13.5 -27.4375 C 12.269531 -26.40625 11.066406 -25.007812 9.890625 -23.25 C 9.628906 -22.875 9.367188 -22.6875 9.109375 -22.6875 C 8.960938 -22.6875 8.816406 -22.722656 8.671875 -22.796875 C 8.523438 -22.878906 8.453125 -22.921875 8.453125 -22.921875 C 7.671875 -23.429688 6.835938 -24.023438 5.953125 -24.703125 C 5.078125 -25.390625 4.414062 -25.988281 3.96875 -26.5 C 3.644531 -26.832031 3.484375 -27.238281 3.484375 -27.71875 C 3.484375 -27.863281 3.519531 -28.046875 3.59375 -28.265625 C 3.84375 -29.003906 4.28125 -29.867188 4.90625 -30.859375 C 5.539062 -31.859375 6.328125 -32.84375 7.265625 -33.8125 C 8.203125 -34.789062 9.25 -35.609375 10.40625 -36.265625 C 11.5625 -36.929688 12.820312 -37.285156 14.1875 -37.328125 Z M 14.1875 -37.328125 "/></g></g></g><g fill="#e474ba" fill-opacity="1"><g transform="translate(1.234738, 52.057622)"><g><path d="M 14.1875 -37.328125 C 15.476562 -37.328125 16.882812 -37.019531 18.40625 -36.40625 C 19.9375 -35.800781 21.382812 -34.972656 22.75 -33.921875 C 24.113281 -32.878906 25.234375 -31.675781 26.109375 -30.3125 C 26.992188 -28.945312 27.4375 -27.515625 27.4375 -26.015625 C 27.4375 -24.679688 27.078125 -23.269531 26.359375 -21.78125 C 25.648438 -20.289062 24.703125 -18.804688 23.515625 -17.328125 C 22.335938 -15.859375 21.019531 -14.46875 19.5625 -13.15625 C 18.113281 -11.851562 16.632812 -10.707031 15.125 -9.71875 C 15.125 -9.71875 15.078125 -9.679688 14.984375 -9.609375 C 14.898438 -9.535156 14.859375 -9.460938 14.859375 -9.390625 C 14.859375 -9.316406 14.929688 -9.28125 15.078125 -9.28125 C 15.179688 -9.28125 15.570312 -9.285156 16.25 -9.296875 C 16.9375 -9.316406 17.726562 -9.335938 18.625 -9.359375 C 19.53125 -9.378906 20.332031 -9.390625 21.03125 -9.390625 C 21.40625 -9.390625 21.71875 -9.273438 21.96875 -9.046875 C 22.226562 -8.828125 22.378906 -8.570312 22.421875 -8.28125 C 22.597656 -7.582031 22.75 -6.632812 22.875 -5.4375 C 23.007812 -4.238281 23.132812 -3.085938 23.25 -1.984375 C 23.25 -1.398438 22.914062 -1.070312 22.25 -1 C 21.550781 -0.957031 20.578125 -0.898438 19.328125 -0.828125 C 18.078125 -0.753906 16.703125 -0.671875 15.203125 -0.578125 C 13.710938 -0.484375 12.222656 -0.398438 10.734375 -0.328125 C 9.242188 -0.253906 7.875 -0.179688 6.625 -0.109375 C 5.375 -0.0351562 4.378906 0.0195312 3.640625 0.0625 C 3.347656 0.0625 3.050781 0.00390625 2.75 -0.109375 C 2.457031 -0.222656 2.238281 -0.425781 2.09375 -0.71875 C 1.914062 -1.195312 1.675781 -1.878906 1.375 -2.765625 C 1.082031 -3.648438 0.832031 -4.503906 0.625 -5.328125 C 0.425781 -6.160156 0.328125 -6.722656 0.328125 -7.015625 C 0.328125 -7.523438 0.585938 -7.945312 1.109375 -8.28125 C 3.316406 -9.644531 5.441406 -11.238281 7.484375 -13.0625 C 9.523438 -14.882812 11.363281 -16.734375 13 -18.609375 C 14.644531 -20.484375 15.9375 -22.210938 16.875 -23.796875 C 17.8125 -25.378906 18.28125 -26.59375 18.28125 -27.4375 C 18.28125 -27.988281 18.113281 -28.382812 17.78125 -28.625 C 17.445312 -28.863281 17.0625 -28.984375 16.625 -28.984375 C 15.769531 -28.984375 14.726562 -28.46875 13.5 -27.4375 C 12.269531 -26.40625 11.066406 -25.007812 9.890625 -23.25 C 9.628906 -22.875 9.367188 -22.6875 9.109375 -22.6875 C 8.960938 -22.6875 8.816406 -22.722656 8.671875 -22.796875 C 8.523438 -22.878906 8.453125 -22.921875 8.453125 -22.921875 C 7.671875 -23.429688 6.835938 -24.023438 5.953125 -24.703125 C 5.078125 -25.390625 4.414062 -25.988281 3.96875 -26.5 C 3.644531 -26.832031 3.484375 -27.238281 3.484375 -27.71875 C 3.484375 -27.863281 3.519531 -28.046875 3.59375 -28.265625 C 3.84375 -29.003906 4.28125 -29.867188 4.90625 -30.859375 C 5.539062 -31.859375 6.328125 -32.84375 7.265625 -33.8125 C 8.203125 -34.789062 9.25 -35.609375 10.40625 -36.265625 C 11.5625 -36.929688 12.820312 -37.285156 14.1875 -37.328125 Z M 14.1875 -37.328125 "/></g></g></g></g></g><g transform="matrix(1, 0, 0, 1, 56, 47)"><g clip-path="url(#529539e4e2)"><g clip-path="url(#4c2233ab54)"><g fill="#000000" fill-opacity="1"><g transform="translate(0.249333, 9.399594)"><g><path d="M 1.546875 -0.5625 C 1.546875 -0.382812 1.492188 -0.234375 1.390625 -0.109375 C 1.273438 0.0234375 1.125 0.09375 0.9375 0.09375 C 0.625 0.09375 0.46875 -0.0703125 0.46875 -0.40625 C 0.46875 -0.59375 0.523438 -0.75 0.640625 -0.875 C 0.753906 -1.007812 0.90625 -1.078125 1.09375 -1.078125 C 1.394531 -1.078125 1.546875 -0.90625 1.546875 -0.5625 Z M 1.546875 -0.5625 "/></g></g></g></g></g></g></svg>