<svg xmlns="http://www.w3.org/2000/svg" xmlns:xlink="http://www.w3.org/1999/xlink" width="275" zoomAndPan="magnify" viewBox="0 0 206.25 47.25" height="63" preserveAspectRatio="xMidYMid meet" version="1.0"><defs><g/><clipPath id="1548992708"><rect x="0" width="158" y="0" height="37"/></clipPath><clipPath id="f74340da75"><path d="M 0.160156 8 L 2 8 L 2 10 L 0.160156 10 Z M 0.160156 8 " clip-rule="nonzero"/></clipPath><clipPath id="bda2c7ef40"><rect x="0" width="3" y="0" height="13"/></clipPath></defs><g transform="matrix(1, 0, 0, 1, 24, 5)"><g clip-path="url(#1548992708)"><g fill="#000000" fill-opacity="1"><g transform="translate(0.589857, 26.307675)"><g><path d="M 12.53125 -8.140625 C 12.53125 -5.773438 11.539062 -3.800781 9.5625 -2.21875 C 7.726562 -0.738281 5.597656 0 3.171875 0 L 2.265625 0 C 1.191406 0 0.65625 -0.707031 0.65625 -2.125 C 0.65625 -3.195312 0.957031 -4.828125 1.5625 -7.015625 L 3.828125 -15.203125 C 4.546875 -17.679688 4.90625 -19.390625 4.90625 -20.328125 C 4.90625 -20.910156 4.664062 -21.40625 4.1875 -21.8125 C 3.71875 -22.21875 3.484375 -22.503906 3.484375 -22.671875 C 3.484375 -22.984375 3.765625 -23.238281 4.328125 -23.4375 C 4.785156 -23.59375 5.203125 -23.671875 5.578125 -23.671875 C 6.953125 -23.671875 7.640625 -23.132812 7.640625 -22.0625 C 7.640625 -21.75 7.546875 -21.359375 7.359375 -20.890625 C 7.210938 -20.515625 7.0625 -20.132812 6.90625 -19.75 C 6.6875 -19.15625 6.195312 -17.394531 5.4375 -14.46875 C 4.65625 -11.457031 4.265625 -9.785156 4.265625 -9.453125 C 4.265625 -9.171875 4.476562 -9.03125 4.90625 -9.03125 C 5.25 -9.03125 6.003906 -9.472656 7.171875 -10.359375 C 8.347656 -11.253906 9.222656 -11.703125 9.796875 -11.703125 C 11.617188 -11.703125 12.53125 -10.515625 12.53125 -8.140625 Z M 10.5 -7.703125 C 10.5 -9.066406 10.117188 -9.75 9.359375 -9.75 C 9.066406 -9.75 8.703125 -9.648438 8.265625 -9.453125 C 6.609375 -8.703125 5.398438 -7.890625 4.640625 -7.015625 C 3.835938 -6.078125 3.25 -4.75 2.875 -3.03125 C 2.851562 -2.90625 2.84375 -2.796875 2.84375 -2.703125 C 2.84375 -1.941406 3.226562 -1.5625 4 -1.5625 C 4.582031 -1.5625 5.304688 -1.734375 6.171875 -2.078125 C 7.378906 -2.566406 8.382812 -3.296875 9.1875 -4.265625 C 10.0625 -5.328125 10.5 -6.472656 10.5 -7.703125 Z M 10.5 -7.703125 "/></g></g></g><g fill="#000000" fill-opacity="1"><g transform="translate(15.675308, 26.307675)"><g><path d="M 8.78125 -9.265625 C 8.78125 -8.335938 8.269531 -7.519531 7.25 -6.8125 C 6.332031 -6.15625 5.390625 -5.828125 4.421875 -5.828125 C 4.273438 -5.828125 4.054688 -5.851562 3.765625 -5.90625 C 3.472656 -5.96875 3.25 -6 3.09375 -6 C 2.195312 -6 1.75 -5.300781 1.75 -3.90625 C 1.75 -2.539062 2.398438 -1.859375 3.703125 -1.859375 C 4.441406 -1.859375 5.222656 -2.171875 6.046875 -2.796875 C 6.867188 -3.421875 7.253906 -3.734375 7.203125 -3.734375 C 7.753906 -3.734375 8.03125 -3.59375 8.03125 -3.3125 C 8.03125 -3.21875 7.976562 -3.070312 7.875 -2.875 C 7.425781 -2.019531 6.789062 -1.328125 5.96875 -0.796875 C 5.144531 -0.265625 4.253906 0 3.296875 0 C 2.148438 0 1.285156 -0.445312 0.703125 -1.34375 C 0.222656 -2.09375 -0.015625 -3.078125 -0.015625 -4.296875 C -0.015625 -6.179688 0.523438 -7.851562 1.609375 -9.3125 C 2.796875 -10.90625 4.300781 -11.703125 6.125 -11.703125 C 6.8125 -11.703125 7.425781 -11.460938 7.96875 -10.984375 C 8.507812 -10.515625 8.78125 -9.941406 8.78125 -9.265625 Z M 6.859375 -8.671875 C 6.859375 -9.046875 6.710938 -9.367188 6.421875 -9.640625 C 6.140625 -9.921875 5.8125 -10.0625 5.4375 -10.0625 C 4.945312 -10.0625 4.460938 -9.796875 3.984375 -9.265625 C 3.503906 -8.734375 3.265625 -8.222656 3.265625 -7.734375 C 3.265625 -7.515625 3.390625 -7.316406 3.640625 -7.140625 C 3.867188 -7.003906 4.097656 -6.9375 4.328125 -6.9375 C 4.828125 -6.9375 5.359375 -7.097656 5.921875 -7.421875 C 6.546875 -7.785156 6.859375 -8.203125 6.859375 -8.671875 Z M 6.859375 -8.671875 "/></g></g></g><g fill="#000000" fill-opacity="1"><g transform="translate(25.434014, 26.307675)"><g><path d="M 7.640625 -9.640625 C 7.640625 -8.804688 7.492188 -8.390625 7.203125 -8.390625 C 7.054688 -8.390625 6.695312 -8.648438 6.125 -9.171875 C 5.550781 -9.691406 5.054688 -9.953125 4.640625 -9.953125 C 4.179688 -9.953125 3.789062 -9.769531 3.46875 -9.40625 C 3.15625 -9.039062 3 -8.628906 3 -8.171875 C 3 -7.773438 3.335938 -7.269531 4.015625 -6.65625 C 5.265625 -5.539062 5.90625 -4.972656 5.9375 -4.953125 C 6.613281 -4.210938 6.953125 -3.503906 6.953125 -2.828125 C 6.953125 -1.984375 6.613281 -1.289062 5.9375 -0.75 C 5.3125 -0.25 4.566406 0 3.703125 0 C 2.984375 0 2.296875 -0.144531 1.640625 -0.4375 C 0.828125 -0.800781 0.421875 -1.296875 0.421875 -1.921875 C 0.421875 -2.890625 0.578125 -3.375 0.890625 -3.375 C 0.890625 -3.375 0.914062 -3.367188 0.96875 -3.359375 C 1.96875 -2.429688 2.832031 -1.96875 3.5625 -1.96875 C 4.414062 -1.96875 4.84375 -2.34375 4.84375 -3.09375 C 4.84375 -3.40625 4.59375 -3.8125 4.09375 -4.3125 C 3.3125 -5.082031 2.835938 -5.570312 2.671875 -5.78125 C 2.171875 -6.4375 1.921875 -7.125 1.921875 -7.84375 C 1.921875 -8.832031 2.203125 -9.703125 2.765625 -10.453125 C 3.367188 -11.285156 4.148438 -11.703125 5.109375 -11.703125 C 5.460938 -11.703125 5.894531 -11.597656 6.40625 -11.390625 C 6.976562 -11.148438 7.335938 -10.894531 7.484375 -10.625 C 7.585938 -10.4375 7.640625 -10.109375 7.640625 -9.640625 Z M 7.640625 -9.640625 "/></g></g></g><g fill="#000000" fill-opacity="1"><g transform="translate(35.124776, 26.307675)"><g><path d="M 8.4375 -11.3125 C 8.4375 -10.570312 7.90625 -10.203125 6.84375 -10.203125 C 6.6875 -10.203125 6.445312 -10.210938 6.125 -10.234375 C 5.800781 -10.265625 5.554688 -10.28125 5.390625 -10.28125 C 4.890625 -10.28125 4.535156 -10.070312 4.328125 -9.65625 C 4.253906 -9.53125 4.125 -9.109375 3.9375 -8.390625 L 2.515625 -3 C 2.492188 -2.925781 2.484375 -2.847656 2.484375 -2.765625 C 2.484375 -2.222656 2.734375 -1.953125 3.234375 -1.953125 C 3.671875 -1.953125 4.113281 -2.296875 4.5625 -2.984375 C 5.007812 -3.679688 5.367188 -4.03125 5.640625 -4.03125 C 6.066406 -4.03125 6.28125 -3.84375 6.28125 -3.46875 C 6.28125 -3.03125 6.003906 -2.410156 5.453125 -1.609375 C 4.710938 -0.535156 3.6875 0 2.375 0 C 1.894531 0 1.460938 -0.148438 1.078125 -0.453125 C 0.640625 -0.765625 0.421875 -1.148438 0.421875 -1.609375 C 0.421875 -2.410156 0.992188 -4.707031 2.140625 -8.5 C 2.367188 -9.238281 2.484375 -9.6875 2.484375 -9.84375 C 2.484375 -10.050781 2.289062 -10.164062 1.90625 -10.1875 C 2.1875 -10.164062 1.914062 -10.15625 1.09375 -10.15625 C 0.726562 -10.15625 0.546875 -10.296875 0.546875 -10.578125 C 0.546875 -11.097656 0.765625 -11.425781 1.203125 -11.5625 C 1.410156 -11.632812 1.84375 -11.671875 2.5 -11.671875 C 2.988281 -11.671875 3.351562 -12.035156 3.59375 -12.765625 C 3.875 -13.597656 4.082031 -14.054688 4.21875 -14.140625 C 4.394531 -14.265625 4.695312 -14.328125 5.125 -14.328125 C 5.53125 -14.328125 5.734375 -14.195312 5.734375 -13.9375 C 5.734375 -13.738281 5.648438 -13.457031 5.484375 -13.09375 C 5.328125 -12.738281 5.25 -12.457031 5.25 -12.25 C 5.25 -11.8125 5.5 -11.59375 6 -11.59375 C 6.238281 -11.59375 6.59375 -11.609375 7.0625 -11.640625 C 7.53125 -11.679688 7.882812 -11.703125 8.125 -11.703125 C 8.332031 -11.703125 8.4375 -11.570312 8.4375 -11.3125 Z M 8.4375 -11.3125 "/></g></g></g><g fill="#000000" fill-opacity="1"><g transform="translate(44.829127, 26.307675)"><g/></g></g><g fill="#000000" fill-opacity="1"><g transform="translate(52.236999, 26.307675)"><g><path d="M 18.703125 -9.9375 C 18.703125 -9 18.171875 -7.644531 17.109375 -5.875 C 16.046875 -4.113281 15.515625 -2.945312 15.515625 -2.375 C 15.515625 -1.96875 15.691406 -1.765625 16.046875 -1.765625 C 16.210938 -1.765625 16.519531 -1.929688 16.96875 -2.265625 C 17.425781 -2.597656 17.726562 -2.765625 17.875 -2.765625 C 18.175781 -2.765625 18.328125 -2.625 18.328125 -2.34375 C 18.328125 -1.914062 17.859375 -1.410156 16.921875 -0.828125 C 16.035156 -0.273438 15.359375 0 14.890625 0 C 14.304688 0 13.882812 -0.0859375 13.625 -0.265625 C 13.3125 -0.472656 13.15625 -0.867188 13.15625 -1.453125 C 13.15625 -1.847656 13.707031 -3.015625 14.8125 -4.953125 C 15.925781 -6.898438 16.484375 -8.179688 16.484375 -8.796875 C 16.484375 -9.179688 16.238281 -9.375 15.75 -9.375 C 15.425781 -9.375 14.71875 -8.765625 13.625 -7.546875 C 12.726562 -6.535156 12.082031 -5.734375 11.6875 -5.140625 C 11.09375 -4.148438 10.507812 -3.160156 9.9375 -2.171875 C 9.039062 -0.828125 8.238281 -0.15625 7.53125 -0.15625 C 7.019531 -0.15625 6.765625 -0.46875 6.765625 -1.09375 C 6.765625 -1.925781 7.222656 -3.222656 8.140625 -4.984375 C 9.066406 -6.742188 9.53125 -8.054688 9.53125 -8.921875 C 9.53125 -9.441406 9.351562 -9.703125 9 -9.703125 C 8.1875 -9.703125 6.960938 -8.441406 5.328125 -5.921875 C 4.304688 -4.242188 3.289062 -2.566406 2.28125 -0.890625 C 1.882812 -0.296875 1.421875 0 0.890625 0 C 0.378906 0 0.125 -0.3125 0.125 -0.9375 C 0.125 -1.25 0.34375 -1.921875 0.78125 -2.953125 L 2.109375 -6 C 2.546875 -7.019531 2.765625 -7.882812 2.765625 -8.59375 C 2.765625 -9.375 2.523438 -9.757812 2.046875 -9.75 C 1.773438 -9.4375 1.328125 -9.015625 0.703125 -8.484375 C 0.523438 -8.441406 0.382812 -8.421875 0.28125 -8.421875 C 0.0078125 -8.421875 -0.125 -8.515625 -0.125 -8.703125 C -0.125 -9.160156 0.414062 -9.785156 1.5 -10.578125 C 2.539062 -11.328125 3.304688 -11.703125 3.796875 -11.703125 C 4.390625 -11.703125 4.6875 -11.445312 4.6875 -10.9375 C 4.6875 -10.507812 4.546875 -9.890625 4.265625 -9.078125 C 3.992188 -8.273438 3.859375 -7.660156 3.859375 -7.234375 C 3.859375 -6.804688 3.992188 -6.601562 4.265625 -6.625 C 4.929688 -7.3125 5.9375 -8.328125 7.28125 -9.671875 C 8.664062 -11.023438 9.867188 -11.703125 10.890625 -11.703125 C 11.097656 -11.703125 11.300781 -11.632812 11.5 -11.5 C 11.695312 -11.375 11.796875 -11.21875 11.796875 -11.03125 C 11.796875 -10.6875 11.59375 -10.097656 11.1875 -9.265625 C 10.789062 -8.429688 10.59375 -7.75 10.59375 -7.21875 C 10.59375 -7.070312 10.644531 -6.925781 10.75 -6.78125 C 10.863281 -6.632812 10.988281 -6.5625 11.125 -6.5625 C 11.550781 -6.5625 11.957031 -6.820312 12.34375 -7.34375 C 12.445312 -7.5 12.613281 -7.742188 12.84375 -8.078125 C 13.363281 -8.804688 14.054688 -9.546875 14.921875 -10.296875 C 15.984375 -11.234375 16.828125 -11.703125 17.453125 -11.703125 C 17.867188 -11.703125 18.191406 -11.5 18.421875 -11.09375 C 18.609375 -10.769531 18.703125 -10.382812 18.703125 -9.9375 Z M 18.703125 -9.9375 "/></g></g></g><g fill="#000000" fill-opacity="1"><g transform="translate(72.458954, 26.307675)"><g><path d="M 9.890625 -8.015625 C 9.890625 -6.242188 9.296875 -4.503906 8.109375 -2.796875 C 6.804688 -0.929688 5.304688 0 3.609375 0 C 2.515625 0 1.675781 -0.378906 1.09375 -1.140625 C 0.570312 -1.828125 0.3125 -2.734375 0.3125 -3.859375 C 0.3125 -5.722656 0.878906 -7.453125 2.015625 -9.046875 C 3.265625 -10.816406 4.785156 -11.703125 6.578125 -11.703125 C 8.785156 -11.703125 9.890625 -10.472656 9.890625 -8.015625 Z M 8.03125 -8.046875 C 8.03125 -9.390625 7.492188 -10.0625 6.421875 -10.0625 C 5.304688 -10.0625 4.273438 -9.25 3.328125 -7.625 C 2.472656 -6.164062 2.046875 -4.832031 2.046875 -3.625 C 2.046875 -2.445312 2.628906 -1.859375 3.796875 -1.859375 C 5.003906 -1.859375 6.039062 -2.609375 6.90625 -4.109375 C 7.65625 -5.429688 8.03125 -6.742188 8.03125 -8.046875 Z M 8.03125 -8.046875 "/></g></g></g><g fill="#000000" fill-opacity="1"><g transform="translate(83.753176, 26.307675)"><g><path d="M 18.703125 -9.9375 C 18.703125 -9 18.171875 -7.644531 17.109375 -5.875 C 16.046875 -4.113281 15.515625 -2.945312 15.515625 -2.375 C 15.515625 -1.96875 15.691406 -1.765625 16.046875 -1.765625 C 16.210938 -1.765625 16.519531 -1.929688 16.96875 -2.265625 C 17.425781 -2.597656 17.726562 -2.765625 17.875 -2.765625 C 18.175781 -2.765625 18.328125 -2.625 18.328125 -2.34375 C 18.328125 -1.914062 17.859375 -1.410156 16.921875 -0.828125 C 16.035156 -0.273438 15.359375 0 14.890625 0 C 14.304688 0 13.882812 -0.0859375 13.625 -0.265625 C 13.3125 -0.472656 13.15625 -0.867188 13.15625 -1.453125 C 13.15625 -1.847656 13.707031 -3.015625 14.8125 -4.953125 C 15.925781 -6.898438 16.484375 -8.179688 16.484375 -8.796875 C 16.484375 -9.179688 16.238281 -9.375 15.75 -9.375 C 15.425781 -9.375 14.71875 -8.765625 13.625 -7.546875 C 12.726562 -6.535156 12.082031 -5.734375 11.6875 -5.140625 C 11.09375 -4.148438 10.507812 -3.160156 9.9375 -2.171875 C 9.039062 -0.828125 8.238281 -0.15625 7.53125 -0.15625 C 7.019531 -0.15625 6.765625 -0.46875 6.765625 -1.09375 C 6.765625 -1.925781 7.222656 -3.222656 8.140625 -4.984375 C 9.066406 -6.742188 9.53125 -8.054688 9.53125 -8.921875 C 9.53125 -9.441406 9.351562 -9.703125 9 -9.703125 C 8.1875 -9.703125 6.960938 -8.441406 5.328125 -5.921875 C 4.304688 -4.242188 3.289062 -2.566406 2.28125 -0.890625 C 1.882812 -0.296875 1.421875 0 0.890625 0 C 0.378906 0 0.125 -0.3125 0.125 -0.9375 C 0.125 -1.25 0.34375 -1.921875 0.78125 -2.953125 L 2.109375 -6 C 2.546875 -7.019531 2.765625 -7.882812 2.765625 -8.59375 C 2.765625 -9.375 2.523438 -9.757812 2.046875 -9.75 C 1.773438 -9.4375 1.328125 -9.015625 0.703125 -8.484375 C 0.523438 -8.441406 0.382812 -8.421875 0.28125 -8.421875 C 0.0078125 -8.421875 -0.125 -8.515625 -0.125 -8.703125 C -0.125 -9.160156 0.414062 -9.785156 1.5 -10.578125 C 2.539062 -11.328125 3.304688 -11.703125 3.796875 -11.703125 C 4.390625 -11.703125 4.6875 -11.445312 4.6875 -10.9375 C 4.6875 -10.507812 4.546875 -9.890625 4.265625 -9.078125 C 3.992188 -8.273438 3.859375 -7.660156 3.859375 -7.234375 C 3.859375 -6.804688 3.992188 -6.601562 4.265625 -6.625 C 4.929688 -7.3125 5.9375 -8.328125 7.28125 -9.671875 C 8.664062 -11.023438 9.867188 -11.703125 10.890625 -11.703125 C 11.097656 -11.703125 11.300781 -11.632812 11.5 -11.5 C 11.695312 -11.375 11.796875 -11.21875 11.796875 -11.03125 C 11.796875 -10.6875 11.59375 -10.097656 11.1875 -9.265625 C 10.789062 -8.429688 10.59375 -7.75 10.59375 -7.21875 C 10.59375 -7.070312 10.644531 -6.925781 10.75 -6.78125 C 10.863281 -6.632812 10.988281 -6.5625 11.125 -6.5625 C 11.550781 -6.5625 11.957031 -6.820312 12.34375 -7.34375 C 12.445312 -7.5 12.613281 -7.742188 12.84375 -8.078125 C 13.363281 -8.804688 14.054688 -9.546875 14.921875 -10.296875 C 15.984375 -11.234375 16.828125 -11.703125 17.453125 -11.703125 C 17.867188 -11.703125 18.191406 -11.5 18.421875 -11.09375 C 18.609375 -10.769531 18.703125 -10.382812 18.703125 -9.9375 Z M 18.703125 -9.9375 "/></g></g></g><g fill="#000000" fill-opacity="1"><g transform="translate(103.975131, 26.307675)"><g/></g></g><g fill="#000000" fill-opacity="1"><g transform="translate(111.382997, 26.307675)"><g><path d="M 8.78125 -9.265625 C 8.78125 -8.335938 8.269531 -7.519531 7.25 -6.8125 C 6.332031 -6.15625 5.390625 -5.828125 4.421875 -5.828125 C 4.273438 -5.828125 4.054688 -5.851562 3.765625 -5.90625 C 3.472656 -5.96875 3.25 -6 3.09375 -6 C 2.195312 -6 1.75 -5.300781 1.75 -3.90625 C 1.75 -2.539062 2.398438 -1.859375 3.703125 -1.859375 C 4.441406 -1.859375 5.222656 -2.171875 6.046875 -2.796875 C 6.867188 -3.421875 7.253906 -3.734375 7.203125 -3.734375 C 7.753906 -3.734375 8.03125 -3.59375 8.03125 -3.3125 C 8.03125 -3.21875 7.976562 -3.070312 7.875 -2.875 C 7.425781 -2.019531 6.789062 -1.328125 5.96875 -0.796875 C 5.144531 -0.265625 4.253906 0 3.296875 0 C 2.148438 0 1.285156 -0.445312 0.703125 -1.34375 C 0.222656 -2.09375 -0.015625 -3.078125 -0.015625 -4.296875 C -0.015625 -6.179688 0.523438 -7.851562 1.609375 -9.3125 C 2.796875 -10.90625 4.300781 -11.703125 6.125 -11.703125 C 6.8125 -11.703125 7.425781 -11.460938 7.96875 -10.984375 C 8.507812 -10.515625 8.78125 -9.941406 8.78125 -9.265625 Z M 6.859375 -8.671875 C 6.859375 -9.046875 6.710938 -9.367188 6.421875 -9.640625 C 6.140625 -9.921875 5.8125 -10.0625 5.4375 -10.0625 C 4.945312 -10.0625 4.460938 -9.796875 3.984375 -9.265625 C 3.503906 -8.734375 3.265625 -8.222656 3.265625 -7.734375 C 3.265625 -7.515625 3.390625 -7.316406 3.640625 -7.140625 C 3.867188 -7.003906 4.097656 -6.9375 4.328125 -6.9375 C 4.828125 -6.9375 5.359375 -7.097656 5.921875 -7.421875 C 6.546875 -7.785156 6.859375 -8.203125 6.859375 -8.671875 Z M 6.859375 -8.671875 "/></g></g></g><g fill="#000000" fill-opacity="1"><g transform="translate(121.141708, 26.307675)"><g><path d="M 13.8125 -8.359375 C 13.8125 -6.710938 13.15625 -4.988281 11.84375 -3.1875 C 10.300781 -1.0625 8.628906 0 6.828125 0 C 5.859375 0 5.085938 -0.445312 4.515625 -1.34375 C 4.023438 -2.113281 3.78125 -3.007812 3.78125 -4.03125 C 3.78125 -4.75 3.988281 -5.613281 4.40625 -6.625 C 4.78125 -7.457031 5.160156 -8.285156 5.546875 -9.109375 C 5.535156 -9.671875 4.96875 -9.953125 3.84375 -9.953125 C 1.820312 -9.953125 0.8125 -9.363281 0.8125 -8.1875 C 0.8125 -8.101562 0.828125 -7.984375 0.859375 -7.828125 C 0.898438 -7.679688 0.921875 -7.570312 0.921875 -7.5 C 0.921875 -7.132812 0.753906 -6.953125 0.421875 -6.953125 C 0.00390625 -6.953125 -0.203125 -7.320312 -0.203125 -8.0625 C -0.203125 -8.351562 -0.148438 -8.710938 -0.046875 -9.140625 C 0.015625 -9.390625 0.132812 -9.742188 0.3125 -10.203125 C 0.832031 -11.210938 2.207031 -11.71875 4.4375 -11.71875 C 5.28125 -11.71875 5.847656 -11.679688 6.140625 -11.609375 C 6.785156 -11.429688 7.113281 -11.046875 7.125 -10.453125 C 6.007812 -7.753906 5.453125 -5.898438 5.453125 -4.890625 C 5.453125 -4.160156 5.671875 -3.507812 6.109375 -2.9375 C 6.585938 -2.3125 7.175781 -2 7.875 -2 C 8.8125 -2 9.851562 -2.726562 11 -4.1875 C 12.101562 -5.582031 12.65625 -6.765625 12.65625 -7.734375 C 12.65625 -8.140625 12.484375 -8.6875 12.140625 -9.375 C 11.796875 -10.0625 11.625 -10.5625 11.625 -10.875 C 11.625 -11.082031 11.695312 -11.269531 11.84375 -11.4375 C 11.988281 -11.613281 12.160156 -11.703125 12.359375 -11.703125 C 12.859375 -11.703125 13.242188 -11.253906 13.515625 -10.359375 C 13.710938 -9.703125 13.8125 -9.035156 13.8125 -8.359375 Z M 13.8125 -8.359375 "/></g></g></g><g fill="#000000" fill-opacity="1"><g transform="translate(136.308696, 26.307675)"><g><path d="M 8.78125 -9.265625 C 8.78125 -8.335938 8.269531 -7.519531 7.25 -6.8125 C 6.332031 -6.15625 5.390625 -5.828125 4.421875 -5.828125 C 4.273438 -5.828125 4.054688 -5.851562 3.765625 -5.90625 C 3.472656 -5.96875 3.25 -6 3.09375 -6 C 2.195312 -6 1.75 -5.300781 1.75 -3.90625 C 1.75 -2.539062 2.398438 -1.859375 3.703125 -1.859375 C 4.441406 -1.859375 5.222656 -2.171875 6.046875 -2.796875 C 6.867188 -3.421875 7.253906 -3.734375 7.203125 -3.734375 C 7.753906 -3.734375 8.03125 -3.59375 8.03125 -3.3125 C 8.03125 -3.21875 7.976562 -3.070312 7.875 -2.875 C 7.425781 -2.019531 6.789062 -1.328125 5.96875 -0.796875 C 5.144531 -0.265625 4.253906 0 3.296875 0 C 2.148438 0 1.285156 -0.445312 0.703125 -1.34375 C 0.222656 -2.09375 -0.015625 -3.078125 -0.015625 -4.296875 C -0.015625 -6.179688 0.523438 -7.851562 1.609375 -9.3125 C 2.796875 -10.90625 4.300781 -11.703125 6.125 -11.703125 C 6.8125 -11.703125 7.425781 -11.460938 7.96875 -10.984375 C 8.507812 -10.515625 8.78125 -9.941406 8.78125 -9.265625 Z M 6.859375 -8.671875 C 6.859375 -9.046875 6.710938 -9.367188 6.421875 -9.640625 C 6.140625 -9.921875 5.8125 -10.0625 5.4375 -10.0625 C 4.945312 -10.0625 4.460938 -9.796875 3.984375 -9.265625 C 3.503906 -8.734375 3.265625 -8.222656 3.265625 -7.734375 C 3.265625 -7.515625 3.390625 -7.316406 3.640625 -7.140625 C 3.867188 -7.003906 4.097656 -6.9375 4.328125 -6.9375 C 4.828125 -6.9375 5.359375 -7.097656 5.921875 -7.421875 C 6.546875 -7.785156 6.859375 -8.203125 6.859375 -8.671875 Z M 6.859375 -8.671875 "/></g></g></g><g fill="#000000" fill-opacity="1"><g transform="translate(146.067397, 26.307675)"><g><path d="M 10.140625 -10.671875 C 10.140625 -10.222656 10.035156 -9.773438 9.828125 -9.328125 C 9.566406 -8.785156 9.238281 -8.515625 8.84375 -8.515625 C 8.632812 -8.515625 8.40625 -8.703125 8.15625 -9.078125 C 7.914062 -9.460938 7.703125 -9.65625 7.515625 -9.65625 C 6.941406 -9.65625 6.023438 -8.597656 4.765625 -6.484375 C 4.316406 -5.722656 3.972656 -4.984375 3.734375 -4.265625 L 2.46875 -0.453125 C 2.375 -0.148438 2.019531 0 1.40625 0 C 1.132812 0 0.90625 -0.125 0.71875 -0.375 C 0.53125 -0.632812 0.4375 -0.90625 0.4375 -1.1875 C 0.4375 -1.519531 0.585938 -2.109375 0.890625 -2.953125 C 1.265625 -3.941406 1.640625 -4.929688 2.015625 -5.921875 C 2.503906 -7.304688 2.75 -8.289062 2.75 -8.875 C 2.75 -9.644531 2.585938 -10.03125 2.265625 -10.03125 C 2.179688 -10.03125 2.054688 -9.992188 1.890625 -9.921875 C 1.734375 -9.859375 1.609375 -9.828125 1.515625 -9.828125 C 1.304688 -9.828125 1.203125 -9.9375 1.203125 -10.15625 C 1.203125 -10.539062 1.425781 -10.898438 1.875 -11.234375 C 2.300781 -11.546875 2.707031 -11.703125 3.09375 -11.703125 C 3.84375 -11.703125 4.21875 -11.367188 4.21875 -10.703125 C 4.21875 -10.460938 4.15625 -10.109375 4.03125 -9.640625 C 3.914062 -9.179688 3.859375 -8.832031 3.859375 -8.59375 C 3.859375 -8.144531 3.988281 -7.921875 4.25 -7.921875 C 4.4375 -7.921875 4.773438 -8.25 5.265625 -8.90625 C 5.910156 -9.769531 6.425781 -10.375 6.8125 -10.71875 C 7.519531 -11.375 8.238281 -11.703125 8.96875 -11.703125 C 9.75 -11.703125 10.140625 -11.359375 10.140625 -10.671875 Z M 10.140625 -10.671875 "/></g></g></g></g></g><g transform="matrix(1, 0, 0, 1, 97, 22)"><g clip-path="url(#bda2c7ef40)"><g clip-path="url(#f74340da75)"><g fill="#000000" fill-opacity="1"><g transform="translate(0.247518, 9.259289)"><g><path d="M 1.53125 -0.5625 C 1.53125 -0.382812 1.476562 -0.234375 1.375 -0.109375 C 1.257812 0.0234375 1.113281 0.09375 0.9375 0.09375 C 0.625 0.09375 0.46875 -0.0664062 0.46875 -0.390625 C 0.46875 -0.578125 0.519531 -0.734375 0.625 -0.859375 C 0.738281 -0.992188 0.890625 -1.0625 1.078125 -1.0625 C 1.378906 -1.0625 1.53125 -0.894531 1.53125 -0.5625 Z M 1.53125 -0.5625 "/></g></g></g></g></g></g></svg>