<svg xmlns="http://www.w3.org/2000/svg" xmlns:xlink="http://www.w3.org/1999/xlink" width="428" zoomAndPan="magnify" viewBox="0 0 321 56.999997" height="76" preserveAspectRatio="xMidYMid meet" version="1.0"><defs><g/><clipPath id="0ffa46fb52"><path d="M 0.28125 8 L 2 8 L 2 10 L 0.28125 10 Z M 0.28125 8 " clip-rule="nonzero"/></clipPath><clipPath id="66b6691260"><rect x="0" width="3" y="0" height="13"/></clipPath></defs><g fill="#ffde59" fill-opacity="1"><g transform="translate(34.949927, 39.952313)"><g><path d="M 9.171875 -16.90625 C 10.515625 -18.332031 12.253906 -19.046875 14.390625 -19.046875 C 16.910156 -19.046875 18.851562 -18.226562 20.21875 -16.59375 C 21.582031 -14.957031 22.265625 -12.539062 22.265625 -9.34375 C 22.265625 -6.125 21.582031 -3.691406 20.21875 -2.046875 C 18.851562 -0.398438 16.910156 0.421875 14.390625 0.421875 C 11.804688 0.421875 9.832031 -0.597656 8.46875 -2.640625 L 7.875 0 L 2.15625 0 L 2.15625 -25.578125 L 9.171875 -25.578125 Z M 12.203125 -13.859375 C 11.171875 -13.859375 10.394531 -13.488281 9.875 -12.75 C 9.363281 -12.007812 9.109375 -11.050781 9.109375 -9.875 L 9.109375 -8.71875 C 9.109375 -7.539062 9.363281 -6.585938 9.875 -5.859375 C 10.394531 -5.128906 11.171875 -4.765625 12.203125 -4.765625 C 14.222656 -4.765625 15.234375 -5.960938 15.234375 -8.359375 L 15.234375 -10.234375 C 15.234375 -12.648438 14.222656 -13.859375 12.203125 -13.859375 Z M 12.203125 -13.859375 "/></g></g></g><g fill="#ffde59" fill-opacity="1"><g transform="translate(58.485135, 39.952313)"><g><path d="M 11.75 -19.046875 C 15.15625 -19.046875 17.757812 -18.242188 19.5625 -16.640625 C 21.363281 -15.046875 22.265625 -12.601562 22.265625 -9.3125 L 22.265625 -8.109375 L 8.296875 -8.109375 C 8.296875 -6.773438 8.59375 -5.765625 9.1875 -5.078125 C 9.789062 -4.398438 10.738281 -4.0625 12.03125 -4.0625 C 13.207031 -4.0625 14.070312 -4.304688 14.625 -4.796875 C 15.175781 -5.296875 15.453125 -5.957031 15.453125 -6.78125 L 22.265625 -6.78125 C 22.265625 -4.519531 21.40625 -2.753906 19.6875 -1.484375 C 17.96875 -0.210938 15.460938 0.421875 12.171875 0.421875 C 8.710938 0.421875 6.03125 -0.378906 4.125 -1.984375 C 2.21875 -3.597656 1.265625 -6.039062 1.265625 -9.3125 C 1.265625 -12.507812 2.191406 -14.929688 4.046875 -16.578125 C 5.910156 -18.222656 8.476562 -19.046875 11.75 -19.046875 Z M 12.03125 -14.578125 C 9.820312 -14.578125 8.585938 -13.53125 8.328125 -11.4375 L 15.171875 -11.4375 C 15.171875 -12.394531 14.894531 -13.15625 14.34375 -13.71875 C 13.789062 -14.289062 13.019531 -14.578125 12.03125 -14.578125 Z M 12.03125 -14.578125 "/></g></g></g><g fill="#ffde59" fill-opacity="1"><g transform="translate(82.020343, 39.952313)"><g><path d="M 11.328125 -19.046875 C 14.171875 -19.046875 16.484375 -18.566406 18.265625 -17.609375 C 20.054688 -16.660156 20.953125 -15.117188 20.953125 -12.984375 L 20.953125 -5.71875 C 20.953125 -5.3125 21.046875 -4.976562 21.234375 -4.71875 C 21.421875 -4.46875 21.707031 -4.34375 22.09375 -4.34375 L 23.359375 -4.34375 L 23.359375 -0.28125 C 23.285156 -0.238281 23.101562 -0.160156 22.8125 -0.046875 C 22.519531 0.0546875 22.101562 0.160156 21.5625 0.265625 C 21.019531 0.367188 20.394531 0.421875 19.6875 0.421875 C 18.320312 0.421875 17.195312 0.21875 16.3125 -0.1875 C 15.4375 -0.601562 14.832031 -1.175781 14.5 -1.90625 C 13.601562 -1.195312 12.601562 -0.628906 11.5 -0.203125 C 10.394531 0.210938 9.101562 0.421875 7.625 0.421875 C 3.25 0.421875 1.0625 -1.316406 1.0625 -4.796875 C 1.0625 -6.609375 1.546875 -7.988281 2.515625 -8.9375 C 3.492188 -9.894531 4.898438 -10.550781 6.734375 -10.90625 C 8.566406 -11.257812 10.96875 -11.4375 13.9375 -11.4375 L 13.9375 -12.34375 C 13.9375 -13.070312 13.679688 -13.625 13.171875 -14 C 12.671875 -14.382812 12.019531 -14.578125 11.21875 -14.578125 C 10.488281 -14.578125 9.859375 -14.445312 9.328125 -14.1875 C 8.796875 -13.925781 8.53125 -13.515625 8.53125 -12.953125 L 8.53125 -12.8125 L 1.625 -12.8125 C 1.601562 -12.925781 1.59375 -13.085938 1.59375 -13.296875 C 1.59375 -15.066406 2.429688 -16.46875 4.109375 -17.5 C 5.796875 -18.53125 8.203125 -19.046875 11.328125 -19.046875 Z M 13.9375 -8.109375 C 11.9375 -8.109375 10.457031 -7.890625 9.5 -7.453125 C 8.550781 -7.023438 8.078125 -6.445312 8.078125 -5.71875 C 8.078125 -4.539062 8.878906 -3.953125 10.484375 -3.953125 C 11.398438 -3.953125 12.203125 -4.195312 12.890625 -4.6875 C 13.585938 -5.1875 13.9375 -5.800781 13.9375 -6.53125 Z M 13.9375 -8.109375 "/></g></g></g><g fill="#ffde59" fill-opacity="1"><g transform="translate(105.555551, 39.952313)"><g><path d="M 15.625 0 L 15.171875 -2.828125 C 14.441406 -1.816406 13.484375 -1.019531 12.296875 -0.4375 C 11.109375 0.132812 9.851562 0.421875 8.53125 0.421875 C 6.375 0.421875 4.753906 -0.175781 3.671875 -1.375 C 2.585938 -2.570312 2.046875 -4.300781 2.046875 -6.5625 L 2.046875 -18.625 L 9.0625 -18.625 L 9.0625 -7.40625 C 9.0625 -6.601562 9.265625 -5.960938 9.671875 -5.484375 C 10.085938 -5.003906 10.675781 -4.765625 11.4375 -4.765625 C 12.300781 -4.765625 13.003906 -5.046875 13.546875 -5.609375 C 14.085938 -6.171875 14.359375 -6.863281 14.359375 -7.6875 L 14.359375 -18.625 L 21.375 -18.625 L 21.375 0 Z M 15.625 0 "/></g></g></g><g fill="#ffde59" fill-opacity="1"><g transform="translate(129.090759, 39.952313)"><g><path d="M 14.53125 -18.625 L 14.53125 -13.859375 L 10.578125 -13.859375 L 10.578125 -6.78125 C 10.578125 -5.925781 10.71875 -5.304688 11 -4.921875 C 11.289062 -4.535156 11.8125 -4.34375 12.5625 -4.34375 L 14.53125 -4.34375 L 14.53125 -0.21875 C 13.96875 -0.0195312 13.238281 0.132812 12.34375 0.25 C 11.445312 0.363281 10.671875 0.421875 10.015625 0.421875 C 7.953125 0.421875 6.359375 0.046875 5.234375 -0.703125 C 4.117188 -1.453125 3.5625 -2.734375 3.5625 -4.546875 L 3.5625 -13.859375 L 0.953125 -13.859375 L 0.953125 -18.625 L 3.84375 -18.625 L 5.359375 -24.28125 L 10.578125 -24.28125 L 10.578125 -18.625 Z M 14.53125 -18.625 "/></g></g></g><g fill="#ffde59" fill-opacity="1"><g transform="translate(144.757375, 39.952313)"><g><path d="M 2.359375 -20.8125 L 2.359375 -25.578125 L 9.390625 -25.578125 L 9.390625 -20.8125 Z M 2.359375 0 L 2.359375 -18.625 L 9.390625 -18.625 L 9.390625 0 Z M 2.359375 0 "/></g></g></g><g fill="#ffde59" fill-opacity="1"><g transform="translate(156.507332, 39.952313)"><g><path d="M 9.703125 -26 C 10.222656 -26 10.867188 -25.929688 11.640625 -25.796875 C 12.421875 -25.671875 13.046875 -25.523438 13.515625 -25.359375 L 13.515625 -21.234375 L 11.890625 -21.234375 C 11.140625 -21.234375 10.617188 -21.09375 10.328125 -20.8125 C 10.046875 -20.53125 9.90625 -20.050781 9.90625 -19.375 L 9.90625 -18.625 L 13.515625 -18.625 L 13.515625 -13.859375 L 9.90625 -13.859375 L 9.90625 0 L 2.890625 0 L 2.890625 -13.859375 L 0.28125 -13.859375 L 0.28125 -18.625 L 2.890625 -18.625 L 2.890625 -19.40625 C 2.890625 -21.800781 3.476562 -23.5 4.65625 -24.5 C 5.832031 -25.5 7.515625 -26 9.703125 -26 Z M 9.703125 -26 "/></g></g></g><g fill="#ffde59" fill-opacity="1"><g transform="translate(170.23326, 39.952313)"><g><path d="M 15.625 0 L 15.171875 -2.828125 C 14.441406 -1.816406 13.484375 -1.019531 12.296875 -0.4375 C 11.109375 0.132812 9.851562 0.421875 8.53125 0.421875 C 6.375 0.421875 4.753906 -0.175781 3.671875 -1.375 C 2.585938 -2.570312 2.046875 -4.300781 2.046875 -6.5625 L 2.046875 -18.625 L 9.0625 -18.625 L 9.0625 -7.40625 C 9.0625 -6.601562 9.265625 -5.960938 9.671875 -5.484375 C 10.085938 -5.003906 10.675781 -4.765625 11.4375 -4.765625 C 12.300781 -4.765625 13.003906 -5.046875 13.546875 -5.609375 C 14.085938 -6.171875 14.359375 -6.863281 14.359375 -7.6875 L 14.359375 -18.625 L 21.375 -18.625 L 21.375 0 Z M 15.625 0 "/></g></g></g><g fill="#ffde59" fill-opacity="1"><g transform="translate(193.768468, 39.952313)"><g><path d="M 2.359375 0 L 2.359375 -25.578125 L 9.390625 -25.578125 L 9.390625 0 Z M 2.359375 0 "/></g></g></g><g fill="#ffde59" fill-opacity="1"><g transform="translate(205.518425, 39.952313)"><g/></g></g><g fill="#ffde59" fill-opacity="1"><g transform="translate(217.268382, 39.952313)"><g><path d="M 15.671875 0 L 15.0625 -2.640625 C 13.695312 -0.597656 11.722656 0.421875 9.140625 0.421875 C 6.617188 0.421875 4.675781 -0.398438 3.3125 -2.046875 C 1.945312 -3.691406 1.265625 -6.125 1.265625 -9.34375 C 1.265625 -12.539062 1.945312 -14.957031 3.3125 -16.59375 C 4.675781 -18.226562 6.617188 -19.046875 9.140625 -19.046875 C 11.273438 -19.046875 13.015625 -18.332031 14.359375 -16.90625 L 14.359375 -25.578125 L 21.375 -25.578125 L 21.375 0 Z M 11.328125 -13.859375 C 9.304688 -13.859375 8.296875 -12.648438 8.296875 -10.234375 L 8.296875 -8.359375 C 8.296875 -5.960938 9.304688 -4.765625 11.328125 -4.765625 C 12.359375 -4.765625 13.132812 -5.128906 13.65625 -5.859375 C 14.175781 -6.585938 14.4375 -7.539062 14.4375 -8.71875 L 14.4375 -9.875 C 14.4375 -11.050781 14.175781 -12.007812 13.65625 -12.75 C 13.132812 -13.488281 12.359375 -13.859375 11.328125 -13.859375 Z M 11.328125 -13.859375 "/></g></g></g><g fill="#ffde59" fill-opacity="1"><g transform="translate(240.803577, 39.952313)"><g><path d="M 11.328125 -19.046875 C 14.171875 -19.046875 16.484375 -18.566406 18.265625 -17.609375 C 20.054688 -16.660156 20.953125 -15.117188 20.953125 -12.984375 L 20.953125 -5.71875 C 20.953125 -5.3125 21.046875 -4.976562 21.234375 -4.71875 C 21.421875 -4.46875 21.707031 -4.34375 22.09375 -4.34375 L 23.359375 -4.34375 L 23.359375 -0.28125 C 23.285156 -0.238281 23.101562 -0.160156 22.8125 -0.046875 C 22.519531 0.0546875 22.101562 0.160156 21.5625 0.265625 C 21.019531 0.367188 20.394531 0.421875 19.6875 0.421875 C 18.320312 0.421875 17.195312 0.21875 16.3125 -0.1875 C 15.4375 -0.601562 14.832031 -1.175781 14.5 -1.90625 C 13.601562 -1.195312 12.601562 -0.628906 11.5 -0.203125 C 10.394531 0.210938 9.101562 0.421875 7.625 0.421875 C 3.25 0.421875 1.0625 -1.316406 1.0625 -4.796875 C 1.0625 -6.609375 1.546875 -7.988281 2.515625 -8.9375 C 3.492188 -9.894531 4.898438 -10.550781 6.734375 -10.90625 C 8.566406 -11.257812 10.96875 -11.4375 13.9375 -11.4375 L 13.9375 -12.34375 C 13.9375 -13.070312 13.679688 -13.625 13.171875 -14 C 12.671875 -14.382812 12.019531 -14.578125 11.21875 -14.578125 C 10.488281 -14.578125 9.859375 -14.445312 9.328125 -14.1875 C 8.796875 -13.925781 8.53125 -13.515625 8.53125 -12.953125 L 8.53125 -12.8125 L 1.625 -12.8125 C 1.601562 -12.925781 1.59375 -13.085938 1.59375 -13.296875 C 1.59375 -15.066406 2.429688 -16.46875 4.109375 -17.5 C 5.796875 -18.53125 8.203125 -19.046875 11.328125 -19.046875 Z M 13.9375 -8.109375 C 11.9375 -8.109375 10.457031 -7.890625 9.5 -7.453125 C 8.550781 -7.023438 8.078125 -6.445312 8.078125 -5.71875 C 8.078125 -4.539062 8.878906 -3.953125 10.484375 -3.953125 C 11.398438 -3.953125 12.203125 -4.195312 12.890625 -4.6875 C 13.585938 -5.1875 13.9375 -5.800781 13.9375 -6.53125 Z M 13.9375 -8.109375 "/></g></g></g><g fill="#ffde59" fill-opacity="1"><g transform="translate(264.338808, 39.952313)"><g><path d="M 14.921875 -0.5625 C 13.960938 2.050781 12.78125 4.03125 11.375 5.375 C 9.976562 6.726562 8.019531 7.40625 5.5 7.40625 C 3.96875 7.40625 2.617188 7.195312 1.453125 6.78125 L 1.453125 2.578125 L 4.265625 2.578125 C 6.035156 2.578125 7.082031 1.71875 7.40625 0 L 0 -18.625 L 7.546875 -18.625 L 11.109375 -6.25 L 11.359375 -6.25 L 14.640625 -18.625 L 21.5625 -18.625 Z M 14.921875 -0.5625 "/></g></g></g><g transform="matrix(1, 0, 0, 1, 35, 20)"><g clip-path="url(#66b6691260)"><g clip-path="url(#0ffa46fb52)"><g fill="#000000" fill-opacity="1"><g transform="translate(0.306346, 9.323583)"><g><path d="M 1.5625 -0.5625 C 1.5625 -0.382812 1.503906 -0.234375 1.390625 -0.109375 C 1.273438 0.0234375 1.128906 0.09375 0.953125 0.09375 C 0.628906 0.09375 0.46875 -0.0703125 0.46875 -0.40625 C 0.46875 -0.59375 0.523438 -0.75 0.640625 -0.875 C 0.753906 -1.007812 0.90625 -1.078125 1.09375 -1.078125 C 1.40625 -1.078125 1.5625 -0.90625 1.5625 -0.5625 Z M 1.5625 -0.5625 "/></g></g></g></g></g></g></svg>