<svg xmlns="http://www.w3.org/2000/svg" xmlns:xlink="http://www.w3.org/1999/xlink" width="275" zoomAndPan="magnify" viewBox="0 0 206.25 73.499998" height="98" preserveAspectRatio="xMidYMid meet" version="1.0"><defs><g/><clipPath id="239b4782b4"><path d="M 0.179688 28 L 17 28 L 17 59 L 0.179688 59 Z M 0.179688 28 " clip-rule="nonzero"/></clipPath><clipPath id="ef37208adb"><rect x="0" width="126" y="0" height="62"/></clipPath><clipPath id="79db9aaedc"><path d="M 0.105469 8 L 2 8 L 2 10 L 0.105469 10 Z M 0.105469 8 " clip-rule="nonzero"/></clipPath><clipPath id="4b4669d9e4"><rect x="0" width="3" y="0" height="13"/></clipPath></defs><g transform="matrix(1, 0, 0, 1, 39, 5)"><g clip-path="url(#ef37208adb)"><g fill="#000000" fill-opacity="1"><g transform="translate(30.603221, 26.589724)"><g><path d="M 12.5625 -8.40625 C 12.5625 -6.570312 11.945312 -4.769531 10.71875 -3 C 9.375 -1.0625 7.832031 -0.09375 6.09375 -0.09375 C 5.5625 -0.09375 5.296875 -0.453125 5.296875 -1.171875 C 5.296875 -2.078125 6.238281 -2.835938 8.125 -3.453125 C 8.28125 -3.503906 8.503906 -3.59375 8.796875 -3.71875 C 9.003906 -3.84375 9.242188 -4.054688 9.515625 -4.359375 C 10.367188 -5.347656 10.796875 -6.46875 10.796875 -7.71875 C 10.796875 -9.375 10.269531 -10.203125 9.21875 -10.203125 C 8.695312 -10.203125 7.972656 -9.894531 7.046875 -9.28125 C 6.296875 -8.78125 5.660156 -8.265625 5.140625 -7.734375 C 3.960938 -6.523438 3.238281 -5.101562 2.96875 -3.46875 C 2.894531 -2.769531 2.816406 -2.078125 2.734375 -1.390625 C 2.535156 -0.460938 2.140625 0 1.546875 0 C 0.847656 0 0.5 -0.5625 0.5 -1.6875 C 0.5 -2.78125 0.84375 -4.488281 1.53125 -6.8125 C 2.550781 -10.25 3.460938 -13.535156 4.265625 -16.671875 C 4.828125 -18.867188 5.109375 -20.265625 5.109375 -20.859375 C 5.109375 -21.285156 4.878906 -21.675781 4.421875 -22.03125 C 3.972656 -22.394531 3.75 -22.664062 3.75 -22.84375 C 3.75 -23.175781 4.03125 -23.445312 4.59375 -23.65625 C 5.03125 -23.8125 5.457031 -23.890625 5.875 -23.890625 C 7.164062 -23.890625 7.8125 -23.359375 7.8125 -22.296875 C 7.8125 -21.953125 7.722656 -21.550781 7.546875 -21.09375 C 7.390625 -20.71875 7.234375 -20.335938 7.078125 -19.953125 C 6.835938 -19.296875 6.34375 -17.554688 5.59375 -14.734375 C 4.8125 -11.804688 4.421875 -10.160156 4.421875 -9.796875 C 4.421875 -9.492188 4.597656 -9.34375 4.953125 -9.34375 C 5.140625 -9.34375 5.851562 -9.75 7.09375 -10.5625 C 8.332031 -11.382812 9.257812 -11.796875 9.875 -11.796875 C 11.664062 -11.796875 12.5625 -10.664062 12.5625 -8.40625 Z M 12.5625 -8.40625 "/></g></g></g><g fill="#000000" fill-opacity="1"><g transform="translate(45.961687, 26.589724)"><g><path d="M 11.90625 -3.984375 C 11.90625 -3.390625 11.421875 -2.585938 10.453125 -1.578125 C 9.484375 -0.566406 8.703125 -0.0625 8.109375 -0.0625 C 7.191406 -0.0625 6.734375 -0.566406 6.734375 -1.578125 C 6.734375 -1.785156 6.769531 -2.09375 6.84375 -2.5 C 6.925781 -2.914062 6.96875 -3.226562 6.96875 -3.4375 C 6.96875 -3.6875 6.894531 -3.8125 6.75 -3.8125 C 6.675781 -3.8125 6 -3.175781 4.71875 -1.90625 C 3.445312 -0.632812 2.5 0 1.875 0 C 1.351562 0 0.9375 -0.203125 0.625 -0.609375 C 0.332031 -0.984375 0.1875 -1.4375 0.1875 -1.96875 C 0.1875 -3.65625 0.988281 -5.554688 2.59375 -7.671875 C 4.300781 -9.953125 6.101562 -11.28125 8 -11.65625 C 8.394531 -11.71875 8.976562 -11.828125 9.75 -11.984375 C 10.40625 -12.429688 10.769531 -12.65625 10.84375 -12.65625 C 11.113281 -12.65625 11.25 -12.492188 11.25 -12.171875 C 11.25 -12.003906 11.203125 -11.804688 11.109375 -11.578125 L 9.453125 -7.359375 C 8.753906 -5.554688 8.40625 -4.242188 8.40625 -3.421875 C 8.40625 -2.703125 8.707031 -2.34375 9.3125 -2.34375 C 9.550781 -2.34375 9.972656 -2.671875 10.578125 -3.328125 C 11.191406 -3.984375 11.5625 -4.3125 11.6875 -4.3125 C 11.832031 -4.3125 11.90625 -4.203125 11.90625 -3.984375 Z M 8.515625 -9.3125 C 8.515625 -9.644531 8.222656 -9.8125 7.640625 -9.8125 L 7.453125 -9.8125 C 6.390625 -9.8125 5.195312 -9.019531 3.875 -7.4375 C 2.59375 -5.894531 1.953125 -4.578125 1.953125 -3.484375 C 1.953125 -2.742188 2.222656 -2.375 2.765625 -2.375 C 3.722656 -2.375 4.929688 -3.289062 6.390625 -5.125 C 7.804688 -6.90625 8.515625 -8.300781 8.515625 -9.3125 Z M 8.515625 -9.3125 "/></g></g></g><g fill="#000000" fill-opacity="1"><g transform="translate(59.743382, 26.589724)"><g><path d="M 11.515625 -8.6875 C 11.515625 -8.070312 11.3125 -7.066406 10.90625 -5.671875 C 10.644531 -4.796875 10.164062 -3.984375 9.46875 -3.234375 C 8.757812 -2.453125 7.984375 -1.9375 7.140625 -1.6875 C 6.828125 -1.59375 6.300781 -1.546875 5.5625 -1.546875 C 4.832031 -1.546875 4.296875 -1.367188 3.953125 -1.015625 C 3.710938 -0.765625 3.441406 -0.25 3.140625 0.53125 C 2.109375 3.207031 1.59375 5.140625 1.59375 6.328125 C 1.59375 6.765625 1.832031 7.09375 2.3125 7.3125 C 2.320312 7.320312 2.769531 7.445312 3.65625 7.6875 C 4.144531 7.820312 4.390625 8.019531 4.390625 8.28125 C 4.390625 8.65625 4.140625 8.84375 3.640625 8.84375 C 3.328125 8.84375 2.863281 8.765625 2.25 8.609375 C 1.644531 8.460938 1.179688 8.390625 0.859375 8.390625 C 0.628906 8.390625 0.285156 8.398438 -0.171875 8.421875 C -0.628906 8.441406 -0.972656 8.453125 -1.203125 8.453125 C -2.078125 8.453125 -2.515625 8.265625 -2.515625 7.890625 C -2.515625 7.785156 -2.273438 7.644531 -1.796875 7.46875 C -1.253906 7.269531 -0.875 6.914062 -0.65625 6.40625 C -0.445312 5.894531 0.0195312 4.332031 0.75 1.71875 C 0.9375 1.0625 1.6875 -1.6875 3 -6.53125 C 3.53125 -8.476562 3.796875 -9.472656 3.796875 -9.515625 C 3.796875 -9.679688 3.5625 -9.804688 3.09375 -9.890625 C 2.632812 -9.984375 2.40625 -10.148438 2.40625 -10.390625 C 2.40625 -10.472656 2.648438 -10.65625 3.140625 -10.9375 C 3.660156 -11.238281 3.972656 -11.488281 4.078125 -11.6875 C 4.203125 -12.144531 4.328125 -12.601562 4.453125 -13.0625 C 4.597656 -13.5625 4.957031 -13.8125 5.53125 -13.8125 C 6.25 -13.8125 6.609375 -13.585938 6.609375 -13.140625 C 6.609375 -13.003906 6.570312 -12.8125 6.5 -12.5625 C 6.4375 -12.320312 6.40625 -12.140625 6.40625 -12.015625 C 6.40625 -11.660156 6.675781 -11.484375 7.21875 -11.484375 C 7.4375 -11.484375 7.75 -11.535156 8.15625 -11.640625 C 8.570312 -11.742188 8.890625 -11.796875 9.109375 -11.796875 C 9.847656 -11.796875 10.445312 -11.453125 10.90625 -10.765625 C 11.3125 -10.148438 11.515625 -9.457031 11.515625 -8.6875 Z M 9.671875 -8.6875 C 9.671875 -9.28125 9.46875 -9.769531 9.0625 -10.15625 C 8.65625 -10.539062 8.15625 -10.734375 7.5625 -10.734375 C 6.882812 -10.734375 6.320312 -10.359375 5.875 -9.609375 C 5.613281 -9.191406 5.296875 -8.273438 4.921875 -6.859375 C 4.546875 -5.441406 4.359375 -4.476562 4.359375 -3.96875 C 4.359375 -3.164062 4.820312 -2.765625 5.75 -2.765625 C 6.75 -2.765625 7.675781 -3.519531 8.53125 -5.03125 C 9.289062 -6.363281 9.671875 -7.582031 9.671875 -8.6875 Z M 9.671875 -8.6875 "/></g></g></g><g fill="#000000" fill-opacity="1"><g transform="translate(72.606436, 26.589724)"><g><path d="M 11.515625 -8.6875 C 11.515625 -8.070312 11.3125 -7.066406 10.90625 -5.671875 C 10.644531 -4.796875 10.164062 -3.984375 9.46875 -3.234375 C 8.757812 -2.453125 7.984375 -1.9375 7.140625 -1.6875 C 6.828125 -1.59375 6.300781 -1.546875 5.5625 -1.546875 C 4.832031 -1.546875 4.296875 -1.367188 3.953125 -1.015625 C 3.710938 -0.765625 3.441406 -0.25 3.140625 0.53125 C 2.109375 3.207031 1.59375 5.140625 1.59375 6.328125 C 1.59375 6.765625 1.832031 7.09375 2.3125 7.3125 C 2.320312 7.320312 2.769531 7.445312 3.65625 7.6875 C 4.144531 7.820312 4.390625 8.019531 4.390625 8.28125 C 4.390625 8.65625 4.140625 8.84375 3.640625 8.84375 C 3.328125 8.84375 2.863281 8.765625 2.25 8.609375 C 1.644531 8.460938 1.179688 8.390625 0.859375 8.390625 C 0.628906 8.390625 0.285156 8.398438 -0.171875 8.421875 C -0.628906 8.441406 -0.972656 8.453125 -1.203125 8.453125 C -2.078125 8.453125 -2.515625 8.265625 -2.515625 7.890625 C -2.515625 7.785156 -2.273438 7.644531 -1.796875 7.46875 C -1.253906 7.269531 -0.875 6.914062 -0.65625 6.40625 C -0.445312 5.894531 0.0195312 4.332031 0.75 1.71875 C 0.9375 1.0625 1.6875 -1.6875 3 -6.53125 C 3.53125 -8.476562 3.796875 -9.472656 3.796875 -9.515625 C 3.796875 -9.679688 3.5625 -9.804688 3.09375 -9.890625 C 2.632812 -9.984375 2.40625 -10.148438 2.40625 -10.390625 C 2.40625 -10.472656 2.648438 -10.65625 3.140625 -10.9375 C 3.660156 -11.238281 3.972656 -11.488281 4.078125 -11.6875 C 4.203125 -12.144531 4.328125 -12.601562 4.453125 -13.0625 C 4.597656 -13.5625 4.957031 -13.8125 5.53125 -13.8125 C 6.25 -13.8125 6.609375 -13.585938 6.609375 -13.140625 C 6.609375 -13.003906 6.570312 -12.8125 6.5 -12.5625 C 6.4375 -12.320312 6.40625 -12.140625 6.40625 -12.015625 C 6.40625 -11.660156 6.675781 -11.484375 7.21875 -11.484375 C 7.4375 -11.484375 7.75 -11.535156 8.15625 -11.640625 C 8.570312 -11.742188 8.890625 -11.796875 9.109375 -11.796875 C 9.847656 -11.796875 10.445312 -11.453125 10.90625 -10.765625 C 11.3125 -10.148438 11.515625 -9.457031 11.515625 -8.6875 Z M 9.671875 -8.6875 C 9.671875 -9.28125 9.46875 -9.769531 9.0625 -10.15625 C 8.65625 -10.539062 8.15625 -10.734375 7.5625 -10.734375 C 6.882812 -10.734375 6.320312 -10.359375 5.875 -9.609375 C 5.613281 -9.191406 5.296875 -8.273438 4.921875 -6.859375 C 4.546875 -5.441406 4.359375 -4.476562 4.359375 -3.96875 C 4.359375 -3.164062 4.820312 -2.765625 5.75 -2.765625 C 6.75 -2.765625 7.675781 -3.519531 8.53125 -5.03125 C 9.289062 -6.363281 9.671875 -7.582031 9.671875 -8.6875 Z M 9.671875 -8.6875 "/></g></g></g><g fill="#000000" fill-opacity="1"><g transform="translate(85.46949, 26.589724)"><g><path d="M 9.5625 -9.921875 C 9.5625 -7.378906 8.8125 -4.765625 7.3125 -2.078125 C 5.882812 0.453125 4.097656 2.535156 1.953125 4.171875 C -0.128906 5.765625 -2.550781 6.5625 -5.3125 6.5625 C -5.9375 6.5625 -6.566406 6.398438 -7.203125 6.078125 C -7.953125 5.691406 -8.328125 5.210938 -8.328125 4.640625 C -8.328125 4.335938 -8.109375 4.1875 -7.671875 4.1875 L -7.59375 4.1875 C -6.820312 4.75 -6.359375 5.070312 -6.203125 5.15625 C -5.609375 5.5 -5.078125 5.671875 -4.609375 5.671875 C -1.921875 5.671875 0.5 3.910156 2.65625 0.390625 C 3.457031 -0.921875 3.859375 -2.3125 3.859375 -3.78125 C 3.859375 -4.488281 3.769531 -5.367188 3.59375 -6.421875 C 3.382812 -7.640625 3.140625 -8.453125 2.859375 -8.859375 C 2.847656 -8.867188 2.5625 -9.160156 2 -9.734375 C 1.71875 -10.015625 1.578125 -10.40625 1.578125 -10.90625 C 1.578125 -11.5 1.972656 -11.796875 2.765625 -11.796875 C 3.304688 -11.796875 3.75 -11.492188 4.09375 -10.890625 C 4.28125 -10.554688 4.539062 -9.226562 4.875 -6.90625 C 5.1875 -4.851562 5.546875 -3.742188 5.953125 -3.578125 C 6.554688 -3.660156 7.070312 -4.53125 7.5 -6.1875 C 7.832031 -7.488281 8 -8.601562 8 -9.53125 C 8 -9.695312 7.972656 -9.957031 7.921875 -10.3125 C 7.878906 -10.664062 7.859375 -10.929688 7.859375 -11.109375 C 7.859375 -11.566406 8.09375 -11.796875 8.5625 -11.796875 C 9.226562 -11.796875 9.5625 -11.171875 9.5625 -9.921875 Z M 9.5625 -9.921875 "/></g></g></g><g clip-path="url(#239b4782b4)"><g fill="#000000" fill-opacity="1"><g transform="translate(2.93431, 52.037444)"><g><path d="M 13.71875 -22.875 C 13.71875 -22.675781 13.640625 -22.425781 13.484375 -22.125 C 13.285156 -21.800781 13.097656 -21.640625 12.921875 -21.640625 C 12.742188 -21.640625 12.488281 -21.660156 12.15625 -21.703125 C 11.820312 -21.753906 11.566406 -21.78125 11.390625 -21.78125 C 10.566406 -21.78125 9.925781 -21.410156 9.46875 -20.671875 C 9.3125 -20.421875 8.941406 -19.269531 8.359375 -17.21875 C 7.773438 -15.175781 7.484375 -14.015625 7.484375 -13.734375 C 7.484375 -13.628906 7.578125 -13.523438 7.765625 -13.421875 C 7.960938 -13.328125 8.117188 -13.28125 8.234375 -13.28125 C 8.347656 -13.28125 8.507812 -13.316406 8.71875 -13.390625 C 8.9375 -13.460938 9.101562 -13.5 9.21875 -13.5 C 9.613281 -13.5 9.8125 -13.25 9.8125 -12.75 C 9.8125 -12.039062 9.578125 -11.617188 9.109375 -11.484375 C 8.609375 -11.410156 8.109375 -11.34375 7.609375 -11.28125 C 6.972656 -11.082031 6.507812 -10.550781 6.21875 -9.6875 C 6.207031 -9.632812 6.085938 -9.109375 5.859375 -8.109375 C 5.742188 -7.640625 5.175781 -5.570312 4.15625 -1.90625 L 2.421875 4.28125 C 2.285156 4.78125 2.015625 5.269531 1.609375 5.75 C 1.140625 6.289062 0.675781 6.5625 0.21875 6.5625 C -0.414062 6.5625 -1.007812 6.421875 -1.5625 6.140625 C -2.21875 5.796875 -2.546875 5.332031 -2.546875 4.75 C -2.546875 4.15625 -2.226562 3.859375 -1.59375 3.859375 C -1.476562 3.859375 -1.3125 3.878906 -1.09375 3.921875 C -0.875 3.960938 -0.710938 3.984375 -0.609375 3.984375 C -0.140625 3.984375 0.226562 3.789062 0.5 3.40625 C 0.707031 3.09375 1.40625 0.867188 2.59375 -3.265625 C 3.78125 -7.410156 4.375 -9.695312 4.375 -10.125 C 4.375 -10.425781 4.238281 -10.578125 3.96875 -10.578125 C 3.820312 -10.578125 3.613281 -10.550781 3.34375 -10.5 C 3.070312 -10.445312 2.863281 -10.421875 2.71875 -10.421875 C 2.269531 -10.421875 2.046875 -10.617188 2.046875 -11.015625 C 2.046875 -11.609375 2.523438 -12.066406 3.484375 -12.390625 C 4.554688 -12.753906 5.160156 -13.09375 5.296875 -13.40625 C 5.316406 -13.457031 5.4375 -13.914062 5.65625 -14.78125 L 6.375 -17.703125 C 6.914062 -19.867188 7.453125 -21.328125 7.984375 -22.078125 C 8.835938 -23.285156 10.195312 -23.890625 12.0625 -23.890625 C 12.394531 -23.890625 12.738281 -23.800781 13.09375 -23.625 C 13.507812 -23.425781 13.71875 -23.175781 13.71875 -22.875 Z M 13.71875 -22.875 "/></g></g></g></g><g fill="#000000" fill-opacity="1"><g transform="translate(13.93266, 52.037444)"><g><path d="M 11.90625 -3.984375 C 11.90625 -3.390625 11.421875 -2.585938 10.453125 -1.578125 C 9.484375 -0.566406 8.703125 -0.0625 8.109375 -0.0625 C 7.191406 -0.0625 6.734375 -0.566406 6.734375 -1.578125 C 6.734375 -1.785156 6.769531 -2.09375 6.84375 -2.5 C 6.925781 -2.914062 6.96875 -3.226562 6.96875 -3.4375 C 6.96875 -3.6875 6.894531 -3.8125 6.75 -3.8125 C 6.675781 -3.8125 6 -3.175781 4.71875 -1.90625 C 3.445312 -0.632812 2.5 0 1.875 0 C 1.351562 0 0.9375 -0.203125 0.625 -0.609375 C 0.332031 -0.984375 0.1875 -1.4375 0.1875 -1.96875 C 0.1875 -3.65625 0.988281 -5.554688 2.59375 -7.671875 C 4.300781 -9.953125 6.101562 -11.28125 8 -11.65625 C 8.394531 -11.71875 8.976562 -11.828125 9.75 -11.984375 C 10.40625 -12.429688 10.769531 -12.65625 10.84375 -12.65625 C 11.113281 -12.65625 11.25 -12.492188 11.25 -12.171875 C 11.25 -12.003906 11.203125 -11.804688 11.109375 -11.578125 L 9.453125 -7.359375 C 8.753906 -5.554688 8.40625 -4.242188 8.40625 -3.421875 C 8.40625 -2.703125 8.707031 -2.34375 9.3125 -2.34375 C 9.550781 -2.34375 9.972656 -2.671875 10.578125 -3.328125 C 11.191406 -3.984375 11.5625 -4.3125 11.6875 -4.3125 C 11.832031 -4.3125 11.90625 -4.203125 11.90625 -3.984375 Z M 8.515625 -9.3125 C 8.515625 -9.644531 8.222656 -9.8125 7.640625 -9.8125 L 7.453125 -9.8125 C 6.390625 -9.8125 5.195312 -9.019531 3.875 -7.4375 C 2.59375 -5.894531 1.953125 -4.578125 1.953125 -3.484375 C 1.953125 -2.742188 2.222656 -2.375 2.765625 -2.375 C 3.722656 -2.375 4.929688 -3.289062 6.390625 -5.125 C 7.804688 -6.90625 8.515625 -8.300781 8.515625 -9.3125 Z M 8.515625 -9.3125 "/></g></g></g><g fill="#000000" fill-opacity="1"><g transform="translate(27.714355, 52.037444)"><g><path d="M 8.515625 -11.421875 C 8.515625 -10.671875 7.976562 -10.296875 6.90625 -10.296875 C 6.738281 -10.296875 6.492188 -10.304688 6.171875 -10.328125 C 5.847656 -10.359375 5.601562 -10.375 5.4375 -10.375 C 4.9375 -10.375 4.578125 -10.164062 4.359375 -9.75 C 4.296875 -9.625 4.164062 -9.195312 3.96875 -8.46875 L 2.53125 -3.03125 C 2.519531 -2.957031 2.515625 -2.875 2.515625 -2.78125 C 2.515625 -2.238281 2.765625 -1.96875 3.265625 -1.96875 C 3.703125 -1.96875 4.144531 -2.316406 4.59375 -3.015625 C 5.050781 -3.722656 5.414062 -4.078125 5.6875 -4.078125 C 6.113281 -4.078125 6.328125 -3.882812 6.328125 -3.5 C 6.328125 -3.0625 6.050781 -2.4375 5.5 -1.625 C 4.757812 -0.539062 3.726562 0 2.40625 0 C 1.914062 0 1.472656 -0.148438 1.078125 -0.453125 C 0.640625 -0.773438 0.421875 -1.164062 0.421875 -1.625 C 0.421875 -2.4375 1.003906 -4.75 2.171875 -8.5625 C 2.398438 -9.3125 2.515625 -9.765625 2.515625 -9.921875 C 2.515625 -10.128906 2.316406 -10.25 1.921875 -10.28125 C 2.203125 -10.257812 1.929688 -10.25 1.109375 -10.25 C 0.734375 -10.25 0.546875 -10.394531 0.546875 -10.6875 C 0.546875 -11.207031 0.765625 -11.535156 1.203125 -11.671875 C 1.421875 -11.742188 1.859375 -11.78125 2.515625 -11.78125 C 3.015625 -11.78125 3.390625 -12.144531 3.640625 -12.875 C 3.921875 -13.726562 4.125 -14.191406 4.25 -14.265625 C 4.4375 -14.390625 4.742188 -14.453125 5.171875 -14.453125 C 5.578125 -14.453125 5.78125 -14.320312 5.78125 -14.0625 C 5.78125 -13.863281 5.695312 -13.582031 5.53125 -13.21875 C 5.375 -12.851562 5.296875 -12.566406 5.296875 -12.359375 C 5.296875 -11.910156 5.550781 -11.6875 6.0625 -11.6875 C 6.300781 -11.6875 6.65625 -11.703125 7.125 -11.734375 C 7.601562 -11.773438 7.960938 -11.796875 8.203125 -11.796875 C 8.410156 -11.796875 8.515625 -11.671875 8.515625 -11.421875 Z M 8.515625 -11.421875 "/></g></g></g><g fill="#000000" fill-opacity="1"><g transform="translate(37.506132, 52.037444)"><g><path d="M 12.5625 -8.40625 C 12.5625 -6.570312 11.945312 -4.769531 10.71875 -3 C 9.375 -1.0625 7.832031 -0.09375 6.09375 -0.09375 C 5.5625 -0.09375 5.296875 -0.453125 5.296875 -1.171875 C 5.296875 -2.078125 6.238281 -2.835938 8.125 -3.453125 C 8.28125 -3.503906 8.503906 -3.59375 8.796875 -3.71875 C 9.003906 -3.84375 9.242188 -4.054688 9.515625 -4.359375 C 10.367188 -5.347656 10.796875 -6.46875 10.796875 -7.71875 C 10.796875 -9.375 10.269531 -10.203125 9.21875 -10.203125 C 8.695312 -10.203125 7.972656 -9.894531 7.046875 -9.28125 C 6.296875 -8.78125 5.660156 -8.265625 5.140625 -7.734375 C 3.960938 -6.523438 3.238281 -5.101562 2.96875 -3.46875 C 2.894531 -2.769531 2.816406 -2.078125 2.734375 -1.390625 C 2.535156 -0.460938 2.140625 0 1.546875 0 C 0.847656 0 0.5 -0.5625 0.5 -1.6875 C 0.5 -2.78125 0.84375 -4.488281 1.53125 -6.8125 C 2.550781 -10.25 3.460938 -13.535156 4.265625 -16.671875 C 4.828125 -18.867188 5.109375 -20.265625 5.109375 -20.859375 C 5.109375 -21.285156 4.878906 -21.675781 4.421875 -22.03125 C 3.972656 -22.394531 3.75 -22.664062 3.75 -22.84375 C 3.75 -23.175781 4.03125 -23.445312 4.59375 -23.65625 C 5.03125 -23.8125 5.457031 -23.890625 5.875 -23.890625 C 7.164062 -23.890625 7.8125 -23.359375 7.8125 -22.296875 C 7.8125 -21.953125 7.722656 -21.550781 7.546875 -21.09375 C 7.390625 -20.71875 7.234375 -20.335938 7.078125 -19.953125 C 6.835938 -19.296875 6.34375 -17.554688 5.59375 -14.734375 C 4.8125 -11.804688 4.421875 -10.160156 4.421875 -9.796875 C 4.421875 -9.492188 4.597656 -9.34375 4.953125 -9.34375 C 5.140625 -9.34375 5.851562 -9.75 7.09375 -10.5625 C 8.332031 -11.382812 9.257812 -11.796875 9.875 -11.796875 C 11.664062 -11.796875 12.5625 -10.664062 12.5625 -8.40625 Z M 12.5625 -8.40625 "/></g></g></g><g fill="#000000" fill-opacity="1"><g transform="translate(52.864598, 52.037444)"><g><path d="M 8.859375 -9.34375 C 8.859375 -8.414062 8.347656 -7.59375 7.328125 -6.875 C 6.390625 -6.207031 5.4375 -5.875 4.46875 -5.875 C 4.3125 -5.875 4.085938 -5.898438 3.796875 -5.953125 C 3.503906 -6.015625 3.28125 -6.046875 3.125 -6.046875 C 2.21875 -6.046875 1.765625 -5.34375 1.765625 -3.9375 C 1.765625 -2.5625 2.421875 -1.875 3.734375 -1.875 C 4.484375 -1.875 5.269531 -2.1875 6.09375 -2.8125 C 6.925781 -3.445312 7.316406 -3.765625 7.265625 -3.765625 C 7.828125 -3.765625 8.109375 -3.625 8.109375 -3.34375 C 8.109375 -3.238281 8.054688 -3.09375 7.953125 -2.90625 C 7.492188 -2.039062 6.847656 -1.335938 6.015625 -0.796875 C 5.179688 -0.265625 4.285156 0 3.328125 0 C 2.171875 0 1.300781 -0.453125 0.71875 -1.359375 C 0.226562 -2.117188 -0.015625 -3.109375 -0.015625 -4.328125 C -0.015625 -6.234375 0.53125 -7.921875 1.625 -9.390625 C 2.820312 -10.992188 4.34375 -11.796875 6.1875 -11.796875 C 6.875 -11.796875 7.488281 -11.554688 8.03125 -11.078125 C 8.582031 -10.609375 8.859375 -10.03125 8.859375 -9.34375 Z M 6.921875 -8.75 C 6.921875 -9.132812 6.773438 -9.460938 6.484375 -9.734375 C 6.203125 -10.003906 5.867188 -10.140625 5.484375 -10.140625 C 4.992188 -10.140625 4.503906 -9.875 4.015625 -9.34375 C 3.535156 -8.8125 3.296875 -8.296875 3.296875 -7.796875 C 3.296875 -7.578125 3.421875 -7.382812 3.671875 -7.21875 C 3.898438 -7.0625 4.132812 -6.984375 4.375 -6.984375 C 4.875 -6.984375 5.410156 -7.148438 5.984375 -7.484375 C 6.609375 -7.859375 6.921875 -8.28125 6.921875 -8.75 Z M 6.921875 -8.75 "/></g></g></g><g fill="#000000" fill-opacity="1"><g transform="translate(62.71122, 52.037444)"><g><path d="M 10.234375 -10.765625 C 10.234375 -10.316406 10.125 -9.867188 9.90625 -9.421875 C 9.65625 -8.867188 9.328125 -8.59375 8.921875 -8.59375 C 8.710938 -8.59375 8.484375 -8.785156 8.234375 -9.171875 C 7.992188 -9.554688 7.773438 -9.75 7.578125 -9.75 C 7.003906 -9.75 6.082031 -8.679688 4.8125 -6.546875 C 4.351562 -5.773438 4.003906 -5.03125 3.765625 -4.3125 L 2.5 -0.453125 C 2.394531 -0.148438 2.035156 0 1.421875 0 C 1.148438 0 0.914062 -0.125 0.71875 -0.375 C 0.53125 -0.632812 0.4375 -0.90625 0.4375 -1.1875 C 0.4375 -1.53125 0.59375 -2.125 0.90625 -2.96875 C 1.28125 -3.976562 1.65625 -4.984375 2.03125 -5.984375 C 2.519531 -7.378906 2.765625 -8.367188 2.765625 -8.953125 C 2.765625 -9.734375 2.609375 -10.125 2.296875 -10.125 C 2.203125 -10.125 2.070312 -10.085938 1.90625 -10.015625 C 1.75 -9.941406 1.625 -9.90625 1.53125 -9.90625 C 1.3125 -9.90625 1.203125 -10.019531 1.203125 -10.25 C 1.203125 -10.632812 1.429688 -11 1.890625 -11.34375 C 2.316406 -11.644531 2.726562 -11.796875 3.125 -11.796875 C 3.875 -11.796875 4.25 -11.460938 4.25 -10.796875 C 4.25 -10.554688 4.1875 -10.203125 4.0625 -9.734375 C 3.945312 -9.265625 3.890625 -8.910156 3.890625 -8.671875 C 3.890625 -8.222656 4.023438 -8 4.296875 -8 C 4.472656 -8 4.8125 -8.328125 5.3125 -8.984375 C 5.96875 -9.859375 6.488281 -10.46875 6.875 -10.8125 C 7.59375 -11.46875 8.316406 -11.796875 9.046875 -11.796875 C 9.835938 -11.796875 10.234375 -11.453125 10.234375 -10.765625 Z M 10.234375 -10.765625 "/></g></g></g><g fill="#000000" fill-opacity="1"><g transform="translate(73.860392, 52.037444)"><g><path d="M 7.703125 -9.734375 C 7.703125 -8.878906 7.554688 -8.453125 7.265625 -8.453125 C 7.117188 -8.453125 6.753906 -8.710938 6.171875 -9.234375 C 5.597656 -9.765625 5.097656 -10.03125 4.671875 -10.03125 C 4.210938 -10.03125 3.820312 -9.847656 3.5 -9.484375 C 3.1875 -9.117188 3.03125 -8.703125 3.03125 -8.234375 C 3.03125 -7.847656 3.375 -7.34375 4.0625 -6.71875 C 5.320312 -5.59375 5.960938 -5.015625 5.984375 -4.984375 C 6.671875 -4.242188 7.015625 -3.535156 7.015625 -2.859375 C 7.015625 -2.003906 6.671875 -1.300781 5.984375 -0.75 C 5.359375 -0.25 4.609375 0 3.734375 0 C 3.003906 0 2.3125 -0.144531 1.65625 -0.4375 C 0.832031 -0.8125 0.421875 -1.316406 0.421875 -1.953125 C 0.421875 -2.921875 0.578125 -3.40625 0.890625 -3.40625 C 0.898438 -3.40625 0.925781 -3.398438 0.96875 -3.390625 C 1.988281 -2.453125 2.863281 -1.984375 3.59375 -1.984375 C 4.445312 -1.984375 4.875 -2.363281 4.875 -3.125 C 4.875 -3.4375 4.625 -3.84375 4.125 -4.34375 C 3.34375 -5.125 2.867188 -5.617188 2.703125 -5.828125 C 2.203125 -6.492188 1.953125 -7.1875 1.953125 -7.90625 C 1.953125 -8.914062 2.226562 -9.796875 2.78125 -10.546875 C 3.394531 -11.378906 4.1875 -11.796875 5.15625 -11.796875 C 5.507812 -11.796875 5.945312 -11.691406 6.46875 -11.484375 C 7.039062 -11.242188 7.398438 -10.988281 7.546875 -10.71875 C 7.648438 -10.53125 7.703125 -10.203125 7.703125 -9.734375 Z M 7.703125 -9.734375 "/></g></g></g><g fill="#000000" fill-opacity="1"><g transform="translate(83.638458, 52.037444)"><g><path d="M 16.796875 -23.390625 C 16.796875 -23.191406 16.660156 -22.882812 16.390625 -22.46875 C 16.003906 -21.914062 15.800781 -21.613281 15.78125 -21.5625 C 15.59375 -21.164062 15.40625 -20.59375 15.21875 -19.84375 C 15.019531 -19 14.691406 -17.722656 14.234375 -16.015625 L 11.125 -4.421875 C 11.03125 -4.085938 10.984375 -3.816406 10.984375 -3.609375 C 10.984375 -3.015625 11.359375 -2.71875 12.109375 -2.71875 C 12.179688 -2.71875 12.34375 -2.773438 12.59375 -2.890625 C 12.84375 -3.015625 13.035156 -3.078125 13.171875 -3.078125 C 13.367188 -3.078125 13.46875 -2.957031 13.46875 -2.71875 C 13.46875 -2.101562 12.992188 -1.5 12.046875 -0.90625 C 11.191406 -0.351562 10.4375 -0.078125 9.78125 -0.078125 C 8.8125 -0.078125 8.328125 -0.453125 8.328125 -1.203125 C 8.328125 -1.597656 8.453125 -2.160156 8.703125 -2.890625 C 8.960938 -3.617188 9.09375 -4.179688 9.09375 -4.578125 C 9.09375 -4.742188 9.035156 -4.828125 8.921875 -4.828125 C 8.910156 -4.828125 8.890625 -4.820312 8.859375 -4.8125 C 8.285156 -3.800781 7.601562 -2.832031 6.8125 -1.90625 C 5.726562 -0.632812 4.828125 0 4.109375 0 C 2.984375 0 2.113281 -0.503906 1.5 -1.515625 C 0.957031 -2.378906 0.6875 -3.40625 0.6875 -4.59375 C 0.6875 -6.289062 1.300781 -7.894531 2.53125 -9.40625 C 3.832031 -11 5.316406 -11.796875 6.984375 -11.796875 C 7.265625 -11.796875 7.6875 -11.785156 8.25 -11.765625 C 8.820312 -11.753906 9.25 -11.75 9.53125 -11.75 C 10.375 -11.75 10.984375 -12.015625 11.359375 -12.546875 C 11.410156 -12.628906 11.78125 -13.929688 12.46875 -16.453125 C 13.15625 -18.972656 13.5 -20.304688 13.5 -20.453125 C 13.5 -20.773438 13.207031 -21.113281 12.625 -21.46875 C 12.039062 -21.820312 11.75 -22.066406 11.75 -22.203125 C 11.75 -22.535156 12.195312 -22.703125 13.09375 -22.703125 C 13.644531 -22.703125 14.722656 -23.097656 16.328125 -23.890625 C 16.640625 -23.878906 16.796875 -23.710938 16.796875 -23.390625 Z M 10.5625 -9.8125 C 10.5625 -10.25 9.914062 -10.46875 8.625 -10.46875 C 7.144531 -10.46875 5.800781 -9.8125 4.59375 -8.5 C 3.394531 -7.195312 2.796875 -5.800781 2.796875 -4.3125 C 2.796875 -3.800781 2.894531 -3.351562 3.09375 -2.96875 C 3.34375 -2.457031 3.703125 -2.203125 4.171875 -2.203125 C 4.703125 -2.203125 5.285156 -2.476562 5.921875 -3.03125 C 6.554688 -3.59375 7.457031 -4.679688 8.625 -6.296875 C 9.914062 -8.066406 10.5625 -9.238281 10.5625 -9.8125 Z M 10.5625 -9.8125 "/></g></g></g><g fill="#000000" fill-opacity="1"><g transform="translate(99.353412, 52.037444)"><g><path d="M 11.90625 -3.984375 C 11.90625 -3.390625 11.421875 -2.585938 10.453125 -1.578125 C 9.484375 -0.566406 8.703125 -0.0625 8.109375 -0.0625 C 7.191406 -0.0625 6.734375 -0.566406 6.734375 -1.578125 C 6.734375 -1.785156 6.769531 -2.09375 6.84375 -2.5 C 6.925781 -2.914062 6.96875 -3.226562 6.96875 -3.4375 C 6.96875 -3.6875 6.894531 -3.8125 6.75 -3.8125 C 6.675781 -3.8125 6 -3.175781 4.71875 -1.90625 C 3.445312 -0.632812 2.5 0 1.875 0 C 1.351562 0 0.9375 -0.203125 0.625 -0.609375 C 0.332031 -0.984375 0.1875 -1.4375 0.1875 -1.96875 C 0.1875 -3.65625 0.988281 -5.554688 2.59375 -7.671875 C 4.300781 -9.953125 6.101562 -11.28125 8 -11.65625 C 8.394531 -11.71875 8.976562 -11.828125 9.75 -11.984375 C 10.40625 -12.429688 10.769531 -12.65625 10.84375 -12.65625 C 11.113281 -12.65625 11.25 -12.492188 11.25 -12.171875 C 11.25 -12.003906 11.203125 -11.804688 11.109375 -11.578125 L 9.453125 -7.359375 C 8.753906 -5.554688 8.40625 -4.242188 8.40625 -3.421875 C 8.40625 -2.703125 8.707031 -2.34375 9.3125 -2.34375 C 9.550781 -2.34375 9.972656 -2.671875 10.578125 -3.328125 C 11.191406 -3.984375 11.5625 -4.3125 11.6875 -4.3125 C 11.832031 -4.3125 11.90625 -4.203125 11.90625 -3.984375 Z M 8.515625 -9.3125 C 8.515625 -9.644531 8.222656 -9.8125 7.640625 -9.8125 L 7.453125 -9.8125 C 6.390625 -9.8125 5.195312 -9.019531 3.875 -7.4375 C 2.59375 -5.894531 1.953125 -4.578125 1.953125 -3.484375 C 1.953125 -2.742188 2.222656 -2.375 2.765625 -2.375 C 3.722656 -2.375 4.929688 -3.289062 6.390625 -5.125 C 7.804688 -6.90625 8.515625 -8.300781 8.515625 -9.3125 Z M 8.515625 -9.3125 "/></g></g></g><g fill="#000000" fill-opacity="1"><g transform="translate(113.135101, 52.037444)"><g><path d="M 9.5625 -9.921875 C 9.5625 -7.378906 8.8125 -4.765625 7.3125 -2.078125 C 5.882812 0.453125 4.097656 2.535156 1.953125 4.171875 C -0.128906 5.765625 -2.550781 6.5625 -5.3125 6.5625 C -5.9375 6.5625 -6.566406 6.398438 -7.203125 6.078125 C -7.953125 5.691406 -8.328125 5.210938 -8.328125 4.640625 C -8.328125 4.335938 -8.109375 4.1875 -7.671875 4.1875 L -7.59375 4.1875 C -6.820312 4.75 -6.359375 5.070312 -6.203125 5.15625 C -5.609375 5.5 -5.078125 5.671875 -4.609375 5.671875 C -1.921875 5.671875 0.5 3.910156 2.65625 0.390625 C 3.457031 -0.921875 3.859375 -2.3125 3.859375 -3.78125 C 3.859375 -4.488281 3.769531 -5.367188 3.59375 -6.421875 C 3.382812 -7.640625 3.140625 -8.453125 2.859375 -8.859375 C 2.847656 -8.867188 2.5625 -9.160156 2 -9.734375 C 1.71875 -10.015625 1.578125 -10.40625 1.578125 -10.90625 C 1.578125 -11.5 1.972656 -11.796875 2.765625 -11.796875 C 3.304688 -11.796875 3.75 -11.492188 4.09375 -10.890625 C 4.28125 -10.554688 4.539062 -9.226562 4.875 -6.90625 C 5.1875 -4.851562 5.546875 -3.742188 5.953125 -3.578125 C 6.554688 -3.660156 7.070312 -4.53125 7.5 -6.1875 C 7.832031 -7.488281 8 -8.601562 8 -9.53125 C 8 -9.695312 7.972656 -9.957031 7.921875 -10.3125 C 7.878906 -10.664062 7.859375 -10.929688 7.859375 -11.109375 C 7.859375 -11.566406 8.09375 -11.796875 8.5625 -11.796875 C 9.226562 -11.796875 9.5625 -11.171875 9.5625 -9.921875 Z M 9.5625 -9.921875 "/></g></g></g></g></g><g transform="matrix(1, 0, 0, 1, 97, 35)"><g clip-path="url(#4b4669d9e4)"><g clip-path="url(#79db9aaedc)"><g fill="#000000" fill-opacity="1"><g transform="translate(0.194568, 9.264762)"><g><path d="M 1.546875 -0.5625 C 1.546875 -0.382812 1.488281 -0.234375 1.375 -0.109375 C 1.257812 0.0234375 1.113281 0.09375 0.9375 0.09375 C 0.625 0.09375 0.46875 -0.0703125 0.46875 -0.40625 C 0.46875 -0.59375 0.523438 -0.75 0.640625 -0.875 C 0.753906 -1.007812 0.90625 -1.078125 1.09375 -1.078125 C 1.394531 -1.078125 1.546875 -0.90625 1.546875 -0.5625 Z M 1.546875 -0.5625 "/></g></g></g></g></g></g></svg>