<svg xmlns="http://www.w3.org/2000/svg" xmlns:xlink="http://www.w3.org/1999/xlink" width="415" zoomAndPan="magnify" viewBox="0 0 311.25 123.749996" height="165" preserveAspectRatio="xMidYMid meet" version="1.0"><defs><g/><clipPath id="d7b0549f9d"><path d="M 0.476562 61 L 175.734375 61 L 175.734375 96.835938 L 0.476562 96.835938 Z M 0.476562 61 " clip-rule="nonzero"/></clipPath><clipPath id="cbfcaaf949"><path d="M 175 26 L 175.734375 26 L 175.734375 27 L 175 27 Z M 175 26 " clip-rule="nonzero"/></clipPath><clipPath id="44e4c1be87"><rect x="0" width="176" y="0" height="36"/></clipPath><clipPath id="6de1ff39c1"><path d="M 10 0.109375 L 166 0.109375 L 166 50 L 10 50 Z M 10 0.109375 " clip-rule="nonzero"/></clipPath><clipPath id="e895f750cc"><path d="M 33 0.109375 L 64 0.109375 L 64 37 L 33 37 Z M 33 0.109375 " clip-rule="nonzero"/></clipPath><clipPath id="d1fca24c9d"><rect x="0" width="156" y="0" height="50"/></clipPath><clipPath id="37ca7640ab"><rect x="0" width="176" y="0" height="97"/></clipPath><clipPath id="0bddd22f28"><rect x="0" width="4" y="0" height="12"/></clipPath></defs><g transform="matrix(1, 0, 0, 1, 68, 15)"><g clip-path="url(#37ca7640ab)"><g clip-path="url(#d7b0549f9d)"><g transform="matrix(1, 0, 0, 1, 0, 61)"><g clip-path="url(#44e4c1be87)"><g fill="#000000" fill-opacity="1"><g transform="translate(0.613398, 26.771782)"><g><path d="M 2.78125 0 L 2.78125 -24.84375 L 12.59375 -24.84375 C 14.070312 -24.84375 15.34375 -24.515625 16.40625 -23.859375 C 17.46875 -23.210938 18.28125 -22.320312 18.84375 -21.1875 C 19.414062 -20.0625 19.679688 -18.769531 19.640625 -17.3125 C 19.609375 -16.382812 19.410156 -15.46875 19.046875 -14.5625 C 18.691406 -13.664062 18.125 -12.953125 17.34375 -12.421875 C 18.15625 -11.859375 18.785156 -11.132812 19.234375 -10.25 C 19.679688 -9.363281 19.90625 -8.429688 19.90625 -7.453125 C 19.90625 -6.066406 19.578125 -4.8125 18.921875 -3.6875 C 18.265625 -2.570312 17.378906 -1.675781 16.265625 -1 C 15.160156 -0.332031 13.9375 0 12.59375 0 Z M 7.765625 -19.875 L 7.765625 -14.875 L 12.171875 -14.875 C 12.890625 -14.875 13.453125 -15.125 13.859375 -15.625 C 14.265625 -16.125 14.46875 -16.707031 14.46875 -17.375 C 14.46875 -18.070312 14.265625 -18.660156 13.859375 -19.140625 C 13.453125 -19.628906 12.890625 -19.875 12.171875 -19.875 Z M 7.765625 -9.921875 L 7.765625 -4.953125 L 12.171875 -4.953125 C 12.890625 -4.953125 13.484375 -5.195312 13.953125 -5.6875 C 14.429688 -6.175781 14.671875 -6.765625 14.671875 -7.453125 C 14.671875 -8.148438 14.429688 -8.734375 13.953125 -9.203125 C 13.484375 -9.679688 12.890625 -9.921875 12.171875 -9.921875 Z M 7.765625 -9.921875 "/></g></g></g><g fill="#000000" fill-opacity="1"><g transform="translate(23.888174, 26.771782)"><g><path d="M 7.734375 0 L 2.78125 0 L 2.78125 -24.796875 L 7.734375 -24.796875 Z M 7.734375 0 "/></g></g></g><g fill="#000000" fill-opacity="1"><g transform="translate(36.167528, 26.771782)"><g><path d="M 15.125 0 L 10.125 -9.46875 L 7.734375 -9.46875 L 7.734375 0 L 2.78125 0 L 2.78125 -24.796875 L 12.5625 -24.796875 C 14.039062 -24.796875 15.289062 -24.488281 16.3125 -23.875 C 17.34375 -23.269531 18.144531 -22.472656 18.71875 -21.484375 C 19.300781 -20.503906 19.660156 -19.441406 19.796875 -18.296875 C 19.941406 -17.148438 19.859375 -16.023438 19.546875 -14.921875 C 19.234375 -13.828125 18.703125 -12.859375 17.953125 -12.015625 C 17.203125 -11.171875 16.210938 -10.578125 14.984375 -10.234375 L 20.75 0 Z M 7.734375 -14.296875 L 12.109375 -14.296875 C 12.773438 -14.296875 13.3125 -14.476562 13.71875 -14.84375 C 14.125 -15.21875 14.394531 -15.679688 14.53125 -16.234375 C 14.675781 -16.785156 14.675781 -17.335938 14.53125 -17.890625 C 14.394531 -18.453125 14.125 -18.914062 13.71875 -19.28125 C 13.3125 -19.65625 12.773438 -19.84375 12.109375 -19.84375 L 7.734375 -19.84375 Z M 7.734375 -14.296875 "/></g></g></g><g fill="#000000" fill-opacity="1"><g transform="translate(59.164823, 26.771782)"><g><path d="M 11.828125 0 L 6.875 0 L 6.875 -19.84375 L 0.6875 -19.84375 L 0.6875 -24.765625 L 18 -24.765625 L 18 -19.84375 L 11.828125 -19.84375 Z M 11.828125 0 "/></g></g></g><g fill="#000000" fill-opacity="1"><g transform="translate(79.872843, 26.771782)"><g><path d="M 20.125 0 L 15.15625 0 L 15.15625 -9.921875 L 7.734375 -9.921875 L 7.734375 0 L 2.78125 0 L 2.78125 -24.796875 L 7.734375 -24.796875 L 7.734375 -14.875 L 15.15625 -14.875 L 15.15625 -24.796875 L 20.125 -24.796875 Z M 20.125 0 "/></g></g></g><g fill="#000000" fill-opacity="1"><g transform="translate(104.535053, 26.771782)"><g><path d="M 10.15625 -24.796875 C 12.21875 -24.796875 14.023438 -24.445312 15.578125 -23.75 C 17.128906 -23.0625 18.414062 -22.128906 19.4375 -20.953125 C 20.46875 -19.773438 21.242188 -18.445312 21.765625 -16.96875 C 22.285156 -15.488281 22.546875 -13.96875 22.546875 -12.40625 C 22.546875 -10.84375 22.285156 -9.320312 21.765625 -7.84375 C 21.242188 -6.363281 20.46875 -5.03125 19.4375 -3.84375 C 18.414062 -2.664062 17.128906 -1.726562 15.578125 -1.03125 C 14.023438 -0.34375 12.21875 0 10.15625 0 L 2.78125 0 L 2.78125 -24.796875 Z M 10.15625 -19.84375 L 7.734375 -19.84375 L 7.734375 -4.953125 L 10.15625 -4.953125 C 11.550781 -4.953125 12.738281 -5.21875 13.71875 -5.75 C 14.695312 -6.289062 15.484375 -7.003906 16.078125 -7.890625 C 16.671875 -8.785156 17.0625 -9.765625 17.25 -10.828125 C 17.445312 -11.890625 17.445312 -12.945312 17.25 -14 C 17.0625 -15.050781 16.671875 -16.019531 16.078125 -16.90625 C 15.484375 -17.800781 14.695312 -18.515625 13.71875 -19.046875 C 12.738281 -19.578125 11.550781 -19.84375 10.15625 -19.84375 Z M 10.15625 -19.84375 "/></g></g></g><g fill="#000000" fill-opacity="1"><g transform="translate(129.890797, 26.771782)"><g><path d="M 0.5625 0 L 11 -25.703125 L 11.515625 -25.703125 L 21.953125 0 L 16.375 0 L 15.359375 -2.671875 L 7.140625 -2.671875 L 6.171875 0 Z M 8.953125 -7.3125 L 13.53125 -7.3125 L 11.28125 -13.765625 Z M 8.953125 -7.3125 "/></g></g></g><g fill="#000000" fill-opacity="1"><g transform="translate(151.291849, 26.771782)"><g><path d="M 8.84375 0 L 8.84375 -11.171875 L 0.203125 -24.796875 L 6.25 -24.796875 L 11.3125 -16.265625 L 16.375 -24.796875 L 22.4375 -24.796875 L 13.765625 -11.171875 L 13.765625 0 Z M 8.84375 0 "/></g></g></g><g clip-path="url(#cbfcaaf949)"><g fill="#000000" fill-opacity="1"><g transform="translate(175.539514, 26.771782)"><g/></g></g></g></g></g></g><g clip-path="url(#6de1ff39c1)"><g transform="matrix(1, 0, 0, 1, 10, -0.000000000000012434)"><g clip-path="url(#d1fca24c9d)"><g fill="#000000" fill-opacity="1"><g transform="translate(0.2558, 36.889936)"><g><path d="M 28.171875 0 L 21.234375 0 L 21.234375 -13.890625 L 10.828125 -13.890625 L 10.828125 0 L 3.890625 0 L 3.890625 -34.734375 L 10.828125 -34.734375 L 10.828125 -20.84375 L 21.234375 -20.84375 L 21.234375 -34.734375 L 28.171875 -34.734375 Z M 28.171875 0 "/></g></g></g><g clip-path="url(#e895f750cc)"><g fill="#000000" fill-opacity="1"><g transform="translate(32.355775, 36.889936)"><g><path d="M 0.78125 0 L 15.40625 -36 L 16.125 -36 L 30.75 0 L 22.921875 0 L 21.515625 -3.734375 L 10 -3.734375 L 8.640625 0 Z M 12.53125 -10.25 L 18.953125 -10.25 L 15.78125 -19.28125 Z M 12.53125 -10.25 "/></g></g></g></g><g fill="#000000" fill-opacity="1"><g transform="translate(64.067243, 36.889936)"><g><path d="M 10.828125 0 L 3.890625 0 L 3.890625 -34.6875 L 17.53125 -34.6875 C 19.476562 -34.6875 21.140625 -34.296875 22.515625 -33.515625 C 23.890625 -32.742188 24.984375 -31.722656 25.796875 -30.453125 C 26.609375 -29.191406 27.148438 -27.789062 27.421875 -26.25 C 27.691406 -24.71875 27.691406 -23.1875 27.421875 -21.65625 C 27.148438 -20.132812 26.597656 -18.742188 25.765625 -17.484375 C 24.941406 -16.222656 23.84375 -15.203125 22.46875 -14.421875 C 21.09375 -13.648438 19.445312 -13.265625 17.53125 -13.265625 L 10.828125 -13.265625 Z M 10.828125 -20.015625 L 16.953125 -20.015625 C 17.890625 -20.015625 18.632812 -20.269531 19.1875 -20.78125 C 19.738281 -21.300781 20.109375 -21.953125 20.296875 -22.734375 C 20.492188 -23.515625 20.492188 -24.289062 20.296875 -25.0625 C 20.109375 -25.84375 19.738281 -26.488281 19.1875 -27 C 18.632812 -27.519531 17.890625 -27.78125 16.953125 -27.78125 L 10.828125 -27.78125 Z M 10.828125 -20.015625 "/></g></g></g><g fill="#000000" fill-opacity="1"><g transform="translate(93.350576, 36.889936)"><g><path d="M 10.828125 0 L 3.890625 0 L 3.890625 -34.6875 L 17.53125 -34.6875 C 19.476562 -34.6875 21.140625 -34.296875 22.515625 -33.515625 C 23.890625 -32.742188 24.984375 -31.722656 25.796875 -30.453125 C 26.609375 -29.191406 27.148438 -27.789062 27.421875 -26.25 C 27.691406 -24.71875 27.691406 -23.1875 27.421875 -21.65625 C 27.148438 -20.132812 26.597656 -18.742188 25.765625 -17.484375 C 24.941406 -16.222656 23.84375 -15.203125 22.46875 -14.421875 C 21.09375 -13.648438 19.445312 -13.265625 17.53125 -13.265625 L 10.828125 -13.265625 Z M 10.828125 -20.015625 L 16.953125 -20.015625 C 17.890625 -20.015625 18.632812 -20.269531 19.1875 -20.78125 C 19.738281 -21.300781 20.109375 -21.953125 20.296875 -22.734375 C 20.492188 -23.515625 20.492188 -24.289062 20.296875 -25.0625 C 20.109375 -25.84375 19.738281 -26.488281 19.1875 -27 C 18.632812 -27.519531 17.890625 -27.78125 16.953125 -27.78125 L 10.828125 -27.78125 Z M 10.828125 -20.015625 "/></g></g></g><g fill="#000000" fill-opacity="1"><g transform="translate(122.633909, 36.889936)"><g><path d="M 12.390625 0 L 12.390625 -15.640625 L 0.296875 -34.734375 L 8.75 -34.734375 L 15.84375 -22.78125 L 22.921875 -34.734375 L 31.4375 -34.734375 L 19.28125 -15.640625 L 19.28125 0 Z M 12.390625 0 "/></g></g></g><g fill="#000000" fill-opacity="1"><g transform="translate(154.162254, 36.889936)"><g/></g></g></g></g></g></g></g><g transform="matrix(1, 0, 0, 1, 71, 57)"><g clip-path="url(#0bddd22f28)"><g fill="#000000" fill-opacity="1"><g transform="translate(0.770989, 8.768688)"><g><path d="M 1.546875 -0.5625 C 1.546875 -0.382812 1.492188 -0.234375 1.390625 -0.109375 C 1.273438 0.0234375 1.125 0.09375 0.9375 0.09375 C 0.625 0.09375 0.46875 -0.0703125 0.46875 -0.40625 C 0.46875 -0.59375 0.523438 -0.75 0.640625 -0.875 C 0.753906 -1.007812 0.90625 -1.078125 1.09375 -1.078125 C 1.394531 -1.078125 1.546875 -0.90625 1.546875 -0.5625 Z M 1.546875 -0.5625 "/></g></g></g></g></g></svg>