<svg xmlns="http://www.w3.org/2000/svg" xmlns:xlink="http://www.w3.org/1999/xlink" width="168" zoomAndPan="magnify" viewBox="0 0 126 47.25" height="63" preserveAspectRatio="xMidYMid meet" version="1.0"><defs><g/><clipPath id="bfab0a9233"><rect x="0" width="88" y="0" height="37"/></clipPath><clipPath id="b005e940d7"><path d="M 0.457031 7 L 3 7 L 3 10 L 0.457031 10 Z M 0.457031 7 " clip-rule="nonzero"/></clipPath><clipPath id="0e7bb66e73"><rect x="0" width="4" y="0" height="13"/></clipPath></defs><g transform="matrix(1, 0, 0, 1, 19, 5)"><g clip-path="url(#bfab0a9233)"><g fill="#000000" fill-opacity="1"><g transform="translate(1.402211, 26.307675)"><g><path d="M 18.703125 -9.9375 C 18.703125 -9 18.171875 -7.644531 17.109375 -5.875 C 16.046875 -4.113281 15.515625 -2.945312 15.515625 -2.375 C 15.515625 -1.96875 15.691406 -1.765625 16.046875 -1.765625 C 16.210938 -1.765625 16.519531 -1.929688 16.96875 -2.265625 C 17.425781 -2.597656 17.726562 -2.765625 17.875 -2.765625 C 18.175781 -2.765625 18.328125 -2.625 18.328125 -2.34375 C 18.328125 -1.914062 17.859375 -1.410156 16.921875 -0.828125 C 16.035156 -0.273438 15.359375 0 14.890625 0 C 14.304688 0 13.882812 -0.0859375 13.625 -0.265625 C 13.3125 -0.472656 13.15625 -0.867188 13.15625 -1.453125 C 13.15625 -1.847656 13.707031 -3.015625 14.8125 -4.953125 C 15.925781 -6.898438 16.484375 -8.179688 16.484375 -8.796875 C 16.484375 -9.179688 16.238281 -9.375 15.75 -9.375 C 15.425781 -9.375 14.71875 -8.765625 13.625 -7.546875 C 12.726562 -6.535156 12.082031 -5.734375 11.6875 -5.140625 C 11.09375 -4.148438 10.507812 -3.160156 9.9375 -2.171875 C 9.039062 -0.828125 8.238281 -0.15625 7.53125 -0.15625 C 7.019531 -0.15625 6.765625 -0.46875 6.765625 -1.09375 C 6.765625 -1.925781 7.222656 -3.222656 8.140625 -4.984375 C 9.066406 -6.742188 9.53125 -8.054688 9.53125 -8.921875 C 9.53125 -9.441406 9.351562 -9.703125 9 -9.703125 C 8.1875 -9.703125 6.960938 -8.441406 5.328125 -5.921875 C 4.304688 -4.242188 3.289062 -2.566406 2.28125 -0.890625 C 1.882812 -0.296875 1.421875 0 0.890625 0 C 0.378906 0 0.125 -0.3125 0.125 -0.9375 C 0.125 -1.25 0.34375 -1.921875 0.78125 -2.953125 L 2.109375 -6 C 2.546875 -7.019531 2.765625 -7.882812 2.765625 -8.59375 C 2.765625 -9.375 2.523438 -9.757812 2.046875 -9.75 C 1.773438 -9.4375 1.328125 -9.015625 0.703125 -8.484375 C 0.523438 -8.441406 0.382812 -8.421875 0.28125 -8.421875 C 0.0078125 -8.421875 -0.125 -8.515625 -0.125 -8.703125 C -0.125 -9.160156 0.414062 -9.785156 1.5 -10.578125 C 2.539062 -11.328125 3.304688 -11.703125 3.796875 -11.703125 C 4.390625 -11.703125 4.6875 -11.445312 4.6875 -10.9375 C 4.6875 -10.507812 4.546875 -9.890625 4.265625 -9.078125 C 3.992188 -8.273438 3.859375 -7.660156 3.859375 -7.234375 C 3.859375 -6.804688 3.992188 -6.601562 4.265625 -6.625 C 4.929688 -7.3125 5.9375 -8.328125 7.28125 -9.671875 C 8.664062 -11.023438 9.867188 -11.703125 10.890625 -11.703125 C 11.097656 -11.703125 11.300781 -11.632812 11.5 -11.5 C 11.695312 -11.375 11.796875 -11.21875 11.796875 -11.03125 C 11.796875 -10.6875 11.59375 -10.097656 11.1875 -9.265625 C 10.789062 -8.429688 10.59375 -7.75 10.59375 -7.21875 C 10.59375 -7.070312 10.644531 -6.925781 10.75 -6.78125 C 10.863281 -6.632812 10.988281 -6.5625 11.125 -6.5625 C 11.550781 -6.5625 11.957031 -6.820312 12.34375 -7.34375 C 12.445312 -7.5 12.613281 -7.742188 12.84375 -8.078125 C 13.363281 -8.804688 14.054688 -9.546875 14.921875 -10.296875 C 15.984375 -11.234375 16.828125 -11.703125 17.453125 -11.703125 C 17.867188 -11.703125 18.191406 -11.5 18.421875 -11.09375 C 18.609375 -10.769531 18.703125 -10.382812 18.703125 -9.9375 Z M 18.703125 -9.9375 "/></g></g></g><g fill="#000000" fill-opacity="1"><g transform="translate(21.624166, 26.307675)"><g><path d="M 9.890625 -8.015625 C 9.890625 -6.242188 9.296875 -4.503906 8.109375 -2.796875 C 6.804688 -0.929688 5.304688 0 3.609375 0 C 2.515625 0 1.675781 -0.378906 1.09375 -1.140625 C 0.570312 -1.828125 0.3125 -2.734375 0.3125 -3.859375 C 0.3125 -5.722656 0.878906 -7.453125 2.015625 -9.046875 C 3.265625 -10.816406 4.785156 -11.703125 6.578125 -11.703125 C 8.785156 -11.703125 9.890625 -10.472656 9.890625 -8.015625 Z M 8.03125 -8.046875 C 8.03125 -9.390625 7.492188 -10.0625 6.421875 -10.0625 C 5.304688 -10.0625 4.273438 -9.25 3.328125 -7.625 C 2.472656 -6.164062 2.046875 -4.832031 2.046875 -3.625 C 2.046875 -2.445312 2.628906 -1.859375 3.796875 -1.859375 C 5.003906 -1.859375 6.039062 -2.609375 6.90625 -4.109375 C 7.65625 -5.429688 8.03125 -6.742188 8.03125 -8.046875 Z M 8.03125 -8.046875 "/></g></g></g><g fill="#000000" fill-opacity="1"><g transform="translate(32.918388, 26.307675)"><g><path d="M 11.421875 -2.828125 C 11.421875 -2.242188 10.96875 -1.632812 10.0625 -1 C 9.195312 -0.40625 8.460938 -0.109375 7.859375 -0.109375 C 6.929688 -0.109375 6.46875 -0.535156 6.46875 -1.390625 C 6.46875 -2.222656 6.945312 -3.476562 7.90625 -5.15625 C 8.875 -6.832031 9.359375 -8.070312 9.359375 -8.875 C 9.359375 -9.351562 9.234375 -9.59375 8.984375 -9.59375 C 8.097656 -9.59375 6.597656 -7.867188 4.484375 -4.421875 C 4.222656 -4.015625 3.847656 -3.394531 3.359375 -2.5625 C 3.203125 -2.207031 2.941406 -1.671875 2.578125 -0.953125 C 2.210938 -0.316406 1.8125 0 1.375 0 C 0.59375 0 0.203125 -0.4375 0.203125 -1.3125 C 0.203125 -1.875 0.429688 -2.628906 0.890625 -3.578125 C 1.546875 -4.941406 1.890625 -5.675781 1.921875 -5.78125 L 2.28125 -6.78125 C 2.601562 -7.664062 2.765625 -8.285156 2.765625 -8.640625 C 2.765625 -9.378906 2.628906 -9.75 2.359375 -9.75 C 2.148438 -9.75 1.851562 -9.554688 1.46875 -9.171875 C 1.082031 -8.785156 0.789062 -8.59375 0.59375 -8.59375 C 0.332031 -8.59375 0.203125 -8.703125 0.203125 -8.921875 C 0.203125 -9.472656 0.660156 -10.082031 1.578125 -10.75 C 2.441406 -11.382812 3.160156 -11.703125 3.734375 -11.703125 C 4.273438 -11.703125 4.546875 -11.46875 4.546875 -11 C 4.546875 -10.550781 4.414062 -9.90625 4.15625 -9.0625 C 3.894531 -8.21875 3.765625 -7.578125 3.765625 -7.140625 C 3.765625 -6.679688 3.878906 -6.453125 4.109375 -6.453125 C 4.378906 -6.453125 4.859375 -6.90625 5.546875 -7.8125 C 6.535156 -9.125 7.210938 -9.96875 7.578125 -10.34375 C 8.460938 -11.25 9.285156 -11.703125 10.046875 -11.703125 C 10.472656 -11.703125 10.804688 -11.539062 11.046875 -11.21875 C 11.296875 -10.894531 11.421875 -10.515625 11.421875 -10.078125 C 11.421875 -9.242188 10.96875 -7.898438 10.0625 -6.046875 C 9.144531 -4.148438 8.6875 -2.988281 8.6875 -2.5625 C 8.6875 -2.207031 8.859375 -2.03125 9.203125 -2.03125 C 9.484375 -2.03125 9.832031 -2.207031 10.25 -2.5625 C 10.675781 -2.925781 10.957031 -3.109375 11.09375 -3.109375 C 11.3125 -3.109375 11.421875 -3.015625 11.421875 -2.828125 Z M 11.421875 -2.828125 "/></g></g></g><g fill="#000000" fill-opacity="1"><g transform="translate(46.278082, 26.307675)"><g><path d="M 16.640625 -23.1875 C 16.640625 -22.976562 16.503906 -22.671875 16.234375 -22.265625 C 15.859375 -21.710938 15.660156 -21.414062 15.640625 -21.375 C 15.453125 -20.988281 15.265625 -20.414062 15.078125 -19.65625 C 14.878906 -18.820312 14.554688 -17.5625 14.109375 -15.875 L 11.015625 -4.390625 C 10.929688 -4.054688 10.890625 -3.785156 10.890625 -3.578125 C 10.890625 -2.984375 11.257812 -2.6875 12 -2.6875 C 12.070312 -2.6875 12.234375 -2.742188 12.484375 -2.859375 C 12.734375 -2.984375 12.925781 -3.046875 13.0625 -3.046875 C 13.25 -3.046875 13.34375 -2.925781 13.34375 -2.6875 C 13.34375 -2.082031 12.875 -1.484375 11.9375 -0.890625 C 11.09375 -0.347656 10.34375 -0.078125 9.6875 -0.078125 C 8.738281 -0.078125 8.265625 -0.453125 8.265625 -1.203125 C 8.265625 -1.585938 8.390625 -2.140625 8.640625 -2.859375 C 8.890625 -3.585938 9.015625 -4.144531 9.015625 -4.53125 C 9.015625 -4.695312 8.957031 -4.78125 8.84375 -4.78125 C 8.832031 -4.78125 8.8125 -4.773438 8.78125 -4.765625 C 8.21875 -3.765625 7.539062 -2.804688 6.75 -1.890625 C 5.675781 -0.628906 4.785156 0 4.078125 0 C 2.960938 0 2.097656 -0.503906 1.484375 -1.515625 C 0.941406 -2.359375 0.671875 -3.367188 0.671875 -4.546875 C 0.671875 -6.234375 1.285156 -7.828125 2.515625 -9.328125 C 3.796875 -10.910156 5.265625 -11.703125 6.921875 -11.703125 C 7.203125 -11.703125 7.617188 -11.691406 8.171875 -11.671875 C 8.734375 -11.648438 9.15625 -11.640625 9.4375 -11.640625 C 10.28125 -11.640625 10.882812 -11.90625 11.25 -12.4375 C 11.300781 -12.519531 11.671875 -13.8125 12.359375 -16.3125 C 13.046875 -18.8125 13.390625 -20.128906 13.390625 -20.265625 C 13.390625 -20.585938 13.097656 -20.925781 12.515625 -21.28125 C 11.929688 -21.632812 11.640625 -21.875 11.640625 -22 C 11.640625 -22.332031 12.082031 -22.5 12.96875 -22.5 C 13.519531 -22.5 14.59375 -22.890625 16.1875 -23.671875 C 16.488281 -23.660156 16.640625 -23.5 16.640625 -23.1875 Z M 10.46875 -9.734375 C 10.46875 -10.160156 9.828125 -10.375 8.546875 -10.375 C 7.078125 -10.375 5.742188 -9.726562 4.546875 -8.4375 C 3.359375 -7.144531 2.765625 -5.757812 2.765625 -4.28125 C 2.765625 -3.769531 2.867188 -3.320312 3.078125 -2.9375 C 3.316406 -2.4375 3.664062 -2.1875 4.125 -2.1875 C 4.65625 -2.1875 5.238281 -2.460938 5.875 -3.015625 C 6.507812 -3.566406 7.398438 -4.640625 8.546875 -6.234375 C 9.828125 -7.992188 10.46875 -9.160156 10.46875 -9.734375 Z M 10.46875 -9.734375 "/></g></g></g><g fill="#000000" fill-opacity="1"><g transform="translate(61.852724, 26.307675)"><g><path d="M 11.8125 -3.953125 C 11.8125 -3.367188 11.328125 -2.570312 10.359375 -1.5625 C 9.398438 -0.5625 8.628906 -0.0625 8.046875 -0.0625 C 7.128906 -0.0625 6.671875 -0.5625 6.671875 -1.5625 C 6.671875 -1.769531 6.707031 -2.078125 6.78125 -2.484375 C 6.863281 -2.890625 6.90625 -3.195312 6.90625 -3.40625 C 6.90625 -3.65625 6.832031 -3.78125 6.6875 -3.78125 C 6.613281 -3.78125 5.941406 -3.148438 4.671875 -1.890625 C 3.410156 -0.628906 2.472656 0 1.859375 0 C 1.347656 0 0.9375 -0.203125 0.625 -0.609375 C 0.332031 -0.984375 0.1875 -1.429688 0.1875 -1.953125 C 0.1875 -3.617188 0.976562 -5.503906 2.5625 -7.609375 C 4.257812 -9.867188 6.050781 -11.179688 7.9375 -11.546875 C 8.320312 -11.609375 8.894531 -11.71875 9.65625 -11.875 C 10.3125 -12.320312 10.675781 -12.546875 10.75 -12.546875 C 11.007812 -12.546875 11.140625 -12.382812 11.140625 -12.0625 C 11.140625 -11.90625 11.09375 -11.707031 11 -11.46875 L 9.375 -7.296875 C 8.675781 -5.515625 8.328125 -4.210938 8.328125 -3.390625 C 8.328125 -2.679688 8.625 -2.328125 9.21875 -2.328125 C 9.46875 -2.328125 9.894531 -2.648438 10.5 -3.296875 C 11.101562 -3.941406 11.460938 -4.265625 11.578125 -4.265625 C 11.734375 -4.265625 11.8125 -4.160156 11.8125 -3.953125 Z M 8.4375 -9.21875 C 8.4375 -9.5625 8.144531 -9.734375 7.5625 -9.734375 L 7.390625 -9.734375 C 6.328125 -9.734375 5.144531 -8.945312 3.84375 -7.375 C 2.570312 -5.84375 1.9375 -4.535156 1.9375 -3.453125 C 1.9375 -2.710938 2.207031 -2.34375 2.75 -2.34375 C 3.695312 -2.34375 4.890625 -3.253906 6.328125 -5.078125 C 7.734375 -6.847656 8.4375 -8.226562 8.4375 -9.21875 Z M 8.4375 -9.21875 "/></g></g></g><g fill="#000000" fill-opacity="1"><g transform="translate(75.511368, 26.307675)"><g><path d="M 9.484375 -9.84375 C 9.484375 -7.320312 8.738281 -4.726562 7.25 -2.0625 C 5.832031 0.445312 4.0625 2.507812 1.9375 4.125 C -0.132812 5.71875 -2.535156 6.515625 -5.265625 6.515625 C -5.890625 6.515625 -6.515625 6.347656 -7.140625 6.015625 C -7.890625 5.640625 -8.265625 5.171875 -8.265625 4.609375 C -8.265625 4.296875 -8.046875 4.140625 -7.609375 4.140625 L -7.53125 4.140625 C -6.757812 4.703125 -6.296875 5.023438 -6.140625 5.109375 C -5.554688 5.453125 -5.03125 5.625 -4.5625 5.625 C -1.90625 5.625 0.492188 3.878906 2.640625 0.390625 C 3.429688 -0.910156 3.828125 -2.289062 3.828125 -3.75 C 3.828125 -4.445312 3.738281 -5.316406 3.5625 -6.359375 C 3.351562 -7.578125 3.109375 -8.382812 2.828125 -8.78125 C 2.816406 -8.789062 2.535156 -9.078125 1.984375 -9.640625 C 1.703125 -9.921875 1.5625 -10.304688 1.5625 -10.796875 C 1.5625 -11.398438 1.957031 -11.703125 2.75 -11.703125 C 3.28125 -11.703125 3.71875 -11.394531 4.0625 -10.78125 C 4.238281 -10.457031 4.5 -9.144531 4.84375 -6.84375 C 5.144531 -4.8125 5.492188 -3.710938 5.890625 -3.546875 C 6.492188 -3.628906 7.007812 -4.488281 7.4375 -6.125 C 7.757812 -7.425781 7.921875 -8.53125 7.921875 -9.4375 C 7.921875 -9.613281 7.894531 -9.875 7.84375 -10.21875 C 7.800781 -10.570312 7.78125 -10.832031 7.78125 -11 C 7.78125 -11.46875 8.019531 -11.703125 8.5 -11.703125 C 9.15625 -11.703125 9.484375 -11.082031 9.484375 -9.84375 Z M 9.484375 -9.84375 "/></g></g></g></g></g><g transform="matrix(1, 0, 0, 1, 74, 30)"><g clip-path="url(#0e7bb66e73)"><g clip-path="url(#b005e940d7)"><g fill="#000000" fill-opacity="1"><g transform="translate(0.514136, 8.934497)"><g><path d="M 1.53125 -0.5625 C 1.53125 -0.382812 1.476562 -0.234375 1.375 -0.109375 C 1.257812 0.0234375 1.113281 0.09375 0.9375 0.09375 C 0.625 0.09375 0.46875 -0.0664062 0.46875 -0.390625 C 0.46875 -0.578125 0.519531 -0.734375 0.625 -0.859375 C 0.738281 -0.992188 0.890625 -1.0625 1.078125 -1.0625 C 1.378906 -1.0625 1.53125 -0.894531 1.53125 -0.5625 Z M 1.53125 -0.5625 "/></g></g></g></g></g></g></svg>